<?xml version="1.0" encoding="UTF-8" standalone="no"?>
<svg
   xmlns:dc="http://purl.org/dc/elements/1.1/"
   xmlns:cc="http://web.resource.org/cc/"
   xmlns:rdf="http://www.w3.org/1999/02/22-rdf-syntax-ns#"
   xmlns:svg="http://www.w3.org/2000/svg"
   xmlns="http://www.w3.org/2000/svg"
   xmlns:xlink="http://www.w3.org/1999/xlink"
   xmlns:sodipodi="http://inkscape.sourceforge.net/DTD/sodipodi-0.dtd"
   xmlns:inkscape="http://www.inkscape.org/namespaces/inkscape"
   width="600"
   height="480"
   viewBox="0 0 600 480"
   id="svg2"
   sodipodi:version="0.32"
   inkscape:version="0.42.2"
   sodipodi:docname="hyperbola-area.svg"
   sodipodi:docbase="/home/bcrowell/Documents/writing/calc/ch03/figs">
  <metadata
     id="metadata75">
    <rdf:RDF>
      <cc:Work
         rdf:about="">
        <dc:format>image/svg+xml</dc:format>
        <dc:type
           rdf:resource="http://purl.org/dc/dcmitype/StillImage" />
      </cc:Work>
    </rdf:RDF>
  </metadata>
  <sodipodi:namedview
     inkscape:cy="100.74862"
     inkscape:cx="80.819040"
     inkscape:zoom="2.1396653"
     inkscape:window-height="996"
     inkscape:window-width="1278"
     inkscape:pageshadow="2"
     inkscape:pageopacity="0.0"
     borderopacity="1.0"
     bordercolor="#666666"
     pagecolor="#ffffff"
     id="base"
     inkscape:window-x="0"
     inkscape:window-y="0"
     inkscape:current-layer="svg2" />
  <desc
     id="desc4">Produced by GNUPLOT 4.0 patchlevel 0 </desc>
  <defs
     id="defs6">
    <circle
       id="gpDot"
       r="1" />
    <path
       id="gpPt0"
       style="stroke-width:0.222"
       d="M-1,0 h2 M0,-1 v2" />
    <path
       id="gpPt1"
       style="stroke-width:0.222"
       d="M-1,-1 L1,1 M1,-1 L-1,1" />
    <path
       id="gpPt2"
       style="stroke-width:0.222"
       d="M-1,0 L1,0 M0,-1 L0,1 M-1,-1 L1,1 M-1,1 L1,-1" />
    <rect
       id="gpPt3"
       style="stroke-width:0.222"
       x="-1"
       y="-1"
       width="2"
       height="2" />
    <use
       xlink:href="#gpPt3"
       id="gpPt4"
       style="fill:currentColor; stroke:none" />
    <circle
       id="gpPt5"
       style="stroke-width:0.222"
       cx="0"
       cy="0"
       r="1" />
    <use
       xlink:href="#gpPt5"
       id="gpPt6"
       style="fill:currentColor; stroke:none" />
    <path
       id="gpPt7"
       style="stroke-width:0.222"
       d="M0,-1.33 L-1.33,0.67 L1.33,0.67 z" />
    <use
       xlink:href="#gpPt7"
       id="gpPt8"
       style="fill:currentColor; stroke:none" />
    <use
       xlink:href="#gpPt7"
       id="gpPt9"
       transform="rotate(180)" />
    <use
       xlink:href="#gpPt9"
       id="gpPt10"
       style="fill:currentColor; stroke:none" />
    <use
       xlink:href="#gpPt3"
       id="gpPt11"
       transform="rotate(45)" />
    <use
       xlink:href="#gpPt11"
       id="gpPt12"
       style="fill:currentColor; stroke:none" />
  </defs>
  <path
     style="fill:#787878;fill-opacity:1.0000000;fill-rule:evenodd;stroke:none;stroke-width:0.25000000pt;stroke-linecap:butt;stroke-linejoin:miter;stroke-opacity:1.0000000"
     d="M 63.003038,349.80501 C 73.432184,365.98461 80.717330,372.98253 83.216813,375.06219 C 87.285925,378.44783 92.807903,382.96073 95.910903,384.93537 C 99.013902,386.91001 101.05701,387.98998 101.05701,387.98998 L 101.05701,425.95038 L 63.003038,425.95038 L 63.003038,349.80501 z "
     id="path1401"
     sodipodi:nodetypes="csscccc" />
  <g
     style="fill:none; color:white; stroke:currentColor; stroke-width:0.50"
     id="g22" />
  <g
     style="fill:none; color:black; stroke:currentColor; stroke-width:0.50"
     id="g24">
    <path
       d="M25,350 L16,350 M25,350 L34,350 "
       id="path26" />
    <g
       transform="translate(17,354)"
       style="stroke:none; fill:black; font-family:Arial; font-size:12.00; text-anchor:end"
       id="g28">
      <text
         id="text30"> 1</text>
    </g>
    <path
       d="M139,426 L139,435 M139,426 L139,417 "
       id="path32" />
    <g
       transform="translate(139,448)"
       style="stroke:none; fill:black; font-family:Arial; font-size:12.00; text-anchor:middle"
       id="g34">
      <text
         id="text36"> 3</text>
    </g>
    <path
       d="M101,426 L101,435 M101,426 L101,417 "
       id="path38" />
    <g
       transform="translate(101,448)"
       style="stroke:none; fill:black; font-family:Arial; font-size:12.00; text-anchor:middle"
       id="g40">
      <text
         id="text42"> 2</text>
    </g>
    <path
       d="M63,426 L63,435 M63,426 L63,417 "
       id="path44" />
    <g
       transform="translate(63,448)"
       style="stroke:none; fill:black; font-family:Arial; font-size:12.00; text-anchor:middle"
       id="g46">
      <text
         id="text48"> 1</text>
    </g>
    <g
       transform="translate(145,430)"
       style="stroke:none; fill:black; font-family:Arial; font-size:12.00; text-anchor:start"
       id="g50">
      <text
         id="text52">t</text>
    </g>
    <g
       transform="translate(25,299)"
       style="stroke:none; fill:black; font-family:Arial; font-size:12.00; text-anchor:start"
       id="g54">
      <text
         id="text56">x</text>
    </g>
    <g
       style="stroke:none; shape-rendering:crispEdges"
       id="g58">
      <polygon
         fill="currentColor"
         points="133,426 133,423 142,426 133,429 133,426 "
         id="polygon60" />
    </g>
    <path
       d="M133,426 L133,423 L142,426 L133,429 L133,426 M25,426 L133,426 "
       id="path62" />
    <g
       style="stroke:none; shape-rendering:crispEdges"
       id="g64">
      <polygon
         fill="currentColor"
         points="25,310 22,310 25,301 28,310 25,310 "
         id="polygon66" />
    </g>
    <path
       d="M25,310 L22,310 L25,301 L28,310 L25,310 M25,426 L25,310 "
       id="path68" />
  </g>
  <g
     style="fill:none; color:black; stroke:currentColor; stroke-width:1.50"
     id="g70">
    <path
       d="M 50.000000,312.00000 C 55.191346,357.01639 93.714220,396.27119 139.00000,401.00000"
       id="path72" />
  </g>
</svg>
