<?xml version="1.0" encoding="UTF-8" standalone="no"?>
<!-- Created with Inkscape (http://www.inkscape.org/) -->
<svg
   xmlns:dc="http://purl.org/dc/elements/1.1/"
   xmlns:cc="http://web.resource.org/cc/"
   xmlns:rdf="http://www.w3.org/1999/02/22-rdf-syntax-ns#"
   xmlns:svg="http://www.w3.org/2000/svg"
   xmlns="http://www.w3.org/2000/svg"
   xmlns:sodipodi="http://inkscape.sourceforge.net/DTD/sodipodi-0.dtd"
   xmlns:inkscape="http://www.inkscape.org/namespaces/inkscape"
   width="744.09448819"
   height="1052.3622047"
   id="svg2"
   sodipodi:version="0.32"
   inkscape:version="0.42.2"
   sodipodi:docbase="/home/bcrowell/Documents/writing/calc/trunk/ch05/figs"
   sodipodi:docname="euler.svg">
  <defs
     id="defs4" />
  <sodipodi:namedview
     id="base"
     pagecolor="#ffffff"
     bordercolor="#666666"
     borderopacity="1.0"
     inkscape:pageopacity="0.0"
     inkscape:pageshadow="2"
     inkscape:zoom="3.3011881"
     inkscape:cx="176.68713"
     inkscape:cy="599.81639"
     inkscape:document-units="px"
     inkscape:current-layer="layer1"
     inkscape:window-width="1278"
     inkscape:window-height="996"
     inkscape:window-x="0"
     inkscape:window-y="0" />
  <metadata
     id="metadata7">
    <rdf:RDF>
      <cc:Work
         rdf:about="">
        <dc:format>image/svg+xml</dc:format>
        <dc:type
           rdf:resource="http://purl.org/dc/dcmitype/StillImage" />
      </cc:Work>
    </rdf:RDF>
  </metadata>
  <g
     inkscape:label="Layer 1"
     inkscape:groupmode="layer"
     id="layer1">
    <path
       sodipodi:type="arc"
       style="fill:none;fill-opacity:0.75000000;fill-rule:evenodd;stroke:#000000;stroke-width:2.1649632;stroke-linecap:butt;stroke-linejoin:miter;stroke-miterlimit:4.0000000;stroke-dasharray:none;stroke-opacity:1.0000000"
       id="path1306"
       sodipodi:cx="208.57143"
       sodipodi:cy="415.21933"
       sodipodi:rx="91.428574"
       sodipodi:ry="91.428574"
       d="M 300.00000 415.21933 A 91.428574 91.428574 0 1 1  117.14285,415.21933 A 91.428574 91.428574 0 1 1  300.00000 415.21933 z"
       transform="matrix(0.577377,0.000000,0.000000,0.577377,47.12495,213.6706)" />
    <path
       style="fill:none;fill-opacity:0.75000000;fill-rule:evenodd;stroke:#000000;stroke-width:1.2500000;stroke-linecap:butt;stroke-linejoin:miter;stroke-miterlimit:4.0000000;stroke-dasharray:none;stroke-opacity:1.0000000"
       d="M 105.69503,453.40870 L 229.40355,453.40870"
       id="path2035" />
    <path
       style="fill:none;fill-opacity:0.75000000;fill-rule:evenodd;stroke:#000000;stroke-width:1.2500000;stroke-linecap:butt;stroke-linejoin:miter;stroke-miterlimit:4.0000000;stroke-dasharray:none;stroke-opacity:1.0000000"
       d="M 167.54929,515.26296 L 167.54929,391.55444"
       id="path2037" />
    <path
       style="fill:none;fill-opacity:0.75000000;fill-rule:evenodd;stroke:#000000;stroke-width:1.2500000;stroke-linecap:butt;stroke-linejoin:miter;stroke-opacity:1.0000000;stroke-miterlimit:4.0000000;stroke-dasharray:none"
       d="M 167.42281,453.38742 L 211.24286,424.07332 L 211.24286,453.23632"
       id="path2039" />
    <path
       style="fill:#000000;fill-opacity:1.0000000;fill-rule:nonzero;stroke:none;stroke-width:1.0000000pt;stroke-linecap:butt;stroke-linejoin:miter;stroke-opacity:1.0000000"
       id="path2049"
       d="M 183.14846,445.06450 C 184.80232,444.05547 182.06269,445.76944 181.60874,446.59216 C 181.63728,447.64847 182.86379,448.44000 183.77524,448.80352 C 183.47065,449.60336 186.91559,448.15928 186.40456,448.42276 C 185.68619,448.79314 185.46888,448.98122 185.92719,448.62621 C 186.86819,447.89541 186.78986,447.31735 185.94443,446.60237 C 184.88182,445.65014 183.46724,446.49040 185.01588,445.61605 C 183.92955,446.51863 184.42588,447.98415 184.81184,449.11487 C 185.16159,449.99404 185.47247,450.88027 185.62779,451.81454 C 185.63405,451.84710 185.64031,451.87966 185.64657,451.91221 L 184.62962,452.45418 C 184.62368,452.42116 184.61772,452.38817 184.61178,452.35515 C 184.46852,451.42110 184.21068,450.51888 183.86260,449.63873 C 183.45326,448.45170 182.95131,447.05980 183.94866,446.02574 C 185.15480,445.34139 185.77786,445.07851 186.88685,446.01396 C 187.76896,446.75931 187.96576,447.41084 186.95558,448.21458 C 185.79205,449.14127 184.33437,450.03331 182.84042,449.42929 C 181.89688,449.04236 180.64255,448.15369 180.57694,447.06866 C 181.15062,445.86051 182.99521,444.90530 184.09863,444.37415 L 183.14846,445.06450 z " />
    <text
       xml:space="preserve"
       style="font-size:10.000000px;font-style:normal;font-variant:normal;font-weight:normal;font-stretch:normal;text-align:start;line-height:125.00000%;writing-mode:lr-tb;text-anchor:start;fill:#000000;fill-opacity:1.0000000;stroke:none;stroke-width:1.0000000pt;stroke-linecap:butt;stroke-linejoin:miter;stroke-opacity:1.0000000;font-family:Bitstream Vera Sans"
       x="215.23174"
       y="423.18729"
       id="text2051"
       sodipodi:linespacing="125.00000%"><tspan
         sodipodi:role="line"
         id="tspan2053"
         x="215.23174"
         y="423.18729">e</tspan></text>
    <path
       sodipodi:type="arc"
       style="fill:#000000;fill-opacity:1.0000000;fill-rule:evenodd;stroke:none;stroke-width:1.0000000pt;stroke-linecap:butt;stroke-linejoin:miter;stroke-opacity:1.0000000"
       id="path2055"
       sodipodi:cx="197.03912"
       sodipodi:cy="394.15482"
       sodipodi:rx="1.8132435"
       sodipodi:ry="1.8132435"
       d="M 198.85237 394.15482 A 1.8132435 1.8132435 0 1 1  195.22588,394.15482 A 1.8132435 1.8132435 0 1 1  198.85237 394.15482 z"
       transform="matrix(1.500000,0.000000,0.000000,1.500000,-84.39957,-167.3402)" />
    <text
       xml:space="preserve"
       style="font-size:9.0000000px;font-style:normal;font-variant:normal;font-weight:normal;font-stretch:normal;text-align:start;line-height:125.00000%;writing-mode:lr-tb;text-anchor:start;fill:#000000;fill-opacity:1.0000000;stroke:none;stroke-width:1.0000000pt;stroke-linecap:butt;stroke-linejoin:miter;stroke-opacity:1.0000000;font-family:Bitstream Vera Sans"
       x="221.29305"
       y="417.33517"
       id="text2057"
       sodipodi:linespacing="125.00000%"><tspan
         sodipodi:role="line"
         id="tspan2059"
         x="221.29305"
         y="417.33517">i</tspan></text>
    <path
       style="fill:#000000;fill-opacity:1.0000000;fill-rule:nonzero;stroke:none;stroke-width:1.0000000pt;stroke-linecap:butt;stroke-linejoin:miter;stroke-opacity:1.0000000"
       id="path2061"
       d="M 226.77860,411.74457 C 228.43246,410.73554 225.69283,412.44951 225.23888,413.27223 C 225.26742,414.32854 226.49393,415.12007 227.40538,415.48359 C 227.10079,416.28343 230.54573,414.83935 230.03470,415.10283 C 229.31633,415.47321 229.09902,415.66129 229.55733,415.30628 C 230.49833,414.57548 230.42000,413.99742 229.57457,413.28244 C 228.51196,412.33021 227.09738,413.17047 228.64602,412.29612 C 227.55969,413.19870 228.05602,414.66422 228.44198,415.79494 C 228.79173,416.67411 229.10261,417.56034 229.25793,418.49461 C 229.26419,418.52717 229.27045,418.55973 229.27671,418.59228 L 228.25976,419.13425 C 228.25382,419.10123 228.24786,419.06824 228.24192,419.03522 C 228.09866,418.10117 227.84082,417.19895 227.49274,416.31880 C 227.08340,415.13177 226.58145,413.73987 227.57880,412.70581 C 228.78494,412.02146 229.40800,411.75858 230.51699,412.69403 C 231.39910,413.43938 231.59590,414.09091 230.58572,414.89465 C 229.42219,415.82134 227.96451,416.71338 226.47056,416.10936 C 225.52702,415.72243 224.27269,414.83376 224.20708,413.74873 C 224.78076,412.54058 226.62535,411.58537 227.72877,411.05422 L 226.77860,411.74457 z " />
    <text
       xml:space="preserve"
       style="font-size:9.0000000px;font-style:normal;font-variant:normal;font-weight:normal;font-stretch:normal;text-align:start;line-height:125.00000%;writing-mode:lr-tb;text-anchor:start;fill:#000000;fill-opacity:1.0000000;stroke:none;stroke-width:1.0000000pt;stroke-linecap:butt;stroke-linejoin:miter;stroke-opacity:1.0000000;font-family:Bitstream Vera Sans"
       x="175.35373"
       y="461.03357"
       id="text2063"
       sodipodi:linespacing="125.00000%"><tspan
         sodipodi:role="line"
         id="tspan2065"
         x="175.35373"
         y="461.03357">cos</tspan></text>
    <path
       style="fill:#000000;fill-opacity:1.0000000;fill-rule:nonzero;stroke:none;stroke-width:1.0000000pt;stroke-linecap:butt;stroke-linejoin:miter;stroke-opacity:1.0000000"
       id="path2071"
       d="M 195.40541,456.00317 C 197.05927,454.99414 194.31964,456.70811 193.86569,457.53083 C 193.89423,458.58714 195.12074,459.37867 196.03219,459.74219 C 195.72760,460.54203 199.17254,459.09795 198.66151,459.36143 C 197.94314,459.73181 197.72583,459.91989 198.18414,459.56488 C 199.12514,458.83408 199.04681,458.25602 198.20138,457.54104 C 197.13877,456.58881 195.72419,457.42907 197.27283,456.55472 C 196.18650,457.45730 196.68283,458.92282 197.06879,460.05354 C 197.41854,460.93271 197.72942,461.81894 197.88474,462.75321 C 197.89100,462.78577 197.89726,462.81833 197.90352,462.85088 L 196.88657,463.39285 C 196.88063,463.35983 196.87467,463.32684 196.86873,463.29382 C 196.72547,462.35977 196.46763,461.45755 196.11955,460.57740 C 195.71021,459.39037 195.20826,457.99847 196.20561,456.96441 C 197.41175,456.28006 198.03481,456.01718 199.14380,456.95263 C 200.02591,457.69798 200.22271,458.34951 199.21253,459.15325 C 198.04900,460.07994 196.59132,460.97198 195.09737,460.36796 C 194.15383,459.98103 192.89950,459.09236 192.83389,458.00733 C 193.40757,456.79918 195.25216,455.84397 196.35558,455.31282 L 195.40541,456.00317 z " />
    <path
       style="fill:#000000;fill-opacity:1.0000000;fill-rule:nonzero;stroke:none;stroke-width:1.0000000pt;stroke-linecap:butt;stroke-linejoin:miter;stroke-opacity:1.0000000"
       id="path2073"
       d="M 230.42013,438.07564 C 232.07399,437.06661 229.33436,438.78058 228.88041,439.60330 C 228.90895,440.65961 230.13546,441.45114 231.04691,441.81466 C 230.74232,442.61450 234.18726,441.17042 233.67623,441.43390 C 232.95786,441.80428 232.74055,441.99236 233.19886,441.63735 C 234.13986,440.90655 234.06153,440.32849 233.21610,439.61351 C 232.15349,438.66128 230.73891,439.50154 232.28755,438.62719 C 231.20122,439.52977 231.69755,440.99529 232.08351,442.12601 C 232.43326,443.00518 232.74414,443.89141 232.89946,444.82568 C 232.90572,444.85824 232.91198,444.89080 232.91824,444.92335 L 231.90129,445.46532 C 231.89535,445.43230 231.88939,445.39931 231.88345,445.36629 C 231.74019,444.43224 231.48235,443.53002 231.13427,442.64987 C 230.72493,441.46284 230.22298,440.07094 231.22033,439.03688 C 232.42647,438.35253 233.04953,438.08965 234.15852,439.02510 C 235.04063,439.77045 235.23743,440.42198 234.22725,441.22572 C 233.06372,442.15241 231.60604,443.04445 230.11209,442.44043 C 229.16855,442.05350 227.91422,441.16483 227.84861,440.07980 C 228.42229,438.87165 230.26688,437.91644 231.37030,437.38529 L 230.42013,438.07564 z " />
    <rect
       style="fill:#ffffff;fill-opacity:1.0000000;fill-rule:evenodd;stroke:none;stroke-width:1.0000000pt;stroke-linecap:butt;stroke-linejoin:miter;stroke-opacity:1.0000000"
       id="rect2075"
       width="5.7170997"
       height="9.9969397"
       x="215.87640"
       y="435.39450" />
    <text
       xml:space="preserve"
       style="font-size:9.0000000px;font-style:normal;font-variant:normal;font-weight:normal;font-stretch:normal;text-align:start;line-height:125.00000%;writing-mode:lr-tb;text-anchor:start;fill:#000000;fill-opacity:1.0000000;stroke:none;stroke-width:1.0000000pt;stroke-linecap:butt;stroke-linejoin:miter;stroke-opacity:1.0000000;font-family:Bitstream Vera Sans"
       x="214.00998"
       y="443.10602"
       id="text2067"
       sodipodi:linespacing="125.00000%"><tspan
         sodipodi:role="line"
         id="tspan2069"
         x="214.00998"
         y="443.10602">sin</tspan></text>
    <path
       style="fill:none;fill-opacity:0.75000000;fill-rule:evenodd;stroke:#000000;stroke-width:1.2500000;stroke-linecap:butt;stroke-linejoin:miter;stroke-opacity:1.0000000;stroke-miterlimit:4.0000000;stroke-dasharray:none"
       d="M 179.89735,453.37328 C 179.85949,449.85182 177.62545,446.48183 177.62545,446.48183"
       id="path2077" />
  </g>
</svg>
