<?xml version="1.0" encoding="UTF-8" standalone="no"?>
<svg
   xmlns:dc="http://purl.org/dc/elements/1.1/"
   xmlns:cc="http://web.resource.org/cc/"
   xmlns:rdf="http://www.w3.org/1999/02/22-rdf-syntax-ns#"
   xmlns:svg="http://www.w3.org/2000/svg"
   xmlns="http://www.w3.org/2000/svg"
   xmlns:xlink="http://www.w3.org/1999/xlink"
   xmlns:sodipodi="http://inkscape.sourceforge.net/DTD/sodipodi-0.dtd"
   xmlns:inkscape="http://www.inkscape.org/namespaces/inkscape"
   width="600"
   height="480"
   viewBox="0 0 600 480"
   id="svg2"
   sodipodi:version="0.32"
   inkscape:version="0.42.2"
   sodipodi:docname="improper-a.svg"
   sodipodi:docbase="/home/bcrowell/Documents/writing/calc/trunk/ch06/figs">
  <metadata
     id="metadata75">
    <rdf:RDF>
      <cc:Work
         rdf:about="">
        <dc:format>image/svg+xml</dc:format>
        <dc:type
           rdf:resource="http://purl.org/dc/dcmitype/StillImage" />
      </cc:Work>
    </rdf:RDF>
  </metadata>
  <sodipodi:namedview
     inkscape:cy="101.15908"
     inkscape:cx="113.65283"
     inkscape:zoom="5.5361009"
     inkscape:window-height="996"
     inkscape:window-width="1278"
     inkscape:pageshadow="2"
     inkscape:pageopacity="0.0"
     borderopacity="1.0"
     bordercolor="#666666"
     pagecolor="#ffffff"
     id="base"
     inkscape:window-x="0"
     inkscape:window-y="0"
     inkscape:current-layer="svg2" />
  <desc
     id="desc4">Produced by GNUPLOT 4.1 patchlevel 0 </desc>
  <defs
     id="defs6">
    <circle
       id="gpDot"
       r="1" />
    <path
       id="gpPt0"
       style="stroke-width:0.222"
       d="M-1,0 h2 M0,-1 v2" />
    <path
       id="gpPt1"
       style="stroke-width:0.222"
       d="M-1,-1 L1,1 M1,-1 L-1,1" />
    <path
       id="gpPt2"
       style="stroke-width:0.222"
       d="M-1,0 L1,0 M0,-1 L0,1 M-1,-1 L1,1 M-1,1 L1,-1" />
    <rect
       id="gpPt3"
       style="stroke-width:0.222"
       x="-1"
       y="-1"
       width="2"
       height="2" />
    <use
       xlink:href="#gpPt3"
       id="gpPt4"
       style="fill:currentColor; stroke:none" />
    <circle
       id="gpPt5"
       style="stroke-width:0.222"
       cx="0"
       cy="0"
       r="1" />
    <use
       xlink:href="#gpPt5"
       id="gpPt6"
       style="fill:currentColor; stroke:none" />
    <path
       id="gpPt7"
       style="stroke-width:0.222"
       d="M0,-1.33 L-1.33,0.67 L1.33,0.67 z" />
    <use
       xlink:href="#gpPt7"
       id="gpPt8"
       style="fill:currentColor; stroke:none" />
    <use
       xlink:href="#gpPt7"
       id="gpPt9"
       transform="rotate(180)" />
    <use
       xlink:href="#gpPt9"
       id="gpPt10"
       style="fill:currentColor; stroke:none" />
    <use
       xlink:href="#gpPt3"
       id="gpPt11"
       transform="rotate(45)" />
    <use
       xlink:href="#gpPt11"
       id="gpPt12"
       style="fill:currentColor; stroke:none" />
  </defs>
  <path
     style="fill:#808080;fill-opacity:1.0000000;fill-rule:evenodd;stroke:#000000;stroke-width:0.25000000pt;stroke-linecap:butt;stroke-linejoin:miter;stroke-opacity:1.0000000"
     d="M 61.234433,313.99869 C 61.234433,313.99869 61.415066,349.22204 63.582656,364.93707 C 65.750247,380.65210 67.737205,395.82523 86.703622,403.77307 C 105.67004,411.72090 163.83372,414.79165 163.83372,414.79165 L 163.83372,426.17150 L 59.970005,426.17150 L 59.970005,313.63742 L 61.234433,313.99869 z "
     id="path1416" />
  <g
     style="fill:none; color:white; stroke:currentColor; stroke-width:1.00"
     id="g22" />
  <g
     style="fill:none; color:white; stroke:currentColor; stroke-width:0.50"
     id="g24" />
  <g
     style="fill:none; color:black; stroke:currentColor; stroke-width:0.50"
     id="g26">
    <path
       d="M60,369 L51,369 M60,369 L69,369 "
       id="path28" />
    <g
       transform="translate(52,373)"
       style="stroke:none; fill:black; font-family:Arial; font-size:12.00; text-anchor:end"
       id="g30">
      <text
         id="text32"> 5</text>
    </g>
    <path
       d="M60,312 L51,312 M60,312 L69,312 "
       id="path34" />
    <g
       transform="translate(52,316)"
       style="stroke:none; fill:black; font-family:Arial; font-size:12.00; text-anchor:end"
       id="g36">
      <text
         id="text38"> 10</text>
    </g>
    <path
       d="M164,426 L164,435 M164,426 L164,417 "
       id="path40" />
    <g
       transform="translate(164,457)"
       style="stroke:none; fill:black; font-family:Arial; font-size:12.00; text-anchor:middle"
       id="g42">
      <text
         id="text44"> 1</text>
    </g>
    <path
       d="M60,426 L174,426 M60,426 L60,312 "
       id="path46" />
    <g
       transform="translate(180,430)"
       style="stroke:none; fill:black; font-family:Arial; font-size:12.00; text-anchor:start"
       id="g48">
      <text
         id="text50">x</text>
    </g>
    <g
       transform="translate(60,299)"
       style="stroke:none; fill:black; font-family:Arial; font-size:12.00; text-anchor:start"
       id="g52">
      <text
         id="text54">y</text>
    </g>
    <g
       style="stroke:none; shape-rendering:crispEdges"
       id="g56">
      <polygon
         fill="currentColor"
         points="168,426 168,423 177,426 168,429 168,426 "
         id="polygon58" />
    </g>
    <path
       d="M168,426 L168,423 L177,426 L168,429 L168,426 M60,426 L168,426 "
       id="path60" />
    <g
       style="stroke:none; shape-rendering:crispEdges"
       id="g62">
      <polygon
         fill="currentColor"
         points="60,310 57,310 60,301 63,310 60,310 "
         id="polygon64" />
    </g>
    <path
       d="M60,310 L57,310 L60,301 L63,310 L60,310 M60,426 L60,310 "
       id="path66" />
  </g>
  <g
     style="fill:none; color:black; stroke:currentColor; stroke-width:1.50"
     id="g68">
    <path
       d="M 61.000000,312.00000 C 62.860385,336.73673 60.169354,362.32524 68.351024,386.18486 C 73.343319,398.62187 86.599146,404.98165 99.005892,407.54249 C 112.37778,410.50511 126.05023,411.77155 139.65373,413.09169 C 149.54610,413.41291 159.39611,414.64751 169.27079,415.02583 C 170.84695,414.99946 172.42369,414.95707 174.00000,415.00000"
       id="path70" />
  </g>
  <g
     style="fill:none; color:black; stroke:currentColor; stroke-width:0.50"
     id="g72" />
</svg>
