<?xml version="1.0" encoding="iso-8859-1"?>
<!-- Generator: Adobe Illustrator 11 Build 196, SVG Export Plug-In . SVG Version: 6.0.0 Build 78)  -->
<!DOCTYPE svg PUBLIC "-//W3C//DTD SVG 1.0//EN"    "http://www.w3.org/TR/2001/REC-SVG-20010904/DTD/svg10.dtd" [
	<!ENTITY ns_flows "http://ns.adobe.com/Flows/1.0/">
	<!ENTITY ns_svg "http://www.w3.org/2000/svg">
	<!ENTITY ns_xlink "http://www.w3.org/1999/xlink">
]>
<svg  
	 width="169.515" height="72.266" viewBox="0 0 169.515 72.266" style="overflow:visible;enable-background:new 0 0 169.515 72.266"
	 xml:space="preserve">
	<style type="text/css">
	
	</style>
	<g id="Layer_1">
		<polygon style="fill:none;stroke:#000000;" points="0.126,44.749 136.626,71.249 168.626,0.749 "/>
		<g>
			<text transform="matrix(1 0 0 1 81.1265 18.249)"><tspan x="0" y="0" style="font-family:Bitstream Vera Sans; font-size:7.650000;">A</tspan></text>
		</g>
		<g>
			<text transform="matrix(1 0 0 1 158.1265 41.749)"><tspan x="0" y="0" style="font-family:Bitstream Vera Sans; font-size:7.650000;">B</tspan></text>
		</g>
		<g>
			<text transform="matrix(1 0 0 1 64.6265 68.249)"><tspan x="0" y="0" style="font-family:Bitstream Vera Sans; font-size:7.650000;">C</tspan></text>
		</g>
		<g>
			<text transform="matrix(1 0 0 1 127.6265 60.249)"><tspan x="0" y="0" style="font-family:'Symbol'; font-size:9;">&#x3B1;</tspan></text>
		</g>
		<g>
			<text transform="matrix(1 0 0 1 32.0376 46.2246)"><tspan x="0" y="0" style="font-family:'Symbol'; font-size:9;">&#x3B2;</tspan></text>
		</g>
		<g>
			<text transform="matrix(1 0 0 1 151.6265 15.749)"><tspan x="0" y="0" style="font-family:'Symbol'; font-size:9;">&#x3B3;</tspan></text>
		</g>
		<path style="fill:none;stroke:#000000;" d="M27.836,50.449c0.377-1.841,0.575-3.748,0.575-5.7c0-2.576-0.344-5.072-0.99-7.444"/>
		<path style="fill:none;stroke:#000000;" d="M162.03,14.45c-4.073-1.964-7.136-5.691-8.199-10.19"/>
		<path style="fill:none;stroke:#000000;" d="M140.205,62.779c-1.1-0.465-2.309-0.722-3.578-0.722c-4.392,0-8.064,3.08-8.975,7.197"
			/>
	</g>
</svg>
