<?xml version="1.0" encoding="UTF-8" standalone="no"?>
<svg
   xmlns:dc="http://purl.org/dc/elements/1.1/"
   xmlns:cc="http://web.resource.org/cc/"
   xmlns:rdf="http://www.w3.org/1999/02/22-rdf-syntax-ns#"
   xmlns:svg="http://www.w3.org/2000/svg"
   xmlns="http://www.w3.org/2000/svg"
   xmlns:xlink="http://www.w3.org/1999/xlink"
   xmlns:sodipodi="http://inkscape.sourceforge.net/DTD/sodipodi-0.dtd"
   xmlns:inkscape="http://www.inkscape.org/namespaces/inkscape"
   width="600"
   height="480"
   viewBox="0 0 600 480"
   id="svg2"
   sodipodi:version="0.32"
   inkscape:version="0.42.2"
   sodipodi:docname="hw-snail.svg"
   sodipodi:docbase="/home/bcrowell/Documents/writing/calc/trunk/ch07/figs">
  <metadata
     id="metadata71">
    <rdf:RDF>
      <cc:Work
         rdf:about="">
        <dc:format>image/svg+xml</dc:format>
        <dc:type
           rdf:resource="http://purl.org/dc/dcmitype/StillImage" />
      </cc:Work>
    </rdf:RDF>
  </metadata>
  <sodipodi:namedview
     inkscape:cy="347.16639"
     inkscape:cx="147.37263"
     inkscape:zoom="4.8227892"
     inkscape:window-height="996"
     inkscape:window-width="1278"
     inkscape:pageshadow="2"
     inkscape:pageopacity="0.0"
     borderopacity="1.0"
     bordercolor="#666666"
     pagecolor="#ffffff"
     id="base"
     inkscape:window-x="0"
     inkscape:window-y="0"
     inkscape:current-layer="svg2" />
  <desc
     id="desc4">Produced by GNUPLOT 4.1 patchlevel 0 </desc>
  <defs
     id="defs6">
    <circle
       id="gpDot"
       r="1" />
    <path
       id="gpPt0"
       style="stroke-width:0.222"
       d="M-1,0 h2 M0,-1 v2" />
    <path
       id="gpPt1"
       style="stroke-width:0.222"
       d="M-1,-1 L1,1 M1,-1 L-1,1" />
    <path
       id="gpPt2"
       style="stroke-width:0.222"
       d="M-1,0 L1,0 M0,-1 L0,1 M-1,-1 L1,1 M-1,1 L1,-1" />
    <rect
       id="gpPt3"
       style="stroke-width:0.222"
       x="-1"
       y="-1"
       width="2"
       height="2" />
    <use
       xlink:href="#gpPt3"
       id="gpPt4"
       style="fill:currentColor; stroke:none" />
    <circle
       id="gpPt5"
       style="stroke-width:0.222"
       cx="0"
       cy="0"
       r="1" />
    <use
       xlink:href="#gpPt5"
       id="gpPt6"
       style="fill:currentColor; stroke:none" />
    <path
       id="gpPt7"
       style="stroke-width:0.222"
       d="M0,-1.33 L-1.33,0.67 L1.33,0.67 z" />
    <use
       xlink:href="#gpPt7"
       id="gpPt8"
       style="fill:currentColor; stroke:none" />
    <use
       xlink:href="#gpPt7"
       id="gpPt9"
       transform="rotate(180)" />
    <use
       xlink:href="#gpPt9"
       id="gpPt10"
       style="fill:currentColor; stroke:none" />
    <use
       xlink:href="#gpPt3"
       id="gpPt11"
       transform="rotate(45)" />
    <use
       xlink:href="#gpPt11"
       id="gpPt12"
       style="fill:currentColor; stroke:none" />
  </defs>
  <path
     style="color:#ff0000;fill:#808080;stroke:#000000;stroke-width:1.2500000;stroke-miterlimit:4.0000000;stroke-dasharray:none;stroke-opacity:1.0000000;fill-opacity:1.0000000"
     d="M 126.06250,55.187500 C 113.54485,55.803244 101.02844,57.575559 89.247129,62.011374 C 76.821582,66.081881 65.255304,73.305230 56.703965,83.231568 C 49.353301,91.693963 45.334363,103.83519 49.289837,114.71966 C 52.049668,122.80782 59.131168,129.03613 67.343750,131.21875 C 55.346589,134.15099 46.598698,146.31632 47.834863,158.61977 C 48.486002,170.36690 56.283183,180.33140 65.189848,187.37743 C 77.550645,197.65818 93.377123,202.58544 108.91953,205.61720 C 124.04358,207.78720 139.47655,207.93895 154.51780,205.04906 C 164.78712,203.55132 174.74041,200.22415 184.24492,196.12877 C 196.88203,190.72868 208.15377,182.40145 217.66276,172.55021 C 225.62558,163.24468 231.64716,152.16821 233.72685,140.01024 C 235.17283,130.34891 234.18388,120.35082 230.62498,111.21870 C 225.79958,98.494563 216.95037,87.451558 206.00619,79.412338 C 193.23807,68.883145 177.51016,62.712095 161.62955,58.651713 C 149.89495,56.365225 138.04785,54.735322 126.06250,55.187500 z "
     id="path66" />
  <g
     style="color:#ffffff;fill:none;stroke:currentColor;stroke-width:2.5777220;stroke-miterlimit:4.0000000;stroke-dasharray:none"
     id="g22"
     transform="matrix(0.339447,0.000000,0.000000,0.339447,39.17946,49.74901)" />
  <path
     style="color:#000000;fill:none;stroke:currentColor;stroke-width:0.87500000;stroke-miterlimit:4.0000000;stroke-dasharray:none"
     id="path26"
     d="M 68.371902,189.94062 L 65.316879,189.94062 M 68.371902,189.94062 L 71.426925,189.94062" />
  <g
     id="g28"
     style="font-size:12.000000px;text-anchor:end;color:#000000;fill:#000000;stroke:none;stroke-width:2.5777221;stroke-miterlimit:4.0000000;stroke-dasharray:none;font-family:Arial"
     transform="matrix(0.339447,0.000000,0.000000,0.339447,65.65633,191.2984)">
    <text
       style="stroke-width:2.5777221;stroke-miterlimit:4.0000000;stroke-dasharray:none"
       id="text30">-1</text>
  </g>
  <path
     style="color:#000000;fill:none;stroke:currentColor;stroke-width:0.87500000;stroke-miterlimit:4.0000000;stroke-dasharray:none"
     id="path32"
     d="M 68.371902,72.491959 L 65.316879,72.491959 M 68.371902,72.491959 L 71.426925,72.491959" />
  <g
     id="g34"
     style="font-size:12.000000px;text-anchor:end;color:#000000;fill:#000000;stroke:none;stroke-width:2.5777221;stroke-miterlimit:4.0000000;stroke-dasharray:none;font-family:Arial"
     transform="matrix(0.339447,0.000000,0.000000,0.339447,65.65633,73.84975)">
    <text
       style="stroke-width:2.5777221;stroke-miterlimit:4.0000000;stroke-dasharray:none"
       id="text36">1</text>
  </g>
  <path
     style="color:#000000;fill:none;stroke:currentColor;stroke-width:0.87500000;stroke-miterlimit:4.0000000;stroke-dasharray:none"
     id="path38"
     d="M 151.53642,131.21629 L 151.53642,134.27131 M 151.53642,131.21629 L 151.53642,128.16127" />
  <g
     id="g40"
     style="font-size:12.000000px;text-anchor:middle;color:#000000;fill:#000000;stroke:none;stroke-width:2.5777221;stroke-miterlimit:4.0000000;stroke-dasharray:none;font-family:Arial"
     transform="matrix(0.339447,0.000000,0.000000,0.339447,151.5364,141.7391)">
    <text
       style="stroke-width:2.5777221;stroke-miterlimit:4.0000000;stroke-dasharray:none"
       id="text42">1</text>
  </g>
  <path
     style="color:#000000;fill:none;stroke:currentColor;stroke-width:0.87500000;stroke-miterlimit:4.0000000;stroke-dasharray:none"
     id="path44"
     d="M 234.36148,131.21629 L 234.36148,134.27131 M 234.36148,131.21629 L 234.36148,128.16127" />
  <g
     style="color:#000000;fill:none;stroke:currentColor;stroke-width:2.5777220;stroke-miterlimit:4.0000000;stroke-dasharray:none"
     id="g50"
     transform="matrix(0.339447,0.000000,0.000000,0.339447,39.17946,49.74901)">
    <path
       d="M 25.000000,240.00000 L 575.00000,240.00000 M 86.000000,464.00000 L 86.000000,16.000000"
       id="path52"
       style="stroke-width:2.5777220;stroke-miterlimit:4.0000000;stroke-dasharray:none" />
  </g>
  <g
     style="color:#000000;fill:none;stroke:currentColor;stroke-width:2.5777220;stroke-miterlimit:4.0000000;stroke-dasharray:none"
     id="g54"
     transform="matrix(0.339447,0.000000,0.000000,0.339447,39.17946,49.74901)" />
  <g
     style="color:#ff0000;fill:none;stroke:currentColor;stroke-width:2.5777220;stroke-miterlimit:4.0000000;stroke-dasharray:none"
     id="g56"
     transform="matrix(0.339447,0.000000,0.000000,0.339447,39.17946,49.74901)" />
  <g
     style="color:#000000;fill:none;stroke:currentColor;stroke-width:2.5777220;stroke-miterlimit:4.0000000;stroke-dasharray:none"
     id="g68"
     transform="matrix(0.339447,0.000000,0.000000,0.339447,39.17946,49.74901)" />
</svg>
