<?xml version="1.0" encoding="UTF-8" standalone="no"?>
<svg
   xmlns:dc="http://purl.org/dc/elements/1.1/"
   xmlns:cc="http://web.resource.org/cc/"
   xmlns:rdf="http://www.w3.org/1999/02/22-rdf-syntax-ns#"
   xmlns:svg="http://www.w3.org/2000/svg"
   xmlns="http://www.w3.org/2000/svg"
   xmlns:xlink="http://www.w3.org/1999/xlink"
   xmlns:sodipodi="http://inkscape.sourceforge.net/DTD/sodipodi-0.dtd"
   xmlns:inkscape="http://www.inkscape.org/namespaces/inkscape"
   width="600"
   height="480"
   viewBox="0 0 600 480"
   id="svg2"
   sodipodi:version="0.32"
   inkscape:version="0.42.2"
   sodipodi:docname="improper-c.svg"
   sodipodi:docbase="/home/bcrowell/Documents/writing/calc/trunk/ch06/figs">
  <metadata
     id="metadata75">
    <rdf:RDF>
      <cc:Work
         rdf:about="">
        <dc:format>image/svg+xml</dc:format>
        <dc:type
           rdf:resource="http://purl.org/dc/dcmitype/StillImage" />
      </cc:Work>
    </rdf:RDF>
  </metadata>
  <sodipodi:namedview
     inkscape:cy="94.790458"
     inkscape:cx="120.97384"
     inkscape:zoom="4.3780778"
     inkscape:window-height="996"
     inkscape:window-width="1278"
     inkscape:pageshadow="2"
     inkscape:pageopacity="0.0"
     borderopacity="1.0"
     bordercolor="#666666"
     pagecolor="#ffffff"
     id="base"
     inkscape:window-x="0"
     inkscape:window-y="0"
     inkscape:current-layer="svg2" />
  <desc
     id="desc4">Produced by GNUPLOT 4.1 patchlevel 0 </desc>
  <defs
     id="defs6">
    <circle
       id="gpDot"
       r="1" />
    <path
       id="gpPt0"
       style="stroke-width:0.222"
       d="M-1,0 h2 M0,-1 v2" />
    <path
       id="gpPt1"
       style="stroke-width:0.222"
       d="M-1,-1 L1,1 M1,-1 L-1,1" />
    <path
       id="gpPt2"
       style="stroke-width:0.222"
       d="M-1,0 L1,0 M0,-1 L0,1 M-1,-1 L1,1 M-1,1 L1,-1" />
    <rect
       id="gpPt3"
       style="stroke-width:0.222"
       x="-1"
       y="-1"
       width="2"
       height="2" />
    <use
       xlink:href="#gpPt3"
       id="gpPt4"
       style="fill:currentColor; stroke:none" />
    <circle
       id="gpPt5"
       style="stroke-width:0.222"
       cx="0"
       cy="0"
       r="1" />
    <use
       xlink:href="#gpPt5"
       id="gpPt6"
       style="fill:currentColor; stroke:none" />
    <path
       id="gpPt7"
       style="stroke-width:0.222"
       d="M0,-1.33 L-1.33,0.67 L1.33,0.67 z" />
    <use
       xlink:href="#gpPt7"
       id="gpPt8"
       style="fill:currentColor; stroke:none" />
    <use
       xlink:href="#gpPt7"
       id="gpPt9"
       transform="rotate(180)" />
    <use
       xlink:href="#gpPt9"
       id="gpPt10"
       style="fill:currentColor; stroke:none" />
    <use
       xlink:href="#gpPt3"
       id="gpPt11"
       transform="rotate(45)" />
    <use
       xlink:href="#gpPt11"
       id="gpPt12"
       style="fill:currentColor; stroke:none" />
  </defs>
  <path
     style="fill:#808080;fill-opacity:1.0000000;fill-rule:evenodd;stroke:none;stroke-width:0.25000000pt;stroke-linecap:butt;stroke-linejoin:miter;stroke-opacity:1.0000000"
     d="M 67.381169,312.80334 C 67.381169,312.80334 68.523223,368.30715 76.746009,391.83345 C 84.968796,415.35976 97.302976,417.41546 104.61212,419.92797 C 111.92126,422.44049 146.41129,424.26778 146.41129,424.26778 L 164.22732,425.18142 L 164.04071,425.87785 L 67.381168,425.87785 L 67.381169,312.80334 z "
     id="path1401"
     sodipodi:nodetypes="cssccccc" />
  <g
     style="fill:none; color:white; stroke:currentColor; stroke-width:1.00"
     id="g22" />
  <g
     style="fill:none; color:white; stroke:currentColor; stroke-width:0.50"
     id="g24" />
  <g
     style="fill:none; color:black; stroke:currentColor; stroke-width:0.50"
     id="g26">
    <path
       d="M56,312 L47,312 M56,312 L65,312 "
       id="path28" />
    <g
       transform="translate(48,316)"
       style="stroke:none; fill:black; font-family:Arial; font-size:12.00; text-anchor:end"
       id="g30">
      <text
         id="text32"> 1</text>
    </g>
    <path
       d="M113,426 L113,435 M113,426 L113,417 "
       id="path34" />
    <g
       transform="translate(113,457)"
       style="stroke:none; fill:black; font-family:Arial; font-size:12.00; text-anchor:middle"
       id="g36">
      <text
         id="text38"> 5</text>
    </g>
    <path
       d="M170,426 L170,435 M170,426 L170,417 "
       id="path40" />
    <g
       transform="translate(170,457)"
       style="stroke:none; fill:black; font-family:Arial; font-size:12.00; text-anchor:middle"
       id="g42">
      <text
         id="text44"> 10</text>
    </g>
    <path
       d="M56,426 L170,426 M56,426 L56,312 "
       id="path46" />
    <g
       transform="translate(176,430)"
       style="stroke:none; fill:black; font-family:Arial; font-size:12.00; text-anchor:start"
       id="g48">
      <text
         id="text50">x</text>
    </g>
    <g
       transform="translate(56,299)"
       style="stroke:none; fill:black; font-family:Arial; font-size:12.00; text-anchor:start"
       id="g52">
      <text
         id="text54">y</text>
    </g>
    <g
       style="stroke:none; shape-rendering:crispEdges"
       id="g56">
      <polygon
         fill="currentColor"
         points="164,426 164,423 173,426 164,429 164,426 "
         id="polygon58" />
    </g>
    <path
       d="M164,426 L164,423 L173,426 L164,429 L164,426 M56,426 L164,426 "
       id="path60" />
    <g
       style="stroke:none; shape-rendering:crispEdges"
       id="g62">
      <polygon
         fill="currentColor"
         points="56,310 53,310 56,301 59,310 56,310 "
         id="polygon64" />
    </g>
    <path
       d="M56,310 L53,310 L56,301 L59,310 L56,310 M56,426 L56,310 "
       id="path66" />
  </g>
  <g
     style="fill:none; color:black; stroke:currentColor; stroke-width:1.50"
     id="g68">
    <path
       d="M 67.000000,312.00000 C 69.283746,332.78157 69.182880,353.81006 72.997372,374.42139 C 75.042779,387.75062 78.020394,402.31153 88.408301,411.80979 C 99.788753,421.15686 115.23757,421.80077 129.24866,423.23496 C 137.80220,424.10188 146.43659,423.85126 154.98286,424.43469 C 159.95861,425.11284 164.99467,425.19216 170.00000,425.00000"
       id="path70" />
  </g>
  <g
     style="fill:none; color:black; stroke:currentColor; stroke-width:0.50"
     id="g72" />
</svg>
