<?xml version="1.0" encoding="UTF-8" standalone="no"?>
<svg
   xmlns:dc="http://purl.org/dc/elements/1.1/"
   xmlns:cc="http://web.resource.org/cc/"
   xmlns:rdf="http://www.w3.org/1999/02/22-rdf-syntax-ns#"
   xmlns:svg="http://www.w3.org/2000/svg"
   xmlns="http://www.w3.org/2000/svg"
   xmlns:xlink="http://www.w3.org/1999/xlink"
   xmlns:sodipodi="http://inkscape.sourceforge.net/DTD/sodipodi-0.dtd"
   xmlns:inkscape="http://www.inkscape.org/namespaces/inkscape"
   width="600"
   height="480"
   viewBox="0 0 600 480"
   id="svg2113"
   sodipodi:version="0.32"
   inkscape:version="0.42.2"
   sodipodi:docname="improper-b.svg"
   sodipodi:docbase="/home/bcrowell/Documents/writing/calc/trunk/ch06/figs">
  <metadata
     id="metadata2186">
    <rdf:RDF>
      <cc:Work
         rdf:about="">
        <dc:format>image/svg+xml</dc:format>
        <dc:type
           rdf:resource="http://purl.org/dc/dcmitype/StillImage" />
      </cc:Work>
    </rdf:RDF>
  </metadata>
  <sodipodi:namedview
     inkscape:cy="100.02203"
     inkscape:cx="111.75424"
     inkscape:zoom="4.9572214"
     inkscape:window-height="996"
     inkscape:window-width="1278"
     inkscape:pageshadow="2"
     inkscape:pageopacity="0.0"
     borderopacity="1.0"
     bordercolor="#666666"
     pagecolor="#ffffff"
     id="base"
     inkscape:window-x="0"
     inkscape:window-y="0"
     inkscape:current-layer="svg2113" />
  <desc
     id="desc2115">Produced by GNUPLOT 4.1 patchlevel 0 </desc>
  <defs
     id="defs2117">
    <circle
       id="gpDot"
       r="1" />
    <path
       id="gpPt0"
       style="stroke-width:0.222"
       d="M-1,0 h2 M0,-1 v2" />
    <path
       id="gpPt1"
       style="stroke-width:0.222"
       d="M-1,-1 L1,1 M1,-1 L-1,1" />
    <path
       id="gpPt2"
       style="stroke-width:0.222"
       d="M-1,0 L1,0 M0,-1 L0,1 M-1,-1 L1,1 M-1,1 L1,-1" />
    <rect
       id="gpPt3"
       style="stroke-width:0.222"
       x="-1"
       y="-1"
       width="2"
       height="2" />
    <use
       xlink:href="#gpPt3"
       id="gpPt4"
       style="fill:currentColor; stroke:none" />
    <circle
       id="gpPt5"
       style="stroke-width:0.222"
       cx="0"
       cy="0"
       r="1" />
    <use
       xlink:href="#gpPt5"
       id="gpPt6"
       style="fill:currentColor; stroke:none" />
    <path
       id="gpPt7"
       style="stroke-width:0.222"
       d="M0,-1.33 L-1.33,0.67 L1.33,0.67 z" />
    <use
       xlink:href="#gpPt7"
       id="gpPt8"
       style="fill:currentColor; stroke:none" />
    <use
       xlink:href="#gpPt7"
       id="gpPt9"
       transform="rotate(180)" />
    <use
       xlink:href="#gpPt9"
       id="gpPt10"
       style="fill:currentColor; stroke:none" />
    <use
       xlink:href="#gpPt3"
       id="gpPt11"
       transform="rotate(45)" />
    <use
       xlink:href="#gpPt11"
       id="gpPt12"
       style="fill:currentColor; stroke:none" />
  </defs>
  <path
     style="fill:#808080;fill-opacity:1.0000000;fill-rule:evenodd;stroke:none;stroke-width:0.25000000pt;stroke-linecap:butt;stroke-linejoin:miter;stroke-opacity:1.0000000"
     d="M 92.956599,312.18656 C 92.956599,312.18656 97.144509,351.27368 109.70822,376.99938 C 122.27194,402.72508 147.19995,410.50262 152.58440,412.09802 C 157.96885,413.69341 163.75214,414.69053 163.75214,414.69053 L 163.75214,426.05770 L 59.852209,426.05770 L 59.852209,312.38599 L 92.956599,312.18656 z "
     id="path1385"
     sodipodi:nodetypes="cssccccc" />
  <g
     style="fill:none; color:white; stroke:currentColor; stroke-width:1.00"
     id="g2133" />
  <g
     style="fill:none; color:white; stroke:currentColor; stroke-width:0.50"
     id="g2135" />
  <g
     style="fill:none; color:black; stroke:currentColor; stroke-width:0.50"
     id="g2137">
    <path
       d="M60,369 L51,369 M60,369 L69,369 "
       id="path2139" />
    <g
       transform="translate(52,373)"
       style="stroke:none; fill:black; font-family:Arial; font-size:12.00; text-anchor:end"
       id="g2141">
      <text
         id="text2143"> 5</text>
    </g>
    <path
       d="M60,312 L51,312 M60,312 L69,312 "
       id="path2145" />
    <g
       transform="translate(52,316)"
       style="stroke:none; fill:black; font-family:Arial; font-size:12.00; text-anchor:end"
       id="g2147">
      <text
         id="text2149"> 10</text>
    </g>
    <path
       d="M164,426 L164,435 M164,426 L164,417 "
       id="path2151" />
    <g
       transform="translate(164,457)"
       style="stroke:none; fill:black; font-family:Arial; font-size:12.00; text-anchor:middle"
       id="g2153">
      <text
         id="text2155"> 1</text>
    </g>
    <path
       d="M60,426 L174,426 M60,426 L60,312 "
       id="path2157" />
    <g
       transform="translate(180,430)"
       style="stroke:none; fill:black; font-family:Arial; font-size:12.00; text-anchor:start"
       id="g2159">
      <text
         id="text2161">x</text>
    </g>
    <g
       transform="translate(60,299)"
       style="stroke:none; fill:black; font-family:Arial; font-size:12.00; text-anchor:start"
       id="g2163">
      <text
         id="text2165">y</text>
    </g>
    <g
       style="stroke:none; shape-rendering:crispEdges"
       id="g2167">
      <polygon
         fill="currentColor"
         points="168,426 168,423 177,426 168,429 168,426 "
         id="polygon2169" />
    </g>
    <path
       d="M168,426 L168,423 L177,426 L168,429 L168,426 M60,426 L168,426 "
       id="path2171" />
    <g
       style="stroke:none; shape-rendering:crispEdges"
       id="g2173">
      <polygon
         fill="currentColor"
         points="60,310 57,310 60,301 63,310 60,310 "
         id="polygon2175" />
    </g>
    <path
       d="M60,310 L57,310 L60,301 L63,310 L60,310 M60,426 L60,310 "
       id="path2177" />
  </g>
  <g
     style="fill:none; color:black; stroke:currentColor; stroke-width:1.50"
     id="g2179">
    <path
       d="M 93.000000,312.00000 C 94.628570,326.93878 97.759455,341.69093 101.89866,356.12478 C 107.33829,374.70396 116.66011,393.61430 134.01705,403.70309 C 145.76184,410.75172 159.32351,413.99032 172.64156,416.43819 L 174.00000,417.00000"
       id="path2181" />
  </g>
  <g
     style="fill:none; color:black; stroke:currentColor; stroke-width:0.50"
     id="g2183" />
</svg>
