<?xml version="1.0" encoding="UTF-8" standalone="no"?>
<!-- Created with Inkscape (http://www.inkscape.org/) -->
<svg
   xmlns:dc="http://purl.org/dc/elements/1.1/"
   xmlns:cc="http://web.resource.org/cc/"
   xmlns:rdf="http://www.w3.org/1999/02/22-rdf-syntax-ns#"
   xmlns:svg="http://www.w3.org/2000/svg"
   xmlns="http://www.w3.org/2000/svg"
   xmlns:xlink="http://www.w3.org/1999/xlink"
   xmlns:sodipodi="http://inkscape.sourceforge.net/DTD/sodipodi-0.dtd"
   xmlns:inkscape="http://www.inkscape.org/namespaces/inkscape"
   width="744.09448819"
   height="1052.3622047"
   id="svg2"
   sodipodi:version="0.32"
   inkscape:version="0.42.2"
   sodipodi:docbase="/home/bcrowell/Documents/writing/calc/trunk/ch00/figs"
   sodipodi:docname="cover.svg">
  <defs
     id="defs4" />
  <sodipodi:namedview
     id="base"
     pagecolor="#ffffff"
     bordercolor="#666666"
     borderopacity="1.0"
     inkscape:pageopacity="0.0"
     inkscape:pageshadow="2"
     inkscape:zoom="0.91561247"
     inkscape:cx="391.79110"
     inkscape:cy="554.21430"
     inkscape:document-units="px"
     inkscape:current-layer="layer1"
     inkscape:window-width="1278"
     inkscape:window-height="996"
     inkscape:window-x="0"
     inkscape:window-y="0" />
  <metadata
     id="metadata7">
    <rdf:RDF>
      <cc:Work
         rdf:about="">
        <dc:format>image/svg+xml</dc:format>
        <dc:type
           rdf:resource="http://purl.org/dc/dcmitype/StillImage" />
      </cc:Work>
    </rdf:RDF>
  </metadata>
  <g
     inkscape:label="Layer 1"
     inkscape:groupmode="layer"
     id="layer1">
    <image
       id="image1355"
       height="818.56427"
       width="540.00000"
       sodipodi:absref="/home/bcrowell/Documents/writing/calc/trunk/ch00/figs/bridge.jpg"
       xlink:href="bridge.jpg"
       x="108.17402"
       y="82.266708" />
    <path
       style="fill:#ffffff;fill-opacity:1.0000000;fill-rule:nonzero;stroke:none;stroke-width:1.0000000pt;stroke-linecap:butt;stroke-linejoin:miter;stroke-opacity:1.0000000"
       id="path2816"
       d="M 212.32238,470.56551 C 216.34240,487.03783 224.23640,502.39523 230.29686,518.23271 C 243.67680,547.02599 253.49716,577.49192 267.26884,606.08089 C 282.33291,639.76507 311.09664,662.21729 346.12801,671.32814 C 393.81326,682.18566 440.58934,669.99793 485.28115,653.28250 C 531.98691,634.23497 578.34272,614.38331 625.12248,595.52109 C 632.88801,592.34137 640.67157,589.20903 648.47904,586.13648 L 633.57159,597.95420 C 625.95885,600.83707 618.37030,603.78316 610.83733,606.87456 C 564.10925,625.48894 518.02406,645.64029 471.32409,664.32100 C 426.22575,681.11528 378.87421,693.16056 330.84889,681.96484 C 295.33732,672.50558 266.05131,649.78863 251.10678,615.35590 C 237.58396,586.63441 226.85817,556.54401 213.25003,527.84769 C 206.92091,511.85055 199.80156,496.19000 194.04197,479.98572 L 212.32238,470.56551 z " />
    <path
       style="fill:#ffffff;fill-opacity:1.0000000;fill-rule:nonzero;stroke:none;stroke-width:1.0000000pt;stroke-linecap:butt;stroke-linejoin:miter;stroke-opacity:1.0000000"
       id="path2818"
       d="M 189.49290,513.06635 C 183.29790,614.49262 183.38499,716.21709 184.91023,817.78907 C 185.04511,823.57345 185.18000,829.35784 185.31489,835.14222 L 170.52363,842.67730 C 170.66767,836.75055 170.81170,830.82381 170.95573,824.89707 C 172.69007,724.14325 174.15505,623.20539 170.97522,522.50157 L 189.49290,513.06635 z " />
    <path
       style="fill:#ffffff;fill-opacity:1.0000000;fill-rule:nonzero;stroke:none;stroke-width:1.0000000pt;stroke-linecap:butt;stroke-linejoin:miter;stroke-opacity:1.0000000"
       id="path2820"
       d="M 191.34865,849.97621 C 275.88625,817.28904 357.70548,776.14219 437.04676,731.71441 C 496.55365,695.56016 558.91658,664.81751 622.27824,636.13398 L 605.49620,649.43524 C 542.86401,676.83040 481.83314,707.53592 423.24846,742.85823 C 341.62394,788.58024 257.96001,830.91083 170.81247,864.89660 L 191.34865,849.97621 z " />
    <path
       style="fill:#ffffff;fill-opacity:1.0000000;fill-rule:nonzero;stroke:none;stroke-width:1.0000000pt;stroke-linecap:butt;stroke-linejoin:miter;stroke-opacity:1.0000000"
       id="path2828"
       d="M 125.37396,561.94725 C 128.38426,572.26028 132.05691,582.61172 138.29025,591.51450 C 155.99144,598.82090 127.09327,613.31623 141.10499,593.12850 C 146.09109,586.46920 149.65864,579.14799 150.13800,570.83290 C 164.89927,537.92226 163.51291,572.50970 164.18546,583.01448 C 165.36272,602.99787 171.34943,622.81049 170.34882,642.89681 C 166.82201,662.19725 141.84023,669.27802 124.63118,666.56258 L 135.13779,659.17870 C 154.12606,662.20528 153.21228,664.32604 158.86945,648.64267 C 160.75133,628.57216 154.07321,608.83479 152.79718,588.91292 C 151.68696,572.88455 147.57756,568.28061 162.50368,559.90814 C 163.92441,559.11121 160.48207,565.02779 162.09173,564.77769 C 161.84787,573.40383 158.10924,581.05230 152.99595,587.94353 C 147.27057,596.41838 135.23509,609.77659 126.93851,598.25658 C 121.42306,589.91297 116.75586,578.04995 114.33506,569.96748 L 125.37396,561.94725 z " />
    <g
       id="g2834"
       transform="matrix(0.521737,-0.193400,0.174407,0.578551,524.6218,505.3936)"
       style="fill:#fefefe;fill-opacity:1.0000000">
      <path
         d="M -144.50825,324.50009 C -139.59228,322.19440 -133.87801,319.71752 -128.29346,321.88594 C -105.94041,341.71921 -89.467411,366.83705 -74.657703,392.48079 C -67.038512,408.59075 -56.919133,410.62344 -39.785051,411.92805 L -56.546371,423.90426 C -74.563570,422.41771 -85.428255,420.32921 -92.805037,402.91705 C -106.49119,377.22902 -122.39992,351.40077 -146.17908,333.83094 C -151.71001,333.78392 -156.99141,336.09732 -162.28456,337.41533 L -144.50825,324.50009 z "
         id="path2830"
         style="fill:#fefefe;fill-opacity:1.0000000;fill-rule:nonzero;stroke:none;stroke-width:1.0000000pt;stroke-linecap:butt;stroke-linejoin:miter;stroke-opacity:1.0000000" />
      <path
         d="M -49.247344,338.63392 C -43.016314,335.21109 -36.833018,331.69989 -30.554255,328.36542 C -25.527009,325.69560 -39.844399,334.95317 -44.641136,338.01788 C -53.468556,343.65785 -71.044786,353.44679 -76.397241,356.40502 C -115.39180,377.95677 -87.262008,359.98333 -112.61733,375.46413 C -125.29027,382.90818 -137.14384,391.60921 -149.20136,399.98304 L -168.23527,407.45402 C -155.85918,399.15171 -143.85071,390.28932 -131.07169,382.60042 C -71.881679,346.43803 -77.156991,354.70730 -31.471034,325.71867 L -49.247344,338.63392 z "
         id="path2832"
         style="fill:#fefefe;fill-opacity:1.0000000;fill-rule:nonzero;stroke:none;stroke-width:1.0000000pt;stroke-linecap:butt;stroke-linejoin:miter;stroke-opacity:1.0000000" />
    </g>
    <path
       style="fill:#aa8647;fill-opacity:1.0000000;fill-rule:nonzero;stroke:none;stroke-width:1.0000000pt;stroke-linecap:butt;stroke-linejoin:miter;stroke-opacity:1.0000000"
       id="path1316"
       d="M 335.57674,464.79821 C 334.30526,461.45494 332.16067,458.73965 328.05518,458.53715 C 322.61782,458.08535 313.02252,464.20923 325.01724,456.55427 C 326.75005,455.44841 322.18376,459.42351 321.03034,461.02489 C 313.80745,470.59925 310.72089,481.57612 309.49910,492.83162 C 307.51820,508.10862 313.99872,521.90744 324.35100,533.35229 C 330.56009,538.70989 338.42724,549.84894 348.56489,548.56958 C 348.12583,549.24467 352.29469,546.39576 351.41547,547.00984 C 349.80038,548.13788 348.24699,549.35188 346.52023,550.33472 C 344.30758,551.59412 350.14474,546.91163 351.69372,545.01377 C 356.03717,539.69207 359.94489,533.82733 362.91677,527.81515 C 366.25129,521.54422 368.26240,514.31440 373.49411,508.99919 C 402.73528,492.50359 348.66226,523.37941 366.68388,511.73801 C 357.54601,521.31123 363.69574,532.97312 370.30554,541.67578 C 375.28056,548.33869 382.16356,545.43283 372.47290,550.97700 C 372.03646,551.22669 373.15995,550.27529 373.43534,549.88222 C 375.44688,547.01097 376.29995,543.58131 377.12522,540.35351 C 378.56696,530.13668 379.66106,519.01032 380.03282,509.13793 C 382.43183,507.85908 384.68670,506.32029 387.22984,505.30139 C 390.53126,503.97869 386.34930,511.71202 386.39902,514.91880 C 386.47472,519.80353 387.29261,524.37814 389.49082,528.78730 C 390.05901,529.47758 390.64097,530.62230 391.75174,530.75109 C 396.77261,531.33322 401.99550,527.46837 405.07851,523.76673 C 415.06195,507.93293 412.97318,489.18031 410.49172,472.13793 C 409.06834,464.80187 407.37499,457.45561 404.75974,450.40324 C 404.31779,449.21145 400.99763,447.95624 402.27728,447.38661 C 404.33795,446.46928 405.88784,444.48138 408.13285,444.09264 C 408.54828,444.02069 406.40247,447.42212 404.55687,453.70062 C 400.63353,472.97560 401.25044,494.46710 410.27480,512.26639 C 413.00724,516.87162 416.11150,521.41145 420.31623,525.05165 C 421.16108,525.78309 424.85402,524.21066 423.88852,524.86096 C 417.90003,528.89439 417.24271,529.63259 420.48669,526.73385 C 429.49936,516.83735 432.02719,503.83998 435.27869,491.81067 C 436.20321,485.63173 443.20996,479.25587 450.13319,481.86752 C 459.88477,485.54526 439.25898,491.27731 435.18648,493.72286 C 437.14810,492.38806 439.08187,491.01910 441.07133,489.71847 C 442.43157,488.82917 439.24071,492.44714 439.28545,493.93455 C 439.38007,497.07936 441.85810,500.14659 443.76548,502.59440 C 447.95231,508.20844 456.01820,507.63714 461.88001,503.87323 C 460.26127,504.86310 458.86273,506.25945 457.02378,506.84285 C 454.43235,507.66497 459.98482,502.60451 460.83604,500.26195 C 463.45810,493.04595 464.12363,484.93986 461.91719,477.71390 C 462.30461,477.40855 459.72644,472.85755 459.78375,472.81974 C 462.08262,471.30357 464.45114,469.85487 466.95053,468.62875 C 468.57803,467.83036 466.71378,471.92783 466.87316,473.56120 C 467.43615,479.33059 469.03709,484.92869 470.98804,490.39522 C 473.54350,495.78983 475.91591,502.21023 481.19960,506.02808 C 482.76619,507.16007 488.99111,504.67638 487.31968,505.76819 C 481.49144,509.57529 481.00565,510.39527 483.85586,507.30771 C 489.98492,498.29306 490.65226,486.76823 489.24934,476.62971 C 489.22470,476.53890 489.20011,476.44809 489.17549,476.35729 C 491.62120,474.87594 493.99868,473.29703 496.51264,471.91325 C 498.02834,471.07894 496.65843,475.05924 496.86828,476.61720 C 497.57446,481.86011 499.51284,486.77368 503.19830,490.81987 C 513.67821,492.17596 520.18419,479.69292 525.72011,465.35143 C 530.39423,449.79850 530.43363,432.52537 524.00184,417.59680 C 522.50563,414.26054 518.04603,416.68059 527.68618,412.62320 C 529.58334,411.82471 525.00589,415.30757 522.63685,420.21209 C 518.67500,428.41410 518.53487,436.73300 519.56654,445.35462 C 523.27304,455.67139 527.83092,481.05326 542.40902,483.95269 C 546.88447,481.53602 540.47817,485.81322 539.23056,486.33401 C 536.96892,487.27807 542.85245,483.55028 545.02380,478.52209 C 548.48663,470.50318 548.18313,461.15696 546.99152,452.86432 C 559.78694,445.54339 552.72051,456.31970 560.05828,464.35075 C 561.26308,465.66938 567.35395,462.61820 565.81467,463.69823 C 564.37894,464.70560 562.84852,465.59736 561.36544,466.54693 C 569.04165,465.25154 567.09415,446.45889 569.54838,445.13205 C 578.57142,440.25387 576.78809,439.69582 576.82276,445.06025 C 577.12740,451.36971 577.58308,457.83467 579.74374,463.84754 C 580.17188,465.03904 583.35796,466.15665 582.18028,466.87847 C 576.15888,470.56904 574.55080,472.56032 577.42063,469.41693 C 585.03710,459.33145 591.10864,448.15352 594.57209,436.42822 C 596.20872,430.06423 595.24342,430.10414 603.44406,426.20571 C 604.14619,425.87192 602.91351,427.54678 602.71087,428.23240 C 601.93128,430.86997 601.51682,433.22114 601.72371,435.92720 C 601.74477,445.80112 617.07539,448.67446 617.74277,457.60763 C 615.17220,466.14146 580.44827,477.53974 602.29765,464.03766 C 611.78368,463.01645 621.52250,463.39754 630.91453,461.48413 C 633.06950,461.04510 638.80556,457.95771 637.06667,459.20607 C 628.53376,465.33185 630.63662,463.92062 632.67057,461.50476 C 633.38364,460.18622 633.06831,459.39581 632.46224,458.20611 L 639.38423,453.48144 C 640.21470,454.85958 640.77605,455.80696 640.09926,457.45174 C 631.25444,471.20266 610.06615,466.15113 596.11476,469.46536 C 607.36897,461.00955 607.42441,466.70903 610.51067,461.82855 C 610.90216,453.18097 594.47626,449.65978 594.83552,440.17402 C 593.64240,430.41123 606.71765,417.87209 601.76027,432.32189 C 598.00916,444.04958 592.03707,455.20856 584.74461,465.56483 C 570.64689,484.50862 570.87309,456.82543 569.90742,449.28019 C 569.43505,443.64514 568.86998,446.13803 576.98893,440.76684 C 581.14634,438.01643 566.99947,467.21690 568.58389,462.93542 C 567.75303,463.52516 560.03586,470.56550 555.92352,470.43874 C 552.39838,470.33009 545.26983,455.57608 547.09424,453.68947 C 549.13120,451.58311 551.87119,450.12070 554.25965,448.33629 C 554.22523,448.37516 554.19085,448.41402 554.15642,448.45289 C 554.55229,462.96258 555.60257,483.34608 536.04655,489.13040 C 521.78584,487.27419 517.09085,458.31435 513.25529,449.26366 C 512.51911,443.59500 515.91740,400.84967 530.90290,413.12144 C 536.35842,428.60604 537.13348,445.68262 532.34280,461.61695 C 528.31461,472.37875 511.79800,500.09970 496.39880,495.58128 C 494.68095,493.45483 486.09948,478.51057 489.13810,476.42210 C 491.50265,474.79692 494.02455,473.36841 496.46778,471.84156 C 496.46801,471.95196 496.46828,472.06235 496.46854,472.17274 C 497.10598,482.60298 496.79693,494.06316 491.06346,503.53650 C 477.07758,520.73957 469.88447,507.05226 464.56454,494.53985 C 463.71305,492.18385 456.73826,474.71000 459.32838,472.69070 C 461.61910,470.90480 464.21343,469.44675 466.81830,468.05814 C 466.83074,468.05150 468.86384,472.98552 468.79186,473.32066 C 472.73618,486.57033 469.05040,501.08059 456.03628,509.29417 C 449.64237,512.95759 441.12385,513.29426 436.98298,507.22895 C 430.55936,498.61892 429.95010,494.45710 441.17141,488.16355 C 459.44845,478.05396 450.08421,491.36658 443.50544,486.92086 C 442.14484,486.49458 437.99400,487.74287 439.14379,486.91485 C 450.13315,479.00078 443.31270,482.87426 442.45954,487.69781 C 438.64897,499.75152 436.42761,512.76425 427.73707,523.02947 C 413.88084,536.67114 411.23767,528.46165 403.88335,516.48102 C 395.04738,498.40694 394.27526,477.04828 397.91843,457.51486 C 407.30454,421.17650 415.59699,455.35689 416.90181,468.15108 C 419.46514,485.28164 421.59075,503.95538 412.10403,520.05991 C 408.02898,525.31709 390.04578,541.56678 382.54792,533.39252 C 380.70362,529.44608 375.81744,512.85284 379.87099,509.58270 C 382.19150,507.71069 384.84128,506.19986 387.32641,504.50843 C 386.02433,515.12194 385.43300,525.80509 383.93346,536.41398 C 381.73882,546.37912 371.87111,559.61238 363.72228,546.16767 C 357.03511,537.14756 350.67493,525.61442 359.35030,515.44260 C 364.19483,511.93265 368.13106,508.57206 373.71369,506.38878 C 376.46577,505.31250 384.17844,501.56622 382.13810,503.55567 C 379.12012,506.49836 367.64166,515.09753 381.17856,505.20779 C 375.24646,509.95582 373.41051,517.72520 369.99069,523.89613 C 364.57491,535.39387 355.48474,548.70626 342.32279,553.91196 C 331.81547,554.21474 324.48544,543.61671 317.94482,537.80021 C 307.50885,526.24876 300.93263,512.26761 302.68965,496.86711 C 303.96117,485.58732 306.58533,474.61904 313.74843,464.92466 C 318.32526,458.14602 325.56742,453.01457 334.48794,453.26816 C 338.98486,453.73669 341.02010,456.80530 342.92333,460.24498 L 335.57674,464.79821 z " />
    <path
       style="fill:#aa8647;fill-opacity:1.0000000;fill-rule:nonzero;stroke:none;stroke-width:1.0000000pt;stroke-linecap:butt;stroke-linejoin:miter;stroke-opacity:1.0000000"
       id="path1332"
       d="M 350.09188,585.70832 C 349.55500,582.86025 348.48189,579.55786 345.31534,578.91955 C 356.97423,570.71893 346.14065,577.90420 343.99275,583.20336 C 343.13007,586.26315 342.66687,589.41240 343.24764,592.50125 C 344.37382,596.21864 346.91153,599.35169 349.90840,602.01226 C 352.34837,603.74277 355.36364,604.34400 358.45632,604.35279 C 358.26602,605.04239 361.38608,603.36027 360.75064,603.79297 C 349.27280,611.60890 358.21928,604.83902 360.17852,599.54621 C 361.47117,596.81752 358.57333,596.13878 360.06676,594.14279 C 364.64380,590.33291 369.54665,586.77800 374.91284,583.93305 C 377.89485,583.93944 376.28106,587.50482 376.02829,589.66131 C 375.75803,591.99362 376.39905,593.06455 378.91381,593.34658 C 388.44395,590.15253 374.47461,601.27291 379.03820,594.01746 C 381.09020,587.66148 380.31865,589.24587 387.74418,584.92015 C 386.63148,587.11053 386.40489,589.39045 387.79413,591.30096 C 387.44022,593.14942 395.69843,589.55362 394.02120,590.70244 C 384.30660,597.35646 386.51602,596.15617 388.83607,593.88595 C 390.79887,591.52703 391.21240,588.59859 389.96865,585.99090 C 386.03524,581.65822 380.89575,587.30978 392.06146,579.77677 C 391.92828,581.76792 393.72978,580.41160 395.64513,579.36848 C 382.73613,589.69693 393.79566,579.42766 396.89495,576.67712 C 400.44051,574.11267 406.30997,565.39972 408.02002,571.85141 C 408.70646,574.79378 409.58074,577.65131 411.96908,579.77437 C 422.79222,578.57920 408.79195,585.54518 411.07958,582.29032 C 411.85905,580.44401 411.26468,577.67677 410.95052,576.44912 C 421.64183,568.61456 416.41544,572.29406 419.29151,577.63624 C 426.15810,575.56582 413.74904,585.79289 418.00516,578.51856 C 418.95783,576.28885 419.14014,574.05660 418.93790,571.73464 C 418.44169,564.85765 427.60520,565.96224 432.08855,564.37426 C 426.20147,567.48137 426.98687,569.45574 430.96809,562.88458 C 430.47672,559.65161 439.13097,551.97211 437.98524,557.54572 C 437.88719,560.57246 438.36133,563.35665 440.42628,565.70971 C 442.68491,567.50551 444.38851,567.42314 446.95842,566.21434 C 446.45641,566.78228 449.58690,564.52983 448.94383,564.96853 C 438.24621,572.26620 444.25320,569.00953 445.58102,563.93128 C 445.86185,558.83899 445.03638,553.70259 443.99929,548.73147 C 439.62978,543.54040 450.33037,533.94357 448.21723,545.05201 C 447.64927,549.04597 448.26183,552.66880 450.32911,556.13460 C 451.92169,558.39205 453.77241,559.80598 456.69247,560.25635 C 460.79332,560.33945 464.52228,556.92195 453.85695,563.83947 C 451.86624,565.13066 456.58810,560.09902 457.27546,557.99729 C 458.41481,554.05133 457.69809,550.03861 457.15043,546.10643 C 452.64824,541.85684 464.08444,535.82592 461.93396,539.09025 C 460.60112,542.83417 461.31005,546.88997 462.44673,550.54332 C 463.86927,554.42972 466.59244,557.18596 470.62009,558.97898 C 470.68861,558.97693 471.47952,559.30401 471.53230,559.32396 L 464.79768,564.44477 C 464.49045,564.31765 464.17592,564.20408 463.87596,564.06341 C 459.82437,561.99974 456.90457,559.12855 455.40161,555.09242 C 454.14296,551.32976 453.41431,547.17607 454.50754,543.25405 C 456.60481,536.97292 464.82516,534.41408 464.35941,541.63526 C 464.85857,545.65346 465.61050,549.75984 464.58047,553.79429 C 462.87537,559.64607 457.68615,566.12668 450.15864,565.53855 C 447.07654,564.91427 444.97384,563.24944 443.30965,560.83807 C 441.17415,557.20496 440.42238,553.49745 440.98969,549.30660 C 441.94078,543.30370 450.82431,534.07478 451.07143,544.28785 C 452.04866,549.34032 452.94733,554.50171 452.89487,559.65900 C 451.63696,565.66907 447.12024,568.95246 440.77006,571.83133 C 437.92282,572.96510 435.77031,572.44017 433.50097,570.59728 C 431.33268,568.04086 430.67520,565.19142 430.69760,561.92701 C 430.95460,556.85373 441.46108,551.75745 438.47820,558.78009 C 435.56461,563.80048 431.73323,566.95884 425.87247,569.97115 C 415.94475,572.07693 425.41385,567.32657 426.19975,567.24945 C 426.43583,569.67214 426.39048,571.99716 425.45648,574.34969 C 423.49633,578.72709 417.53356,584.79485 412.34748,582.53268 C 408.73327,577.17021 411.37045,574.60620 417.82350,571.33366 C 418.81732,573.44050 419.01552,575.76045 418.50724,578.08082 C 416.86094,582.62553 410.15638,586.86309 405.10920,584.74222 C 402.68628,582.41686 401.58044,579.53906 400.86598,576.40269 C 399.78601,572.41280 410.94538,568.11919 404.50395,572.81570 C 399.58483,577.09991 395.77028,581.96773 389.53975,585.04586 C 387.11156,586.10311 384.06335,586.94021 384.33912,583.65759 C 390.00489,579.78028 392.60846,576.27409 397.03046,581.25055 C 398.42398,584.05295 398.29883,587.22338 396.37342,589.92967 C 392.80236,594.33749 386.76452,598.91347 380.91175,596.26284 C 378.99852,594.11753 379.39817,591.64667 380.15128,588.99941 C 390.57194,582.36667 388.26413,583.54965 386.50093,589.91841 C 383.91985,594.75575 378.47097,598.84660 372.39940,598.69243 C 369.62014,598.14568 368.43304,596.65951 368.70493,594.02678 C 368.82882,592.90305 370.23456,588.33881 368.76560,589.57891 C 359.73511,594.61973 378.54041,582.29762 367.72982,590.30183 C 365.31292,591.28236 368.75722,592.48639 367.51173,595.34294 C 365.45516,601.58358 359.75243,609.06893 351.98828,609.71352 C 348.75291,609.51491 345.50580,608.84705 343.05060,606.88311 C 340.01550,604.04223 337.35512,600.84970 336.08535,597.00681 C 335.39909,593.81680 335.77231,590.61403 336.60755,587.42147 C 338.74668,581.03712 346.17326,576.88308 351.79232,573.51300 C 355.28113,574.62244 356.34336,578.16977 357.43847,581.15509 L 350.09188,585.70832 z " />
  </g>
</svg>
