<?xml version="1.0" encoding="UTF-8" standalone="no"?>
<!-- Created with Inkscape (http://www.inkscape.org/) -->
<svg
   xmlns:dc="http://purl.org/dc/elements/1.1/"
   xmlns:cc="http://creativecommons.org/ns#"
   xmlns:rdf="http://www.w3.org/1999/02/22-rdf-syntax-ns#"
   xmlns:svg="http://www.w3.org/2000/svg"
   xmlns="http://www.w3.org/2000/svg"
   xmlns:xlink="http://www.w3.org/1999/xlink"
   xmlns:sodipodi="http://sodipodi.sourceforge.net/DTD/sodipodi-0.dtd"
   xmlns:inkscape="http://www.inkscape.org/namespaces/inkscape"
   width="744.09448819"
   height="1052.3622047"
   id="svg2"
   sodipodi:version="0.32"
   inkscape:version="0.46"
   sodipodi:docbase="/home/bcrowell/Documents/writing/calc/trunk/ch00/figs"
   sodipodi:docname="cover.svg"
   inkscape:output_extension="org.inkscape.output.svg.inkscape">
  <defs
     id="defs4">
    <inkscape:perspective
       sodipodi:type="inkscape:persp3d"
       inkscape:vp_x="0 : 526.18109 : 1"
       inkscape:vp_y="0 : 1000 : 0"
       inkscape:vp_z="744.09448 : 526.18109 : 1"
       inkscape:persp3d-origin="372.04724 : 350.78739 : 1"
       id="perspective17" />
  </defs>
  <sodipodi:namedview
     id="base"
     pagecolor="#ffffff"
     bordercolor="#666666"
     borderopacity="1.0"
     inkscape:pageopacity="0.0"
     inkscape:pageshadow="2"
     inkscape:zoom="0.91561247"
     inkscape:cx="271.89139"
     inkscape:cy="559.15503"
     inkscape:document-units="px"
     inkscape:current-layer="layer1"
     inkscape:window-width="1278"
     inkscape:window-height="996"
     inkscape:window-x="1"
     inkscape:window-y="1"
     showgrid="false" />
  <metadata
     id="metadata7">
    <rdf:RDF>
      <cc:Work
         rdf:about="">
        <dc:format>image/svg+xml</dc:format>
        <dc:type
           rdf:resource="http://purl.org/dc/dcmitype/StillImage" />
      </cc:Work>
    </rdf:RDF>
  </metadata>
  <g
     inkscape:label="Layer 1"
     inkscape:groupmode="layer"
     id="layer1">
    <image
       id="image1355"
       height="818.56427"
       width="540.00000"
       sodipodi:absref="/home/bcrowell/Documents/writing/calc/trunk/ch00/figs/bridge.jpg"
       xlink:href="bridge.jpg"
       x="108.17402"
       y="82.266708" />
    <path
       style="fill:#ffffff;fill-opacity:1.0000000;fill-rule:nonzero;stroke:none;stroke-width:1.0000000pt;stroke-linecap:butt;stroke-linejoin:miter;stroke-opacity:1.0000000"
       id="path2816"
       d="M 212.32238,470.56551 C 216.34240,487.03783 224.23640,502.39523 230.29686,518.23271 C 243.67680,547.02599 253.49716,577.49192 267.26884,606.08089 C 282.33291,639.76507 311.09664,662.21729 346.12801,671.32814 C 393.81326,682.18566 440.58934,669.99793 485.28115,653.28250 C 531.98691,634.23497 578.34272,614.38331 625.12248,595.52109 C 632.88801,592.34137 640.67157,589.20903 648.47904,586.13648 L 633.57159,597.95420 C 625.95885,600.83707 618.37030,603.78316 610.83733,606.87456 C 564.10925,625.48894 518.02406,645.64029 471.32409,664.32100 C 426.22575,681.11528 378.87421,693.16056 330.84889,681.96484 C 295.33732,672.50558 266.05131,649.78863 251.10678,615.35590 C 237.58396,586.63441 226.85817,556.54401 213.25003,527.84769 C 206.92091,511.85055 199.80156,496.19000 194.04197,479.98572 L 212.32238,470.56551 z " />
    <path
       style="fill:#ffffff;fill-opacity:1.0000000;fill-rule:nonzero;stroke:none;stroke-width:1.0000000pt;stroke-linecap:butt;stroke-linejoin:miter;stroke-opacity:1.0000000"
       id="path2818"
       d="M 189.49290,513.06635 C 183.29790,614.49262 183.38499,716.21709 184.91023,817.78907 C 185.04511,823.57345 185.18000,829.35784 185.31489,835.14222 L 170.52363,842.67730 C 170.66767,836.75055 170.81170,830.82381 170.95573,824.89707 C 172.69007,724.14325 174.15505,623.20539 170.97522,522.50157 L 189.49290,513.06635 z " />
    <path
       style="fill:#ffffff;fill-opacity:1.0000000;fill-rule:nonzero;stroke:none;stroke-width:1.0000000pt;stroke-linecap:butt;stroke-linejoin:miter;stroke-opacity:1.0000000"
       id="path2820"
       d="M 191.34865,849.97621 C 275.88625,817.28904 357.70548,776.14219 437.04676,731.71441 C 496.55365,695.56016 558.91658,664.81751 622.27824,636.13398 L 605.49620,649.43524 C 542.86401,676.83040 481.83314,707.53592 423.24846,742.85823 C 341.62394,788.58024 257.96001,830.91083 170.81247,864.89660 L 191.34865,849.97621 z " />
    <path
       style="fill:#ffffff;fill-opacity:1.0000000;fill-rule:nonzero;stroke:none;stroke-width:1.0000000pt;stroke-linecap:butt;stroke-linejoin:miter;stroke-opacity:1.0000000"
       id="path2828"
       d="M 125.37396,561.94725 C 128.38426,572.26028 132.05691,582.61172 138.29025,591.51450 C 155.99144,598.82090 127.09327,613.31623 141.10499,593.12850 C 146.09109,586.46920 149.65864,579.14799 150.13800,570.83290 C 164.89927,537.92226 163.51291,572.50970 164.18546,583.01448 C 165.36272,602.99787 171.34943,622.81049 170.34882,642.89681 C 166.82201,662.19725 141.84023,669.27802 124.63118,666.56258 L 135.13779,659.17870 C 154.12606,662.20528 153.21228,664.32604 158.86945,648.64267 C 160.75133,628.57216 154.07321,608.83479 152.79718,588.91292 C 151.68696,572.88455 147.57756,568.28061 162.50368,559.90814 C 163.92441,559.11121 160.48207,565.02779 162.09173,564.77769 C 161.84787,573.40383 158.10924,581.05230 152.99595,587.94353 C 147.27057,596.41838 135.23509,609.77659 126.93851,598.25658 C 121.42306,589.91297 116.75586,578.04995 114.33506,569.96748 L 125.37396,561.94725 z " />
    <g
       id="g2834"
       transform="matrix(0.521737,-0.193400,0.174407,0.578551,524.6218,505.3936)"
       style="fill:#fefefe;fill-opacity:1.0000000">
      <path
         d="M -144.50825,324.50009 C -139.59228,322.19440 -133.87801,319.71752 -128.29346,321.88594 C -105.94041,341.71921 -89.467411,366.83705 -74.657703,392.48079 C -67.038512,408.59075 -56.919133,410.62344 -39.785051,411.92805 L -56.546371,423.90426 C -74.563570,422.41771 -85.428255,420.32921 -92.805037,402.91705 C -106.49119,377.22902 -122.39992,351.40077 -146.17908,333.83094 C -151.71001,333.78392 -156.99141,336.09732 -162.28456,337.41533 L -144.50825,324.50009 z "
         id="path2830"
         style="fill:#fefefe;fill-opacity:1.0000000;fill-rule:nonzero;stroke:none;stroke-width:1.0000000pt;stroke-linecap:butt;stroke-linejoin:miter;stroke-opacity:1.0000000" />
      <path
         d="M -49.247344,338.63392 C -43.016314,335.21109 -36.833018,331.69989 -30.554255,328.36542 C -25.527009,325.69560 -39.844399,334.95317 -44.641136,338.01788 C -53.468556,343.65785 -71.044786,353.44679 -76.397241,356.40502 C -115.39180,377.95677 -87.262008,359.98333 -112.61733,375.46413 C -125.29027,382.90818 -137.14384,391.60921 -149.20136,399.98304 L -168.23527,407.45402 C -155.85918,399.15171 -143.85071,390.28932 -131.07169,382.60042 C -71.881679,346.43803 -77.156991,354.70730 -31.471034,325.71867 L -49.247344,338.63392 z "
         id="path2832"
         style="fill:#fefefe;fill-opacity:1.0000000;fill-rule:nonzero;stroke:none;stroke-width:1.0000000pt;stroke-linecap:butt;stroke-linejoin:miter;stroke-opacity:1.0000000" />
    </g>
    <path
       style="opacity:1;fill:#aa8647;fill-opacity:1;fill-rule:nonzero;stroke:none;stroke-width:1pt;stroke-linecap:butt;stroke-linejoin:miter;marker:none;marker-start:none;marker-mid:none;marker-end:none;stroke-miterlimit:4;stroke-dasharray:none;stroke-dashoffset:0;stroke-opacity:1;visibility:visible;display:inline;overflow:visible;enable-background:accumulate"
       id="path2424"
       d="M 353.58227,476.84136 C 355.35682,476.82861 357.13104,476.78715 358.90492,476.73843 C 359.18541,476.73046 359.46591,476.72253 359.74628,476.71118 C 353.38425,481.6715 355.26845,482.10367 351.73404,480.94146 C 350.94399,480.72728 350.17749,480.44449 349.40407,480.17903 C 348.56873,479.88149 347.70094,479.7097 346.83426,479.53556 C 346.00654,479.32759 345.15617,479.27386 344.30709,479.24045 C 343.45377,479.24431 342.60376,479.19421 341.7521,479.15078 C 340.90631,479.04846 340.05486,479.01758 339.20392,478.99677 C 338.30841,478.96052 337.42043,478.9633 336.53805,479.12891 C 335.6974,479.30219 334.90898,479.64923 334.12185,479.981 C 331.31735,481.25323 326.32293,484.33675 338.18131,477.50538 C 337.22534,478.08639 336.40635,478.85272 335.59563,479.61564 C 334.79009,480.29447 334.13257,481.10957 333.48105,481.93062 C 332.67819,482.95619 331.81484,483.93209 331.00939,484.95557 C 330.38512,485.80129 329.72716,486.62076 329.10682,487.46937 C 328.35415,488.44294 327.68757,489.46917 327.10898,490.55421 C 326.50833,491.65561 326.11466,492.84192 325.7832,494.04632 C 325.44874,495.41724 325.18416,496.80431 324.90755,498.18782 C 324.64484,499.39238 324.48713,500.61484 324.36237,501.84018 C 324.22586,503.10469 324.16643,504.37487 324.13202,505.64563 C 324.08655,507.18209 324.12561,508.71871 324.17513,510.25446 C 324.20956,511.88458 324.32284,513.51114 324.45186,515.13603 C 324.55882,516.49891 324.63379,517.86399 324.74397,519.22663 C 324.86322,520.61987 325.01223,522.0103 325.23576,523.39079 C 325.48348,524.874 325.88035,526.32442 326.27142,527.77435 C 326.66664,529.178 327.02083,530.59279 327.36845,532.00885 C 327.71282,533.49017 328.3623,534.86874 328.94175,536.26663 C 329.41906,537.5468 329.95715,538.79925 330.59256,540.00874 C 331.31041,541.37844 331.96197,542.78105 332.62888,544.17589 C 333.25159,545.60397 333.96946,546.98415 334.86339,548.26088 C 335.57982,549.30546 336.41792,550.25795 337.20184,551.25099 C 337.98064,552.19108 338.78055,553.1143 339.61845,554.00223 C 340.3456,554.76443 341.17839,555.41604 341.99375,556.07993 C 342.74298,556.73233 343.54635,557.30688 344.40329,557.80759 C 345.23732,558.2021 346.0702,558.59865 346.90098,559.00006 C 347.68333,559.36509 348.51506,559.59502 349.35197,559.79366 C 350.26233,559.91861 351.16724,560.08081 352.07564,560.21971 C 353.09113,560.41197 354.12612,560.45466 355.15665,560.48659 C 356.22823,560.51959 357.30271,560.48913 358.37087,560.39834 C 359.24652,560.31279 360.11749,560.1861 360.9911,560.08018 C 362.04523,559.98498 363.02163,559.6235 363.95808,559.15104 C 368.21853,556.55416 354.70442,565.14252 359.42106,561.62641 C 360.13374,561.08788 360.85067,560.55523 361.55091,560.0005 C 362.55283,559.16824 363.34123,558.1252 364.06231,557.05004 C 364.82748,555.79081 365.46225,554.45827 366.14087,553.15158 C 366.91582,551.71268 367.47114,550.17218 368.06368,548.65313 C 368.56174,547.39862 369.09207,546.1571 369.51167,544.87346 C 369.84705,543.71284 370.19522,542.55673 370.56904,541.4079 C 371.18196,539.63146 371.65794,537.81309 372.23358,536.02486 C 372.84331,534.33479 373.4353,532.64098 373.94928,530.9191 C 374.32587,529.65863 374.56863,528.3646 374.83364,527.07764 C 375.0606,525.85734 375.3871,524.66311 375.82641,523.50302 C 376.35088,522.36149 376.85733,521.22058 377.27202,520.03396 C 377.68935,518.82004 378.12549,517.61188 378.64791,516.43887 C 379.11544,515.43429 379.73262,514.51326 380.40002,513.63267 C 382.51846,510.97405 385.7613,509.02403 389.11811,508.44738 C 389.89663,508.30511 390.68779,508.26643 391.47727,508.24714 C 392.20579,508.23817 392.92812,508.13037 393.65414,508.07566 C 394.41686,508.02556 395.18147,508.0158 395.94549,508.00108 C 396.01617,507.99989 396.0913,507.97282 396.15754,507.9975 C 396.34635,508.06785 396.8842,508.9186 396.66418,509.05536 C 390.26276,513.03429 392.09231,512.77034 388.95521,513.12595 C 388.10657,513.17886 387.26277,513.28263 386.41586,513.35527 C 384.25203,513.5939 375.93935,519.06263 391.09679,510.36338 C 389.83812,511.14316 389.25694,512.50238 388.7209,513.81916 C 387.90851,516.07489 387.30069,518.39732 386.68781,520.71316 C 386.04799,523.03715 385.50631,525.38542 385.04402,527.75063 C 384.60076,530.21473 384.2878,532.70008 384.06117,535.19278 C 383.92975,536.9502 383.8179,538.71521 383.97019,540.47409 C 384.11459,541.42958 384.48026,542.33231 385.17064,543.01685 C 385.74453,543.47726 386.40793,543.87918 387.12808,544.05206 C 386.8993,544.57261 388.97423,543.42269 388.45331,543.71668 C 381.82644,547.4567 379.91405,548.68312 382.40254,547.10032 C 383.6078,546.07811 384.20835,544.5558 384.79906,543.1313 C 385.77564,540.68001 386.22519,538.06707 386.77071,535.49725 C 387.34248,532.92238 387.97873,530.36347 388.47912,527.77329 C 388.86787,525.77177 388.96419,523.73426 389.01741,521.70136 C 389.04842,520.01928 389.03884,518.33681 389.02958,516.65458 C 389.02959,515.57987 389.02018,514.50536 388.93214,513.43387 C 388.96915,513.04635 388.66836,512.25345 388.61982,512.17908 C 388.62974,512.23088 388.60247,512.35819 388.64958,512.33447 C 398.39832,507.42707 394.64982,506.74246 395.36376,510.41302 C 395.68231,511.87992 395.9114,513.36428 396.13069,514.84866 C 396.31178,516.30775 396.63395,517.7348 397.03402,519.14706 C 397.39332,520.40756 397.76111,521.6637 398.24175,522.88384 C 398.65227,523.80504 399.15904,524.68112 399.76057,525.48983 C 400.36517,526.10294 401.10149,526.56201 401.76041,527.11709 C 402.43499,527.69928 403.23428,528.09116 404.0281,528.48002 C 404.76788,528.78826 405.55088,528.97777 406.34015,529.10544 C 407.11785,529.21313 407.90401,529.21988 408.68757,529.22658 C 409.46148,529.24481 410.22879,529.15184 410.98054,528.9735 C 411.62463,528.62094 412.37559,528.501 412.9755,528.07625 C 401.31578,535.01567 406.29104,532.45221 408.43516,530.05201 C 409.22679,529.13096 409.89764,528.12226 410.50742,527.07473 C 411.10369,525.99053 411.60743,524.85836 412.12856,523.73688 C 412.85933,522.24163 413.32551,520.64365 413.75675,519.04243 C 414.27666,516.98331 414.76791,514.91714 415.24533,512.8478 C 415.68254,510.96831 416.04404,509.07262 416.3813,507.17305 C 416.68363,505.41524 417.01429,503.66321 417.39523,501.92077 C 417.74966,500.3619 418.05261,498.79263 418.32929,497.21835 C 418.69244,494.95855 418.95639,492.68352 419.21143,490.40934 C 419.46448,488.02152 419.61435,485.62457 419.71871,483.22617 C 419.83619,480.74826 419.8045,478.26875 419.69534,475.79162 C 419.59099,473.6092 419.26654,471.44795 418.93149,469.29174 C 418.6857,467.55392 418.34411,465.83323 417.96396,464.12057 C 417.6396,462.71604 417.28275,461.31846 416.8511,459.9429 C 416.54399,458.9564 416.10399,458.02521 415.61518,457.11823 C 415.24832,456.45501 415.07539,455.96282 414.4978,456.59943 C 424.10265,451.2075 420.52424,451.78149 419.18792,456.11204 C 418.48642,458.6626 418.1673,461.29377 417.88461,463.91714 C 417.59498,466.7642 417.52305,469.62607 417.47963,472.48546 C 417.40948,475.15775 417.46733,477.8265 417.73572,480.48621 C 417.97434,482.70513 418.35174,484.9043 418.78683,487.09202 C 419.17496,488.99625 419.66202,490.87757 420.23273,492.73472 C 420.75852,494.28149 421.21114,495.85065 421.66726,497.41884 C 421.94557,498.48292 422.46944,499.44771 422.92572,500.43976 C 423.35307,501.43502 423.709,502.45335 424.20894,503.41607 C 424.76524,504.3913 425.34194,505.35579 425.9383,506.30724 C 426.50618,507.1375 427.08239,507.96706 427.75725,508.71453 C 428.34779,509.32219 429.07256,509.76867 429.74861,510.2712 C 430.46141,510.76716 431.15136,511.29531 431.87573,511.77513 C 432.60197,512.20777 433.386,512.52156 434.1938,512.7629 C 434.98827,513.0251 435.79922,513.18228 436.62515,513.299 C 437.65221,513.40945 438.67989,513.51014 439.71185,513.56051 C 440.32903,513.62073 440.88266,513.4217 441.36463,513.04755 C 431.4617,519.40464 434.57844,517.72742 436.3124,514.75129 C 436.83416,513.84729 437.2089,512.86986 437.59317,511.90238 C 438.13615,510.59405 438.44664,509.20989 438.78315,507.83898 C 439.22532,506.0768 439.61105,504.30165 439.97336,502.52158 C 440.28206,500.90681 440.59235,499.29235 440.90284,497.67791 C 441.10084,496.55135 441.32138,495.43067 441.64513,494.3331 C 441.97271,493.31122 442.41066,492.33003 442.85506,491.35489 C 443.23,490.54096 443.65184,489.74968 444.07133,488.95811 C 444.40486,488.2497 444.86419,487.65436 445.47851,487.17354 C 449.16462,484.77828 451.1662,482.81067 454.90159,482.76443 C 455.66565,482.76216 456.42966,482.77514 457.19368,482.78156 C 457.7463,482.61425 458.26038,482.64548 458.81947,482.7239 C 462.08671,483.25869 457.94541,483.78498 452.50158,487.47511 C 451.63669,487.47575 450.77181,487.4717 449.90692,487.47141 C 449.12537,487.43341 448.35779,487.51114 447.60726,487.72969 C 441.39501,490.80221 454.8724,483.12837 452.07638,485.06171 C 451.3371,485.67055 450.68309,486.37629 450.02045,487.06603 C 449.3098,487.76501 448.77611,488.60172 448.3184,489.48024 C 447.7747,490.5257 447.51233,491.66385 447.33124,492.81837 C 447.15626,493.99072 447.10118,495.17529 447.06851,496.35866 C 446.98654,497.49412 447.072,498.59173 447.3775,499.68585 C 447.7483,500.83021 448.20987,501.94188 448.80112,502.98943 C 449.36437,503.77642 450.03127,504.48865 450.67679,505.20977 C 451.33834,506.03036 452.17141,506.66229 453.06264,507.21027 C 453.83584,507.65775 454.72034,507.79495 455.56766,508.03411 C 456.47439,508.30171 457.41319,508.36938 458.35364,508.34912 C 459.33699,508.38096 460.26666,508.09372 461.18914,507.79354 C 462.39673,507.36069 463.5647,506.83428 464.70129,506.2413 C 467.13188,504.94865 470.78349,502.8082 459.70662,509.15319 C 459.50094,509.27101 460.11575,508.91363 460.31798,508.78998 C 460.91626,508.42415 460.93952,508.39846 461.51883,508.00567 C 462.55212,507.35189 463.32382,506.44228 464.05616,505.48392 C 464.87865,504.46801 465.71756,503.46835 466.47131,502.3996 C 467.31827,501.18882 467.86611,499.81794 468.3645,498.4372 C 468.90688,496.88729 469.19363,495.26867 469.47219,493.65561 C 469.72381,492.06565 469.87321,490.46217 470.07099,488.86513 C 470.23652,487.78069 470.2733,486.68471 470.28539,485.58978 C 470.31327,484.65259 470.25405,483.72041 470.11427,482.79427 C 470.22039,482.59626 469.64168,481.02808 469.9075,481.79715 C 479.06843,476.42166 476.32427,476.56276 476.1977,480.58528 C 476.1535,481.77671 476.2174,482.96059 476.40807,484.13668 C 476.65045,485.51152 477.16164,486.81071 477.70567,488.08883 C 478.16467,489.1861 478.64394,490.26982 479.22439,491.30853 C 479.63661,492.06796 480.25694,492.64852 480.93191,493.1697 C 481.61024,493.67306 482.41541,493.86588 483.23417,493.99038 C 484.0279,494.08794 484.82685,494.1021 485.61965,493.99939 C 491.23729,491.14232 477.98861,498.61726 480.92542,496.78009 C 485.40643,494.08849 495.44472,488.48058 482.00397,496.14574 C 481.88819,496.21177 482.22996,496.00347 482.33481,495.92118 C 482.60867,495.70621 482.71286,495.56789 482.94805,495.30794 C 483.61552,494.49199 484.23956,493.64038 484.86787,492.79391 C 485.53091,491.92515 486.06384,490.97802 486.51734,489.98661 C 486.99986,488.88159 487.17076,487.68756 487.31395,486.50088 C 487.45631,485.25573 487.49023,484.00217 487.50901,482.75017 C 487.52895,481.78081 487.5107,480.8121 487.47944,479.84329 C 487.43862,478.82357 487.38055,477.80454 487.30536,476.78678 C 487.20485,475.97367 487.179,475.12933 486.93577,474.34164 C 486.73219,475.40302 481.59881,476.93095 493.67095,470.90917 C 493.71201,470.88869 493.435,471.27331 493.26884,472.04893 C 493.07723,473.23108 492.96454,474.42423 492.88261,475.61843 C 492.81919,476.71662 492.79465,477.81694 492.80644,478.91681 C 492.80961,479.85432 492.97828,480.7719 493.25869,481.6632 C 493.62313,482.67601 494.10851,483.63918 494.67043,484.55547 C 495.23498,485.39797 495.92828,486.15037 496.67551,486.83316 C 497.32437,487.42485 498.08999,487.7957 498.94927,487.94472 C 499.75501,488.07194 500.5431,488.2742 501.35202,488.38184 C 502.13059,488.49535 502.91382,488.461 503.68596,488.32521 C 508.0671,485.81843 495.19493,493.73251 498.98038,490.92528 C 499.72333,490.4121 500.4484,489.88217 501.12858,489.28796 C 501.84285,488.70239 502.49059,488.04325 503.17121,487.42022 C 503.79751,486.86958 504.41459,486.31605 504.93794,485.66504 C 505.49356,484.92758 505.96444,484.13139 506.45502,483.35031 C 506.93952,482.51929 507.37703,481.66236 507.84648,480.82258 C 508.29633,479.97145 508.67256,479.0835 509.07343,478.20857 C 509.54569,477.15072 509.94307,476.06171 510.3048,474.96182 C 510.64995,473.82508 510.95636,472.67807 511.31982,471.54686 C 511.75856,470.2391 511.85398,468.85347 512.01124,467.49205 C 512.21702,465.8528 512.44457,464.21637 512.66014,462.57838 C 512.85339,460.95603 513.02518,459.33107 513.19685,457.7063 C 513.41964,455.72109 513.49956,453.72498 513.54843,451.72923 C 513.58885,449.72781 513.58726,447.72605 513.56292,445.72449 C 513.51471,443.66779 513.41135,441.61276 513.32861,439.55721 C 513.26972,437.73588 513.13886,435.91929 512.91049,434.11156 C 512.67973,432.51868 512.55045,430.91407 512.32055,429.32125 C 512.10457,427.96225 511.73593,426.63514 511.44241,425.29219 C 511.56903,425.06526 510.83556,423.24736 510.97271,424.02074 C 522.14045,417.53317 518.10241,419.36276 516.13543,422.03486 C 515.32456,423.19194 514.84436,424.52651 514.41237,425.85977 C 513.94296,427.40882 513.5703,428.98435 513.26821,430.57385 C 512.99262,432.22853 512.84345,433.90055 512.62796,435.56363 C 512.38228,437.27543 512.12728,438.98457 511.94867,440.70498 C 511.79089,442.44939 511.81309,444.20262 511.89622,445.95004 C 512.00617,447.46936 512.13159,448.98703 512.22384,450.50761 C 512.30612,452.04564 512.40718,453.58277 512.53505,455.1177 C 512.62886,456.50192 512.8734,457.86447 513.194,459.212 C 513.51837,460.52044 514.14449,461.72046 514.63268,462.96982 C 515.0353,464.0648 515.32584,465.1943 515.7817,466.26943 C 516.15162,467.12405 516.67112,467.89692 517.17486,468.67548 C 517.60772,469.34524 518.1393,469.9368 518.75203,470.44455 C 519.30992,470.87258 520.0063,470.97394 520.68797,471.02505 C 521.61622,471.00445 522.54206,471.02663 523.46885,471.09967 C 524.59271,471.25908 525.68159,471.31738 526.76253,470.94574 C 529.14621,469.60836 532.32638,467.9101 521.131,474.16839 C 520.98621,474.24933 521.39831,473.97073 521.51968,473.85767 C 521.84974,473.55023 521.96612,473.36267 522.23769,473.00274 C 522.89961,472.01744 523.25658,470.87719 523.65823,469.77113 C 524.10096,468.67085 524.4354,467.54001 524.67936,466.38077 C 524.96136,464.97994 525.1836,463.56813 525.4561,462.16557 C 525.75197,460.84359 526.09334,459.5346 526.31541,458.19735 C 526.48938,457.10209 526.56393,455.99539 526.60707,454.88838 C 526.61642,454.08674 526.64859,453.28593 526.6768,452.48484 C 526.7718,452.70426 526.58753,451.55217 526.69112,451.76767 C 526.74599,451.88182 526.7304,452.16939 526.84485,452.11514 C 529.14656,451.02397 531.33412,449.7067 533.57876,448.50248 C 533.09488,449.47804 533.02649,450.60223 532.92033,451.6697 C 532.74014,453.55086 532.70516,455.44183 532.77408,457.32929 C 532.79738,458.82121 533.22184,460.20734 533.81735,461.55708 C 534.46173,462.83557 535.18626,464.07094 536.02877,465.22869 C 536.53177,465.84759 537.13277,466.54347 537.95561,466.69618 C 538.66531,466.78514 539.33802,466.64143 539.98508,466.35828 C 546.01064,463.21618 532.5443,470.80337 535.58201,468.98337 C 536.38365,468.5123 536.94607,467.8249 537.41132,467.03653 C 537.9171,466.1269 538.08075,465.10212 538.25718,464.09172 C 538.43249,463.11571 538.66397,462.15039 538.89185,461.18551 C 539.12346,460.21615 539.39464,459.25695 539.67943,458.30207 C 540.00111,457.26579 540.35263,456.23901 540.7157,455.21658 C 541.05324,454.32222 541.24529,453.38664 541.4058,452.44741 C 541.52141,451.73891 541.56417,451.02217 541.58413,450.30554 C 541.59778,449.55969 541.59415,448.81367 541.59438,448.06773 C 541.60733,447.64357 541.56981,447.1124 541.57058,446.74209 C 542.9661,449.46158 541.521,447.01799 548.44851,443.54995 C 548.45662,443.5459 548.32121,443.77186 548.21693,444.3851 C 548.16035,444.71785 548.11931,445.19945 548.08687,445.52726 C 547.93405,447.04094 547.8661,448.56033 547.87552,450.08121 C 547.87884,451.3775 548.05699,452.66032 548.36047,453.91801 C 548.67155,455.02468 549.51878,455.82234 550.27965,456.63916 C 551.05072,457.45221 551.78997,458.32098 552.74336,458.92565 C 553.36586,459.25699 554.00021,459.52806 554.70974,459.39819 C 559.85637,457.03574 546.85429,464.30649 549.76767,462.34072 C 550.45569,461.78453 551.01184,461.08424 551.53924,460.37883 C 552.06138,459.72711 552.43191,458.98607 552.78194,458.23359 C 553.18555,457.42696 553.59439,456.62381 553.97968,455.808 C 554.37788,454.97954 554.76142,454.14596 555.08642,453.28596 C 555.415,452.30229 555.67188,451.29532 555.93401,450.29217 C 556.1784,449.30447 556.41049,448.31366 556.6406,447.32253 C 556.91409,446.12168 557.0999,444.90339 557.27037,443.68439 C 557.43104,442.59497 557.52235,441.49824 557.5723,440.39875 C 557.60958,439.321 557.60789,438.24236 557.6079,437.16411 C 557.59119,436.10683 557.64511,435.05091 557.70301,433.99572 C 557.76027,433.04131 557.77612,432.08522 557.78597,431.12936 C 557.79115,430.30373 557.79312,429.47808 557.78402,428.65247 C 557.14736,425.56729 562.97171,422.4628 565.29759,424.62729 C 565.94629,425.28037 566.46221,426.04688 566.97606,426.80611 C 567.51305,427.62406 568.05342,428.44258 568.66042,429.21069 C 569.34116,430.01176 569.90402,430.89859 570.49664,431.76395 C 571.14065,432.58655 571.7341,433.43667 572.24743,434.34667 C 572.8957,435.55211 573.51987,436.77069 574.05835,438.02933 C 574.50212,439.09469 574.85375,440.19226 575.05168,441.32926 C 575.2348,442.4498 575.15707,443.57809 575.00088,444.69518 C 574.79583,445.96692 574.3807,447.19017 574.00151,448.4173 C 573.67999,449.61211 573.23091,450.76074 572.72474,451.88764 C 572.24542,453.00273 571.57275,453.99947 570.76157,454.89582 C 570.14665,455.544 569.50904,456.1714 568.81124,456.73017 C 569.10141,453.3158 562.55048,462.69774 559.89829,460.74596 C 559.26604,460.06029 559.05903,459.15718 558.9074,458.26465 C 558.71424,457.18605 558.823,456.14567 559.22336,455.1332 C 561.07211,452.2132 564.78136,450.47599 567.89179,449.46509 C 568.6332,449.28739 569.40457,449.31686 570.16178,449.31444 C 571.01813,449.332 571.84733,449.55061 572.66959,449.76893 C 573.48218,449.95461 574.29714,450.12123 575.12524,450.21819 C 575.90747,450.28367 576.69562,450.32693 577.4797,450.2769 C 580.47668,449.93266 584.76394,446.6552 572.97886,453.37254 C 573.80372,452.84021 574.52503,452.16022 575.24764,451.49895 C 575.56179,451.23165 575.83083,450.92071 576.08012,450.59394 L 583.37046,447.37127 C 583.16868,447.77781 582.92605,448.14829 582.61363,448.48113 C 581.88441,449.1637 581.13472,449.82311 580.39483,450.49403 C 576.92425,452.49466 574.72861,454.89778 571.04898,454.97266 C 570.23751,454.96154 569.42459,454.92891 568.62102,454.80736 C 567.77907,454.67155 566.94483,454.49277 566.11677,454.28883 C 565.333,454.10537 564.53973,453.95916 563.73005,454.00685 C 563.01646,454.0331 562.29184,454.06498 561.64918,454.4131 C 559.09688,455.91134 571.53802,447.99227 566.47524,451.86662 C 565.92135,452.6706 565.79328,453.58339 565.93747,454.54453 C 566.01678,455.10841 566.07097,455.942 566.53929,456.32947 C 569.34817,455.44349 572.83337,453.7573 561.39498,459.62595 C 562.18138,459.21312 562.78904,458.56793 563.42356,457.95692 C 564.25006,457.13049 565.0211,456.26706 565.50565,455.18513 C 566.01366,454.08682 566.51555,452.9839 566.82136,451.80802 C 567.19377,450.60948 567.60766,449.41986 567.8706,448.191 C 568.04879,447.15221 568.16375,446.10305 568.02308,445.0506 C 567.87039,443.96762 567.55209,442.92426 567.13582,441.91293 C 566.61989,440.67854 566.0095,439.48713 565.36511,438.31507 C 564.8542,437.42834 564.25973,436.60513 563.64065,435.79103 C 563.06089,434.93734 562.50087,434.0699 561.82746,433.28468 C 561.21694,432.49743 560.66777,431.6652 560.12099,430.8329 C 559.63971,430.13332 559.1591,429.41931 558.53487,428.837 C 556.14804,426.93775 565.89995,422.57134 564.88676,425.03294 C 564.87866,425.86335 564.88129,426.6938 564.87619,427.52422 C 564.86987,428.49133 564.86062,429.45876 564.81113,430.42481 C 564.74943,431.46755 564.67188,432.5105 564.68893,433.55596 C 564.6894,434.64259 564.69418,435.72939 564.6714,436.81586 C 564.63589,437.93965 564.55524,439.0618 564.39092,440.17487 C 564.23246,441.41227 564.04687,442.64739 563.80271,443.87102 C 563.58404,444.87113 563.33696,445.86479 563.10519,446.86192 C 562.84855,447.8846 562.56752,448.90111 562.29263,449.91889 C 561.99548,450.8092 561.63798,451.67081 561.22227,452.51262 C 560.83629,453.32512 560.47985,454.15394 560.02202,454.92986 C 559.66649,455.70994 559.35514,456.51746 558.84756,457.21579 C 558.32061,457.96326 557.7634,458.68736 557.15225,459.36887 C 554.78195,461.6726 551.6335,463.87485 548.26558,464.0827 C 547.45947,463.96912 546.71133,463.65741 546.03435,463.20371 C 545.08978,462.49722 544.2965,461.62358 543.49783,460.76006 C 542.64728,459.83915 541.73483,458.9309 541.36657,457.69686 C 541.03748,456.38387 540.84077,455.04273 540.82038,453.68698 C 540.79202,452.14632 540.84078,450.60605 540.98064,449.07091 C 541.19587,446.19448 542.96725,436.46261 548.5471,442.84631 C 548.76943,443.33943 548.66006,443.92514 548.68726,444.45221 C 548.69003,445.20216 548.69388,445.95214 548.69075,446.7021 C 548.682,447.45269 548.65406,448.20266 548.55177,448.94739 C 548.40653,449.92792 548.23302,450.90942 547.91897,451.85201 C 547.55589,452.8653 547.19535,453.87941 546.86625,454.90446 C 546.57306,455.84325 546.30566,456.79005 546.06415,457.74349 C 545.82756,458.69329 545.6105,459.64873 545.39971,460.6042 C 545.21878,461.67458 545.09243,462.76511 544.66368,463.77314 C 544.25397,464.64778 543.77534,465.4891 542.9897,466.08339 C 540.15588,468.18825 537.0051,469.98875 533.69141,471.2314 C 532.91073,471.39531 532.10739,471.44652 531.34824,471.15111 C 530.47505,470.71049 529.76066,470.06468 529.1933,469.26533 C 528.33624,468.05269 527.58216,466.77451 526.90923,465.45056 C 526.26143,464.01589 525.77669,462.54094 525.74036,460.94811 C 525.65965,459.03568 525.67747,457.11827 525.82261,455.20897 C 525.90877,454.05621 526.00058,452.8918 526.31642,451.77494 C 527.82746,450.86499 533.95443,444.62528 533.79169,448.89667 C 533.75352,449.69807 533.71111,450.49928 533.70708,451.30175 C 533.6723,452.43738 533.60114,453.57291 533.44401,454.6989 C 533.2579,456.05704 532.92859,457.38199 532.58859,458.70865 C 532.29587,460.10355 532.0946,461.51475 531.82499,462.91417 C 531.6028,464.1082 531.32793,465.28946 530.85744,466.41437 C 530.4393,467.55828 530.08716,468.73647 529.51419,469.81507 C 527.6543,473.02596 523.95588,474.73716 520.44362,475.77497 C 519.30039,475.95876 518.16203,475.82902 517.01474,475.72904 C 516.06949,475.68844 515.11939,475.73695 514.17961,475.62014 C 513.37952,475.46604 512.61318,475.20489 511.99242,474.65326 C 511.3476,474.07155 510.77172,473.42198 510.30197,472.68882 C 509.77613,471.87102 509.2423,471.05458 508.8486,470.16191 C 508.38348,469.07884 508.08613,467.94284 507.69733,466.83185 C 507.20678,465.546 506.56132,464.31798 506.21155,462.98074 C 505.87271,461.59771 505.59858,460.20069 505.49985,458.77716 C 505.36847,457.23656 505.26662,455.69336 505.18466,454.14937 C 505.08802,452.6258 504.97567,451.10386 504.85562,449.58194 C 504.76178,447.79932 504.73587,446.01132 504.85964,444.22917 C 505.02329,442.50008 505.26463,440.78251 505.52312,439.06535 C 505.75443,437.39401 505.90374,435.71307 506.14894,434.0438 C 506.42174,432.42378 506.79717,430.8241 507.24803,429.24421 C 507.6551,427.85651 508.11266,426.46808 508.84849,425.21475 C 510.8853,421.98067 513.1303,421.35536 517.42411,419.31063 C 518.09939,419.8963 518.31721,420.66381 518.44608,421.5369 C 518.72759,422.9009 519.08697,424.24784 519.32242,425.62123 C 519.57076,427.2167 519.69988,428.82597 519.92582,430.42461 C 520.16002,432.25582 520.2935,434.09587 520.3557,435.94116 C 520.43818,438.00309 520.53705,440.06451 520.59706,442.12723 C 520.63239,444.13732 520.63913,446.14744 520.59787,448.1576 C 520.5553,450.16913 520.49299,452.18194 520.28416,454.18439 C 520.12744,455.81593 519.94695,457.44528 519.76841,459.07459 C 519.54719,460.70816 519.33057,462.34237 519.10899,463.97589 C 518.95361,465.37362 518.88202,466.79677 518.51052,468.15774 C 518.15323,469.29224 517.78657,470.42236 517.48379,471.57345 C 517.14992,472.70146 516.74931,473.80835 516.30499,474.89764 C 515.91749,475.79378 515.48884,476.67198 515.10604,477.57034 C 514.649,478.42418 514.14882,479.25412 513.73011,480.12844 C 513.25914,480.93919 512.74019,481.72202 512.24292,482.51668 C 511.7511,483.22026 511.22747,483.87803 510.54196,484.40821 C 509.85216,485.03086 509.17872,485.66825 508.50251,486.30492 C 507.80198,486.87942 507.16771,487.53378 506.37885,487.99665 C 503.55404,490.00058 500.72973,492.4454 497.29941,493.08188 C 496.47684,493.13622 495.65467,493.11112 494.84185,492.96034 C 494.02256,492.81576 493.20789,492.64195 492.39504,492.4656 C 491.46333,492.16924 490.6253,491.68758 489.91321,491.01015 C 489.12675,490.26454 488.38802,489.45938 487.79981,488.54529 C 487.20825,487.57487 486.68875,486.56125 486.28966,485.49544 C 485.96783,484.53896 485.75078,483.55217 485.7277,482.53907 C 485.7012,481.41903 485.7309,480.29762 485.78395,479.1787 C 485.85562,477.96091 485.97127,476.7473 486.11983,475.53645 C 486.14861,475.33168 486.19128,474.2381 486.37843,474.11946 C 489.35356,472.23332 492.18768,467.66717 493.91759,470.49374 C 494.2158,471.33226 494.24084,472.24572 494.36237,473.1213 C 494.44732,474.14916 494.49773,475.17897 494.55384,476.20871 C 494.58816,477.19035 494.6269,478.17159 494.5942,479.15405 C 494.57339,480.42938 494.54872,481.70619 494.42894,482.97687 C 494.29472,484.22296 494.16166,485.481 493.73341,486.66803 C 493.32051,487.71373 492.82714,488.72268 492.16362,489.6353 C 491.55052,490.50337 490.88307,491.33092 490.27338,492.20177 C 487.99557,495.08113 487.68862,493.9186 482.27141,497.4222 C 480.30605,498.6933 491.37962,492.20577 488.34681,493.90161 C 485.46592,495.69894 482.64218,498.20517 479.2152,498.72846 C 478.37523,498.75244 477.53129,498.71527 476.70643,498.54254 C 475.79718,498.32655 474.92315,498.00391 474.19067,497.40372 C 473.45665,496.79658 472.79295,496.11599 472.33261,495.27168 C 471.7453,494.20489 471.25119,493.09705 470.78333,491.97313 C 470.21991,490.63946 469.68556,489.28682 469.4,487.86164 C 469.17268,486.6449 469.06593,485.41935 469.10958,484.18025 C 469.13791,479.63379 470.04332,480.49786 476.41126,477.15307 C 476.91908,477.70556 477.08105,478.32356 477.14573,479.0704 C 477.30732,480.03534 477.40551,481.00606 477.37288,481.98636 C 477.36551,483.11143 477.3614,484.2415 477.18742,485.35608 C 476.96205,486.961 476.81184,488.57485 476.58721,490.17982 C 476.3123,491.82604 476.04811,493.48082 475.54369,495.07616 C 475.06607,496.51 474.54,497.93699 473.74167,499.22869 C 473.01632,500.32294 472.22538,501.3639 471.36112,502.35321 C 470.59056,503.31683 469.94309,504.38813 468.8969,505.09416 C 465.66767,507.48792 462.0583,509.33388 458.50398,511.19845 C 457.33373,511.75846 456.13956,512.27646 454.89514,512.65031 C 453.91861,512.9143 452.9288,513.0719 451.91259,513.01342 C 450.92737,512.96329 449.95409,512.83233 449.00874,512.5378 C 448.09127,512.29677 447.17453,512.04334 446.37487,511.50972 C 445.44764,510.89318 444.58546,510.19125 443.87395,509.32756 C 443.18991,508.56517 442.48295,507.81015 441.91611,506.95493 C 441.29649,505.85385 440.81316,504.68751 440.40707,503.49131 C 440.05222,502.32909 439.87941,501.16773 439.98027,499.94823 C 440.00683,498.73804 440.04765,497.5261 440.20303,496.32431 C 440.35948,495.10714 440.56896,493.89178 441.0832,492.76628 C 441.50491,491.82061 441.99604,490.91648 442.67213,490.12451 C 443.34844,489.42879 444.02173,488.73013 444.69269,488.0294 C 447.23426,485.65346 450.56228,483.84238 453.94626,482.91369 C 454.74288,482.79433 455.54129,482.76809 456.34639,482.79436 C 457.20881,482.7967 458.07156,482.80101 458.93367,482.77428 C 452.28207,487.77506 455.31275,487.58408 452.32271,487.35766 C 451.79204,487.34188 451.27689,487.50467 450.74296,487.45848 C 449.99032,487.44981 449.23677,487.43461 448.48478,487.47559 C 445.49398,487.74306 441.25768,491.1398 452.90203,484.28022 C 452.25052,484.62143 451.66976,485.0165 451.33428,485.69918 C 450.90701,486.47778 450.49271,487.26372 450.093,488.05652 C 449.64062,489.00386 449.20038,489.95928 448.83471,490.94394 C 448.47157,492.00809 448.2307,493.1034 448.04028,494.21118 C 447.72583,495.83102 447.38683,497.44602 447.09031,499.06938 C 446.74342,500.85943 446.35438,502.64074 445.92666,504.41329 C 445.58468,505.8051 445.31151,507.22034 444.80073,508.5639 C 444.4157,509.55265 444.05048,510.55339 443.57914,511.50503 C 441.61865,515.13623 440.54831,515.4763 435.14572,518.03607 C 434.52198,518.23396 433.89437,518.28547 433.24247,518.19865 C 432.19859,518.11771 431.15586,518.01384 430.11807,517.87494 C 429.26458,517.73048 428.42932,517.5088 427.6085,517.23314 C 426.75799,516.92577 425.92258,516.56827 425.16854,516.06217 C 424.44762,515.56214 423.74116,515.04136 423.02647,514.53258 C 422.301,514.00688 421.55139,513.50155 420.95022,512.82857 C 420.2624,512.03541 419.65193,511.17933 419.07222,510.30457 C 418.46477,509.335 417.87523,508.35318 417.3078,507.35985 C 416.8011,506.38596 416.42525,505.36302 416.00247,504.35168 C 415.52996,503.32272 414.99275,502.31952 414.70484,501.21619 C 414.25702,499.64934 413.82003,498.07909 413.29137,496.53683 C 412.71038,494.65409 412.21958,492.74622 411.82236,490.81583 C 411.37621,488.60463 410.9913,486.38101 410.7491,484.13712 C 410.46524,481.44872 410.3968,478.74977 410.46475,476.04726 C 410.50232,473.16551 410.56987,470.28168 410.84724,467.41114 C 411.11527,464.75842 411.41054,462.09993 412.0446,459.50478 C 413.32007,454.66825 414.87536,454.60454 420.7748,451.68216 C 421.67115,451.68866 422.14413,452.42639 422.51621,453.16054 C 423.02962,454.11179 423.4865,455.09075 423.80944,456.1252 C 424.25249,457.52164 424.61181,458.94277 424.94343,460.36948 C 425.33019,462.10009 425.67684,463.83932 425.915,465.59753 C 426.2507,467.78221 426.59566,469.96966 426.70542,472.18036 C 426.81811,474.67715 426.86554,477.17657 426.76018,479.6749 C 426.66568,482.09024 426.51877,484.50362 426.27269,486.90874 C 426.02455,489.19071 425.76228,491.47211 425.44155,493.74506 C 425.17729,495.33139 424.89878,496.91513 424.52848,498.48092 C 424.13592,500.21218 423.78903,501.95168 423.49642,503.70295 C 423.16036,505.61753 422.79539,507.52725 422.36114,509.42232 C 421.88622,511.49703 421.39409,513.56756 420.88961,515.63528 C 420.47414,517.26734 420.05428,518.90857 419.35008,520.44542 C 418.82174,521.57742 418.31461,522.71954 417.76012,523.83909 C 417.16173,524.92095 416.53451,525.98527 415.74751,526.94404 C 413.42516,529.94291 410.39162,531.20429 406.76457,533.06421 C 406.0615,533.32612 405.36704,533.64057 404.62557,533.77294 C 403.83432,533.88401 403.0366,533.92794 402.23758,533.89398 C 401.42455,533.87 400.60927,533.82809 399.81078,533.66084 C 398.97469,533.47323 398.14486,533.24261 397.37682,532.85339 C 396.54421,532.42243 395.72788,531.96009 395.01904,531.33823 C 394.30086,530.76079 393.50066,530.26732 392.91607,529.54339 C 392.28212,528.67369 391.744,527.73731 391.3084,526.75229 C 390.81429,525.50941 390.4304,524.23154 390.06489,522.94555 C 389.64978,521.50079 389.31223,520.04224 389.12959,518.54728 C 388.90948,517.08127 388.68652,515.6133 388.35858,514.1668 C 387.75228,511.46645 387.67571,501.87567 395.36748,507.90123 C 395.80455,508.43591 395.89559,509.08643 395.98831,509.75721 C 396.09793,510.85226 396.10976,511.95218 396.09536,513.05213 C 396.09462,514.74449 396.09874,516.43698 396.07086,518.12918 C 396.02353,520.20136 395.95487,522.28094 395.57771,524.32473 C 395.07912,526.92632 394.4408,529.49501 393.84764,532.07607 C 393.29601,534.66972 392.87609,537.31064 391.97134,539.81189 C 391.39942,541.31832 390.79954,542.86205 389.78001,544.12965 C 387.44809,546.5239 383.96826,549.38714 380.53416,548.52045 C 379.74439,548.18485 378.98709,547.76258 378.37224,547.15406 C 377.61111,546.29914 377.1347,545.27314 376.93376,544.14244 C 376.75283,542.33566 376.86595,540.52127 376.99503,538.71371 C 377.21879,536.19655 377.5476,533.68947 377.95651,531.19567 C 378.39761,528.81155 378.92227,526.4437 379.5778,524.10847 C 380.1873,521.77696 380.7979,519.44336 381.54817,517.1523 C 382.04218,515.75042 382.5779,514.29438 383.68604,513.25237 C 386.49201,511.61824 389.36385,508.88724 392.8147,508.61579 C 393.64742,508.53363 394.48482,508.47605 395.30969,508.33258 C 398.19287,507.59378 394.64152,508.46447 389.25213,512.03291 C 389.03972,512.17355 389.62382,512.39528 389.73751,512.62327 C 389.77419,512.69683 389.49894,512.86145 389.50299,512.69951 C 388.75215,512.71196 388.00121,512.73831 387.25333,512.80962 C 386.52091,512.8791 385.78871,512.94841 385.05235,512.95674 C 384.29285,513.00286 383.53083,513.07725 382.79778,513.2929 C 378.60772,514.83227 391.97436,507.35597 387.71262,510.51037 C 387.01557,511.32777 386.38405,512.20224 385.88245,513.15471 C 385.29268,514.27468 384.88826,515.47877 384.45677,516.6661 C 384.05659,517.86613 383.63963,519.05356 383.03983,520.17211 C 382.55615,521.27868 382.20285,522.42977 381.97524,523.61704 C 381.71408,524.92426 381.47385,526.23865 381.11469,527.52324 C 380.60884,529.26034 380.02773,530.97151 379.38591,532.66316 C 378.78627,534.43696 378.3331,536.25224 377.7475,538.03029 C 377.37571,539.1734 377.01405,540.31934 376.69619,541.47885 C 376.31456,542.79796 375.77732,544.05908 375.24663,545.32405 C 374.64679,546.85745 374.10684,548.41996 373.37475,549.89692 C 372.67444,551.20953 372.02675,552.5495 371.31746,553.85728 C 370.6327,554.99101 369.86767,556.07833 368.92334,557.01409 C 368.26351,557.62095 367.53531,558.14599 366.81351,558.6762 C 364.04524,560.87118 360.92199,562.5923 357.72622,564.09272 C 356.72617,564.48759 355.68812,564.73697 354.61491,564.83329 C 353.73436,564.94357 352.85527,565.07526 351.96754,565.11411 C 350.88143,565.16278 349.79427,565.19034 348.70773,565.13157 C 347.65433,565.07762 346.60318,564.98782 345.5652,564.79239 C 344.64262,564.63564 343.70999,564.52985 342.79972,564.30959 C 341.92745,564.07407 341.06755,563.78702 340.25717,563.38285 C 339.40978,562.97007 338.54801,562.58374 337.72374,562.12585 C 336.85388,561.58206 336.03416,560.97042 335.25642,560.30081 C 334.41958,559.61076 333.56449,558.93511 332.83231,558.13045 C 331.98604,557.22084 331.1718,556.28143 330.38273,555.3218 C 329.58599,554.31776 328.74476,553.34602 328.02388,552.28435 C 327.12112,550.96388 326.38162,549.54891 325.74033,548.08378 C 325.0725,546.70056 324.42243,545.30834 323.70363,543.95049 C 323.05404,542.72016 322.50164,541.44675 322.02412,540.13968 C 321.43367,538.70411 320.76175,537.29309 320.39248,535.77811 C 320.04413,534.36765 319.69246,532.95763 319.30615,531.55703 C 318.91085,530.08309 318.49204,528.61325 318.22846,527.10803 C 317.9896,525.71024 317.83208,524.30152 317.70057,522.88977 C 317.5827,521.52505 317.51588,520.15694 317.41645,518.79085 C 317.28794,517.15369 317.16672,515.5151 317.13332,513.87268 C 317.0779,512.32674 317.0121,510.7801 317.05186,509.23283 C 317.07579,507.94598 317.11826,506.65866 317.25358,505.37785 C 317.36405,504.12818 317.50103,502.87765 317.76575,501.64986 C 318.04833,500.25481 318.33063,498.85976 318.61979,497.46607 C 318.93656,496.21746 319.28095,494.97259 319.87052,493.81935 C 320.4257,492.69923 321.03185,491.60905 321.81324,490.62713 C 322.42818,489.76906 323.06236,488.92843 323.71351,488.09761 C 324.4776,487.03998 325.35525,486.07309 326.1808,485.06396 C 326.8197,484.21558 327.44347,483.33628 328.24538,482.6324 C 329.06787,481.86452 329.85395,481.04623 330.77193,480.38986 C 333.90652,478.55918 336.97821,476.4437 340.37093,475.06379 C 341.19435,474.74572 342.0305,474.44837 342.9158,474.36367 C 343.82785,474.28664 344.74205,474.31044 345.6561,474.34095 C 346.51161,474.37556 347.36421,474.44314 348.21803,474.50417 C 349.06909,474.54933 349.92093,474.55615 350.77205,474.59957 C 351.64683,474.66479 352.51332,474.78448 353.36739,474.98962 C 354.25741,475.17896 355.13681,475.41147 355.99463,475.71745 C 356.76612,475.98495 357.54505,476.22569 358.32627,476.46303 C 361.48017,477.48744 362.04807,475.17371 353.28371,481.42384 C 353.01497,481.42196 352.74622,481.42383 352.47748,481.42548 C 350.71208,481.43839 348.94662,481.45966 347.18181,481.50873 L 353.58227,476.84136 z" />
    <path
       style="opacity:1;fill:#aa8647;fill-opacity:1;fill-rule:nonzero;stroke:none;stroke-width:1pt;stroke-linecap:butt;stroke-linejoin:miter;marker:none;marker-start:none;marker-mid:none;marker-end:none;stroke-miterlimit:4;stroke-dasharray:none;stroke-dashoffset:0;stroke-opacity:1;visibility:visible;display:inline;overflow:visible;enable-background:accumulate"
       id="path2438"
       d="M 376.5097,574.38137 C 374.30552,574.58014 372.09374,574.68397 369.89092,574.89662 C 368.73904,574.99323 367.62929,575.28867 366.57278,575.74833 C 365.37842,576.37593 364.2029,576.99996 369.13302,574.26883 C 369.27942,574.18773 368.85154,574.45029 368.71613,574.54866 C 368.2629,574.87792 367.86426,575.25973 367.46525,575.65078 C 366.60798,576.52411 365.97441,577.57147 365.34087,578.60916 C 364.64513,579.76456 364.02864,580.96297 363.4344,582.17273 C 362.86546,583.25484 362.51143,584.41232 362.24084,585.59857 C 361.96121,586.88869 361.82739,588.20311 361.74155,589.51841 C 361.67672,590.72035 361.67174,591.92436 361.66901,593.1277 C 361.64971,594.29946 361.72281,595.46887 361.80196,596.63712 C 361.84868,598.00543 362.13018,599.33976 362.44592,600.66604 C 362.70635,601.81659 363.03307,602.94933 363.37778,604.07686 C 363.66401,605.04124 364.0989,605.94993 364.54739,606.84708 C 364.94545,607.79488 365.5236,608.60022 366.25233,609.31659 C 367.00666,610.02179 367.78007,610.70368 368.58931,611.34524 C 369.43983,611.9913 370.36334,612.51281 371.35566,612.90361 C 372.42625,613.29211 373.55452,613.39373 374.68403,613.35882 C 375.87262,613.27934 376.99318,612.92566 378.07197,612.43986 C 379.58577,611.82291 383.65751,609.4262 377.5577,612.92506 C 378.52694,612.36492 379.28849,611.5936 379.9321,610.68936 C 380.68654,609.57544 381.32486,608.39671 381.8325,607.15206 C 382.26757,606.09637 382.52237,604.99875 382.54643,603.85898 C 382.53442,602.73426 382.22451,601.64621 381.95513,600.56301 C 381.69474,599.78117 381.63291,598.92169 381.3134,598.15958 C 381.30265,598.0772 381.19251,598.036 381.11326,598.01108 C 381.21035,598.20582 380.6672,597.61185 380.58557,597.51935 C 380.38042,597.27911 380.19055,597.02657 380.00826,596.76876 C 379.56631,594.97211 383.7763,594.51077 385.34838,593.88039 C 386.0897,593.58017 386.8201,593.25221 387.5404,592.90472 C 387.99569,592.70814 388.42503,592.46323 388.85396,592.21643 C 389.01107,592.12604 389.48343,591.85666 389.32638,591.94716 C 385.82699,593.96371 385.47163,594.17244 386.82755,593.38082 C 397.30363,587.71924 387.31175,592.806 387.56327,592.94139 C 390.60019,594.57618 391.62944,589.18787 391.47241,592.95193 C 391.37,593.9565 391.21755,594.95489 391.1048,595.95833 C 390.97082,597.15192 390.957,598.35077 391.01918,599.54873 C 391.08797,600.58141 391.32151,601.58832 391.63182,602.57221 C 391.91584,603.31152 392.31546,603.9751 392.97831,604.42152 C 393.60216,604.76149 394.3039,604.82076 395.00089,604.80429 C 395.77894,604.80884 396.51276,604.58143 397.2082,604.25091 C 398.81568,603.30504 395.91427,605.01499 394.58405,605.7318 C 394.43351,605.81292 394.86103,605.53097 394.99493,605.42461 C 395.43077,605.07839 395.824,604.69187 396.21579,604.29783 C 397.04998,603.39098 397.69438,602.33088 398.37476,601.30844 C 399.03907,600.38385 399.48727,599.35099 399.87294,598.28779 C 400.17469,597.39862 400.486,596.51397 400.71669,595.60328 C 400.87645,594.91624 401.03376,594.22779 401.14233,593.53054 C 401.14644,593.49107 401.1218,593.3899 401.15466,593.41214 C 401.20435,593.44579 401.19619,593.52476 401.21696,593.58107 C 402.28195,593.08963 403.31272,592.51598 404.41192,592.10675 C 404.56067,592.05137 404.07106,592.59699 403.74878,593.23251 C 403.32257,594.13829 403.12049,595.108 403.03512,596.0989 C 402.99787,597.12241 403.14634,598.13746 403.68967,599.01561 C 404.23383,599.67908 404.98218,600.10218 405.77693,600.39314 C 406.59171,600.66301 407.42697,600.68216 408.26918,600.57352 C 409.60332,600.17867 412.32612,598.64741 406.4553,601.77336 C 406.11048,601.95696 407.06429,601.28302 407.35212,601.01888 C 408.22211,600.16764 408.90848,599.16392 409.44483,598.07642 C 409.91595,597.10385 410.04368,596.05225 410.0667,594.98634 C 410.09158,593.88891 409.86112,592.84278 409.4306,591.84069 C 408.97344,590.88928 408.1429,590.24389 407.33227,589.60657 C 406.66062,589.0879 406.01165,588.51427 405.23997,588.14708 C 404.84947,587.96066 404.43642,587.97569 404.02329,588.06 C 401.65727,589.05372 407.92451,585.43138 406.18185,586.83829 C 406.10822,587.05283 406.61324,587.09555 406.82048,587.1535 C 407.47123,587.34236 408.12264,587.3774 408.79039,587.28115 C 409.8413,587.08073 410.81321,586.625 411.74188,586.10918 C 405.94705,589.71682 409.99734,587.10424 411.16564,585.92146 C 411.87741,585.20475 412.39017,584.3562 412.73335,583.41239 C 412.70028,581.87305 416.70714,579.90171 416.30051,581.94672 C 416.13818,582.88894 416.11854,583.84888 416.14379,584.80235 C 416.1821,585.98399 416.5108,587.09727 417.00674,588.16074 C 417.52151,589.02545 417.99898,589.93085 418.68371,590.67511 C 419.99113,591.98528 422.81576,589.40081 416.9792,592.66273 C 417.99225,591.9567 418.50514,590.84325 418.9527,589.73361 C 419.454,588.45841 419.73149,587.11576 419.92329,585.76382 C 420.07332,584.77668 420.03789,583.7856 419.91587,582.79929 C 419.82873,582.01856 419.62752,581.26391 419.34062,580.53474 C 422.21019,572.6235 422.6065,579.02722 422.88979,580.17469 C 423.23015,581.31132 423.74276,582.38421 424.25785,583.44945 C 424.75838,584.49402 425.64741,585.18917 426.55731,585.8577 C 427.31108,586.38922 428.11706,586.80903 428.99406,587.08961 C 429.46685,587.20763 429.82927,587.17891 430.20877,586.88812 C 425.42183,589.97796 427.44095,588.58228 428.01438,586.29349 C 428.29777,585.05403 428.45386,583.79282 428.512,582.52412 C 428.55527,581.55815 428.38877,580.60385 428.27835,579.64833 C 428.1951,578.88896 428.15734,578.1257 428.12606,577.36273 C 427.78625,575.44438 430.78639,574.88175 432.50563,574.84487 C 433.31776,574.85782 434.11986,574.83053 434.89049,574.56146 C 439.1221,572.26177 430.67366,577.92739 433.78433,575.11795 C 434.50925,574.33768 435.03559,573.39923 435.57348,572.48632 C 435.99623,571.79272 436.30073,571.04553 436.51949,570.26598 C 436.66943,569.65266 436.72147,569.02075 436.72657,568.39098 C 436.73992,567.69734 436.43771,567.10956 436.05202,566.55619 C 435.72557,566.15258 435.27244,566.01353 434.77741,565.95447 C 433.57512,565.91419 430.34439,567.95217 437.09387,564.40351 C 437.34951,564.26911 436.67031,564.79817 436.48315,565.01815 C 435.95764,565.73174 435.73762,566.59151 435.54588,567.44151 C 435.39573,568.13789 435.36258,568.84955 435.39411,569.55904 C 435.46164,570.50046 435.71383,571.41487 435.94435,572.32622 C 436.17023,573.30041 436.58214,574.20969 437.01638,575.10499 C 437.40336,575.85865 437.94217,576.52071 438.50092,577.15259 C 439.08183,577.79573 439.79787,578.20268 440.60421,578.48956 C 441.27537,578.72456 441.97544,578.87184 442.68681,578.81971 C 444.23231,578.58224 447.51929,576.39744 441.56533,579.80028 C 442.39873,579.33652 443.07636,578.68 443.74165,578.00958 C 444.42876,577.38854 445.01733,576.70308 445.49644,575.91126 C 446.15785,574.66207 446.77464,573.38983 447.30876,572.08107 C 447.93941,570.45776 448.31201,568.75895 448.60135,567.0471 C 448.88982,565.19121 448.98453,563.31453 449.02014,561.43915 C 449.06634,559.5131 448.96305,557.59192 448.70902,555.68325 C 448.5164,554.29608 448.22522,552.92548 447.84484,551.57823 C 447.53789,550.71686 447.10822,549.90359 446.71153,549.08063 C 446.42877,548.66296 446.17891,547.59977 445.60787,547.46719 C 445.5908,547.52231 445.50429,547.65677 445.55666,547.63255 C 450.02032,545.56838 448.74378,545.22713 447.85055,548.85568 C 447.31476,551.16048 446.98805,553.50647 446.73704,555.85717 C 446.50078,558.29142 446.42704,560.73589 446.54672,563.17801 C 446.64822,565.13063 447.11025,567.02774 447.58989,568.91398 C 447.93236,570.5248 448.52903,572.05166 449.1833,573.55599 C 449.62232,574.66556 450.21915,575.62251 451.2516,576.24371 C 452.01311,576.62129 452.85515,576.72396 453.69372,576.74147 C 454.58502,576.71535 455.44966,576.51081 456.26145,576.14917 C 458.01912,575.113 455.05449,576.86509 453.83758,577.49992 C 453.65725,577.594 454.16483,577.25796 454.32151,577.12825 C 454.83084,576.7066 455.27338,576.23192 455.71174,575.73926 C 456.73569,574.4663 457.3832,572.95389 458.00531,571.45768 C 458.7495,569.6572 459.10383,567.73946 459.40627,565.82528 C 459.68772,563.995 459.85322,562.15043 459.93635,560.30132 C 460.02899,558.17631 459.91259,556.05215 459.78106,553.93184 C 459.68085,552.31476 459.5837,550.69741 459.46896,549.08129 C 459.38827,548.06569 459.33688,547.04464 459.17492,546.03775 C 459.05653,545.58465 458.8135,545.15789 458.35458,544.99724 C 457.21581,545.83082 456.27028,545.80978 461.08937,543.54631 C 461.25179,543.47002 460.84717,543.8133 460.74987,543.96407 C 460.40495,544.49855 460.31548,544.8479 460.08458,545.45904 C 459.1985,548.54499 459.10184,551.78682 459.07561,554.976 C 459.0796,558.62548 459.67243,562.2141 460.88038,565.65134 C 461.66772,567.79696 462.95057,569.59883 464.71585,571.02989 C 465.53513,571.61919 466.38907,572.18852 467.38749,572.39894 L 464.10747,574.65934 C 463.08916,574.35847 462.20193,573.76566 461.36009,573.13015 C 459.57217,571.62313 458.24927,569.76219 457.44321,567.55127 C 456.22586,564.07094 455.61545,560.44077 455.59463,556.74735 C 455.60193,553.52872 455.69194,550.26757 456.50078,547.13394 C 457.19882,545.02971 458.94274,542.17001 461.68839,542.80315 C 462.19884,543.11708 462.53205,543.59085 462.69291,544.17084 C 462.87091,545.18918 462.90621,546.227 462.99009,547.25583 C 463.10362,548.87492 463.19723,550.49539 463.29227,552.11565 C 463.42121,554.24818 463.54354,556.38393 463.4655,558.52133 C 463.39622,560.38331 463.23666,562.24074 462.95825,564.08392 C 462.66191,566.02214 462.31927,567.96665 461.59721,569.79961 C 460.98564,571.32468 460.3392,572.85758 459.36584,574.19311 C 457.70133,576.20068 455.59653,577.58317 453.13562,578.60573 C 452.27489,578.90743 451.38066,579.10362 450.4626,579.06722 C 449.57376,579.00763 448.68771,578.84667 447.90655,578.39414 C 446.85278,577.68106 446.18887,576.68052 445.72727,575.49901 C 445.06754,573.97437 444.4566,572.42928 444.1095,570.79791 C 443.62344,568.8865 443.1518,566.96532 443.03956,564.98739 C 442.9112,562.52642 442.97999,560.06337 443.20858,557.60906 C 443.44922,555.24609 443.77147,552.88892 444.28547,550.56816 C 444.74002,548.60397 445.63144,544.15892 448.95502,545.29264 C 449.53573,545.75055 449.85424,546.46802 450.17172,547.11695 C 450.57914,547.96085 451.01618,548.79643 451.33654,549.67774 C 451.71366,551.04551 452.01678,552.43293 452.21126,553.83928 C 452.47396,555.76598 452.58681,557.70552 452.5442,559.65082 C 452.51802,561.54197 452.43345,563.43459 452.15736,565.30807 C 451.87638,567.04309 451.51593,568.76456 450.90484,570.41799 C 450.38495,571.74309 449.76708,573.02146 449.12615,574.29207 C 448.68153,575.12646 448.13487,575.86391 447.41907,576.48777 C 446.73916,577.1536 446.11458,577.88739 445.27309,578.36193 C 443.6281,579.32125 441.59315,581.01574 439.4681,581.1658 C 438.72298,581.13749 437.99678,580.98324 437.30132,580.70957 C 436.45879,580.36572 435.70416,579.89694 435.09323,579.21037 C 434.51604,578.54744 433.95893,577.85506 433.55767,577.06866 C 433.11252,576.14937 432.68499,575.21701 432.44876,574.21818 C 432.21098,573.28433 431.94811,572.34935 431.85626,571.38702 C 431.80551,570.64672 431.82496,569.90368 431.95955,569.17186 C 432.15146,568.28158 432.35233,567.37751 432.82777,566.58805 C 433.97761,564.93981 435.99523,563.41856 438.04515,563.66827 C 438.61796,563.80342 439.12423,564.05509 439.48669,564.53698 C 439.90551,565.15397 440.25783,565.81399 440.2758,566.57848 C 440.29248,567.23885 440.23692,567.89959 440.1146,568.54912 C 439.91473,569.36147 439.63199,570.14683 439.20627,570.8712 C 438.66555,571.80393 438.12758,572.74878 437.45869,573.59649 C 435.95429,575.2481 433.79205,576.17884 431.73746,576.99079 C 430.9345,577.17845 430.11651,577.19117 429.29418,577.19319 C 427.12206,577.28016 432.3487,574.10355 431.67479,575.54046 C 431.69141,576.29571 431.72399,577.05109 431.80134,577.80285 C 431.90992,578.77812 432.0904,579.74972 432.05985,580.73525 C 432.00975,582.0257 431.86384,583.3084 431.593,584.57261 C 430.98306,587.36503 430.27228,587.73139 427.09955,589.39121 C 426.63817,589.55643 426.1543,589.46336 425.69614,589.32332 C 424.80172,588.99758 423.97438,588.53891 423.20102,587.98265 C 422.24814,587.26701 421.33157,586.50913 420.80415,585.40968 C 420.27876,584.32081 419.75612,583.22531 419.39362,582.06899 C 418.96837,580.49148 419.04375,574.81881 422.82538,578.59339 C 423.11707,579.35423 423.33917,580.13701 423.43443,580.9488 C 423.57289,581.96551 423.63507,582.98809 423.48609,584.00934 C 423.30284,585.38712 423.03871,586.75878 422.55088,588.06507 C 422.11741,589.22503 421.62833,590.37489 420.68942,591.22397 C 418.77432,592.31837 417.03026,594.53494 415.28057,592.73532 C 414.58821,591.94605 414.0746,591.02215 413.54907,590.11725 C 413.03068,589.00868 412.67022,587.85076 412.60919,586.61923 C 412.56556,585.64123 412.58245,584.65567 412.72412,583.68547 C 413.0435,581.91317 417.41131,579.2902 416.33848,581.72342 C 416.01694,582.71237 415.55747,583.63099 414.83116,584.39171 C 413.11583,586.27529 410.90471,587.40821 408.64618,588.59814 C 407.6823,589.08813 406.67724,589.52664 405.5924,589.65206 C 404.88874,589.68887 404.19951,589.61834 403.52623,589.39861 C 403.07445,589.24527 402.49436,589.02165 402.52909,588.44712 C 403.11758,586.79339 405.47658,585.97456 407.22179,585.67723 C 407.69772,585.65585 408.15318,585.7215 408.5737,585.96107 C 409.33693,586.38902 410.01142,586.95021 410.69498,587.49244 C 411.55172,588.17805 412.4148,588.87882 412.89653,589.89257 C 413.35314,590.94129 413.61784,592.03486 413.60751,593.18684 C 413.60798,594.29627 413.51418,595.40046 413.06132,596.42965 C 412.55396,597.56163 411.87997,598.60376 411.02336,599.5065 C 409.40498,601.13777 407.33652,602.50344 405.07185,602.94389 C 404.18588,603.00195 403.30864,602.92973 402.47187,602.60845 C 401.61957,602.24469 400.81864,601.76413 400.25002,601.01357 C 399.67112,600.06143 399.46422,598.98792 399.48122,597.87695 C 399.54468,596.84577 399.72053,595.83743 400.12621,594.88006 C 400.76909,593.43942 403.99263,589.45538 404.72213,591.7732 C 404.61943,592.48348 404.4643,593.18366 404.30297,593.88277 C 404.08545,594.80927 403.78187,595.70546 403.47576,596.60601 C 403.0893,597.69102 402.68599,598.7696 402.01118,599.71654 C 401.32649,600.75046 400.67238,601.81328 399.8837,602.77168 C 398.25193,604.5006 396.34521,605.80116 394.08512,606.71791 C 393.34235,606.99947 392.57649,607.17723 391.77581,607.14104 C 391.01363,607.10462 390.26581,606.98726 389.61671,606.55444 C 388.92358,606.01627 388.4557,605.30683 388.14491,604.48642 C 387.81952,603.47302 387.57438,602.43552 387.49168,601.37126 C 387.41737,600.15526 387.41931,598.938 387.54487,597.72462 C 387.64664,596.72599 387.79302,595.7332 387.91616,594.7371 C 387.93492,594.50246 387.97117,594.16673 387.9551,593.92744 C 387.94731,593.81131 387.80702,593.65145 387.9008,593.58251 C 388.9657,592.79957 392.53087,591.09612 391.2694,591.4907 C 390.99395,591.57686 382.67246,596.60537 390.53914,591.95584 C 388.5127,593.11583 386.54072,594.38472 384.42725,595.38355 C 383.69802,595.72076 382.96613,596.05476 382.21178,596.33272 C 381.83208,596.46033 381.45189,596.56387 381.06509,596.66732 C 380.92333,596.70523 380.52139,596.86952 380.64057,596.7839 C 383.51009,594.72249 384.35593,595.73893 383.45423,594.74386 C 383.6219,594.98797 383.79766,595.22689 383.99445,595.44865 C 384.30309,595.76371 384.30373,595.67894 384.39533,595.72634 C 384.55312,595.86564 384.70111,596.01102 384.79223,596.20581 C 385.13099,596.98398 385.17647,597.87261 385.44762,598.67459 C 385.72602,599.78769 386.05219,600.90257 386.08973,602.0571 C 386.0952,603.24011 385.8782,604.38324 385.43421,605.48488 C 384.94448,606.75734 384.32374,607.96216 383.56999,609.10047 C 382.95657,610.05537 382.23762,610.88263 381.26819,611.49551 C 379.19062,612.6966 377.16733,613.96695 374.95516,614.90122 C 373.83834,615.34652 372.68388,615.67111 371.47238,615.69791 C 370.30618,615.68951 369.14608,615.54624 368.05438,615.11096 C 367.04327,614.67954 366.08955,614.13942 365.22118,613.46109 C 364.40652,612.80491 363.62551,612.11074 362.86325,611.39439 C 362.11528,610.64031 361.50916,609.79797 361.09259,608.81435 C 360.63348,607.89793 360.18626,606.96987 359.89066,605.98539 C 359.54653,604.84884 359.21291,603.70922 358.95409,602.54949 C 358.63244,601.20404 358.32973,599.85224 358.27734,598.46355 C 358.19552,597.28761 358.10938,596.11085 358.12766,594.93098 C 358.131,593.71989 358.13688,592.50833 358.19449,591.29835 C 358.27169,589.96539 358.39952,588.63349 358.66579,587.32335 C 358.92459,586.11187 359.2438,584.91929 359.81814,583.81275 C 360.41138,582.59321 361.02515,581.385 361.71264,580.2151 C 362.34784,579.1616 362.96488,578.08897 363.79596,577.17289 C 365.44874,575.45155 367.45024,574.19452 369.69728,573.28821 C 370.78283,572.87552 371.91248,572.62184 373.07348,572.53987 C 375.27863,572.35081 377.49034,572.24421 379.69326,572.02615 L 376.5097,574.38137 z" />
  </g>
</svg>
