<?xml version="1.0" encoding="UTF-8" standalone="no"?>
<!-- Created with Inkscape (http://www.inkscape.org/) -->
<svg
   xmlns:dc="http://purl.org/dc/elements/1.1/"
   xmlns:cc="http://creativecommons.org/ns#"
   xmlns:rdf="http://www.w3.org/1999/02/22-rdf-syntax-ns#"
   xmlns:svg="http://www.w3.org/2000/svg"
   xmlns="http://www.w3.org/2000/svg"
   xmlns:xlink="http://www.w3.org/1999/xlink"
   xmlns:sodipodi="http://sodipodi.sourceforge.net/DTD/sodipodi-0.dtd"
   xmlns:inkscape="http://www.inkscape.org/namespaces/inkscape"
   width="1135"
   height="832.5"
   id="svg2"
   sodipodi:version="0.32"
   inkscape:version="0.46"
   sodipodi:docbase="/home/bcrowell/Documents/writing/calc/trunk/ch00/figs"
   sodipodi:docname="lulu-cover.svg"
   inkscape:output_extension="org.inkscape.output.svg.inkscape"
   version="1.0">
  <defs
     id="defs4">
    <inkscape:perspective
       sodipodi:type="inkscape:persp3d"
       inkscape:vp_x="0 : 416.25 : 1"
       inkscape:vp_y="0 : 1000 : 0"
       inkscape:vp_z="1124.875 : 416.25 : 1"
       inkscape:persp3d-origin="562.4375 : 277.5 : 1"
       id="perspective30" />
  </defs>
  <sodipodi:namedview
     id="base"
     pagecolor="#ffffff"
     bordercolor="#666666"
     borderopacity="1.0"
     inkscape:pageopacity="0.0"
     inkscape:pageshadow="2"
     inkscape:zoom="0.46616181"
     inkscape:cx="577.66576"
     inkscape:cy="547.00504"
     inkscape:document-units="px"
     inkscape:current-layer="layer1"
     inkscape:window-width="1278"
     inkscape:window-height="996"
     inkscape:window-x="3"
     inkscape:window-y="3"
     showgrid="false"
     units="pt" />
  <metadata
     id="metadata7">
    <rdf:RDF>
      <cc:Work
         rdf:about="">
        <dc:format>image/svg+xml</dc:format>
        <dc:type
           rdf:resource="http://purl.org/dc/dcmitype/StillImage" />
      </cc:Work>
    </rdf:RDF>
  </metadata>
  <g
     inkscape:label="Layer 1"
     inkscape:groupmode="layer"
     id="layer1">
    <rect
       style="fill:#000000;fill-opacity:1;fill-rule:evenodd;stroke:none;stroke-width:1pt;stroke-linecap:butt;stroke-linejoin:miter;stroke-opacity:1"
       id="rect2215"
       width="1135.0792"
       height="832.5"
       x="0.063609615"
       y="-0.00063442066" />
    <image
       id="image1355"
       height="818.56427"
       width="540"
       sodipodi:absref="/home/bcrowell/Documents/writing/calc/trunk/ch00/figs/bridge.jpg"
       xlink:href="bridge.jpg"
       x="594.81891"
       y="0.027512208" />
    <path
       style="fill:#ffffff;fill-opacity:1;fill-rule:nonzero;stroke:none;stroke-width:1pt;stroke-linecap:butt;stroke-linejoin:miter;stroke-opacity:1"
       id="path2816"
       d="M 698.96726,388.32631 C 702.98728,404.79863 710.88128,420.15603 716.94174,435.99351 C 730.32168,464.78679 740.14204,495.25272 753.91372,523.84169 C 768.97779,557.52587 797.74152,579.97809 832.77289,589.08894 C 880.45814,599.94646 927.23422,587.75873 971.92603,571.0433 C 1018.6317,551.99577 1064.9875,532.14411 1111.7673,513.28189 C 1119.5328,510.10217 1127.3164,506.96983 1135.1239,503.89728 L 1120.2164,515.715 C 1112.6037,518.59787 1105.0151,521.54396 1097.4822,524.63536 C 1050.7541,543.24974 1004.6689,563.40109 957.96897,582.0818 C 912.87063,598.87608 865.51909,610.92136 817.49377,599.72564 C 781.9822,590.26638 752.69619,567.54943 737.75166,533.1167 C 724.22884,504.39521 713.50305,474.30481 699.89491,445.60849 C 693.56579,429.61135 686.44644,413.9508 680.68685,397.74652 L 698.96726,388.32631 z" />
    <path
       style="fill:#ffffff;fill-opacity:1;fill-rule:nonzero;stroke:none;stroke-width:1pt;stroke-linecap:butt;stroke-linejoin:miter;stroke-opacity:1"
       id="path2818"
       d="M 676.13778,430.82715 C 669.94278,532.25342 670.02987,633.97789 671.55511,735.54987 C 671.68999,741.33425 671.82488,747.11864 671.95977,752.90302 L 657.16851,760.4381 C 657.31255,754.51135 657.45658,748.58461 657.60061,742.65787 C 659.33495,641.90405 660.79993,540.96619 657.6201,440.26237 L 676.13778,430.82715 z" />
    <path
       style="fill:#ffffff;fill-opacity:1;fill-rule:nonzero;stroke:none;stroke-width:1pt;stroke-linecap:butt;stroke-linejoin:miter;stroke-opacity:1"
       id="path2820"
       d="M 677.99353,767.73701 C 762.53113,735.04984 844.35036,693.90299 923.69164,649.47521 C 983.19853,613.32096 1045.5614,582.57831 1108.9231,553.89478 L 1092.141,567.19604 C 1029.5088,594.5912 968.47802,625.29672 909.89334,660.61903 C 828.26882,706.34104 744.60489,748.67163 657.45735,782.6574 L 677.99353,767.73701 z" />
    <path
       style="fill:#ffffff;fill-opacity:1;fill-rule:nonzero;stroke:none;stroke-width:1pt;stroke-linecap:butt;stroke-linejoin:miter;stroke-opacity:1"
       id="path2828"
       d="M 612.01884,479.70805 C 615.02914,490.02108 618.70179,500.37252 624.93513,509.2753 C 642.63632,516.5817 613.73815,531.07703 627.74987,510.8893 C 632.73597,504.23 636.30352,496.90879 636.78288,488.5937 C 651.54415,455.68306 650.15779,490.2705 650.83034,500.77528 C 652.0076,520.75867 657.99431,540.57129 656.9937,560.65761 C 653.46689,579.95805 628.48511,587.03882 611.27606,584.32338 L 621.78267,576.9395 C 640.77094,579.96608 639.85716,582.08684 645.51433,566.40347 C 647.39621,546.33296 640.71809,526.59559 639.44206,506.67372 C 638.33184,490.64535 634.22244,486.04141 649.14856,477.66894 C 650.56929,476.87201 647.12695,482.78859 648.73661,482.53849 C 648.49275,491.16463 644.75412,498.8131 639.64083,505.70433 C 633.91545,514.17918 621.87997,527.53739 613.58339,516.01738 C 608.06794,507.67377 603.40074,495.81075 600.97994,487.72828 L 612.01884,479.70805 z" />
    <g
       id="g2834"
       transform="matrix(0.521737,-0.1934,0.174407,0.578551,1011.2665,423.1544)"
       style="fill:#fefefe;fill-opacity:1">
      <path
         d="M -144.50825,324.50009 C -139.59228,322.1944 -133.87801,319.71752 -128.29346,321.88594 C -105.94041,341.71921 -89.467411,366.83705 -74.657703,392.48079 C -67.038512,408.59075 -56.919133,410.62344 -39.785051,411.92805 L -56.546371,423.90426 C -74.56357,422.41771 -85.428255,420.32921 -92.805037,402.91705 C -106.49119,377.22902 -122.39992,351.40077 -146.17908,333.83094 C -151.71001,333.78392 -156.99141,336.09732 -162.28456,337.41533 L -144.50825,324.50009 z"
         id="path2830"
         style="fill:#fefefe;fill-opacity:1;fill-rule:nonzero;stroke:none;stroke-width:1pt;stroke-linecap:butt;stroke-linejoin:miter;stroke-opacity:1" />
      <path
         d="M -49.247344,338.63392 C -43.016314,335.21109 -36.833018,331.69989 -30.554255,328.36542 C -25.527009,325.6956 -39.844399,334.95317 -44.641136,338.01788 C -53.468556,343.65785 -71.044786,353.44679 -76.397241,356.40502 C -115.3918,377.95677 -87.262008,359.98333 -112.61733,375.46413 C -125.29027,382.90818 -137.14384,391.60921 -149.20136,399.98304 L -168.23527,407.45402 C -155.85918,399.15171 -143.85071,390.28932 -131.07169,382.60042 C -71.881679,346.43803 -77.156991,354.7073 -31.471034,325.71867 L -49.247344,338.63392 z"
         id="path2832"
         style="fill:#fefefe;fill-opacity:1;fill-rule:nonzero;stroke:none;stroke-width:1pt;stroke-linecap:butt;stroke-linejoin:miter;stroke-opacity:1" />
    </g>
    <path
       style="fill:#aa8647;fill-opacity:1;fill-rule:nonzero;stroke:none;stroke-width:1pt;stroke-linecap:butt;stroke-linejoin:miter;stroke-opacity:1"
       id="path1316"
       d="M 822.22162,382.55901 C 820.95014,379.21574 818.80555,376.50045 814.70006,376.29795 C 809.2627,375.84615 799.6674,381.97003 811.66212,374.31507 C 813.39493,373.20921 808.82864,377.18431 807.67522,378.78569 C 800.45233,388.36005 797.36577,399.33692 796.14398,410.59242 C 794.16308,425.86942 800.6436,439.66824 810.99588,451.11309 C 817.20497,456.47069 825.07212,467.60974 835.20977,466.33038 C 834.77071,467.00547 838.93957,464.15656 838.06035,464.77064 C 836.44526,465.89868 834.89187,467.11268 833.16511,468.09552 C 830.95246,469.35492 836.78962,464.67243 838.3386,462.77457 C 842.68205,457.45287 846.58977,451.58813 849.56165,445.57595 C 852.89617,439.30502 854.90728,432.0752 860.13899,426.75999 C 889.38016,410.26439 835.30714,441.14021 853.32876,429.49881 C 844.19089,439.07203 850.34062,450.73392 856.95042,459.43658 C 861.92544,466.09949 868.80844,463.19363 859.11778,468.7378 C 858.68134,468.98749 859.80483,468.03609 860.08022,467.64302 C 862.09176,464.77177 862.94483,461.34211 863.7701,458.11431 C 865.21184,447.89748 866.30594,436.77112 866.6777,426.89873 C 869.07671,425.61988 871.33158,424.08109 873.87472,423.06219 C 877.17614,421.73949 872.99418,429.47282 873.0439,432.6796 C 873.1196,437.56433 873.93749,442.13894 876.1357,446.5481 C 876.70389,447.23838 877.28585,448.3831 878.39662,448.51189 C 883.41749,449.09402 888.64038,445.22917 891.72339,441.52753 C 901.70683,425.69373 899.61806,406.94111 897.1366,389.89873 C 895.71322,382.56267 894.01987,375.21641 891.40462,368.16404 C 890.96267,366.97225 887.64251,365.71704 888.92216,365.14741 C 890.98283,364.23008 892.53272,362.24218 894.77773,361.85344 C 895.19316,361.78149 893.04735,365.18292 891.20175,371.46142 C 887.27841,390.7364 887.89532,412.2279 896.91968,430.02719 C 899.65212,434.63242 902.75638,439.17225 906.96111,442.81245 C 907.80596,443.54389 911.4989,441.97146 910.5334,442.62176 C 904.54491,446.65519 903.88759,447.39339 907.13157,444.49465 C 916.14424,434.59815 918.67207,421.60078 921.92357,409.57147 C 922.84809,403.39253 929.85484,397.01667 936.77807,399.62832 C 946.52965,403.30606 925.90386,409.03811 921.83136,411.48366 C 923.79298,410.14886 925.72675,408.7799 927.71621,407.47927 C 929.07645,406.58997 925.88559,410.20794 925.93033,411.69535 C 926.02495,414.84016 928.50298,417.90739 930.41036,420.3552 C 934.59719,425.96924 942.66308,425.39794 948.52489,421.63403 C 946.90615,422.6239 945.50761,424.02025 943.66866,424.60365 C 941.07723,425.42577 946.6297,420.36531 947.48092,418.02275 C 950.10298,410.80675 950.76851,402.70066 948.56207,395.4747 C 948.94949,395.16935 946.37132,390.61835 946.42863,390.58054 C 948.7275,389.06437 951.09602,387.61567 953.59541,386.38955 C 955.22291,385.59116 953.35866,389.68863 953.51804,391.322 C 954.08103,397.09139 955.68197,402.68949 957.63292,408.15602 C 960.18838,413.55063 962.56079,419.97103 967.84448,423.78888 C 969.41107,424.92087 975.63599,422.43718 973.96456,423.52899 C 968.13632,427.33609 967.65053,428.15607 970.50074,425.06851 C 976.6298,416.05386 977.29714,404.52903 975.89422,394.39051 C 975.86958,394.2997 975.84499,394.20889 975.82037,394.11809 C 978.26608,392.63674 980.64356,391.05783 983.15752,389.67405 C 984.67322,388.83974 983.30331,392.82004 983.51316,394.378 C 984.21934,399.62091 986.15772,404.53448 989.84318,408.58067 C 1000.3231,409.93676 1006.8291,397.45372 1012.3649,383.11223 C 1017.0391,367.5593 1017.0784,350.28617 1010.6467,335.3576 C 1009.1505,332.02134 1004.6909,334.44139 1014.331,330.384 C 1016.2282,329.58551 1011.6507,333.06837 1009.2817,337.97289 C 1005.3199,346.1749 1005.1797,354.4938 1006.2114,363.11542 C 1009.9179,373.43219 1014.4757,398.81406 1029.0538,401.71349 C 1033.5293,399.29682 1027.123,403.57402 1025.8754,404.09481 C 1023.6137,405.03887 1029.4973,401.31108 1031.6686,396.28289 C 1035.1315,388.26398 1034.828,378.91776 1033.6363,370.62512 C 1046.4318,363.30419 1039.3653,374.0805 1046.7031,382.11155 C 1047.9079,383.43018 1053.9988,380.379 1052.4595,381.45903 C 1051.0238,382.4664 1049.4933,383.35816 1048.0103,384.30773 C 1055.6865,383.01234 1053.739,364.21969 1056.1932,362.89285 C 1065.2162,358.01467 1063.4329,357.45662 1063.4676,362.82105 C 1063.7722,369.13051 1064.2279,375.59547 1066.3886,381.60834 C 1066.8167,382.79984 1070.0028,383.91745 1068.8251,384.63927 C 1062.8037,388.32984 1061.1956,390.32112 1064.0655,387.17773 C 1071.6819,377.09225 1077.7535,365.91432 1081.2169,354.18902 C 1082.8535,347.82503 1081.8882,347.86494 1090.0889,343.96651 C 1090.791,343.63272 1089.5583,345.30758 1089.3557,345.9932 C 1088.5761,348.63077 1088.1616,350.98194 1088.3685,353.688 C 1088.3896,363.56192 1103.7202,366.43526 1104.3876,375.36843 C 1101.817,383.90226 1067.0931,395.30054 1088.9425,381.79846 C 1098.4285,380.77725 1108.1673,381.15834 1117.5594,379.24493 C 1119.7143,378.8059 1125.4504,375.71851 1123.7115,376.96687 C 1115.1786,383.09265 1117.2814,381.68142 1119.3154,379.26556 C 1120.0285,377.94702 1119.7131,377.15661 1119.1071,375.96691 L 1126.0291,371.24224 C 1126.8595,372.62038 1127.4209,373.56776 1126.7441,375.21254 C 1117.8993,388.96346 1096.711,383.91193 1082.7596,387.22616 C 1094.0138,378.77035 1094.0692,384.46983 1097.1555,379.58935 C 1097.547,370.94177 1081.1211,367.42058 1081.4803,357.93482 C 1080.2872,348.17203 1093.3625,335.63289 1088.4051,350.08269 C 1084.654,361.81038 1078.6819,372.96936 1071.3894,383.32563 C 1057.2917,402.26942 1057.5179,374.58623 1056.5522,367.04099 C 1056.0799,361.40594 1055.5148,363.89883 1063.6337,358.52764 C 1067.7912,355.77723 1053.6443,384.9777 1055.2287,380.69622 C 1054.3979,381.28596 1046.6807,388.3263 1042.5683,388.19954 C 1039.0432,388.09089 1031.9146,373.33688 1033.7391,371.45027 C 1035.776,369.34391 1038.516,367.8815 1040.9045,366.09709 C 1040.8701,366.13596 1040.8357,366.17482 1040.8012,366.21369 C 1041.1971,380.72338 1042.2474,401.10688 1022.6914,406.8912 C 1008.4307,405.03499 1003.7357,376.07515 999.90017,367.02446 C 999.16399,361.3558 1002.5623,318.61047 1017.5477,330.88224 C 1023.0032,346.36684 1023.7783,363.44342 1018.9876,379.37775 C 1014.9594,390.13955 998.44288,417.8605 983.04368,413.34208 C 981.32583,411.21563 972.74436,396.27137 975.78298,394.1829 C 978.14753,392.55772 980.66943,391.12921 983.11266,389.60236 C 983.11289,389.71276 983.11316,389.82315 983.11342,389.93354 C 983.75086,400.36378 983.44181,411.82396 977.70834,421.2973 C 963.72246,438.50037 956.52935,424.81306 951.20942,412.30065 C 950.35793,409.94465 943.38314,392.4708 945.97326,390.4515 C 948.26398,388.6656 950.85831,387.20755 953.46318,385.81894 C 953.47562,385.8123 955.50872,390.74632 955.43674,391.08146 C 959.38106,404.33113 955.69528,418.84139 942.68116,427.05497 C 936.28725,430.71839 927.76873,431.05506 923.62786,424.98975 C 917.20424,416.37972 916.59498,412.2179 927.81629,405.92435 C 946.09333,395.81476 936.72909,409.12738 930.15032,404.68166 C 928.78972,404.25538 924.63888,405.50367 925.78867,404.67565 C 936.77803,396.76158 929.95758,400.63506 929.10442,405.45861 C 925.29385,417.51232 923.07249,430.52505 914.38195,440.79027 C 900.52572,454.43194 897.88255,446.22245 890.52823,434.24182 C 881.69226,416.16774 880.92014,394.80908 884.56331,375.27566 C 893.94942,338.9373 902.24187,373.11769 903.54669,385.91188 C 906.11002,403.04244 908.23563,421.71618 898.74891,437.82071 C 894.67386,443.07789 876.69066,459.32758 869.1928,451.15332 C 867.3485,447.20688 862.46232,430.61364 866.51587,427.3435 C 868.83638,425.47149 871.48616,423.96066 873.97129,422.26923 C 872.66921,432.88274 872.07788,443.56589 870.57834,454.17478 C 868.3837,464.13992 858.51599,477.37318 850.36716,463.92847 C 843.67999,454.90836 837.31981,443.37522 845.99518,433.2034 C 850.83971,429.69345 854.77594,426.33286 860.35857,424.14958 C 863.11065,423.0733 870.82332,419.32702 868.78298,421.31647 C 865.765,424.25916 854.28654,432.85833 867.82344,422.96859 C 861.89134,427.71662 860.05539,435.486 856.63557,441.65693 C 851.21979,453.15467 842.12962,466.46706 828.96767,471.67276 C 818.46035,471.97554 811.13032,461.37751 804.5897,455.56101 C 794.15373,444.00956 787.57751,430.02841 789.33453,414.62791 C 790.60605,403.34812 793.23021,392.37984 800.39331,382.68546 C 804.97014,375.90682 812.2123,370.77537 821.13282,371.02896 C 825.62974,371.49749 827.66498,374.5661 829.56821,378.00578 L 822.22162,382.55901 z" />
    <path
       style="fill:#aa8647;fill-opacity:1;fill-rule:nonzero;stroke:none;stroke-width:1pt;stroke-linecap:butt;stroke-linejoin:miter;stroke-opacity:1"
       id="path1332"
       d="M 836.73676,503.46912 C 836.19988,500.62105 835.12677,497.31866 831.96022,496.68035 C 843.61911,488.47973 832.78553,495.665 830.63763,500.96416 C 829.77495,504.02395 829.31175,507.1732 829.89252,510.26205 C 831.0187,513.97944 833.55641,517.11249 836.55328,519.77306 C 838.99325,521.50357 842.00852,522.1048 845.1012,522.11359 C 844.9109,522.80319 848.03096,521.12107 847.39552,521.55377 C 835.91768,529.3697 844.86416,522.59982 846.8234,517.30701 C 848.11605,514.57832 845.21821,513.89958 846.71164,511.90359 C 851.28868,508.09371 856.19153,504.5388 861.55772,501.69385 C 864.53973,501.70024 862.92594,505.26562 862.67317,507.42211 C 862.40291,509.75442 863.04393,510.82535 865.55869,511.10738 C 875.08883,507.91333 861.11949,519.03371 865.68308,511.77826 C 867.73508,505.42228 866.96353,507.00667 874.38906,502.68095 C 873.27636,504.87133 873.04977,507.15125 874.43901,509.06176 C 874.0851,510.91022 882.34331,507.31442 880.66608,508.46324 C 870.95148,515.11726 873.1609,513.91697 875.48095,511.64675 C 877.44375,509.28783 877.85728,506.35939 876.61353,503.7517 C 872.68012,499.41902 867.54063,505.07058 878.70634,497.53757 C 878.57316,499.52872 880.37466,498.1724 882.29001,497.12928 C 869.38101,507.45773 880.44054,497.18846 883.53983,494.43792 C 887.08539,491.87347 892.95485,483.16052 894.6649,489.61221 C 895.35134,492.55458 896.22562,495.41211 898.61396,497.53517 C 909.4371,496.34 895.43683,503.30598 897.72446,500.05112 C 898.50393,498.20481 897.90956,495.43757 897.5954,494.20992 C 908.28671,486.37536 903.06032,490.05486 905.93639,495.39704 C 912.80298,493.32662 900.39392,503.55369 904.65004,496.27936 C 905.60271,494.04965 905.78502,491.8174 905.58278,489.49544 C 905.08657,482.61845 914.25008,483.72304 918.73343,482.13506 C 912.84635,485.24217 913.63175,487.21654 917.61297,480.64538 C 917.1216,477.41241 925.77585,469.73291 924.63012,475.30652 C 924.53207,478.33326 925.00621,481.11745 927.07116,483.47051 C 929.32979,485.26631 931.03339,485.18394 933.6033,483.97514 C 933.10129,484.54308 936.23178,482.29063 935.58871,482.72933 C 924.89109,490.027 930.89808,486.77033 932.2259,481.69208 C 932.50673,476.59979 931.68126,471.46339 930.64417,466.49227 C 926.27466,461.3012 936.97525,451.70437 934.86211,462.81281 C 934.29415,466.80677 934.90671,470.4296 936.97399,473.8954 C 938.56657,476.15285 940.41729,477.56678 943.33735,478.01715 C 947.4382,478.10025 951.16716,474.68275 940.50183,481.60027 C 938.51112,482.89146 943.23298,477.85982 943.92034,475.75809 C 945.05969,471.81213 944.34297,467.79941 943.79531,463.86723 C 939.29312,459.61764 950.72932,453.58672 948.57884,456.85105 C 947.246,460.59497 947.95493,464.65077 949.09161,468.30412 C 950.51415,472.19052 953.23732,474.94676 957.26497,476.73978 C 957.33349,476.73773 958.1244,477.06481 958.17718,477.08476 L 951.44256,482.20557 C 951.13533,482.07845 950.8208,481.96488 950.52084,481.82421 C 946.46925,479.76054 943.54945,476.88935 942.04649,472.85322 C 940.78784,469.09056 940.05919,464.93687 941.15242,461.01485 C 943.24969,454.73372 951.47004,452.17488 951.00429,459.39606 C 951.50345,463.41426 952.25538,467.52064 951.22535,471.55509 C 949.52025,477.40687 944.33103,483.88748 936.80352,483.29935 C 933.72142,482.67507 931.61872,481.01024 929.95453,478.59887 C 927.81903,474.96576 927.06726,471.25825 927.63457,467.0674 C 928.58566,461.0645 937.46919,451.83558 937.71631,462.04865 C 938.69354,467.10112 939.59221,472.26251 939.53975,477.4198 C 938.28184,483.42987 933.76512,486.71326 927.41494,489.59213 C 924.5677,490.7259 922.41519,490.20097 920.14585,488.35808 C 917.97756,485.80166 917.32008,482.95222 917.34248,479.68781 C 917.59948,474.61453 928.10596,469.51825 925.12308,476.54089 C 922.20949,481.56128 918.37811,484.71964 912.51735,487.73195 C 902.58963,489.83773 912.05873,485.08737 912.84463,485.01025 C 913.08071,487.43294 913.03536,489.75796 912.10136,492.11049 C 910.14121,496.48789 904.17844,502.55565 898.99236,500.29348 C 895.37815,494.93101 898.01533,492.367 904.46838,489.09446 C 905.4622,491.2013 905.6604,493.52125 905.15212,495.84162 C 903.50582,500.38633 896.80126,504.62389 891.75408,502.50302 C 889.33116,500.17766 888.22532,497.29986 887.51086,494.16349 C 886.43089,490.1736 897.59026,485.87999 891.14883,490.5765 C 886.22971,494.86071 882.41516,499.72853 876.18463,502.80666 C 873.75644,503.86391 870.70823,504.70101 870.984,501.41839 C 876.64977,497.54108 879.25334,494.03489 883.67534,499.01135 C 885.06886,501.81375 884.94371,504.98418 883.0183,507.69047 C 879.44724,512.09829 873.4094,516.67427 867.55663,514.02364 C 865.6434,511.87833 866.04305,509.40747 866.79616,506.76021 C 877.21682,500.12747 874.90901,501.31045 873.14581,507.67921 C 870.56473,512.51655 865.11585,516.6074 859.04428,516.45323 C 856.26502,515.90648 855.07792,514.42031 855.34981,511.78758 C 855.4737,510.66385 856.87944,506.09961 855.41048,507.33971 C 846.37999,512.38053 865.18529,500.05842 854.3747,508.06263 C 851.9578,509.04316 855.4021,510.24719 854.15661,513.10374 C 852.10004,519.34438 846.39731,526.82973 838.63316,527.47432 C 835.39779,527.27571 832.15068,526.60785 829.69548,524.64391 C 826.66038,521.80303 824,518.6105 822.73023,514.76761 C 822.04397,511.5776 822.41719,508.37483 823.25243,505.18227 C 825.39156,498.79792 832.81814,494.64388 838.4372,491.2738 C 841.92601,492.38324 842.98824,495.93057 844.08335,498.91589 L 836.73676,503.46912 z" />
    <text
       xml:space="preserve"
       style="font-size:20px;font-style:oblique;font-variant:normal;font-weight:normal;font-stretch:normal;text-align:start;line-height:125%;writing-mode:lr-tb;text-anchor:start;fill:#ffffff;fill-opacity:1;stroke:none;stroke-width:1pt;stroke-linecap:butt;stroke-linejoin:miter;stroke-opacity:1;font-family:Bitstream Vera Sans"
       x="183.29768"
       y="-560.48804"
       id="text2944"
       sodipodi:linespacing="125%"
       transform="matrix(0,1,-1,0,0,0)"><tspan
         sodipodi:role="line"
         id="tspan2946"
         x="183.29768"
         y="-560.48804">Calculus</tspan></text>
    <text
       xml:space="preserve"
       style="font-size:20px;font-style:normal;font-variant:normal;font-weight:normal;font-stretch:normal;text-align:start;line-height:125%;writing-mode:lr-tb;text-anchor:start;fill:#ffffff;fill-opacity:1;stroke:none;stroke-width:1pt;stroke-linecap:butt;stroke-linejoin:miter;stroke-opacity:1;font-family:Bitstream Vera Sans"
       x="305.41663"
       y="-560.48804"
       id="text2950"
       sodipodi:linespacing="125%"
       transform="matrix(0,1,-1,0,0,0)"><tspan
         sodipodi:role="line"
         id="tspan2952"
         x="305.41663"
         y="-560.48804">Crowell</tspan></text>
    <rect
       style="fill:#000000;fill-opacity:1;fill-rule:evenodd;stroke:none;stroke-width:1pt;stroke-linecap:butt;stroke-linejoin:miter;stroke-opacity:1"
       id="rect2960"
       width="743.81976"
       height="43.958244"
       x="391.03238"
       y="783.83234" />
    <rect
       style="fill:#000000;fill-opacity:1;fill-rule:evenodd;stroke:none;stroke-width:1pt;stroke-linecap:butt;stroke-linejoin:miter;stroke-opacity:1"
       id="rect1320"
       width="0.91926038"
       height="821.93872"
       x="594.47833"
       y="0.038299423" />
    <text
       xml:space="preserve"
       style="font-size:12px;font-style:normal;font-variant:normal;font-weight:normal;font-stretch:normal;text-align:start;line-height:125%;writing-mode:lr-tb;text-anchor:start;fill:#ffffff;fill-opacity:1;stroke:none;stroke-width:1pt;stroke-linecap:butt;stroke-linejoin:miter;stroke-opacity:1;font-family:Bitstream Vera Sans"
       x="205.34961"
       y="261.23401"
       id="text2058"
       sodipodi:linespacing="125%"><tspan
         sodipodi:role="line"
         x="205.34961"
         y="261.23401"
         id="tspan2062">This book can be downloaded</tspan></text>
    <text
       xml:space="preserve"
       style="font-size:12px;font-style:normal;font-variant:normal;font-weight:normal;font-stretch:normal;text-align:start;line-height:125%;writing-mode:lr-tb;text-anchor:start;fill:#ffffff;fill-opacity:1;stroke:none;stroke-width:1pt;stroke-linecap:butt;stroke-linejoin:miter;stroke-opacity:1;font-family:Bitstream Vera Sans"
       x="205.34961"
       y="285.95999"
       id="text2064"
       sodipodi:linespacing="125%"><tspan
         sodipodi:role="line"
         id="tspan2066"
         x="205.34961"
         y="285.95999">for free, or bought in print, at</tspan></text>
    <text
       xml:space="preserve"
       style="font-size:12px;font-style:normal;font-variant:normal;font-weight:normal;font-stretch:normal;text-align:start;line-height:125%;writing-mode:lr-tb;text-anchor:start;fill:#ffffff;fill-opacity:1;stroke:none;stroke-width:1pt;stroke-linecap:butt;stroke-linejoin:miter;stroke-opacity:1;font-family:Bitstream Vera Sans"
       x="205.39362"
       y="310.68594"
       id="text2068"
       sodipodi:linespacing="125%"><tspan
         sodipodi:role="line"
         id="tspan2070"
         x="205.39362"
         y="310.68594">www.lightandmatter.com/calc.</tspan></text>
  </g>
</svg>
