<?xml version="1.0" encoding="UTF-8" standalone="no"?>
<!-- Created with Inkscape (http://www.inkscape.org/) -->
<svg
   xmlns:dc="http://purl.org/dc/elements/1.1/"
   xmlns:cc="http://creativecommons.org/ns#"
   xmlns:rdf="http://www.w3.org/1999/02/22-rdf-syntax-ns#"
   xmlns:svg="http://www.w3.org/2000/svg"
   xmlns="http://www.w3.org/2000/svg"
   xmlns:xlink="http://www.w3.org/1999/xlink"
   xmlns:sodipodi="http://sodipodi.sourceforge.net/DTD/sodipodi-0.dtd"
   xmlns:inkscape="http://www.inkscape.org/namespaces/inkscape"
   width="1135"
   height="832.5"
   id="svg2"
   sodipodi:version="0.32"
   inkscape:version="0.46"
   sodipodi:docbase="/home/bcrowell/Documents/writing/calc/trunk/ch00/figs"
   sodipodi:docname="lulu-cover.svg"
   inkscape:output_extension="org.inkscape.output.svg.inkscape"
   version="1.0">
  <defs
     id="defs4">
    <inkscape:perspective
       sodipodi:type="inkscape:persp3d"
       inkscape:vp_x="0 : 416.25 : 1"
       inkscape:vp_y="0 : 1000 : 0"
       inkscape:vp_z="1124.875 : 416.25 : 1"
       inkscape:persp3d-origin="562.4375 : 277.5 : 1"
       id="perspective30" />
  </defs>
  <sodipodi:namedview
     id="base"
     pagecolor="#ffffff"
     bordercolor="#666666"
     borderopacity="1.0"
     inkscape:pageopacity="0.0"
     inkscape:pageshadow="2"
     inkscape:zoom="0.31326692"
     inkscape:cx="1124.0732"
     inkscape:cy="405.43862"
     inkscape:document-units="px"
     inkscape:current-layer="layer1"
     inkscape:window-width="1278"
     inkscape:window-height="996"
     inkscape:window-x="1"
     inkscape:window-y="1"
     showgrid="false"
     units="pt" />
  <metadata
     id="metadata7">
    <rdf:RDF>
      <cc:Work
         rdf:about="">
        <dc:format>image/svg+xml</dc:format>
        <dc:type
           rdf:resource="http://purl.org/dc/dcmitype/StillImage" />
      </cc:Work>
    </rdf:RDF>
  </metadata>
  <g
     inkscape:label="Layer 1"
     inkscape:groupmode="layer"
     id="layer1">
    <rect
       style="fill:#000000;fill-opacity:1;fill-rule:evenodd;stroke:none;stroke-width:1pt;stroke-linecap:butt;stroke-linejoin:miter;stroke-opacity:1"
       id="rect2215"
       width="1135.0792"
       height="832.5"
       x="0.063609615"
       y="-0.00063442066" />
    <image
       id="image1355"
       height="818.56427"
       width="540"
       sodipodi:absref="/home/bcrowell/Documents/writing/calc/trunk/ch00/figs/bridge.jpg"
       xlink:href="bridge.jpg"
       x="594.81891"
       y="0.027512208" />
    <path
       style="fill:#ffffff;fill-opacity:1;fill-rule:nonzero;stroke:none;stroke-width:1pt;stroke-linecap:butt;stroke-linejoin:miter;stroke-opacity:1"
       id="path2816"
       d="M 698.96726,388.32631 C 702.98728,404.79863 710.88128,420.15603 716.94174,435.99351 C 730.32168,464.78679 740.14204,495.25272 753.91372,523.84169 C 768.97779,557.52587 797.74152,579.97809 832.77289,589.08894 C 880.45814,599.94646 927.23422,587.75873 971.92603,571.0433 C 1018.6317,551.99577 1064.9875,532.14411 1111.7673,513.28189 C 1119.5328,510.10217 1127.3164,506.96983 1135.1239,503.89728 L 1120.2164,515.715 C 1112.6037,518.59787 1105.0151,521.54396 1097.4822,524.63536 C 1050.7541,543.24974 1004.6689,563.40109 957.96897,582.0818 C 912.87063,598.87608 865.51909,610.92136 817.49377,599.72564 C 781.9822,590.26638 752.69619,567.54943 737.75166,533.1167 C 724.22884,504.39521 713.50305,474.30481 699.89491,445.60849 C 693.56579,429.61135 686.44644,413.9508 680.68685,397.74652 L 698.96726,388.32631 z" />
    <path
       style="fill:#ffffff;fill-opacity:1;fill-rule:nonzero;stroke:none;stroke-width:1pt;stroke-linecap:butt;stroke-linejoin:miter;stroke-opacity:1"
       id="path2818"
       d="M 676.13778,430.82715 C 669.94278,532.25342 670.02987,633.97789 671.55511,735.54987 C 671.68999,741.33425 671.82488,747.11864 671.95977,752.90302 L 657.16851,760.4381 C 657.31255,754.51135 657.45658,748.58461 657.60061,742.65787 C 659.33495,641.90405 660.79993,540.96619 657.6201,440.26237 L 676.13778,430.82715 z" />
    <path
       style="fill:#ffffff;fill-opacity:1;fill-rule:nonzero;stroke:none;stroke-width:1pt;stroke-linecap:butt;stroke-linejoin:miter;stroke-opacity:1"
       id="path2820"
       d="M 677.99353,767.73701 C 762.53113,735.04984 844.35036,693.90299 923.69164,649.47521 C 983.19853,613.32096 1045.5614,582.57831 1108.9231,553.89478 L 1092.141,567.19604 C 1029.5088,594.5912 968.47802,625.29672 909.89334,660.61903 C 828.26882,706.34104 744.60489,748.67163 657.45735,782.6574 L 677.99353,767.73701 z" />
    <path
       style="fill:#ffffff;fill-opacity:1;fill-rule:nonzero;stroke:none;stroke-width:1pt;stroke-linecap:butt;stroke-linejoin:miter;stroke-opacity:1"
       id="path2828"
       d="M 612.01884,479.70805 C 615.02914,490.02108 618.70179,500.37252 624.93513,509.2753 C 642.63632,516.5817 613.73815,531.07703 627.74987,510.8893 C 632.73597,504.23 636.30352,496.90879 636.78288,488.5937 C 651.54415,455.68306 650.15779,490.2705 650.83034,500.77528 C 652.0076,520.75867 657.99431,540.57129 656.9937,560.65761 C 653.46689,579.95805 628.48511,587.03882 611.27606,584.32338 L 621.78267,576.9395 C 640.77094,579.96608 639.85716,582.08684 645.51433,566.40347 C 647.39621,546.33296 640.71809,526.59559 639.44206,506.67372 C 638.33184,490.64535 634.22244,486.04141 649.14856,477.66894 C 650.56929,476.87201 647.12695,482.78859 648.73661,482.53849 C 648.49275,491.16463 644.75412,498.8131 639.64083,505.70433 C 633.91545,514.17918 621.87997,527.53739 613.58339,516.01738 C 608.06794,507.67377 603.40074,495.81075 600.97994,487.72828 L 612.01884,479.70805 z" />
    <g
       id="g2834"
       transform="matrix(0.521737,-0.1934,0.174407,0.578551,1011.2665,423.1544)"
       style="fill:#fefefe;fill-opacity:1">
      <path
         d="M -144.50825,324.50009 C -139.59228,322.1944 -133.87801,319.71752 -128.29346,321.88594 C -105.94041,341.71921 -89.467411,366.83705 -74.657703,392.48079 C -67.038512,408.59075 -56.919133,410.62344 -39.785051,411.92805 L -56.546371,423.90426 C -74.56357,422.41771 -85.428255,420.32921 -92.805037,402.91705 C -106.49119,377.22902 -122.39992,351.40077 -146.17908,333.83094 C -151.71001,333.78392 -156.99141,336.09732 -162.28456,337.41533 L -144.50825,324.50009 z"
         id="path2830"
         style="fill:#fefefe;fill-opacity:1;fill-rule:nonzero;stroke:none;stroke-width:1pt;stroke-linecap:butt;stroke-linejoin:miter;stroke-opacity:1" />
      <path
         d="M -49.247344,338.63392 C -43.016314,335.21109 -36.833018,331.69989 -30.554255,328.36542 C -25.527009,325.6956 -39.844399,334.95317 -44.641136,338.01788 C -53.468556,343.65785 -71.044786,353.44679 -76.397241,356.40502 C -115.3918,377.95677 -87.262008,359.98333 -112.61733,375.46413 C -125.29027,382.90818 -137.14384,391.60921 -149.20136,399.98304 L -168.23527,407.45402 C -155.85918,399.15171 -143.85071,390.28932 -131.07169,382.60042 C -71.881679,346.43803 -77.156991,354.7073 -31.471034,325.71867 L -49.247344,338.63392 z"
         id="path2832"
         style="fill:#fefefe;fill-opacity:1;fill-rule:nonzero;stroke:none;stroke-width:1pt;stroke-linecap:butt;stroke-linejoin:miter;stroke-opacity:1" />
    </g>
    <text
       xml:space="preserve"
       style="font-size:20px;font-style:oblique;font-variant:normal;font-weight:normal;font-stretch:normal;text-align:start;line-height:125%;writing-mode:lr-tb;text-anchor:start;fill:#ffffff;fill-opacity:1;stroke:none;stroke-width:1pt;stroke-linecap:butt;stroke-linejoin:miter;stroke-opacity:1;font-family:Bitstream Vera Sans"
       x="183.29768"
       y="-560.48804"
       id="text2944"
       sodipodi:linespacing="125%"
       transform="matrix(0,1,-1,0,0,0)"><tspan
         sodipodi:role="line"
         id="tspan2946"
         x="183.29768"
         y="-560.48804">Calculus</tspan></text>
    <text
       xml:space="preserve"
       style="font-size:20px;font-style:normal;font-variant:normal;font-weight:normal;font-stretch:normal;text-align:start;line-height:125%;writing-mode:lr-tb;text-anchor:start;fill:#ffffff;fill-opacity:1;stroke:none;stroke-width:1pt;stroke-linecap:butt;stroke-linejoin:miter;stroke-opacity:1;font-family:Bitstream Vera Sans"
       x="305.41663"
       y="-560.48804"
       id="text2950"
       sodipodi:linespacing="125%"
       transform="matrix(0,1,-1,0,0,0)"><tspan
         sodipodi:role="line"
         id="tspan2952"
         x="305.41663"
         y="-560.48804">Crowell</tspan></text>
    <rect
       style="fill:#000000;fill-opacity:1;fill-rule:evenodd;stroke:none;stroke-width:1pt;stroke-linecap:butt;stroke-linejoin:miter;stroke-opacity:1"
       id="rect2960"
       width="743.81976"
       height="43.958244"
       x="391.03238"
       y="783.83234" />
    <rect
       style="fill:#000000;fill-opacity:1;fill-rule:evenodd;stroke:none;stroke-width:1pt;stroke-linecap:butt;stroke-linejoin:miter;stroke-opacity:1"
       id="rect1320"
       width="0.91926038"
       height="821.93872"
       x="594.47833"
       y="0.038299423" />
    <text
       xml:space="preserve"
       style="font-size:12px;font-style:normal;font-variant:normal;font-weight:normal;font-stretch:normal;text-align:start;line-height:125%;writing-mode:lr-tb;text-anchor:start;fill:#ffffff;fill-opacity:1;stroke:none;stroke-width:1pt;stroke-linecap:butt;stroke-linejoin:miter;stroke-opacity:1;font-family:Bitstream Vera Sans"
       x="205.34961"
       y="261.23401"
       id="text2058"
       sodipodi:linespacing="125%"><tspan
         sodipodi:role="line"
         x="205.34961"
         y="261.23401"
         id="tspan2062">This book can be downloaded</tspan></text>
    <text
       xml:space="preserve"
       style="font-size:12px;font-style:normal;font-variant:normal;font-weight:normal;font-stretch:normal;text-align:start;line-height:125%;writing-mode:lr-tb;text-anchor:start;fill:#ffffff;fill-opacity:1;stroke:none;stroke-width:1pt;stroke-linecap:butt;stroke-linejoin:miter;stroke-opacity:1;font-family:Bitstream Vera Sans"
       x="205.34961"
       y="285.95999"
       id="text2064"
       sodipodi:linespacing="125%"><tspan
         sodipodi:role="line"
         id="tspan2066"
         x="205.34961"
         y="285.95999">for free, or bought in print, at</tspan></text>
    <text
       xml:space="preserve"
       style="font-size:12px;font-style:normal;font-variant:normal;font-weight:normal;font-stretch:normal;text-align:start;line-height:125%;writing-mode:lr-tb;text-anchor:start;fill:#ffffff;fill-opacity:1;stroke:none;stroke-width:1pt;stroke-linecap:butt;stroke-linejoin:miter;stroke-opacity:1;font-family:Bitstream Vera Sans"
       x="205.39362"
       y="310.68594"
       id="text2068"
       sodipodi:linespacing="125%"><tspan
         sodipodi:role="line"
         id="tspan2070"
         x="205.39362"
         y="310.68594">www.lightandmatter.com/calc.</tspan></text>
    <path
       style="opacity:1;fill:#aa8647;fill-opacity:1;fill-rule:nonzero;stroke:none;stroke-width:1pt;stroke-linecap:butt;stroke-linejoin:miter;marker:none;marker-start:none;marker-mid:none;marker-end:none;stroke-miterlimit:4;stroke-dasharray:none;stroke-dashoffset:0;stroke-opacity:1;visibility:visible;display:inline;overflow:visible;enable-background:accumulate"
       id="path2424"
       d="M 842.06823,384.89067 C 843.84273,384.87792 845.61693,384.83646 847.39083,384.78774 C 847.67133,384.77977 847.95183,384.77184 848.23223,384.76049 C 841.87013,389.72081 843.75433,390.15298 840.21993,388.99077 C 839.42993,388.77659 838.66343,388.4938 837.89003,388.22834 C 837.05463,387.9308 836.18683,387.75901 835.32013,387.58487 C 834.49243,387.3769 833.64213,387.32317 832.79303,387.28976 C 831.93973,387.29362 831.08963,387.24352 830.23803,387.20009 C 829.39223,387.09777 828.54073,387.06689 827.68983,387.04608 C 826.79433,387.00983 825.90633,387.01261 825.02393,387.17822 C 824.18333,387.3515 823.39493,387.69854 822.60773,388.03031 C 819.80323,389.30254 814.80883,392.38606 826.66723,385.55469 C 825.71123,386.1357 824.89223,386.90203 824.08153,387.66495 C 823.27603,388.34378 822.61853,389.15888 821.96693,389.97993 C 821.16413,391.0055 820.30073,391.9814 819.49533,393.00488 C 818.87103,393.8506 818.21303,394.67007 817.59273,395.51868 C 816.84003,396.49225 816.17353,397.51848 815.59493,398.60352 C 814.99423,399.70492 814.60053,400.89123 814.26913,402.09563 C 813.93463,403.46655 813.67003,404.85362 813.39343,406.23713 C 813.13073,407.44169 812.97303,408.66415 812.84833,409.88949 C 812.71173,411.154 812.65233,412.42418 812.61793,413.69494 C 812.57243,415.2314 812.61153,416.76802 812.66103,418.30377 C 812.69543,419.93389 812.80873,421.56045 812.93773,423.18534 C 813.04473,424.54822 813.11973,425.9133 813.22993,427.27594 C 813.34913,428.66918 813.49813,430.05961 813.72163,431.4401 C 813.96943,432.92331 814.36623,434.37373 814.75733,435.82366 C 815.15253,437.22731 815.50673,438.6421 815.85433,440.05816 C 816.19873,441.53948 816.84823,442.91805 817.42763,444.31594 C 817.90493,445.59611 818.44303,446.84856 819.07843,448.05805 C 819.79633,449.42775 820.44793,450.83036 821.11483,452.2252 C 821.73753,453.65328 822.45533,455.03346 823.34933,456.31019 C 824.06573,457.35477 824.90383,458.30726 825.68773,459.3003 C 826.46653,460.24039 827.26643,461.16361 828.10433,462.05154 C 828.83153,462.81374 829.66433,463.46535 830.47963,464.12924 C 831.22893,464.78164 832.03223,465.35619 832.88923,465.8569 C 833.72323,466.25141 834.55613,466.64796 835.38693,467.04937 C 836.16923,467.4144 837.00093,467.64433 837.83793,467.84297 C 838.74823,467.96792 839.65313,468.13012 840.56153,468.26902 C 841.57703,468.46128 842.61203,468.50397 843.64253,468.5359 C 844.71413,468.5689 845.78863,468.53844 846.85683,468.44765 C 847.73243,468.3621 848.60343,468.23541 849.47703,468.12949 C 850.53113,468.03429 851.50753,467.67281 852.44403,467.20035 C 856.70443,464.60347 843.19033,473.19183 847.90693,469.67572 C 848.61963,469.13719 849.33663,468.60454 850.03683,468.04981 C 851.03873,467.21755 851.82713,466.17451 852.54823,465.09935 C 853.31343,463.84012 853.94813,462.50758 854.62683,461.20089 C 855.40173,459.76199 855.95703,458.22149 856.54963,456.70244 C 857.04763,455.44793 857.57803,454.20641 857.99763,452.92277 C 858.33293,451.76215 858.68113,450.60604 859.05493,449.45721 C 859.66783,447.68077 860.14383,445.8624 860.71953,444.07417 C 861.32923,442.3841 861.92123,440.69029 862.43523,438.96841 C 862.81183,437.70794 863.05453,436.41391 863.31953,435.12695 C 863.54653,433.90665 863.87303,432.71242 864.31233,431.55233 C 864.83683,430.4108 865.34323,429.26989 865.75793,428.08327 C 866.17523,426.86935 866.61143,425.66119 867.13383,424.48818 C 867.60133,423.4836 868.21853,422.56257 868.88593,421.68198 C 871.00433,419.02336 874.24723,417.07334 877.60403,416.49669 C 878.38253,416.35442 879.17373,416.31574 879.96323,416.29645 C 880.69173,416.28748 881.41403,416.17968 882.14003,416.12497 C 882.90273,416.07487 883.66743,416.06511 884.43143,416.05039 C 884.50213,416.0492 884.57723,416.02213 884.64343,416.04681 C 884.83223,416.11716 885.37013,416.96791 885.15013,417.10467 C 878.74863,421.0836 880.57823,420.81965 877.44113,421.17526 C 876.59253,421.22817 875.74873,421.33194 874.90173,421.40458 C 872.73793,421.64321 864.42523,427.11194 879.58273,418.41269 C 878.32403,419.19247 877.74283,420.55169 877.20683,421.86847 C 876.39443,424.1242 875.78663,426.44663 875.17373,428.76247 C 874.53393,431.08646 873.99223,433.43473 873.52993,435.79994 C 873.08663,438.26404 872.77373,440.74939 872.54713,443.24209 C 872.41563,444.99951 872.30383,446.76452 872.45613,448.5234 C 872.60053,449.47889 872.96613,450.38162 873.65653,451.06616 C 874.23043,451.52657 874.89383,451.92849 875.61403,452.10137 C 875.38523,452.62192 877.46013,451.472 876.93923,451.76599 C 870.31233,455.50601 868.39993,456.73243 870.88843,455.14963 C 872.09373,454.12742 872.69423,452.60511 873.28493,451.18061 C 874.26153,448.72932 874.71113,446.11638 875.25663,443.54656 C 875.82843,440.97169 876.46463,438.41278 876.96503,435.8226 C 877.35383,433.82108 877.45013,431.78357 877.50333,429.75067 C 877.53433,428.06859 877.52473,426.38612 877.51553,424.70389 C 877.51553,423.62918 877.50613,422.55467 877.41803,421.48318 C 877.45503,421.09566 877.15423,420.30276 877.10573,420.22839 C 877.11563,420.28019 877.08843,420.4075 877.13553,420.38378 C 886.88423,415.47638 883.13573,414.79177 883.84963,418.46233 C 884.16823,419.92923 884.39733,421.41359 884.61663,422.89797 C 884.79773,424.35706 885.11983,425.78411 885.51993,427.19637 C 885.87923,428.45687 886.24703,429.71301 886.72763,430.93315 C 887.13823,431.85435 887.64493,432.73043 888.24653,433.53914 C 888.85113,434.15225 889.58743,434.61132 890.24633,435.1664 C 890.92093,435.74859 891.72023,436.14047 892.51403,436.52933 C 893.25383,436.83757 894.03683,437.02708 894.82603,437.15475 C 895.60373,437.26244 896.38993,437.26919 897.17353,437.27589 C 897.94743,437.29412 898.71473,437.20115 899.46643,437.02281 C 900.11053,436.67025 900.86153,436.55031 901.46143,436.12556 C 889.80173,443.06498 894.77693,440.50152 896.92103,438.10132 C 897.71273,437.18027 898.38353,436.17157 898.99333,435.12404 C 899.58963,434.03984 900.09333,432.90767 900.61443,431.78619 C 901.34523,430.29094 901.81143,428.69296 902.24263,427.09174 C 902.76253,425.03262 903.25383,422.96645 903.73123,420.89711 C 904.16843,419.01762 904.52993,417.12193 904.86723,415.22236 C 905.16953,413.46455 905.50023,411.71252 905.88113,409.97008 C 906.23553,408.41121 906.53853,406.84194 906.81523,405.26766 C 907.17833,403.00786 907.44233,400.73283 907.69733,398.45865 C 907.95043,396.07083 908.10023,393.67388 908.20463,391.27548 C 908.32213,388.79757 908.29043,386.31806 908.18123,383.84093 C 908.07693,381.65851 907.75243,379.49726 907.41743,377.34105 C 907.17163,375.60323 906.83003,373.88254 906.44983,372.16988 C 906.12553,370.76535 905.76863,369.36777 905.33703,367.99221 C 905.02993,367.00571 904.58993,366.07452 904.10113,365.16754 C 903.73423,364.50432 903.56133,364.01213 902.98373,364.64874 C 912.58853,359.25681 909.01013,359.8308 907.67383,364.16135 C 906.97233,366.71191 906.65323,369.34308 906.37053,371.96645 C 906.08093,374.81351 906.00893,377.67538 905.96553,380.53477 C 905.89543,383.20706 905.95323,385.87581 906.22163,388.53552 C 906.46023,390.75444 906.83763,392.95361 907.27273,395.14133 C 907.66083,397.04556 908.14793,398.92688 908.71863,400.78403 C 909.24443,402.3308 909.69703,403.89996 910.15313,405.46815 C 910.43153,406.53223 910.95533,407.49702 911.41163,408.48907 C 911.83903,409.48433 912.19493,410.50266 912.69483,411.46538 C 913.25113,412.44061 913.82783,413.4051 914.42423,414.35655 C 914.99213,415.18681 915.56833,416.01637 916.24313,416.76384 C 916.83373,417.3715 917.55843,417.81798 918.23453,418.32051 C 918.94733,418.81647 919.63723,419.34462 920.36163,419.82444 C 921.08793,420.25708 921.87193,420.57087 922.67973,420.81221 C 923.47423,421.07441 924.28513,421.23159 925.11103,421.34831 C 926.13813,421.45876 927.16583,421.55945 928.19773,421.60982 C 928.81493,421.67004 929.36853,421.47101 929.85053,421.09686 C 919.94763,427.45395 923.06433,425.77673 924.79833,422.8006 C 925.32003,421.8966 925.69483,420.91917 926.07913,419.95169 C 926.62203,418.64336 926.93253,417.2592 927.26903,415.88829 C 927.71123,414.12611 928.09693,412.35096 928.45923,410.57089 C 928.76793,408.95612 929.07823,407.34166 929.38873,405.72722 C 929.58673,404.60066 929.80733,403.47998 930.13103,402.38241 C 930.45863,401.36053 930.89653,400.37934 931.34093,399.4042 C 931.71593,398.59027 932.13773,397.79899 932.55723,397.00742 C 932.89073,396.29901 933.35013,395.70367 933.96443,395.22285 C 937.65053,392.82759 939.65213,390.85998 943.38753,390.81374 C 944.15153,390.81147 944.91553,390.82445 945.67963,390.83087 C 946.23223,390.66356 946.74633,390.69479 947.30543,390.77321 C 950.57263,391.308 946.43133,391.83429 940.98753,395.52442 C 940.12263,395.52506 939.25773,395.52101 938.39283,395.52072 C 937.61133,395.48272 936.84373,395.56045 936.09313,395.779 C 929.88093,398.85152 943.35833,391.17768 940.56233,393.11102 C 939.82303,393.71986 939.16903,394.4256 938.50633,395.11534 C 937.79573,395.81432 937.26203,396.65103 936.80433,397.52955 C 936.26063,398.57501 935.99823,399.71316 935.81713,400.86768 C 935.64213,402.04003 935.58713,403.2246 935.55443,404.40797 C 935.47243,405.54343 935.55793,406.64104 935.86343,407.73516 C 936.23423,408.87952 936.69583,409.99119 937.28703,411.03874 C 937.85033,411.82573 938.51723,412.53796 939.16273,413.25908 C 939.82423,414.07967 940.65733,414.7116 941.54853,415.25958 C 942.32173,415.70706 943.20623,415.84426 944.05353,416.08342 C 944.96033,416.35102 945.89913,416.41869 946.83953,416.39843 C 947.82293,416.43027 948.75253,416.14303 949.67503,415.84285 C 950.88263,415.41 952.05063,414.88359 953.18723,414.29061 C 955.61783,412.99796 959.26943,410.85751 948.19253,417.2025 C 947.98683,417.32032 948.60163,416.96294 948.80393,416.83929 C 949.40213,416.47346 949.42543,416.44777 950.00473,416.05498 C 951.03803,415.4012 951.80973,414.49159 952.54203,413.53323 C 953.36453,412.51732 954.20343,411.51766 954.95723,410.44891 C 955.80423,409.23813 956.35203,407.86725 956.85043,406.48651 C 957.39283,404.9366 957.67953,403.31798 957.95813,401.70492 C 958.20973,400.11496 958.35913,398.51148 958.55693,396.91444 C 958.72243,395.83 958.75923,394.73402 958.77133,393.63909 C 958.79923,392.7019 958.73993,391.76972 958.60023,390.84358 C 958.70633,390.64557 958.12763,389.07739 958.39343,389.84646 C 967.55433,384.47097 964.81023,384.61207 964.68363,388.63459 C 964.63943,389.82602 964.70333,391.0099 964.89403,392.18599 C 965.13633,393.56083 965.64753,394.86002 966.19163,396.13814 C 966.65063,397.23541 967.12983,398.31913 967.71033,399.35784 C 968.12253,400.11727 968.74283,400.69783 969.41783,401.21901 C 970.09613,401.72237 970.90133,401.91519 971.72013,402.03969 C 972.51383,402.13725 973.31273,402.15141 974.10553,402.0487 C 979.72323,399.19163 966.47453,406.66657 969.41133,404.8294 C 973.89233,402.1378 983.93063,396.52989 970.48993,404.19505 C 970.37413,404.26108 970.71583,404.05278 970.82073,403.97049 C 971.09463,403.75552 971.19873,403.6172 971.43393,403.35725 C 972.10143,402.5413 972.72543,401.68969 973.35383,400.84322 C 974.01683,399.97446 974.54973,399.02733 975.00323,398.03592 C 975.48573,396.9309 975.65663,395.73687 975.79983,394.55019 C 975.94223,393.30504 975.97613,392.05148 975.99493,390.79948 C 976.01483,389.83012 975.99663,388.86141 975.96533,387.8926 C 975.92453,386.87288 975.86643,385.85385 975.79123,384.83609 C 975.69073,384.02298 975.66493,383.17864 975.42173,382.39095 C 975.21813,383.45233 970.08473,384.98026 982.15683,378.95848 C 982.19793,378.938 981.92093,379.32262 981.75473,380.09824 C 981.56313,381.28039 981.45043,382.47354 981.36853,383.66774 C 981.30513,384.76593 981.28053,385.86625 981.29233,386.96612 C 981.29553,387.90363 981.46423,388.82121 981.74463,389.71251 C 982.10903,390.72532 982.59443,391.68849 983.15633,392.60478 C 983.72093,393.44728 984.41423,394.19968 985.16143,394.88247 C 985.81033,395.47416 986.57593,395.84501 987.43523,395.99403 C 988.24093,396.12125 989.02903,396.32351 989.83793,396.43115 C 990.61653,396.54466 991.39973,396.51031 992.17183,396.37452 C 996.55303,393.86774 983.68083,401.78182 987.46633,398.97459 C 988.20923,398.46141 988.93433,397.93148 989.61453,397.33727 C 990.32873,396.7517 990.97653,396.09256 991.65713,395.46953 C 992.28343,394.91889 992.90053,394.36536 993.42383,393.71435 C 993.97943,392.97689 994.45033,392.1807 994.94093,391.39962 C 995.42543,390.5686 995.86293,389.71167 996.33243,388.87189 C 996.78223,388.02076 997.15843,387.13281 997.55933,386.25788 C 998.03163,385.20003 998.42903,384.11102 998.79073,383.01113 C 999.13583,381.87439 999.44223,380.72738 999.80573,379.59617 C 1000.2444,378.28841 1000.3399,376.90278 1000.4971,375.54136 C 1000.7029,373.90211 1000.9305,372.26568 1001.146,370.62769 C 1001.3393,369.00534 1001.5111,367.38038 1001.6827,365.75561 C 1001.9055,363.7704 1001.9854,361.77429 1002.0343,359.77854 C 1002.0747,357.77712 1002.0731,355.77536 1002.0488,353.7738 C 1002.0006,351.7171 1001.8972,349.66207 1001.8145,347.60652 C 1001.7556,345.78519 1001.6247,343.9686 1001.3964,342.16087 C 1001.1656,340.56799 1001.0363,338.96338 1000.8064,337.37056 C 1000.5905,336.01156 1000.2218,334.68445 999.92833,333.3415 C 1000.0549,333.11457 999.32143,331.29667 999.45863,332.07005 C 1010.6263,325.58248 1006.5883,327.41207 1004.6213,330.08417 C 1003.8104,331.24125 1003.3302,332.57582 1002.8983,333.90908 C 1002.4288,335.45813 1002.0562,337.03366 1001.7541,338.62316 C 1001.4785,340.27784 1001.3293,341.94986 1001.1138,343.61294 C 1000.8682,345.32474 1000.6132,347.03388 1000.4346,348.75429 C 1000.2768,350.4987 1000.299,352.25193 1000.3821,353.99935 C 1000.4921,355.51867 1000.6175,357.03634 1000.7097,358.55692 C 1000.792,360.09495 1000.8931,361.63208 1001.0209,363.16701 C 1001.1147,364.55123 1001.3593,365.91378 1001.6799,367.26131 C 1002.0043,368.56975 1002.6304,369.76977 1003.1186,371.01913 C 1003.5212,372.11411 1003.8117,373.24361 1004.2676,374.31874 C 1004.6375,375.17336 1005.157,375.94623 1005.6607,376.72479 C 1006.0936,377.39455 1006.6252,377.98611 1007.2379,378.49386 C 1007.7958,378.92189 1008.4922,379.02325 1009.1739,379.07436 C 1010.1021,379.05376 1011.0279,379.07594 1011.9547,379.14898 C 1013.0786,379.30839 1014.1675,379.36669 1015.2484,378.99505 C 1017.6321,377.65767 1020.8123,375.95941 1009.6169,382.2177 C 1009.4721,382.29864 1009.8842,382.02004 1010.0056,381.90698 C 1010.3356,381.59954 1010.452,381.41198 1010.7236,381.05205 C 1011.3855,380.06675 1011.7425,378.9265 1012.1441,377.82044 C 1012.5868,376.72016 1012.9213,375.58932 1013.1652,374.43008 C 1013.4472,373.02925 1013.6695,371.61744 1013.942,370.21488 C 1014.2379,368.8929 1014.5792,367.58391 1014.8013,366.24666 C 1014.9753,365.1514 1015.0498,364.0447 1015.093,362.93769 C 1015.1023,362.13605 1015.1345,361.33524 1015.1627,360.53415 C 1015.2577,360.75357 1015.0734,359.60148 1015.177,359.81698 C 1015.2319,359.93113 1015.2163,360.2187 1015.3307,360.16445 C 1017.6324,359.07328 1019.82,357.75601 1022.0646,356.55179 C 1021.5808,357.52735 1021.5124,358.65154 1021.4062,359.71901 C 1021.226,361.60017 1021.191,363.49114 1021.26,365.3786 C 1021.2833,366.87052 1021.7077,368.25665 1022.3032,369.60639 C 1022.9476,370.88488 1023.6721,372.12025 1024.5147,373.278 C 1025.0177,373.8969 1025.6187,374.59278 1026.4415,374.74549 C 1027.1512,374.83445 1027.8239,374.69074 1028.471,374.40759 C 1034.4965,371.26549 1021.0302,378.85268 1024.0679,377.03268 C 1024.8695,376.56161 1025.432,375.87421 1025.8972,375.08584 C 1026.403,374.17621 1026.5666,373.15143 1026.7431,372.14103 C 1026.9184,371.16502 1027.1499,370.1997 1027.3777,369.23482 C 1027.6093,368.26546 1027.8805,367.30626 1028.1653,366.35138 C 1028.487,365.3151 1028.8385,364.28832 1029.2016,363.26589 C 1029.5391,362.37153 1029.7312,361.43595 1029.8917,360.49672 C 1030.0073,359.78822 1030.0501,359.07148 1030.07,358.35485 C 1030.0837,357.609 1030.08,356.86298 1030.0803,356.11704 C 1030.0932,355.69288 1030.0557,355.16171 1030.0565,354.7914 C 1031.452,357.51089 1030.0069,355.0673 1036.9344,351.59926 C 1036.9425,351.59521 1036.8071,351.82117 1036.7028,352.43441 C 1036.6462,352.76716 1036.6052,353.24876 1036.5728,353.57657 C 1036.4199,355.09025 1036.352,356.60964 1036.3614,358.13052 C 1036.3647,359.42681 1036.5429,360.70963 1036.8464,361.96732 C 1037.1574,363.07399 1038.0047,363.87165 1038.7655,364.68847 C 1039.5366,365.50152 1040.2759,366.37029 1041.2292,366.97496 C 1041.8517,367.3063 1042.4861,367.57737 1043.1956,367.4475 C 1048.3423,365.08505 1035.3402,372.3558 1038.2536,370.39003 C 1038.9416,369.83384 1039.4977,369.13355 1040.0251,368.42814 C 1040.5473,367.77642 1040.9178,367.03538 1041.2678,366.2829 C 1041.6714,365.47627 1042.0803,364.67312 1042.4656,363.85731 C 1042.8638,363.02885 1043.2473,362.19527 1043.5723,361.33527 C 1043.9009,360.3516 1044.1578,359.34463 1044.4199,358.34148 C 1044.6643,357.35378 1044.8964,356.36297 1045.1265,355.37184 C 1045.4,354.17099 1045.5858,352.9527 1045.7563,351.7337 C 1045.9169,350.64428 1046.0082,349.54755 1046.0582,348.44806 C 1046.0955,347.37031 1046.0938,346.29167 1046.0938,345.21342 C 1046.0771,344.15614 1046.131,343.10022 1046.1889,342.04503 C 1046.2462,341.09062 1046.262,340.13453 1046.2719,339.17867 C 1046.277,338.35304 1046.279,337.52739 1046.2699,336.70178 C 1045.6332,333.6166 1051.4576,330.51211 1053.7835,332.6766 C 1054.4322,333.32968 1054.9481,334.09619 1055.4619,334.85542 C 1055.9989,335.67337 1056.5393,336.49189 1057.1463,337.26 C 1057.827,338.06107 1058.3899,338.9479 1058.9825,339.81326 C 1059.6265,340.63586 1060.22,341.48598 1060.7333,342.39598 C 1061.3816,343.60142 1062.0058,344.82 1062.5442,346.07864 C 1062.988,347.144 1063.3396,348.24157 1063.5376,349.37857 C 1063.7207,350.49911 1063.643,351.6274 1063.4868,352.74449 C 1063.2817,354.01623 1062.8666,355.23948 1062.4874,356.46661 C 1062.1659,357.66142 1061.7168,358.81005 1061.2106,359.93695 C 1060.7313,361.05204 1060.0586,362.04878 1059.2475,362.94513 C 1058.6325,363.59331 1057.9949,364.22071 1057.2971,364.77948 C 1057.5873,361.36511 1051.0364,370.74705 1048.3842,368.79527 C 1047.7519,368.1096 1047.5449,367.20649 1047.3933,366.31396 C 1047.2001,365.23536 1047.3089,364.19498 1047.7092,363.18251 C 1049.558,360.26251 1053.2672,358.5253 1056.3777,357.5144 C 1057.1191,357.3367 1057.8905,357.36617 1058.6477,357.36375 C 1059.504,357.38131 1060.3332,357.59992 1061.1555,357.81824 C 1061.9681,358.00392 1062.783,358.17054 1063.6111,358.2675 C 1064.3934,358.33298 1065.1815,358.37624 1065.9656,358.32621 C 1068.9626,357.98197 1073.2498,354.70451 1061.4647,361.42185 C 1062.2896,360.88952 1063.0109,360.20953 1063.7335,359.54826 C 1064.0477,359.28096 1064.3167,358.97002 1064.566,358.64325 L 1071.8563,355.42058 C 1071.6546,355.82712 1071.4119,356.1976 1071.0995,356.53044 C 1070.3703,357.21301 1069.6206,357.87242 1068.8807,358.54334 C 1065.4101,360.54397 1063.2145,362.94709 1059.5349,363.02197 C 1058.7234,363.01085 1057.9105,362.97822 1057.1069,362.85667 C 1056.265,362.72086 1055.4307,362.54208 1054.6027,362.33814 C 1053.8189,362.15468 1053.0256,362.00847 1052.2159,362.05616 C 1051.5023,362.08241 1050.7777,362.11429 1050.1351,362.46241 C 1047.5828,363.96065 1060.0239,356.04158 1054.9611,359.91593 C 1054.4072,360.71991 1054.2792,361.6327 1054.4234,362.59384 C 1054.5027,363.15772 1054.5569,363.99131 1055.0252,364.37878 C 1057.8341,363.4928 1061.3193,361.80661 1049.8809,367.67526 C 1050.6673,367.26243 1051.2749,366.61724 1051.9094,366.00623 C 1052.7359,365.1798 1053.507,364.31637 1053.9915,363.23444 C 1054.4995,362.13613 1055.0014,361.03321 1055.3072,359.85733 C 1055.6797,358.65879 1056.0935,357.46917 1056.3565,356.24031 C 1056.5347,355.20152 1056.6496,354.15236 1056.509,353.09991 C 1056.3563,352.01693 1056.038,350.97357 1055.6217,349.96224 C 1055.1058,348.72785 1054.4954,347.53644 1053.851,346.36438 C 1053.3401,345.47765 1052.7456,344.65444 1052.1265,343.84034 C 1051.5468,342.98665 1050.9868,342.11921 1050.3133,341.33399 C 1049.7028,340.54674 1049.1537,339.71451 1048.6069,338.88221 C 1048.1256,338.18263 1047.645,337.46862 1047.0208,336.88631 C 1044.6339,334.98706 1054.3858,330.62065 1053.3726,333.08225 C 1053.3645,333.91266 1053.3672,334.74311 1053.3621,335.57353 C 1053.3558,336.54064 1053.3465,337.50807 1053.297,338.47412 C 1053.2353,339.51686 1053.1578,340.55981 1053.1748,341.60527 C 1053.1753,342.6919 1053.1801,343.7787 1053.1573,344.86517 C 1053.1218,345.98896 1053.0411,347.11111 1052.8768,348.22418 C 1052.7183,349.46158 1052.5328,350.6967 1052.2886,351.92033 C 1052.0699,352.92044 1051.8228,353.9141 1051.5911,354.91123 C 1051.3344,355.93391 1051.0534,356.95042 1050.7785,357.9682 C 1050.4814,358.85851 1050.1239,359.72012 1049.7082,360.56193 C 1049.3222,361.37443 1048.9657,362.20325 1048.5079,362.97917 C 1048.1524,363.75925 1047.841,364.56677 1047.3334,365.2651 C 1046.8065,366.01257 1046.2493,366.73667 1045.6381,367.41818 C 1043.2678,369.72191 1040.1194,371.92416 1036.7515,372.13201 C 1035.9454,372.01843 1035.1972,371.70672 1034.5202,371.25302 C 1033.5757,370.54653 1032.7824,369.67289 1031.9837,368.80937 C 1031.1332,367.88846 1030.2207,366.98021 1029.8525,365.74617 C 1029.5234,364.43318 1029.3267,363.09204 1029.3063,361.73629 C 1029.2779,360.19563 1029.3267,358.65536 1029.4665,357.12022 C 1029.6818,354.24379 1031.4531,344.51192 1037.033,350.89562 C 1037.2553,351.38874 1037.1459,351.97445 1037.1731,352.50152 C 1037.1759,353.25147 1037.1798,354.00145 1037.1766,354.75141 C 1037.1679,355.502 1037.1399,356.25197 1037.0377,356.9967 C 1036.8924,357.97723 1036.7189,358.95873 1036.4049,359.90132 C 1036.0418,360.91461 1035.6812,361.92872 1035.3521,362.95377 C 1035.0589,363.89256 1034.7915,364.83936 1034.55,365.7928 C 1034.3134,366.7426 1034.0964,367.69804 1033.8856,368.65351 C 1033.7047,369.72389 1033.5783,370.81442 1033.1496,371.82245 C 1032.7399,372.69709 1032.2612,373.53841 1031.4756,374.1327 C 1028.6418,376.23756 1025.491,378.03806 1022.1773,379.28071 C 1021.3966,379.44462 1020.5933,379.49583 1019.8341,379.20042 C 1018.9609,378.7598 1018.2465,378.11399 1017.6792,377.31464 C 1016.8221,376.102 1016.068,374.82382 1015.3951,373.49987 C 1014.7473,372.0652 1014.2626,370.59025 1014.2262,368.99742 C 1014.1455,367.08499 1014.1634,365.16758 1014.3085,363.25828 C 1014.3947,362.10552 1014.4865,360.94111 1014.8023,359.82425 C 1016.3133,358.9143 1022.4403,352.67459 1022.2776,356.94598 C 1022.2394,357.74738 1022.197,358.54859 1022.193,359.35106 C 1022.1582,360.48669 1022.087,361.62222 1021.9299,362.74821 C 1021.7438,364.10635 1021.4145,365.4313 1021.0745,366.75796 C 1020.7818,368.15286 1020.5805,369.56406 1020.3109,370.96348 C 1020.0887,372.15751 1019.8138,373.33877 1019.3433,374.46368 C 1018.9252,375.60759 1018.573,376.78578 1018.0001,377.86438 C 1016.1402,381.07527 1012.4418,382.78647 1008.9295,383.82428 C 1007.7863,384.00807 1006.6479,383.87833 1005.5006,383.77835 C 1004.5554,383.73775 1003.6053,383.78626 1002.6655,383.66945 C 1001.8654,383.51535 1001.0991,383.2542 1000.4783,382.70257 C 999.83353,382.12086 999.25763,381.47129 998.78793,380.73813 C 998.26203,379.92033 997.72823,379.10389 997.33453,378.21122 C 996.86943,377.12815 996.57203,375.99215 996.18323,374.88116 C 995.69273,373.59531 995.04723,372.36729 994.69743,371.03005 C 994.35863,369.64702 994.08453,368.25 993.98573,366.82647 C 993.85443,365.28587 993.75253,363.74267 993.67053,362.19868 C 993.57393,360.67511 993.46163,359.15317 993.34153,357.63125 C 993.24773,355.84863 993.22183,354.06063 993.34553,352.27848 C 993.50923,350.54939 993.75053,348.83182 994.00903,347.11466 C 994.24033,345.44332 994.38963,343.76238 994.63483,342.09311 C 994.90763,340.47309 995.28313,338.87341 995.73393,337.29352 C 996.14103,335.90582 996.59853,334.51739 997.33443,333.26406 C 999.37123,330.02998 1001.6162,329.40467 1005.91,327.35994 C 1006.5853,327.94561 1006.8031,328.71312 1006.932,329.58621 C 1007.2135,330.95021 1007.5729,332.29715 1007.8083,333.67054 C 1008.0566,335.26601 1008.1858,336.87528 1008.4117,338.47392 C 1008.6459,340.30513 1008.7794,342.14518 1008.8416,343.99047 C 1008.9241,346.0524 1009.0229,348.11382 1009.0829,350.17654 C 1009.1183,352.18663 1009.125,354.19675 1009.0838,356.20691 C 1009.0412,358.21844 1008.9789,360.23125 1008.77,362.2337 C 1008.6133,363.86524 1008.4328,365.49459 1008.2543,367.1239 C 1008.0331,368.75747 1007.8165,370.39168 1007.5949,372.0252 C 1007.4395,373.42293 1007.3679,374.84608 1006.9964,376.20705 C 1006.6391,377.34155 1006.2725,378.47167 1005.9697,379.62276 C 1005.6358,380.75077 1005.2352,381.85766 1004.7909,382.94695 C 1004.4034,383.84309 1003.9747,384.72129 1003.5919,385.61965 C 1003.1349,386.47349 1002.6347,387.30343 1002.216,388.17775 C 1001.745,388.9885 1001.2261,389.77133 1000.7288,390.56599 C 1000.237,391.26957 999.71343,391.92734 999.02783,392.45752 C 998.33803,393.08017 997.66463,393.71756 996.98843,394.35423 C 996.28793,394.92873 995.65363,395.58309 994.86473,396.04596 C 992.03993,398.04989 989.21563,400.49471 985.78533,401.13119 C 984.96273,401.18553 984.14063,401.16043 983.32773,401.00965 C 982.50843,400.86507 981.69383,400.69126 980.88093,400.51491 C 979.94923,400.21855 979.11123,399.73689 978.39913,399.05946 C 977.61263,398.31385 976.87393,397.50869 976.28573,396.5946 C 975.69413,395.62418 975.17463,394.61056 974.77553,393.54475 C 974.45373,392.58827 974.23673,391.60148 974.21363,390.58838 C 974.18713,389.46834 974.21683,388.34693 974.26983,387.22801 C 974.34153,386.01022 974.45723,384.79661 974.60573,383.58576 C 974.63453,383.38099 974.67723,382.28741 974.86433,382.16877 C 977.83943,380.28263 980.67363,375.71648 982.40353,378.54305 C 982.70173,379.38157 982.72673,380.29503 982.84833,381.17061 C 982.93323,382.19847 982.98363,383.22828 983.03973,384.25802 C 983.07403,385.23966 983.11283,386.2209 983.08013,387.20336 C 983.05933,388.47869 983.03463,389.7555 982.91483,391.02618 C 982.78063,392.27227 982.64753,393.53031 982.21933,394.71734 C 981.80643,395.76304 981.31303,396.77199 980.64953,397.68461 C 980.03643,398.55268 979.36903,399.38023 978.75933,400.25108 C 976.48153,403.13044 976.17453,401.96791 970.75733,405.47151 C 968.79193,406.74261 979.86553,400.25508 976.83273,401.95092 C 973.95183,403.74825 971.12813,406.25448 967.70113,406.77777 C 966.86113,406.80175 966.01723,406.76458 965.19233,406.59185 C 964.28313,406.37586 963.40903,406.05322 962.67663,405.45303 C 961.94253,404.84589 961.27883,404.1653 960.81853,403.32099 C 960.23123,402.2542 959.73713,401.14636 959.26923,400.02244 C 958.70583,398.68877 958.17143,397.33613 957.88593,395.91095 C 957.65863,394.69421 957.55183,393.46866 957.59553,392.22956 C 957.62383,387.6831 958.52923,388.54717 964.89713,385.20238 C 965.40503,385.75487 965.56693,386.37287 965.63163,387.11971 C 965.79323,388.08465 965.89143,389.05537 965.85883,390.03567 C 965.85143,391.16074 965.84733,392.29081 965.67333,393.40539 C 965.44793,395.01031 965.29773,396.62416 965.07313,398.22913 C 964.79823,399.87535 964.53403,401.53013 964.02963,403.12547 C 963.55203,404.55931 963.02593,405.9863 962.22763,407.278 C 961.50223,408.37225 960.71133,409.41321 959.84703,410.40252 C 959.07643,411.36614 958.42903,412.43744 957.38283,413.14347 C 954.15363,415.53723 950.54423,417.38319 946.98993,419.24776 C 945.81963,419.80777 944.62543,420.32577 943.38103,420.69962 C 942.40453,420.96361 941.41473,421.12121 940.39853,421.06273 C 939.41333,421.0126 938.44003,420.88164 937.49463,420.58711 C 936.57723,420.34608 935.66043,420.09265 934.86083,419.55903 C 933.93353,418.94249 933.07133,418.24056 932.35983,417.37687 C 931.67583,416.61448 930.96883,415.85946 930.40203,415.00424 C 929.78243,413.90316 929.29903,412.73682 928.89303,411.54062 C 928.53813,410.3784 928.36533,409.21704 928.46623,407.99754 C 928.49273,406.78735 928.53353,405.57541 928.68893,404.37362 C 928.84543,403.15645 929.05483,401.94109 929.56913,400.81559 C 929.99083,399.86992 930.48193,398.96579 931.15803,398.17382 C 931.83433,397.4781 932.50763,396.77944 933.17863,396.07871 C 935.72013,393.70277 939.04823,391.89169 942.43213,390.963 C 943.22883,390.84364 944.02723,390.8174 944.83233,390.84367 C 945.69473,390.84601 946.55743,390.85032 947.41963,390.82359 C 940.76803,395.82437 943.79863,395.63339 940.80863,395.40697 C 940.27793,395.39119 939.76283,395.55398 939.22883,395.50779 C 938.47623,395.49912 937.72273,395.48392 936.97073,395.5249 C 933.97993,395.79237 929.74363,399.18911 941.38793,392.32953 C 940.73643,392.67074 940.15563,393.06581 939.82023,393.74849 C 939.39293,394.52709 938.97863,395.31303 938.57893,396.10583 C 938.12653,397.05317 937.68633,398.00859 937.32063,398.99325 C 936.95753,400.0574 936.71663,401.15271 936.52623,402.26049 C 936.21173,403.88033 935.87273,405.49533 935.57623,407.11869 C 935.22933,408.90874 934.84033,410.69005 934.41253,412.4626 C 934.07063,413.85441 933.79743,415.26965 933.28663,416.61321 C 932.90163,417.60196 932.53643,418.6027 932.06503,419.55434 C 930.10453,423.18554 929.03423,423.52561 923.63163,426.08538 C 923.00793,426.28327 922.38033,426.33478 921.72843,426.24796 C 920.68453,426.16702 919.64173,426.06315 918.60403,425.92425 C 917.75053,425.77979 916.91523,425.55811 916.09443,425.28245 C 915.24393,424.97508 914.40853,424.61758 913.65443,424.11148 C 912.93353,423.61145 912.22703,423.09067 911.51243,422.58189 C 910.78693,422.05619 910.03733,421.55086 909.43613,420.87788 C 908.74833,420.08472 908.13783,419.22864 907.55813,418.35388 C 906.95073,417.38431 906.36113,416.40249 905.79373,415.40916 C 905.28703,414.43527 904.91113,413.41233 904.48843,412.40099 C 904.01583,411.37203 903.47863,410.36883 903.19073,409.2655 C 902.74293,407.69865 902.30593,406.1284 901.77733,404.58614 C 901.19633,402.7034 900.70553,400.79553 900.30823,398.86514 C 899.86213,396.65394 899.47723,394.43032 899.23503,392.18643 C 898.95113,389.49803 898.88273,386.79908 898.95063,384.09657 C 898.98823,381.21482 899.05583,378.33099 899.33313,375.46045 C 899.60123,372.80773 899.89643,370.14924 900.53053,367.55409 C 901.80603,362.71756 903.36123,362.65385 909.26073,359.73147 C 910.15703,359.73797 910.63003,360.4757 911.00213,361.20985 C 911.51553,362.1611 911.97243,363.14006 912.29533,364.17451 C 912.73843,365.57095 913.09773,366.99208 913.42933,368.41879 C 913.81613,370.1494 914.16273,371.88863 914.40093,373.64684 C 914.73663,375.83152 915.08153,378.01897 915.19133,380.22967 C 915.30403,382.72646 915.35143,385.22588 915.24613,387.72421 C 915.15163,390.13955 915.00473,392.55293 914.75863,394.95805 C 914.51043,397.24002 914.24823,399.52142 913.92743,401.79437 C 913.66323,403.3807 913.38473,404.96444 913.01443,406.53023 C 912.62183,408.26149 912.27493,410.00099 911.98233,411.75226 C 911.64623,413.66684 911.28133,415.57656 910.84703,417.47163 C 910.37213,419.54634 909.88003,421.61687 909.37553,423.68459 C 908.96003,425.31665 908.54023,426.95788 907.83603,428.49473 C 907.30763,429.62673 906.80053,430.76885 906.24603,431.8884 C 905.64763,432.97026 905.02043,434.03458 904.23343,434.99335 C 901.91103,437.99222 898.87753,439.2536 895.25053,441.11352 C 894.54743,441.37543 893.85293,441.68988 893.11153,441.82225 C 892.32023,441.93332 891.52253,441.97725 890.72353,441.94329 C 889.91043,441.91931 889.09523,441.8774 888.29673,441.71015 C 887.46063,441.52254 886.63073,441.29192 885.86273,440.9027 C 885.03013,440.47174 884.21383,440.0094 883.50493,439.38754 C 882.78673,438.8101 881.98653,438.31663 881.40203,437.5927 C 880.76803,436.723 880.22993,435.78662 879.79433,434.8016 C 879.30023,433.55872 878.91633,432.28085 878.55083,430.99486 C 878.13573,429.5501 877.79813,428.09155 877.61553,426.59659 C 877.39543,425.13058 877.17243,423.66261 876.84453,422.21611 C 876.23823,419.51576 876.16163,409.92498 883.85343,415.95054 C 884.29043,416.48522 884.38153,417.13574 884.47423,417.80652 C 884.58383,418.90157 884.59563,420.00149 884.58123,421.10144 C 884.58053,422.7938 884.58463,424.48629 884.55673,426.17849 C 884.50943,428.25067 884.44083,430.33025 884.06363,432.37404 C 883.56503,434.97563 882.92673,437.54432 882.33353,440.12538 C 881.78193,442.71903 881.36203,445.35995 880.45723,447.8612 C 879.88533,449.36763 879.28543,450.91136 878.26593,452.17896 C 875.93403,454.57321 872.45413,457.43645 869.02003,456.56976 C 868.23033,456.23416 867.47303,455.81189 866.85813,455.20337 C 866.09703,454.34845 865.62063,453.32245 865.41963,452.19175 C 865.23873,450.38497 865.35183,448.57058 865.48093,446.76302 C 865.70473,444.24586 866.03353,441.73878 866.44243,439.24498 C 866.88353,436.86086 867.40823,434.49301 868.06373,432.15778 C 868.67323,429.82627 869.28383,427.49267 870.03413,425.20161 C 870.52813,423.79973 871.06383,422.34369 872.17193,421.30168 C 874.97793,419.66755 877.84973,416.93655 881.30063,416.6651 C 882.13333,416.58294 882.97073,416.52536 883.79563,416.38189 C 886.67883,415.64309 883.12743,416.51378 877.73803,420.08222 C 877.52563,420.22286 878.10973,420.44459 878.22343,420.67258 C 878.26013,420.74614 877.98483,420.91076 877.98893,420.74882 C 877.23803,420.76127 876.48713,420.78762 875.73923,420.85893 C 875.00683,420.92841 874.27463,420.99772 873.53823,421.00605 C 872.77873,421.05217 872.01673,421.12656 871.28373,421.34221 C 867.09363,422.88158 880.46023,415.40528 876.19853,418.55968 C 875.50153,419.37708 874.86993,420.25155 874.36833,421.20402 C 873.77863,422.32399 873.37413,423.52808 872.94273,424.71541 C 872.54253,425.91544 872.12553,427.10287 871.52573,428.22142 C 871.04203,429.32799 870.68873,430.47908 870.46113,431.66635 C 870.20003,432.97357 869.95973,434.28796 869.60063,435.57255 C 869.09473,437.30965 868.51363,439.02082 867.87183,440.71247 C 867.27223,442.48627 866.81903,444.30155 866.23343,446.0796 C 865.86163,447.22271 865.49993,448.36865 865.18213,449.52816 C 864.80043,450.84727 864.26323,452.10839 863.73253,453.37336 C 863.13273,454.90676 862.59273,456.46927 861.86063,457.94623 C 861.16033,459.25884 860.51263,460.59881 859.80333,461.90659 C 859.11863,463.04032 858.35363,464.12764 857.40923,465.0634 C 856.74943,465.67026 856.02123,466.1953 855.29943,466.72551 C 852.53113,468.92049 849.40793,470.64161 846.21213,472.14203 C 845.21213,472.5369 844.17403,472.78628 843.10083,472.8826 C 842.22023,472.99288 841.34123,473.12457 840.45343,473.16342 C 839.36733,473.21209 838.28023,473.23965 837.19363,473.18088 C 836.14023,473.12693 835.08913,473.03713 834.05113,472.8417 C 833.12853,472.68495 832.19593,472.57916 831.28563,472.3589 C 830.41333,472.12338 829.55343,471.83633 828.74313,471.43216 C 827.89573,471.01938 827.03393,470.63305 826.20963,470.17516 C 825.33983,469.63137 824.52003,469.01973 823.74233,468.35012 C 822.90553,467.66007 822.05043,466.98442 821.31823,466.17976 C 820.47193,465.27015 819.65773,464.33074 818.86863,463.37111 C 818.07193,462.36707 817.23063,461.39533 816.50983,460.33366 C 815.60703,459.01319 814.86753,457.59822 814.22623,456.13309 C 813.55843,454.74987 812.90833,453.35765 812.18953,451.9998 C 811.53993,450.76947 810.98753,449.49606 810.51003,448.18899 C 809.91963,446.75342 809.24763,445.3424 808.87843,443.82742 C 808.53003,442.41696 808.17833,441.00694 807.79203,439.60634 C 807.39673,438.1324 806.97793,436.66256 806.71433,435.15734 C 806.47553,433.75955 806.31803,432.35083 806.18653,430.93908 C 806.06863,429.57436 806.00183,428.20625 805.90233,426.84016 C 805.77383,425.203 805.65263,423.56441 805.61923,421.92199 C 805.56383,420.37605 805.49803,418.82941 805.53773,417.28214 C 805.56173,415.99529 805.60413,414.70797 805.73953,413.42716 C 805.84993,412.17749 805.98693,410.92696 806.25163,409.69917 C 806.53423,408.30412 806.81653,406.90907 807.10573,405.51538 C 807.42243,404.26677 807.76683,403.0219 808.35643,401.86866 C 808.91163,400.74854 809.51773,399.65836 810.29913,398.67644 C 810.91413,397.81837 811.54823,396.97774 812.19943,396.14692 C 812.96353,395.08929 813.84113,394.1224 814.66673,393.11327 C 815.30563,392.26489 815.92943,391.38559 816.73133,390.68171 C 817.55383,389.91383 818.33983,389.09554 819.25783,388.43917 C 822.39243,386.60849 825.46413,384.49301 828.85683,383.1131 C 829.68023,382.79503 830.51643,382.49768 831.40173,382.41298 C 832.31373,382.33595 833.22793,382.35975 834.14203,382.39026 C 834.99753,382.42487 835.85013,382.49245 836.70393,382.55348 C 837.55503,382.59864 838.40683,382.60546 839.25793,382.64888 C 840.13273,382.7141 840.99923,382.83379 841.85333,383.03893 C 842.74333,383.22827 843.62273,383.46078 844.48053,383.76676 C 845.25203,384.03426 846.03093,384.275 846.81223,384.51234 C 849.96613,385.53675 850.53403,383.22302 841.76963,389.47315 C 841.50093,389.47127 841.23213,389.47314 840.96343,389.47479 C 839.19803,389.4877 837.43253,389.50897 835.66773,389.55804 L 842.06823,384.89067 z" />
    <path
       style="opacity:1;fill:#aa8647;fill-opacity:1;fill-rule:nonzero;stroke:none;stroke-width:1pt;stroke-linecap:butt;stroke-linejoin:miter;marker:none;marker-start:none;marker-mid:none;marker-end:none;stroke-miterlimit:4;stroke-dasharray:none;stroke-dashoffset:0;stroke-opacity:1;visibility:visible;display:inline;overflow:visible;enable-background:accumulate"
       id="path2438"
       d="M 861.80347,491.20914 C 859.59927,491.40791 857.38747,491.51174 855.18467,491.72439 C 854.03277,491.821 852.92307,492.11644 851.86657,492.5761 C 850.67217,493.2037 849.49667,493.82773 854.42677,491.0966 C 854.57317,491.0155 854.14527,491.27806 854.00987,491.37643 C 853.55667,491.70569 853.15797,492.0875 852.75897,492.47855 C 851.90177,493.35188 851.26817,494.39924 850.63467,495.43693 C 849.93887,496.59233 849.32237,497.79074 848.72817,499.0005 C 848.15917,500.08261 847.80517,501.24009 847.53457,502.42634 C 847.25497,503.71646 847.12117,505.03088 847.03527,506.34618 C 846.97047,507.54812 846.96547,508.75213 846.96277,509.95547 C 846.94347,511.12723 847.01657,512.29664 847.09567,513.46489 C 847.14247,514.8332 847.42397,516.16753 847.73967,517.49381 C 848.00007,518.64436 848.32687,519.7771 848.67157,520.90463 C 848.95777,521.86901 849.39267,522.7777 849.84117,523.67485 C 850.23917,524.62265 850.81737,525.42799 851.54607,526.14436 C 852.30037,526.84956 853.07387,527.53145 853.88307,528.17301 C 854.73357,528.81907 855.65707,529.34058 856.64937,529.73138 C 857.71997,530.11988 858.84827,530.2215 859.97777,530.18659 C 861.16637,530.10711 862.28697,529.75343 863.36577,529.26763 C 864.87957,528.65068 868.95127,526.25397 862.85147,529.75283 C 863.82067,529.19269 864.58227,528.42137 865.22587,527.51713 C 865.98027,526.40321 866.61857,525.22448 867.12627,523.97983 C 867.56137,522.92414 867.81617,521.82652 867.84017,520.68675 C 867.82817,519.56203 867.51827,518.47398 867.24887,517.39078 C 866.98847,516.60894 866.92667,515.74946 866.60717,514.98735 C 866.59637,514.90497 866.48627,514.86377 866.40697,514.83885 C 866.50407,515.03359 865.96097,514.43962 865.87937,514.34712 C 865.67417,514.10688 865.48427,513.85434 865.30197,513.59653 C 864.86007,511.79988 869.07007,511.33854 870.64217,510.70816 C 871.38347,510.40794 872.11387,510.07998 872.83417,509.73249 C 873.28947,509.53591 873.71877,509.291 874.14767,509.0442 C 874.30487,508.95381 874.77717,508.68443 874.62017,508.77493 C 871.12077,510.79148 870.76537,511.00021 872.12127,510.20859 C 882.59737,504.54701 872.60547,509.63377 872.85707,509.76916 C 875.89397,511.40395 876.92317,506.01564 876.76617,509.7797 C 876.66377,510.78427 876.51127,511.78266 876.39857,512.7861 C 876.26457,513.97969 876.25077,515.17854 876.31297,516.3765 C 876.38177,517.40918 876.61527,518.41609 876.92557,519.39998 C 877.20957,520.13929 877.60917,520.80287 878.27207,521.24929 C 878.89587,521.58926 879.59767,521.64853 880.29467,521.63206 C 881.07267,521.63661 881.80647,521.4092 882.50197,521.07868 C 884.10947,520.13281 881.20807,521.84276 879.87777,522.55957 C 879.72727,522.64069 880.15477,522.35874 880.28867,522.25238 C 880.72457,521.90616 881.11777,521.51964 881.50957,521.1256 C 882.34377,520.21875 882.98817,519.15865 883.66847,518.13621 C 884.33287,517.21162 884.78107,516.17876 885.16667,515.11556 C 885.46847,514.22639 885.77977,513.34174 886.01047,512.43105 C 886.17017,511.74401 886.32747,511.05556 886.43607,510.35831 C 886.44017,510.31884 886.41557,510.21767 886.44837,510.23991 C 886.49807,510.27356 886.48997,510.35253 886.51067,510.40884 C 887.57567,509.9174 888.60647,509.34375 889.70567,508.93452 C 889.85447,508.87914 889.36477,509.42476 889.04257,510.06028 C 888.61637,510.96606 888.41427,511.93577 888.32887,512.92667 C 888.29167,513.95018 888.44007,514.96523 888.98347,515.84338 C 889.52757,516.50685 890.27597,516.92995 891.07067,517.22091 C 891.88547,517.49078 892.72077,517.50993 893.56297,517.40129 C 894.89707,517.00644 897.61987,515.47518 891.74907,518.60113 C 891.40427,518.78473 892.35807,518.11079 892.64587,517.84665 C 893.51587,516.99541 894.20227,515.99169 894.73857,514.90419 C 895.20967,513.93162 895.33747,512.88002 895.36047,511.81411 C 895.38537,510.71668 895.15487,509.67055 894.72437,508.66846 C 894.26717,507.71705 893.43667,507.07166 892.62607,506.43434 C 891.95437,505.91567 891.30537,505.34204 890.53377,504.97485 C 890.14327,504.78843 889.73017,504.80346 889.31707,504.88777 C 886.95107,505.88149 893.21827,502.25915 891.47557,503.66606 C 891.40197,503.8806 891.90697,503.92332 892.11427,503.98127 C 892.76497,504.17013 893.41637,504.20517 894.08417,504.10892 C 895.13507,503.9085 896.10697,503.45277 897.03567,502.93695 C 891.24077,506.54459 895.29107,503.93201 896.45937,502.74923 C 897.17117,502.03252 897.68397,501.18397 898.02707,500.24016 C 897.99407,498.70082 902.00087,496.72948 901.59427,498.77449 C 901.43197,499.71671 901.41227,500.67665 901.43757,501.63012 C 901.47587,502.81176 901.80457,503.92504 902.30047,504.98851 C 902.81527,505.85322 903.29277,506.75862 903.97747,507.50288 C 905.28487,508.81305 908.10947,506.22858 902.27297,509.4905 C 903.28597,508.78447 903.79887,507.67102 904.24647,506.56138 C 904.74777,505.28618 905.02527,503.94353 905.21707,502.59159 C 905.36707,501.60445 905.33167,500.61337 905.20967,499.62706 C 905.12247,498.84633 904.92127,498.09168 904.63437,497.36251 C 907.50397,489.45127 907.90027,495.85499 908.18357,497.00246 C 908.52387,498.13909 909.03647,499.21198 909.55157,500.27722 C 910.05217,501.32179 910.94117,502.01694 911.85107,502.68547 C 912.60487,503.21699 913.41077,503.6368 914.28777,503.91738 C 914.76057,504.0354 915.12307,504.00668 915.50257,503.71589 C 910.71557,506.80573 912.73467,505.41005 913.30817,503.12126 C 913.59157,501.8818 913.74757,500.62059 913.80577,499.35189 C 913.84907,498.38592 913.68257,497.43162 913.57207,496.4761 C 913.48887,495.71673 913.45107,494.95347 913.41977,494.1905 C 913.07997,492.27215 916.08017,491.70952 917.79937,491.67264 C 918.61147,491.68559 919.41357,491.6583 920.18427,491.38923 C 924.41587,489.08954 915.96737,494.75516 919.07807,491.94572 C 919.80297,491.16545 920.32937,490.227 920.86727,489.31409 C 921.28997,488.62049 921.59447,487.8733 921.81327,487.09375 C 921.96317,486.48043 922.01527,485.84852 922.02037,485.21875 C 922.03367,484.52511 921.73147,483.93733 921.34577,483.38396 C 921.01937,482.98035 920.56617,482.8413 920.07117,482.78224 C 918.86887,482.74196 915.63817,484.77994 922.38767,481.23128 C 922.64327,481.09688 921.96407,481.62594 921.77687,481.84592 C 921.25137,482.55951 921.03137,483.41928 920.83967,484.26928 C 920.68947,484.96566 920.65637,485.67732 920.68787,486.38681 C 920.75537,487.32823 921.00757,488.24264 921.23807,489.15399 C 921.46397,490.12818 921.87587,491.03746 922.31017,491.93276 C 922.69707,492.68642 923.23597,493.34848 923.79467,493.98036 C 924.37557,494.6235 925.09167,495.03045 925.89797,495.31733 C 926.56917,495.55233 927.26917,495.69961 927.98057,495.64748 C 929.52607,495.41001 932.81307,493.22521 926.85907,496.62805 C 927.69247,496.16429 928.37007,495.50777 929.03537,494.83735 C 929.72247,494.21631 930.31107,493.53085 930.79017,492.73903 C 931.45157,491.48984 932.06837,490.2176 932.60247,488.90884 C 933.23317,487.28553 933.60577,485.58672 933.89507,483.87487 C 934.18357,482.01898 934.27827,480.1423 934.31387,478.26692 C 934.36007,476.34087 934.25677,474.41969 934.00277,472.51102 C 933.81017,471.12385 933.51897,469.75325 933.13857,468.406 C 932.83167,467.54463 932.40197,466.73136 932.00527,465.9084 C 931.72257,465.49073 931.47267,464.42754 930.90167,464.29496 C 930.88457,464.35008 930.79807,464.48454 930.85037,464.46032 C 935.31407,462.39615 934.03757,462.0549 933.14427,465.68345 C 932.60847,467.98825 932.28177,470.33424 932.03077,472.68494 C 931.79457,475.11919 931.72077,477.56366 931.84047,480.00578 C 931.94197,481.9584 932.40397,483.85551 932.88367,485.74175 C 933.22607,487.35257 933.82277,488.87943 934.47707,490.38376 C 934.91607,491.49333 935.51287,492.45028 936.54537,493.07148 C 937.30687,493.44906 938.14887,493.55173 938.98747,493.56924 C 939.87877,493.54312 940.74337,493.33858 941.55517,492.97694 C 943.31287,491.94077 940.34827,493.69286 939.13137,494.32769 C 938.95097,494.42177 939.45857,494.08573 939.61527,493.95602 C 940.12457,493.53437 940.56717,493.05969 941.00547,492.56703 C 942.02947,491.29407 942.67697,489.78166 943.29907,488.28545 C 944.04327,486.48497 944.39757,484.56723 944.70007,482.65305 C 944.98147,480.82277 945.14697,478.9782 945.23007,477.12909 C 945.32277,475.00408 945.20637,472.87992 945.07477,470.75961 C 944.97457,469.14253 944.87747,467.52518 944.76267,465.90906 C 944.68207,464.89346 944.63067,463.87241 944.46867,462.86552 C 944.35027,462.41242 944.10727,461.98566 943.64837,461.82501 C 942.50957,462.65859 941.56407,462.63755 946.38317,460.37408 C 946.54557,460.29779 946.14097,460.64107 946.04367,460.79184 C 945.69867,461.32632 945.60927,461.67567 945.37837,462.28681 C 944.49227,465.37276 944.39557,468.61459 944.36937,471.80377 C 944.37337,475.45325 944.96617,479.04187 946.17417,482.47911 C 946.96147,484.62473 948.24437,486.4266 950.00957,487.85766 C 950.82887,488.44696 951.68287,489.01629 952.68127,489.22671 L 949.40127,491.48711 C 948.38287,491.18624 947.49567,490.59343 946.65387,489.95792 C 944.86597,488.4509 943.54307,486.58996 942.73697,484.37904 C 941.51957,480.89871 940.90917,477.26854 940.88837,473.57512 C 940.89567,470.35649 940.98567,467.09534 941.79457,463.96171 C 942.49257,461.85748 944.23647,458.99778 946.98217,459.63092 C 947.49257,459.94485 947.82577,460.41862 947.98667,460.99861 C 948.16467,462.01695 948.19997,463.05477 948.28387,464.0836 C 948.39737,465.70269 948.49097,467.32316 948.58607,468.94342 C 948.71497,471.07595 948.83727,473.2117 948.75927,475.3491 C 948.68997,477.21108 948.53037,479.06851 948.25197,480.91169 C 947.95567,482.84991 947.61307,484.79442 946.89097,486.62738 C 946.27937,488.15245 945.63297,489.68535 944.65957,491.02088 C 942.99507,493.02845 940.89027,494.41094 938.42937,495.4335 C 937.56867,495.7352 936.67437,495.93139 935.75637,495.89499 C 934.86747,495.8354 933.98147,495.67444 933.20027,495.22191 C 932.14657,494.50883 931.48267,493.50829 931.02107,492.32678 C 930.36127,490.80214 929.75037,489.25705 929.40327,487.62568 C 928.91717,485.71427 928.44557,483.79309 928.33327,481.81516 C 928.20497,479.35419 928.27377,476.89114 928.50237,474.43683 C 928.74297,472.07386 929.06527,469.71669 929.57927,467.39593 C 930.03377,465.43174 930.92517,460.98669 934.24877,462.12041 C 934.82947,462.57832 935.14797,463.29579 935.46547,463.94472 C 935.87287,464.78862 936.30997,465.6242 936.63027,466.50551 C 937.00737,467.87328 937.31057,469.2607 937.50497,470.66705 C 937.76767,472.59375 937.88057,474.53329 937.83797,476.47859 C 937.81177,478.36974 937.72717,480.26236 937.45107,482.13584 C 937.17017,483.87086 936.80967,485.59233 936.19857,487.24576 C 935.67867,488.57086 935.06087,489.84923 934.41987,491.11984 C 933.97527,491.95423 933.42867,492.69168 932.71287,493.31554 C 932.03287,493.98137 931.40837,494.71516 930.56687,495.1897 C 928.92187,496.14902 926.88687,497.84351 924.76187,497.99357 C 924.01677,497.96526 923.29057,497.81101 922.59507,497.53734 C 921.75257,497.19349 920.99787,496.72471 920.38697,496.03814 C 919.80977,495.37521 919.25267,494.68283 918.85147,493.89643 C 918.40627,492.97714 917.97877,492.04478 917.74247,491.04595 C 917.50477,490.1121 917.24187,489.17712 917.14997,488.21479 C 917.09927,487.47449 917.11867,486.73145 917.25327,485.99963 C 917.44517,485.10935 917.64607,484.20528 918.12157,483.41582 C 919.27137,481.76758 921.28897,480.24633 923.33887,480.49604 C 923.91167,480.63119 924.41797,480.88286 924.78047,481.36475 C 925.19927,481.98174 925.55157,482.64176 925.56957,483.40625 C 925.58627,484.06662 925.53067,484.72736 925.40837,485.37689 C 925.20847,486.18924 924.92577,486.9746 924.50007,487.69897 C 923.95927,488.6317 923.42137,489.57655 922.75247,490.42426 C 921.24807,492.07587 919.08577,493.00661 917.03117,493.81856 C 916.22827,494.00622 915.41027,494.01894 914.58797,494.02096 C 912.41577,494.10793 917.64247,490.93132 916.96857,492.36823 C 916.98517,493.12348 917.01777,493.87886 917.09507,494.63062 C 917.20367,495.60589 917.38417,496.57749 917.35357,497.56302 C 917.30347,498.85347 917.15757,500.13617 916.88677,501.40038 C 916.27677,504.1928 915.56607,504.55916 912.39327,506.21898 C 911.93197,506.3842 911.44807,506.29113 910.98987,506.15109 C 910.09547,505.82535 909.26817,505.36668 908.49477,504.81042 C 907.54187,504.09478 906.62537,503.3369 906.09787,502.23745 C 905.57247,501.14858 905.04987,500.05308 904.68737,498.89676 C 904.26217,497.31925 904.33747,491.64658 908.11917,495.42116 C 908.41087,496.182 908.63297,496.96478 908.72817,497.77657 C 908.86667,498.79328 908.92887,499.81586 908.77987,500.83711 C 908.59657,502.21489 908.33247,503.58655 907.84467,504.89284 C 907.41117,506.0528 906.92207,507.20266 905.98317,508.05174 C 904.06807,509.14614 902.32397,511.36271 900.57437,509.56309 C 899.88197,508.77382 899.36837,507.84992 898.84287,506.94502 C 898.32447,505.83645 897.96397,504.67853 897.90297,503.447 C 897.85927,502.469 897.87617,501.48344 898.01787,500.51324 C 898.33727,498.74094 902.70507,496.11797 901.63227,498.55119 C 901.31067,499.54014 900.85127,500.45876 900.12487,501.21948 C 898.40957,503.10306 896.19847,504.23598 893.93997,505.42591 C 892.97607,505.9159 891.97097,506.35441 890.88617,506.47983 C 890.18247,506.51664 889.49327,506.44611 888.81997,506.22638 C 888.36817,506.07304 887.78807,505.84942 887.82287,505.27489 C 888.41137,503.62116 890.77037,502.80233 892.51557,502.505 C 892.99147,502.48362 893.44697,502.54927 893.86747,502.78884 C 894.63067,503.21679 895.30517,503.77798 895.98877,504.32021 C 896.84547,505.00582 897.70857,505.70659 898.19027,506.72034 C 898.64687,507.76906 898.91157,508.86263 898.90127,510.01461 C 898.90177,511.12404 898.80797,512.22823 898.35507,513.25742 C 897.84767,514.3894 897.17377,515.43153 896.31707,516.33427 C 894.69877,517.96554 892.63027,519.33121 890.36557,519.77166 C 889.47967,519.82972 888.60237,519.7575 887.76567,519.43622 C 886.91337,519.07246 886.11237,518.5919 885.54377,517.84134 C 884.96487,516.8892 884.75797,515.81569 884.77497,514.70472 C 884.83847,513.67354 885.01427,512.6652 885.41997,511.70783 C 886.06287,510.26719 889.28637,506.28315 890.01587,508.60097 C 889.91317,509.31125 889.75807,510.01143 889.59677,510.71054 C 889.37917,511.63704 889.07567,512.53323 888.76947,513.43378 C 888.38307,514.51879 887.97977,515.59737 887.30497,516.54431 C 886.62027,517.57823 885.96617,518.64105 885.17747,519.59945 C 883.54567,521.32837 881.63897,522.62893 879.37887,523.54568 C 878.63607,523.82724 877.87027,524.005 877.06957,523.96881 C 876.30737,523.93239 875.55957,523.81503 874.91047,523.38221 C 874.21737,522.84404 873.74947,522.1346 873.43867,521.31419 C 873.11327,520.30079 872.86817,519.26329 872.78547,518.19903 C 872.71117,516.98303 872.71307,515.76577 872.83867,514.55239 C 872.94037,513.55376 873.08677,512.56097 873.20987,511.56487 C 873.22867,511.33023 873.26497,510.9945 873.24887,510.75521 C 873.24107,510.63908 873.10077,510.47922 873.19457,510.41028 C 874.25947,509.62734 877.82467,507.92389 876.56317,508.31847 C 876.28767,508.40463 867.96617,513.43314 875.83287,508.78361 C 873.80647,509.9436 871.83447,511.21249 869.72097,512.21132 C 868.99177,512.54853 868.25987,512.88253 867.50557,513.16049 C 867.12587,513.2881 866.74567,513.39164 866.35887,513.49509 C 866.21707,513.533 865.81517,513.69729 865.93437,513.61167 C 868.80387,511.55026 869.64967,512.5667 868.74797,511.57163 C 868.91567,511.81574 869.09137,512.05466 869.28817,512.27642 C 869.59687,512.59148 869.59747,512.50671 869.68907,512.55411 C 869.84687,512.69341 869.99487,512.83879 870.08597,513.03358 C 870.42477,513.81175 870.47027,514.70038 870.74137,515.50236 C 871.01977,516.61546 871.34597,517.73034 871.38347,518.88487 C 871.38897,520.06788 871.17197,521.21101 870.72797,522.31265 C 870.23827,523.58511 869.61747,524.78993 868.86377,525.92824 C 868.25037,526.88314 867.53137,527.7104 866.56197,528.32328 C 864.48437,529.52437 862.46107,530.79472 860.24887,531.72899 C 859.13207,532.17429 857.97767,532.49888 856.76617,532.52568 C 855.59997,532.51728 854.43987,532.37401 853.34817,531.93873 C 852.33707,531.50731 851.38327,530.96719 850.51497,530.28886 C 849.70027,529.63268 848.91927,528.93851 848.15697,528.22216 C 847.40907,527.46808 846.80287,526.62574 846.38637,525.64212 C 845.92727,524.7257 845.47997,523.79764 845.18437,522.81316 C 844.84027,521.67661 844.50667,520.53699 844.24787,519.37726 C 843.92617,518.03181 843.62347,516.68001 843.57107,515.29132 C 843.48927,514.11538 843.40317,512.93862 843.42137,511.75875 C 843.42477,510.54766 843.43067,509.3361 843.48827,508.12612 C 843.56547,506.79316 843.69327,505.46126 843.95957,504.15112 C 844.21837,502.93964 844.53757,501.74706 845.11187,500.64052 C 845.70517,499.42098 846.31887,498.21277 847.00637,497.04287 C 847.64157,495.98937 848.25867,494.91674 849.08967,494.00066 C 850.74247,492.27932 852.74397,491.02229 854.99107,490.11598 C 856.07657,489.70329 857.20627,489.44961 858.36727,489.36764 C 860.57237,489.17858 862.78407,489.07198 864.98697,488.85392 L 861.80347,491.20914 z" />
  </g>
</svg>
