<?xml version="1.0" encoding="UTF-8" standalone="no"?>
<!-- Created with Inkscape (http://www.inkscape.org/) -->

<svg
   xmlns:dc="http://purl.org/dc/elements/1.1/"
   xmlns:cc="http://creativecommons.org/ns#"
   xmlns:rdf="http://www.w3.org/1999/02/22-rdf-syntax-ns#"
   xmlns:svg="http://www.w3.org/2000/svg"
   xmlns="http://www.w3.org/2000/svg"
   xmlns:xlink="http://www.w3.org/1999/xlink"
   xmlns:sodipodi="http://sodipodi.sourceforge.net/DTD/sodipodi-0.dtd"
   xmlns:inkscape="http://www.inkscape.org/namespaces/inkscape"
   width="1140"
   height="832.5"
   id="svg2"
   sodipodi:version="0.32"
   inkscape:version="0.48.1 r9760"
   sodipodi:docname="lulu-cover.svg"
   inkscape:output_extension="org.inkscape.output.svg.inkscape"
   version="1.0">
  <defs
     id="defs4">
    <inkscape:perspective
       sodipodi:type="inkscape:persp3d"
       inkscape:vp_x="0 : 416.25 : 1"
       inkscape:vp_y="0 : 1000 : 0"
       inkscape:vp_z="1124.875 : 416.25 : 1"
       inkscape:persp3d-origin="562.4375 : 277.5 : 1"
       id="perspective30" />
  </defs>
  <sodipodi:namedview
     id="base"
     pagecolor="#ffffff"
     bordercolor="#666666"
     borderopacity="1.0"
     inkscape:pageopacity="0.0"
     inkscape:pageshadow="2"
     inkscape:zoom="0.47106117"
     inkscape:cx="570.65306"
     inkscape:cy="500.46579"
     inkscape:document-units="px"
     inkscape:current-layer="layer1"
     inkscape:window-width="1278"
     inkscape:window-height="996"
     inkscape:window-x="1"
     inkscape:window-y="1"
     showgrid="false"
     units="pt"
     inkscape:window-maximized="0" />
  <metadata
     id="metadata7">
    <rdf:RDF>
      <cc:Work
         rdf:about="">
        <dc:format>image/svg+xml</dc:format>
        <dc:type
           rdf:resource="http://purl.org/dc/dcmitype/StillImage" />
      </cc:Work>
    </rdf:RDF>
  </metadata>
  <g
     inkscape:label="Layer 1"
     inkscape:groupmode="layer"
     id="layer1">
    <rect
       style="fill:#000000;fill-opacity:1;fill-rule:evenodd;stroke:none"
       id="rect2215"
       width="1140"
       height="832.5"
       x="0.063609615"
       y="-0.00063442066" />
    <image
       sodipodi:absref="/home/bcrowell/Documents/writing/books/calc/ch00/figs/bridge.jpg"
       xlink:href="bridge.jpg"
       y="0.027512208"
       x="599.94373"
       width="540"
       height="818.56427"
       id="image1355" />
    <path
       style="fill:#ffffff;fill-opacity:1;fill-rule:nonzero;stroke:none"
       id="path2816"
       d="m 704.09209,388.32631 c 4.02002,16.47232 11.91402,31.82972 17.97448,47.6672 13.37994,28.79328 23.2003,59.25921 36.97198,87.84818 15.06407,33.68418 43.8278,56.1364 78.85917,65.24725 47.68525,10.85752 94.46133,-1.33021 139.15314,-18.04564 46.70564,-19.04753 93.06144,-38.89919 139.84124,-57.76141 7.7655,-3.17972 15.5491,-6.31206 23.3566,-9.38461 l -14.9075,11.81772 c -7.6127,2.88287 -15.2013,5.82896 -22.7342,8.92036 -46.7281,18.61438 -92.8133,38.76573 -139.5132,57.44644 -45.09834,16.79428 -92.44988,28.83956 -140.4752,17.64384 -35.51157,-9.45926 -64.79758,-32.17621 -79.74211,-66.60894 -13.52282,-28.72149 -24.24861,-58.81189 -37.85675,-87.50821 -6.32912,-15.99714 -13.44847,-31.65769 -19.20806,-47.86197 l 18.28041,-9.42021 z"
       inkscape:connector-curvature="0" />
    <path
       style="fill:#ffffff;fill-opacity:1;fill-rule:nonzero;stroke:none"
       id="path2818"
       d="m 681.26261,430.82715 c -6.195,101.42627 -6.10791,203.15074 -4.58267,304.72272 0.13488,5.78438 0.26977,11.56877 0.40466,17.35315 l -14.79126,7.53508 c 0.14404,-5.92675 0.28807,-11.85349 0.4321,-17.78023 1.73434,-100.75382 3.19932,-201.69168 0.0195,-302.3955 l 18.51768,-9.43522 z"
       inkscape:connector-curvature="0" />
    <path
       style="fill:#ffffff;fill-opacity:1;fill-rule:nonzero;stroke:none"
       id="path2820"
       d="m 683.11836,767.73701 c 84.5376,-32.68717 166.35683,-73.83402 245.69811,-118.2618 59.50689,-36.15425 121.86973,-66.8969 185.23143,-95.58043 l -16.7821,13.30126 c -62.6322,27.39516 -123.66295,58.10068 -182.24763,93.42299 -81.62452,45.72201 -165.28845,88.0526 -252.43599,122.03837 l 20.53618,-14.92039 z"
       inkscape:connector-curvature="0" />
    <path
       style="fill:#ffffff;fill-opacity:1;fill-rule:nonzero;stroke:none"
       id="path2828"
       d="m 617.14367,479.70805 c 3.0103,10.31303 6.68295,20.66447 12.91629,29.56725 17.70119,7.3064 -11.19698,21.80173 2.81474,1.614 4.9861,-6.6593 8.55365,-13.98051 9.03301,-22.2956 14.76127,-32.91064 13.37491,1.6768 14.04746,12.18158 1.17726,19.98339 7.16397,39.79601 6.16336,59.88233 -3.52681,19.30044 -28.50859,26.38121 -45.71764,23.66577 l 10.50661,-7.38388 c 18.98827,3.02658 18.07449,5.14734 23.73166,-10.53603 1.88188,-20.07051 -4.79624,-39.80788 -6.07227,-59.72975 -1.11022,-16.02837 -5.21962,-20.63231 9.7065,-29.00478 1.42073,-0.79693 -2.02161,5.11965 -0.41195,4.86955 -0.24386,8.62614 -3.98249,16.27461 -9.09578,23.16584 -5.72538,8.47485 -17.76086,21.83306 -26.05744,10.31305 -5.51545,-8.34361 -10.18265,-20.20663 -12.60345,-28.2891 l 11.0389,-8.02023 z"
       inkscape:connector-curvature="0" />
    <g
       id="g2834"
       transform="matrix(0.521737,-0.1934,0.174407,0.578551,1016.3913,423.1544)"
       style="fill:#fefefe;fill-opacity:1">
      <path
         d="m -144.50825,324.50009 c 4.91597,-2.30569 10.63024,-4.78257 16.21479,-2.61415 22.35305,19.83327 38.826049,44.95111 53.635757,70.59485 7.619191,16.10996 17.73857,18.14265 34.872652,19.44726 l -16.76132,11.97621 c -18.017199,-1.48655 -28.881884,-3.57505 -36.258666,-20.98721 -13.686153,-25.68803 -29.594883,-51.51628 -53.374043,-69.08611 -5.53093,-0.047 -10.81233,2.26638 -16.10548,3.58439 l 17.77631,-12.91524 z"
         id="path2830"
         style="fill:#fefefe;fill-opacity:1;fill-rule:nonzero;stroke:none"
         inkscape:connector-curvature="0" />
      <path
         d="m -49.247344,338.63392 c 6.23103,-3.42283 12.414326,-6.93403 18.693089,-10.2685 5.027246,-2.66982 -9.290144,6.58775 -14.086881,9.65246 -8.82742,5.63997 -26.40365,15.42891 -31.756105,18.38714 -38.994559,21.55175 -10.864767,3.57831 -36.220089,19.05911 -12.67294,7.44405 -24.52651,16.14508 -36.58403,24.51891 l -19.03391,7.47098 c 12.37609,-8.30231 24.38456,-17.1647 37.16358,-24.8536 59.190011,-36.16239 53.914699,-27.89312 99.600656,-56.88175 l -17.77631,12.91525 z"
         id="path2832"
         style="fill:#fefefe;fill-opacity:1;fill-rule:nonzero;stroke:none"
         inkscape:connector-curvature="0" />
    </g>
    <text
       xml:space="preserve"
       style="font-size:20px;font-style:oblique;font-variant:normal;font-weight:normal;font-stretch:normal;text-align:start;line-height:125%;writing-mode:lr-tb;text-anchor:start;fill:#ffffff;fill-opacity:1;stroke:none;font-family:Bitstream Vera Sans"
       x="183.29768"
       y="-562.6109"
       id="text2944"
       sodipodi:linespacing="125%"
       transform="matrix(0,1,-1,0,0,0)"><tspan
         sodipodi:role="line"
         id="tspan2946"
         x="183.29768"
         y="-562.6109">Calculus</tspan></text>
    <text
       xml:space="preserve"
       style="font-size:20px;font-style:normal;font-variant:normal;font-weight:normal;font-stretch:normal;text-align:start;line-height:125%;writing-mode:lr-tb;text-anchor:start;fill:#ffffff;fill-opacity:1;stroke:none;font-family:Bitstream Vera Sans"
       x="305.41663"
       y="-562.6109"
       id="text2950"
       sodipodi:linespacing="125%"
       transform="matrix(0,1,-1,0,0,0)"><tspan
         sodipodi:role="line"
         id="tspan2952"
         x="305.41663"
         y="-562.6109">Crowell</tspan></text>
    <rect
       style="fill:#000000;fill-opacity:1;fill-rule:evenodd;stroke:none"
       id="rect2960"
       width="743.81976"
       height="43.958244"
       x="391.03238"
       y="783.83234" />
    <rect
       style="fill:#000000;fill-opacity:1;fill-rule:evenodd;stroke:none"
       id="rect1320"
       width="0.91926038"
       height="821.93872"
       x="599.60315"
       y="0.038299423" />
    <text
       xml:space="preserve"
       style="font-size:12px;font-style:normal;font-variant:normal;font-weight:normal;font-stretch:normal;text-align:start;line-height:125%;writing-mode:lr-tb;text-anchor:start;fill:#ffffff;fill-opacity:1;stroke:none;font-family:Bitstream Vera Sans"
       x="205.34961"
       y="261.23401"
       id="text2058"
       sodipodi:linespacing="125%"><tspan
         sodipodi:role="line"
         x="205.34961"
         y="261.23401"
         id="tspan2062">This book can be downloaded</tspan></text>
    <text
       xml:space="preserve"
       style="font-size:12px;font-style:normal;font-variant:normal;font-weight:normal;font-stretch:normal;text-align:start;line-height:125%;writing-mode:lr-tb;text-anchor:start;fill:#ffffff;fill-opacity:1;stroke:none;font-family:Bitstream Vera Sans"
       x="205.34961"
       y="285.95999"
       id="text2064"
       sodipodi:linespacing="125%"><tspan
         sodipodi:role="line"
         id="tspan2066"
         x="205.34961"
         y="285.95999">for free, or bought in print, at</tspan></text>
    <text
       xml:space="preserve"
       style="font-size:12px;font-style:normal;font-variant:normal;font-weight:normal;font-stretch:normal;text-align:start;line-height:125%;writing-mode:lr-tb;text-anchor:start;fill:#ffffff;fill-opacity:1;stroke:none;font-family:Bitstream Vera Sans"
       x="205.39362"
       y="310.68594"
       id="text2068"
       sodipodi:linespacing="125%"><tspan
         sodipodi:role="line"
         id="tspan2070"
         x="205.39362"
         y="310.68594">www.lightandmatter.com/calc.</tspan></text>
    <path
       style="fill:#aa8647;fill-opacity:1;fill-rule:nonzero;stroke:none;stroke-width:1pt;marker:none;visibility:visible;display:inline;overflow:visible;enable-background:accumulate"
       id="path2424"
       d="m 847.19306,384.89067 c 1.7745,-0.0127 3.5487,-0.0542 5.3226,-0.10293 0.2805,-0.008 0.561,-0.0159 0.8414,-0.0272 -6.3621,4.96032 -4.4779,5.39249 -8.0123,4.23028 -0.79,-0.21418 -1.5565,-0.49697 -2.3299,-0.76243 -0.8354,-0.29754 -1.7032,-0.46933 -2.5699,-0.64347 -0.8277,-0.20797 -1.678,-0.2617 -2.5271,-0.29511 -0.8533,0.004 -1.7034,-0.0462 -2.555,-0.0897 -0.8458,-0.10232 -1.6973,-0.1332 -2.5482,-0.15401 -0.8955,-0.0362 -1.7835,-0.0335 -2.6659,0.13214 -0.8406,0.17328 -1.629,0.52032 -2.4162,0.85209 -2.8045,1.27223 -7.7989,4.35575 4.0595,-2.47562 -0.956,0.58101 -1.775,1.34734 -2.5857,2.11026 -0.8055,0.67883 -1.463,1.49393 -2.1146,2.31498 -0.8028,1.02557 -1.6662,2.00147 -2.4716,3.02495 -0.6243,0.84572 -1.2823,1.66519 -1.9026,2.5138 -0.7527,0.97357 -1.4192,1.9998 -1.9978,3.08484 -0.6007,1.1014 -0.9944,2.28771 -1.3258,3.49211 -0.3345,1.37092 -0.5991,2.75799 -0.8757,4.1415 -0.2627,1.20456 -0.4204,2.42702 -0.5451,3.65236 -0.1366,1.26451 -0.196,2.53469 -0.2304,3.80545 -0.0455,1.53646 -0.006,3.07308 0.0431,4.60883 0.0344,1.63012 0.1477,3.25668 0.2767,4.88157 0.107,1.36288 0.182,2.72796 0.2922,4.0906 0.1192,1.39324 0.2682,2.78367 0.4917,4.16416 0.2478,1.48321 0.6446,2.93363 1.0357,4.38356 0.3952,1.40365 0.7494,2.81844 1.097,4.2345 0.3444,1.48132 0.9939,2.85989 1.5733,4.25778 0.4773,1.28017 1.0154,2.53262 1.6508,3.74211 0.7179,1.3697 1.3695,2.77231 2.0364,4.16715 0.6227,1.42808 1.3405,2.80826 2.2345,4.08499 0.7164,1.04458 1.5545,1.99707 2.3384,2.99011 0.7788,0.94009 1.5787,1.86331 2.4166,2.75124 0.7272,0.7622 1.56,1.41381 2.3753,2.0777 0.7493,0.6524 1.5526,1.22695 2.4096,1.72766 0.834,0.39451 1.6669,0.79106 2.4977,1.19247 0.7823,0.36503 1.614,0.59496 2.451,0.7936 0.9103,0.12495 1.8152,0.28715 2.7236,0.42605 1.0155,0.19226 2.0505,0.23495 3.081,0.26688 1.0716,0.033 2.1461,0.003 3.2143,-0.0883 0.8756,-0.0856 1.7466,-0.21224 2.6202,-0.31816 1.0541,-0.0952 2.0305,-0.45668 2.967,-0.92914 4.2604,-2.59688 -9.2537,5.99148 -4.5371,2.47537 0.7127,-0.53853 1.4297,-1.07118 2.1299,-1.62591 1.0019,-0.83226 1.7903,-1.8753 2.5114,-2.95046 0.7652,-1.25923 1.3999,-2.59177 2.0786,-3.89846 0.7749,-1.4389 1.3302,-2.9794 1.9228,-4.49845 0.498,-1.25451 1.0284,-2.49603 1.448,-3.77967 0.3353,-1.16062 0.6835,-2.31673 1.0573,-3.46556 0.6129,-1.77644 1.0889,-3.59481 1.6646,-5.38304 0.6097,-1.69007 1.2017,-3.38388 1.7157,-5.10576 0.3766,-1.26047 0.6193,-2.5545 0.8843,-3.84146 0.227,-1.2203 0.5535,-2.41453 0.9928,-3.57462 0.5245,-1.14153 1.0309,-2.28244 1.4456,-3.46906 0.4173,-1.21392 0.8535,-2.42208 1.3759,-3.59509 0.4675,-1.00458 1.0847,-1.92561 1.7521,-2.8062 2.1184,-2.65862 5.3613,-4.60864 8.7181,-5.18529 0.7785,-0.14227 1.5697,-0.18095 2.3592,-0.20024 0.7285,-0.009 1.4508,-0.11677 2.1768,-0.17148 0.7627,-0.0501 1.5274,-0.0599 2.2914,-0.0746 0.0707,-0.001 0.1458,-0.0283 0.212,-0.004 0.1888,0.0704 0.7267,0.9211 0.5067,1.05786 -6.4015,3.97893 -4.5719,3.71498 -7.709,4.07059 -0.8486,0.0529 -1.6924,0.15668 -2.5394,0.22932 -2.1638,0.23863 -10.4765,5.70736 4.681,-2.99189 -1.2587,0.77978 -1.8399,2.139 -2.3759,3.45578 -0.8124,2.25573 -1.4202,4.57816 -2.0331,6.894 -0.6398,2.32399 -1.1815,4.67226 -1.6438,7.03747 -0.4433,2.4641 -0.7562,4.94945 -0.9828,7.44215 -0.1315,1.75742 -0.2433,3.52243 -0.091,5.28131 0.1444,0.95549 0.51,1.85822 1.2004,2.54276 0.5739,0.46041 1.2373,0.86233 1.9575,1.03521 -0.2288,0.52055 1.8461,-0.62937 1.3252,-0.33538 -6.6269,3.74002 -8.5393,4.96644 -6.0508,3.38364 1.2053,-1.02221 1.8058,-2.54452 2.3965,-3.96902 0.9766,-2.45129 1.4262,-5.06423 1.9717,-7.63405 0.5718,-2.57487 1.208,-5.13378 1.7084,-7.72396 0.3888,-2.00152 0.4851,-4.03903 0.5383,-6.07193 0.031,-1.68208 0.0214,-3.36455 0.0122,-5.04678 0,-1.07471 -0.009,-2.14922 -0.0975,-3.22071 0.037,-0.38752 -0.2638,-1.18042 -0.3123,-1.25479 0.01,0.0518 -0.0173,0.17911 0.0298,0.15539 9.7487,-4.9074 6.0002,-5.59201 6.7141,-1.92145 0.3186,1.4669 0.5477,2.95126 0.767,4.43564 0.1811,1.45909 0.5032,2.88614 0.9033,4.2984 0.3593,1.2605 0.7271,2.51664 1.2077,3.73678 0.4106,0.9212 0.9173,1.79728 1.5189,2.60599 0.6046,0.61311 1.3409,1.07218 1.9998,1.62726 0.6746,0.58219 1.4739,0.97407 2.2677,1.36293 0.7398,0.30824 1.5228,0.49775 2.312,0.62542 0.7777,0.10769 1.5639,0.11444 2.3475,0.12114 0.7739,0.0182 1.5412,-0.0747 2.2929,-0.25308 0.6441,-0.35256 1.3951,-0.4725 1.995,-0.89725 -11.6597,6.93942 -6.6845,4.37596 -4.5404,1.97576 0.7917,-0.92105 1.4625,-1.92975 2.0723,-2.97728 0.5963,-1.0842 1.1,-2.21637 1.6211,-3.33785 0.7308,-1.49525 1.197,-3.09323 1.6282,-4.69445 0.5199,-2.05912 1.0112,-4.12529 1.4886,-6.19463 0.4372,-1.87949 0.7987,-3.77518 1.136,-5.67475 0.3023,-1.75781 0.633,-3.50984 1.0139,-5.25228 0.3544,-1.55887 0.6574,-3.12814 0.9341,-4.70242 0.3631,-2.2598 0.6271,-4.53483 0.8821,-6.80901 0.2531,-2.38782 0.4029,-4.78477 0.5073,-7.18317 0.1175,-2.47791 0.0858,-4.95742 -0.0234,-7.43455 -0.1043,-2.18242 -0.4288,-4.34367 -0.7638,-6.49988 -0.2458,-1.73782 -0.5874,-3.45851 -0.9676,-5.17117 -0.3243,-1.40453 -0.6812,-2.80211 -1.1128,-4.17767 -0.3071,-0.9865 -0.7471,-1.91769 -1.2359,-2.82467 -0.3669,-0.66322 -0.5398,-1.15541 -1.1174,-0.5188 9.6048,-5.39193 6.0264,-4.81794 4.6901,-0.48739 -0.7015,2.55056 -1.0206,5.18173 -1.3033,7.8051 -0.2896,2.84706 -0.3616,5.70893 -0.405,8.56832 -0.0701,2.67229 -0.0123,5.34104 0.2561,8.00075 0.2386,2.21892 0.616,4.41809 1.0511,6.60581 0.3881,1.90423 0.8752,3.78555 1.4459,5.6427 0.5258,1.54677 0.9784,3.11593 1.4345,4.68412 0.2784,1.06408 0.8022,2.02887 1.2585,3.02092 0.4274,0.99526 0.7833,2.01359 1.2832,2.97631 0.5563,0.97523 1.133,1.93972 1.7294,2.89117 0.5679,0.83026 1.1441,1.65982 1.8189,2.40729 0.5906,0.60766 1.3153,1.05414 1.9914,1.55667 0.7128,0.49596 1.4027,1.02411 2.1271,1.50393 0.7263,0.43264 1.5103,0.74643 2.3181,0.98777 0.7945,0.2622 1.6054,0.41938 2.4313,0.5361 1.0271,0.11045 2.0548,0.21114 3.0867,0.26151 0.6172,0.0602 1.1708,-0.13881 1.6528,-0.51296 -9.9029,6.35709 -6.7862,4.67987 -5.0522,1.70374 0.5217,-0.904 0.8965,-1.88143 1.2808,-2.84891 0.5429,-1.30833 0.8534,-2.69249 1.1899,-4.0634 0.4422,-1.76218 0.8279,-3.53733 1.1902,-5.3174 0.3087,-1.61477 0.619,-3.22923 0.9295,-4.84367 0.198,-1.12656 0.4186,-2.24724 0.7423,-3.34481 0.3276,-1.02188 0.7655,-2.00307 1.2099,-2.97821 0.375,-0.81393 0.7968,-1.60521 1.2163,-2.39678 0.3335,-0.70841 0.7929,-1.30375 1.4072,-1.78457 3.6861,-2.39526 5.6877,-4.36287 9.4231,-4.40911 0.764,-0.002 1.528,0.0107 2.2921,0.0171 0.5526,-0.16731 1.0667,-0.13608 1.6258,-0.0577 3.2672,0.53479 -0.8741,1.06108 -6.3179,4.75121 -0.8649,6.4e-4 -1.7298,-0.003 -2.5947,-0.004 -0.7815,-0.038 -1.5491,0.0397 -2.2997,0.25828 -6.2122,3.07252 7.2652,-4.60132 4.4692,-2.66798 -0.7393,0.60884 -1.3933,1.31458 -2.056,2.00432 -0.7106,0.69898 -1.2443,1.53569 -1.702,2.41421 -0.5437,1.04546 -0.8061,2.18361 -0.9872,3.33813 -0.175,1.17235 -0.23,2.35692 -0.2627,3.54029 -0.082,1.13546 0.004,2.23307 0.309,3.32719 0.3708,1.14436 0.8324,2.25603 1.4236,3.30358 0.5633,0.78699 1.2302,1.49922 1.8757,2.22034 0.6615,0.82059 1.4946,1.45252 2.3858,2.0005 0.7732,0.44748 1.6577,0.58468 2.505,0.82384 0.9068,0.2676 1.8456,0.33527 2.786,0.31501 0.9834,0.0318 1.913,-0.2554 2.8355,-0.55558 1.2076,-0.43285 2.3756,-0.95926 3.5122,-1.55224 2.4306,-1.29265 6.0822,-3.4331 -4.9947,2.91189 -0.2057,0.11782 0.4091,-0.23956 0.6114,-0.36321 0.5982,-0.36583 0.6215,-0.39152 1.2008,-0.78431 1.0333,-0.65378 1.805,-1.56339 2.5373,-2.52175 0.8225,-1.01591 1.6614,-2.01557 2.4152,-3.08432 0.847,-1.21078 1.3948,-2.58166 1.8932,-3.9624 0.5424,-1.54991 0.8291,-3.16853 1.1077,-4.78159 0.2516,-1.58996 0.401,-3.19344 0.5988,-4.79048 0.1655,-1.08444 0.2023,-2.18042 0.2144,-3.27535 0.0279,-0.93719 -0.0314,-1.86937 -0.1711,-2.79551 0.1061,-0.19801 -0.4726,-1.76619 -0.2068,-0.99712 9.1609,-5.37549 6.4168,-5.23439 6.2902,-1.21187 -0.0442,1.19143 0.0197,2.37531 0.2104,3.5514 0.2423,1.37484 0.7535,2.67403 1.2976,3.95215 0.459,1.09727 0.9382,2.18099 1.5187,3.2197 0.4122,0.75943 1.0325,1.33999 1.7075,1.86117 0.6783,0.50336 1.4835,0.69618 2.3023,0.82068 0.7937,0.0976 1.5926,0.11172 2.3854,0.009 5.6177,-2.85707 -7.631,4.61787 -4.6942,2.7807 4.481,-2.6916 14.5193,-8.29951 1.0786,-0.63435 -0.1158,0.066 0.2259,-0.14227 0.3308,-0.22456 0.2739,-0.21497 0.378,-0.35329 0.6132,-0.61324 0.6675,-0.81595 1.2915,-1.66756 1.9199,-2.51403 0.663,-0.86876 1.1959,-1.81589 1.6494,-2.8073 0.4825,-1.10502 0.6534,-2.29905 0.7966,-3.48573 0.1424,-1.24515 0.1763,-2.49871 0.1951,-3.75071 0.0199,-0.96936 0.002,-1.93807 -0.0296,-2.90688 -0.0408,-1.01972 -0.0989,-2.03875 -0.1741,-3.05651 -0.1005,-0.81311 -0.1263,-1.65745 -0.3695,-2.44514 -0.2036,1.06138 -5.337,2.58931 6.7351,-3.43247 0.0411,-0.0205 -0.2359,0.36414 -0.4021,1.13976 -0.1916,1.18215 -0.3043,2.3753 -0.3862,3.5695 -0.0634,1.09819 -0.088,2.19851 -0.0762,3.29838 0.003,0.93751 0.1719,1.85509 0.4523,2.74639 0.3644,1.01281 0.8498,1.97598 1.4117,2.89227 0.5646,0.8425 1.2579,1.5949 2.0051,2.27769 0.6489,0.59169 1.4145,0.96254 2.2738,1.11156 0.8057,0.12722 1.5938,0.32948 2.4027,0.43712 0.7786,0.11351 1.5618,0.0792 2.3339,-0.0566 4.38124,-2.50678 -8.491,5.4073 -4.7055,2.60007 0.7429,-0.51318 1.468,-1.04311 2.1482,-1.63732 0.7142,-0.58557 1.362,-1.24471 2.0426,-1.86774 0.6263,-0.55064 1.2434,-1.10417 1.7667,-1.75518 0.5556,-0.73746 1.0265,-1.53365 1.51714,-2.31473 0.4845,-0.83102 0.922,-1.68795 1.3915,-2.52773 0.4498,-0.85113 0.826,-1.73908 1.2269,-2.61401 0.4723,-1.05785 0.8697,-2.14686 1.2314,-3.24675 0.3451,-1.13674 0.6515,-2.28375 1.015,-3.41496 0.4386,-1.30776 0.5341,-2.69339 0.6913,-4.05481 0.2058,-1.63925 0.4334,-3.27568 0.6489,-4.91367 0.1933,-1.62235 0.3651,-3.24731 0.5367,-4.87208 0.2228,-1.98521 0.3027,-3.98132 0.3516,-5.97707 0.04,-2.00142 0.039,-4.00318 0.014,-6.00474 -0.048,-2.0567 -0.1516,-4.11173 -0.2343,-6.16728 -0.059,-1.82133 -0.1898,-3.63792 -0.4181,-5.44565 -0.2308,-1.59288 -0.3601,-3.19749 -0.59,-4.79031 -0.2159,-1.359 -0.5846,-2.68611 -0.878,-4.02906 0.1265,-0.22693 -0.6069,-2.04483 -0.4697,-1.27145 11.1676,-6.48757 7.1296,-4.65798 5.1626,-1.98588 -0.8109,1.15708 -1.2911,2.49165 -1.723,3.82491 -0.4695,1.54905 -0.8421,3.12458 -1.1442,4.71408 -0.2756,1.65468 -0.4248,3.3267 -0.6403,4.98978 -0.2456,1.7118 -0.5006,3.42094 -0.6792,5.14135 -0.1578,1.74441 -0.1356,3.49764 -0.053,5.24506 0.11,1.51932 0.2354,3.03699 0.3276,4.55757 0.082,1.53803 0.1834,3.07516 0.3112,4.61009 0.094,1.38422 0.3384,2.74677 0.659,4.0943 0.3244,1.30844 0.9505,2.50846 1.4387,3.75782 0.4026,1.09498 0.6931,2.22448 1.149,3.29961 0.3699,0.85462 0.8894,1.62749 1.3931,2.40605 0.4329,0.66976 0.9645,1.26132 1.5772,1.76907 0.5579,0.42803 1.2543,0.52939 1.936,0.5805 0.9282,-0.0206 1.854,0.002 2.7808,0.0746 1.1239,0.15941 2.2128,0.21771 3.2937,-0.15393 2.3837,-1.33738 5.5639,-3.03564 -5.6315,3.22265 -0.1448,0.0809 0.2673,-0.19766 0.3887,-0.31072 0.33,-0.30744 0.4464,-0.495 0.718,-0.85493 0.6619,-0.9853 1.0189,-2.12555 1.4205,-3.23161 0.4427,-1.10028 0.7772,-2.23112 1.0211,-3.39036 0.282,-1.40083 0.5043,-2.81264 0.7768,-4.2152 0.2959,-1.32198 0.6372,-2.63097 0.8593,-3.96822 0.174,-1.09526 0.2485,-2.20196 0.2917,-3.30897 0.01,-0.80164 0.042,-1.60245 0.07,-2.40354 0.095,0.21942 -0.089,-0.93267 0.014,-0.71717 0.055,0.11415 0.039,0.40172 0.1537,0.34747 2.3017,-1.09117 4.4893,-2.40844 6.7339,-3.61266 -0.4838,0.97556 -0.5522,2.09975 -0.6584,3.16722 -0.1802,1.88116 -0.2152,3.77213 -0.1462,5.65959 0.023,1.49192 0.4477,2.87805 1.0432,4.22779 0.6444,1.27849 1.3689,2.51386 2.2115,3.67161 0.503,0.6189 1.104,1.31478 1.9268,1.46749 0.7097,0.089 1.3824,-0.0548 2.0295,-0.3379 6.0255,-3.1421 -7.4408,4.44509 -4.4031,2.62509 0.8016,-0.47107 1.3641,-1.15847 1.8293,-1.94684 0.5058,-0.90963 0.6694,-1.93441 0.8459,-2.94481 0.1753,-0.97601 0.4068,-1.94133 0.6346,-2.90621 0.2316,-0.96936 0.5028,-1.92856 0.7876,-2.88344 0.3217,-1.03628 0.6732,-2.06306 1.0363,-3.08549 0.3375,-0.89436 0.5296,-1.82994 0.6901,-2.76917 0.1156,-0.7085 0.1584,-1.42524 0.1783,-2.14187 0.014,-0.74585 0.01,-1.49187 0.01,-2.23781 0.013,-0.42416 -0.025,-0.95533 -0.024,-1.32564 1.3955,2.71949 -0.05,0.2759 6.8779,-3.19214 0.01,-0.004 -0.1273,0.22191 -0.2316,0.83515 -0.057,0.33275 -0.098,0.81435 -0.13,1.14216 -0.1529,1.51368 -0.2208,3.03307 -0.2114,4.55395 0,1.29629 0.1815,2.57911 0.485,3.8368 0.311,1.10667 1.1583,1.90433 1.9191,2.72115 0.7711,0.81305 1.5104,1.68182 2.4637,2.28649 0.6225,0.33134 1.2569,0.60241 1.9664,0.47254 5.1467,-2.36245 -7.8554,4.9083 -4.942,2.94253 0.688,-0.55619 1.2441,-1.25648 1.7715,-1.96189 0.5222,-0.65172 0.8927,-1.39276 1.2427,-2.14524 0.4036,-0.80663 0.8125,-1.60978 1.1978,-2.42559 0.3982,-0.82846 0.7817,-1.66204 1.1067,-2.52204 0.3286,-0.98367 0.5855,-1.99064 0.8476,-2.99379 0.2444,-0.9877 0.4765,-1.97851 0.7066,-2.96964 0.2735,-1.20085 0.4593,-2.41914 0.6298,-3.63814 0.1606,-1.08942 0.2519,-2.18615 0.3019,-3.28564 0.037,-1.07775 0.036,-2.15639 0.036,-3.23464 -0.017,-1.05728 0.037,-2.1132 0.095,-3.16839 0.057,-0.95441 0.073,-1.9105 0.083,-2.86636 0.01,-0.82563 0.01,-1.65128 0,-2.47689 -0.6367,-3.08518 5.1877,-6.18967 7.5136,-4.02518 0.6487,0.65308 1.1646,1.41959 1.6784,2.17882 0.537,0.81795 1.0774,1.63647 1.6844,2.40458 0.6807,0.80107 1.2436,1.6879 1.8362,2.55326 0.644,0.8226 1.2375,1.67272 1.7508,2.58272 0.6483,1.20544 1.2725,2.42402 1.8109,3.68266 0.4438,1.06536 0.7954,2.16293 0.9934,3.29993 0.1831,1.12054 0.1054,2.24883 -0.051,3.36592 -0.2051,1.27174 -0.6202,2.49499 -0.9994,3.72212 -0.3215,1.19481 -0.7706,2.34344 -1.2768,3.47034 -0.4793,1.11509 -1.152,2.11183 -1.9631,3.00818 -0.615,0.64818 -1.2526,1.27558 -1.9504,1.83435 0.2902,-3.41437 -6.2607,5.96757 -8.9129,4.01579 -0.6323,-0.68567 -0.8393,-1.58878 -0.9909,-2.48131 -0.1932,-1.0786 -0.084,-2.11898 0.3159,-3.13145 1.8488,-2.92 5.558,-4.65721 8.6685,-5.66811 0.7414,-0.1777 1.5128,-0.14823 2.27,-0.15065 0.8563,0.0176 1.6855,0.23617 2.5078,0.45449 0.8126,0.18568 1.6275,0.3523 2.4556,0.44926 0.7823,0.0655 1.5704,0.10874 2.3545,0.0587 2.997,-0.34424 7.2842,-3.6217 -4.5009,3.09564 0.8249,-0.53233 1.5462,-1.21232 2.2688,-1.87359 0.3142,-0.2673 0.5832,-0.57824 0.8325,-0.90501 l 7.2903,-3.22267 c -0.2017,0.40654 -0.4444,0.77702 -0.7568,1.10986 -0.7292,0.68257 -1.4789,1.34198 -2.2188,2.0129 -3.4706,2.00063 -5.6662,4.40375 -9.3458,4.47863 -0.8115,-0.0111 -1.6244,-0.0437 -2.428,-0.1653 -0.8419,-0.13581 -1.6762,-0.31459 -2.5042,-0.51853 -0.7838,-0.18346 -1.5771,-0.32967 -2.3868,-0.28198 -0.7136,0.0263 -1.4382,0.0581 -2.0808,0.40625 -2.5523,1.49824 9.8888,-6.42083 4.826,-2.54648 -0.5539,0.80398 -0.6819,1.71677 -0.5377,2.67791 0.079,0.56388 0.1335,1.39747 0.6018,1.78494 2.8089,-0.88598 6.2941,-2.57217 -5.1443,3.29648 0.7864,-0.41283 1.394,-1.05802 2.0285,-1.66903 0.8265,-0.82643 1.5976,-1.68986 2.0821,-2.77179 0.508,-1.09831 1.0099,-2.20123 1.3157,-3.37711 0.3725,-1.19854 0.7863,-2.38816 1.0493,-3.61702 0.1782,-1.03879 0.2931,-2.08795 0.1525,-3.1404 -0.1527,-1.08298 -0.471,-2.12634 -0.8873,-3.13767 -0.5159,-1.23439 -1.1263,-2.4258 -1.7707,-3.59786 -0.5109,-0.88673 -1.1054,-1.70994 -1.7245,-2.52404 -0.5797,-0.85369 -1.1397,-1.72113 -1.8132,-2.50635 -0.6105,-0.78725 -1.1596,-1.61948 -1.7064,-2.45178 -0.4813,-0.69958 -0.9619,-1.41359 -1.5861,-1.9959 -2.3869,-1.89925 7.365,-6.26566 6.3518,-3.80406 -0.01,0.83041 -0.01,1.66086 -0.01,2.49128 -0.01,0.96711 -0.016,1.93454 -0.065,2.90059 -0.062,1.04274 -0.1392,2.08569 -0.1222,3.13115 5e-4,1.08663 0.01,2.17343 -0.017,3.2599 -0.036,1.12379 -0.1162,2.24594 -0.2805,3.35901 -0.1585,1.2374 -0.344,2.47252 -0.5882,3.69615 -0.2187,1.00011 -0.4658,1.99377 -0.6975,2.9909 -0.2567,1.02268 -0.5377,2.03919 -0.8126,3.05697 -0.2971,0.89031 -0.6546,1.75192 -1.0703,2.59373 -0.386,0.8125 -0.7425,1.64132 -1.2003,2.41724 -0.3555,0.78008 -0.6669,1.5876 -1.1745,2.28593 -0.5269,0.74747 -1.0841,1.47157 -1.6953,2.15308 -2.3703,2.30373 -5.5187,4.50598 -8.8866,4.71383 -0.8061,-0.11358 -1.5543,-0.42529 -2.2313,-0.87899 -0.9445,-0.70649 -1.7378,-1.58013 -2.5365,-2.44365 -0.8505,-0.92091 -1.763,-1.82916 -2.1312,-3.0632 -0.3291,-1.31299 -0.5258,-2.65413 -0.5462,-4.00988 -0.028,-1.54066 0.02,-3.08093 0.1602,-4.61607 0.2153,-2.87643 1.9866,-12.6083 7.5665,-6.2246 0.2223,0.49312 0.1129,1.07883 0.1401,1.6059 0,0.74995 0.01,1.49993 0,2.24989 -0.01,0.75059 -0.037,1.50056 -0.1389,2.24529 -0.1453,0.98053 -0.3188,1.96203 -0.6328,2.90462 -0.3631,1.01329 -0.7237,2.0274 -1.0528,3.05245 -0.2932,0.93879 -0.5606,1.88559 -0.8021,2.83903 -0.2366,0.9498 -0.4536,1.90524 -0.6644,2.86071 -0.1809,1.07038 -0.3073,2.16091 -0.736,3.16894 -0.4097,0.87464 -0.8884,1.71596 -1.674,2.31025 -2.8338,2.10486 -5.9846,3.90536 -9.2983,5.14801 -0.7807,0.16391 -1.584,0.21512 -2.3432,-0.0803 -0.8732,-0.44062 -1.5876,-1.08643 -2.1549,-1.88578 -0.8571,-1.21264 -1.6112,-2.49082 -2.2841,-3.81477 -0.6478,-1.43467 -1.1325,-2.90962 -1.1689,-4.50245 -0.081,-1.91243 -0.063,-3.82984 0.082,-5.73914 0.086,-1.15276 0.178,-2.31717 0.4938,-3.43403 1.511,-0.90995 7.638,-7.14966 7.4753,-2.87827 -0.038,0.8014 -0.081,1.60261 -0.085,2.40508 -0.035,1.13563 -0.106,2.27116 -0.2631,3.39715 -0.1861,1.35814 -0.5154,2.68309 -0.8554,4.00975 -0.2927,1.3949 -0.494,2.8061 -0.7636,4.20552 -0.2222,1.19403 -0.4971,2.37529 -0.9676,3.5002 -0.4181,1.14391 -0.7703,2.3221 -1.3432,3.4007 -1.8599,3.21089 -5.5583,4.92209 -9.0706,5.9599 -1.1432,0.18379 -2.2816,0.0541 -3.4289,-0.0459 -0.9452,-0.0406 -1.8953,0.008 -2.8351,-0.1089 -0.8001,-0.1541 -1.5664,-0.41525 -2.1872,-0.96688 -0.6447,-0.58171 -1.2206,-1.23128 -1.6903,-1.96444 -0.5259,-0.8178 -1.0597,-1.63424 -1.4534,-2.52691 -0.4651,-1.08307 -0.7625,-2.21907 -1.1513,-3.33006 -0.4905,-1.28585 -1.136,-2.51387 -1.48584,-3.85111 -0.3388,-1.38303 -0.6129,-2.78005 -0.7117,-4.20358 -0.1313,-1.5406 -0.2332,-3.0838 -0.3152,-4.62779 -0.0966,-1.52357 -0.2089,-3.04551 -0.329,-4.56743 -0.0938,-1.78262 -0.1197,-3.57062 0.004,-5.35277 0.1637,-1.72909 0.405,-3.44666 0.6635,-5.16382 0.2313,-1.67134 0.3806,-3.35228 0.6258,-5.02155 0.27284,-1.62002 0.64834,-3.2197 1.09914,-4.79959 0.4071,-1.3877 0.8646,-2.77613 1.6005,-4.02946 2.0368,-3.23408 4.2817,-3.85939 8.5755,-5.90412 0.6753,0.58567 0.8931,1.35318 1.022,2.22627 0.2815,1.364 0.6409,2.71094 0.8763,4.08433 0.2483,1.59547 0.3775,3.20474 0.6034,4.80338 0.2342,1.83121 0.3677,3.67126 0.4299,5.51655 0.082,2.06193 0.1813,4.12335 0.2413,6.18607 0.035,2.01009 0.042,4.02021 9e-4,6.03037 -0.043,2.01153 -0.1049,4.02434 -0.3138,6.02679 -0.1567,1.63154 -0.3372,3.26089 -0.5157,4.8902 -0.2212,1.63357 -0.4378,3.26778 -0.6594,4.9013 -0.1554,1.39773 -0.227,2.82088 -0.5985,4.18185 -0.3573,1.1345 -0.7239,2.26462 -1.0267,3.41571 -0.3339,1.12801 -0.7345,2.2349 -1.1788,3.32419 -0.3875,0.89614 -0.8162,1.77434 -1.199,2.6727 -0.457,0.85384 -0.9572,1.68378 -1.3759,2.5581 -0.471,0.81075 -0.9899,1.59358 -1.4872,2.38824 -0.4918,0.70358 -1.0153,1.36135 -1.7009,1.89153 -0.6898,0.62265 -1.3632,1.26004 -2.0394,1.89671 -0.7005,0.5745 -1.3348,1.22886 -2.12374,1.69173 -2.8248,2.00393 -5.6491,4.44875 -9.0794,5.08523 -0.8226,0.0543 -1.6447,0.0292 -2.4576,-0.12154 -0.8193,-0.14458 -1.6339,-0.31839 -2.4468,-0.49474 -0.9317,-0.29636 -1.7697,-0.77802 -2.4818,-1.45545 -0.7865,-0.74561 -1.5252,-1.55077 -2.1134,-2.46486 -0.5916,-0.97042 -1.1111,-1.98404 -1.5102,-3.04985 -0.3218,-0.95648 -0.5388,-1.94327 -0.5619,-2.95637 -0.0265,-1.12004 0.003,-2.24145 0.0562,-3.36037 0.0717,-1.21779 0.1874,-2.4314 0.3359,-3.64225 0.0288,-0.20477 0.0715,-1.29835 0.2586,-1.41699 2.9751,-1.88614 5.8093,-6.45229 7.5392,-3.62572 0.2982,0.83852 0.3232,1.75198 0.4448,2.62756 0.0849,1.02786 0.1353,2.05767 0.1914,3.08741 0.0343,0.98164 0.0731,1.96288 0.0404,2.94534 -0.0208,1.27533 -0.0455,2.55214 -0.1653,3.82282 -0.1342,1.24609 -0.2673,2.50413 -0.6955,3.69116 -0.4129,1.0457 -0.9063,2.05465 -1.5698,2.96727 -0.6131,0.86807 -1.2805,1.69562 -1.8902,2.56647 -2.2778,2.87936 -2.5848,1.71683 -8.002,5.22043 -1.9654,1.2711 9.1082,-5.21643 6.0754,-3.52059 -2.8809,1.79733 -5.7046,4.30356 -9.1316,4.82685 -0.84,0.024 -1.6839,-0.0132 -2.5088,-0.18592 -0.9092,-0.21599 -1.7833,-0.53863 -2.5157,-1.13882 -0.7341,-0.60714 -1.3978,-1.28773 -1.8581,-2.13204 -0.5873,-1.06679 -1.0814,-2.17463 -1.5493,-3.29855 -0.5634,-1.33367 -1.0978,-2.68631 -1.3833,-4.11149 -0.2273,-1.21674 -0.3341,-2.44229 -0.2904,-3.68139 0.0283,-4.54646 0.9337,-3.68239 7.3016,-7.02718 0.5079,0.55249 0.6698,1.17049 0.7345,1.91733 0.1616,0.96494 0.2598,1.93566 0.2272,2.91596 -0.007,1.12507 -0.0115,2.25514 -0.1855,3.36972 -0.2254,1.60492 -0.3756,3.21877 -0.6002,4.82374 -0.2749,1.64622 -0.5391,3.301 -1.0435,4.89634 -0.4776,1.43384 -1.0037,2.86083 -1.802,4.15253 -0.7254,1.09425 -1.5163,2.13521 -2.3806,3.12452 -0.7706,0.96362 -1.418,2.03492 -2.4642,2.74095 -3.2292,2.39376 -6.8386,4.23972 -10.3929,6.10429 -1.1703,0.56001 -2.3645,1.07801 -3.6089,1.45186 -0.9765,0.26399 -1.9663,0.42159 -2.9825,0.36311 -0.9852,-0.0501 -1.9585,-0.18109 -2.9039,-0.47562 -0.9174,-0.24103 -1.8342,-0.49446 -2.6338,-1.02808 -0.9273,-0.61654 -1.7895,-1.31847 -2.501,-2.18216 -0.684,-0.76239 -1.391,-1.51741 -1.9578,-2.37263 -0.6196,-1.10108 -1.103,-2.26742 -1.509,-3.46362 -0.3549,-1.16222 -0.5277,-2.32358 -0.4268,-3.54308 0.0265,-1.21019 0.0673,-2.42213 0.2227,-3.62392 0.1565,-1.21717 0.3659,-2.43253 0.8802,-3.55803 0.4217,-0.94567 0.9128,-1.8498 1.5889,-2.64177 0.6763,-0.69572 1.3496,-1.39438 2.0206,-2.09511 2.5415,-2.37594 5.8696,-4.18702 9.2535,-5.11571 0.7967,-0.11936 1.5951,-0.1456 2.4002,-0.11933 0.8624,0.002 1.7251,0.007 2.5873,-0.0201 -6.6516,5.00078 -3.621,4.8098 -6.611,4.58338 -0.5307,-0.0158 -1.0458,0.14701 -1.5798,0.10082 -0.7526,-0.009 -1.5061,-0.0239 -2.2581,0.0171 -2.9908,0.26747 -7.2271,3.66421 4.4172,-3.19537 -0.6515,0.34121 -1.2323,0.73628 -1.5677,1.41896 -0.4273,0.7786 -0.8416,1.56454 -1.2413,2.35734 -0.4524,0.94734 -0.8926,1.90276 -1.2583,2.88742 -0.3631,1.06415 -0.604,2.15946 -0.7944,3.26724 -0.3145,1.61984 -0.6535,3.23484 -0.95,4.8582 -0.3469,1.79005 -0.7359,3.57136 -1.1637,5.34391 -0.3419,1.39181 -0.6151,2.80705 -1.1259,4.15061 -0.385,0.98875 -0.7502,1.98949 -1.2216,2.94113 -1.9605,3.6312 -3.0308,3.97127 -8.4334,6.53104 -0.6237,0.19789 -1.2513,0.2494 -1.9032,0.16258 -1.0439,-0.0809 -2.0867,-0.18481 -3.1244,-0.32371 -0.8535,-0.14446 -1.6888,-0.36614 -2.5096,-0.6418 -0.8505,-0.30737 -1.6859,-0.66487 -2.44,-1.17097 -0.7209,-0.50003 -1.4274,-1.02081 -2.142,-1.52959 -0.7255,-0.5257 -1.4751,-1.03103 -2.0763,-1.70401 -0.6878,-0.79316 -1.2983,-1.64924 -1.878,-2.524 -0.6074,-0.96957 -1.197,-1.95139 -1.7644,-2.94472 -0.5067,-0.97389 -0.8826,-1.99683 -1.3053,-3.00817 -0.4726,-1.02896 -1.0098,-2.03216 -1.2977,-3.13549 -0.4478,-1.56685 -0.8848,-3.1371 -1.4134,-4.67936 -0.581,-1.88274 -1.0718,-3.79061 -1.4691,-5.721 -0.4461,-2.2112 -0.831,-4.43482 -1.0732,-6.67871 -0.2839,-2.6884 -0.3523,-5.38735 -0.2844,-8.08986 0.0376,-2.88175 0.1052,-5.76558 0.3825,-8.63612 0.2681,-2.65272 0.5633,-5.31121 1.1974,-7.90636 1.2755,-4.83653 2.8307,-4.90024 8.7302,-7.82262 0.8963,0.007 1.3693,0.74423 1.7414,1.47838 0.5134,0.95125 0.9703,1.93021 1.2932,2.96466 0.4431,1.39644 0.8024,2.81757 1.134,4.24428 0.3868,1.73061 0.7334,3.46984 0.9716,5.22805 0.3357,2.18468 0.6806,4.37213 0.7904,6.58283 0.1127,2.49679 0.1601,4.99621 0.0548,7.49454 -0.0945,2.41534 -0.2414,4.82872 -0.4875,7.23384 -0.2482,2.28197 -0.5104,4.56337 -0.8312,6.83632 -0.2642,1.58633 -0.5427,3.17007 -0.913,4.73586 -0.3926,1.73126 -0.7395,3.47076 -1.0321,5.22203 -0.3361,1.91458 -0.701,3.8243 -1.1353,5.71937 -0.4749,2.07471 -0.967,4.14524 -1.4715,6.21296 -0.4155,1.63206 -0.8353,3.27329 -1.5395,4.81014 -0.5284,1.132 -1.0355,2.27412 -1.59,3.39367 -0.5984,1.08186 -1.2256,2.14618 -2.0126,3.10495 -2.3224,2.99887 -5.3559,4.26025 -8.9829,6.12017 -0.7031,0.26191 -1.3976,0.57636 -2.139,0.70873 -0.7913,0.11107 -1.589,0.155 -2.388,0.12104 -0.8131,-0.024 -1.6283,-0.0659 -2.4268,-0.23314 -0.8361,-0.18761 -1.666,-0.41823 -2.434,-0.80745 -0.8326,-0.43096 -1.6489,-0.8933 -2.3578,-1.51516 -0.7182,-0.57744 -1.5184,-1.07091 -2.1029,-1.79484 -0.634,-0.8697 -1.1721,-1.80608 -1.6077,-2.7911 -0.4941,-1.24288 -0.878,-2.52075 -1.2435,-3.80674 -0.4151,-1.44476 -0.7527,-2.90331 -0.9353,-4.39827 -0.2201,-1.46601 -0.4431,-2.93398 -0.771,-4.38048 -0.6063,-2.70035 -0.6829,-12.29113 7.0089,-6.26557 0.437,0.53468 0.5281,1.1852 0.6208,1.85598 0.1096,1.09505 0.1214,2.19497 0.107,3.29492 -7e-4,1.69236 0.003,3.38485 -0.0245,5.07705 -0.0473,2.07218 -0.1159,4.15176 -0.4931,6.19555 -0.4986,2.60159 -1.1369,5.17028 -1.7301,7.75134 -0.5516,2.59365 -0.9715,5.23457 -1.8763,7.73582 -0.5719,1.50643 -1.1718,3.05016 -2.1913,4.31776 -2.3319,2.39425 -5.8118,5.25749 -9.2459,4.3908 -0.7897,-0.3356 -1.547,-0.75787 -2.1619,-1.36639 -0.7611,-0.85492 -1.2375,-1.88092 -1.4385,-3.01162 -0.1809,-1.80678 -0.0678,-3.62117 0.0613,-5.42873 0.2238,-2.51716 0.5526,-5.02424 0.9615,-7.51804 0.4411,-2.38412 0.9658,-4.75197 1.6213,-7.0872 0.6095,-2.33151 1.2201,-4.66511 1.9704,-6.95617 0.494,-1.40188 1.0297,-2.85792 2.1378,-3.89993 2.806,-1.63413 5.6778,-4.36513 9.1287,-4.63658 0.8327,-0.0822 1.6701,-0.13974 2.495,-0.28321 2.8832,-0.7388 -0.6682,0.13189 -6.0576,3.70033 -0.2124,0.14064 0.3717,0.36237 0.4854,0.59036 0.0367,0.0736 -0.2386,0.23818 -0.2345,0.0762 -0.7509,0.0125 -1.5018,0.0388 -2.2497,0.11011 -0.7324,0.0695 -1.4646,0.13879 -2.201,0.14712 -0.7595,0.0461 -1.5215,0.12051 -2.2545,0.33616 -4.1901,1.53937 9.1765,-5.93693 4.9148,-2.78253 -0.697,0.8174 -1.3286,1.69187 -1.8302,2.64434 -0.5897,1.11997 -0.9942,2.32406 -1.4256,3.51139 -0.4002,1.20003 -0.8172,2.38746 -1.417,3.50601 -0.4837,1.10657 -0.837,2.25766 -1.0646,3.44493 -0.2611,1.30722 -0.5014,2.62161 -0.8605,3.9062 -0.5059,1.7371 -1.087,3.44827 -1.7288,5.13992 -0.5996,1.7738 -1.0528,3.58908 -1.6384,5.36713 -0.3718,1.14311 -0.7335,2.28905 -1.0513,3.44856 -0.3817,1.31911 -0.9189,2.58023 -1.4496,3.8452 -0.5998,1.5334 -1.1398,3.09591 -1.8719,4.57287 -0.7003,1.31261 -1.348,2.65258 -2.0573,3.96036 -0.6847,1.13373 -1.4497,2.22105 -2.3941,3.15681 -0.6598,0.60686 -1.388,1.1319 -2.1098,1.66211 -2.7683,2.19498 -5.8915,3.9161 -9.0873,5.41652 -1,0.39487 -2.0381,0.64425 -3.1113,0.74057 -0.8806,0.11028 -1.7596,0.24197 -2.6474,0.28082 -1.0861,0.0487 -2.1732,0.0762 -3.2598,0.0175 -1.0534,-0.0539 -2.1045,-0.14375 -3.1425,-0.33918 -0.9226,-0.15675 -1.8552,-0.26254 -2.7655,-0.4828 -0.8723,-0.23552 -1.7322,-0.52257 -2.5425,-0.92674 -0.8474,-0.41278 -1.7092,-0.79911 -2.5335,-1.257 -0.8698,-0.54379 -1.6896,-1.15543 -2.4673,-1.82504 -0.8368,-0.69005 -1.6919,-1.3657 -2.4241,-2.17036 -0.8463,-0.90961 -1.6605,-1.84902 -2.4496,-2.80865 -0.7967,-1.00404 -1.638,-1.97578 -2.3588,-3.03745 -0.9028,-1.32047 -1.6423,-2.73544 -2.2836,-4.20057 -0.6678,-1.38322 -1.3179,-2.77544 -2.0367,-4.13329 -0.6496,-1.23033 -1.202,-2.50374 -1.6795,-3.81081 -0.5904,-1.43557 -1.2624,-2.84659 -1.6316,-4.36157 -0.3484,-1.41046 -0.7001,-2.82048 -1.0864,-4.22108 -0.3953,-1.47394 -0.8141,-2.94378 -1.0777,-4.449 -0.2388,-1.39779 -0.3963,-2.80651 -0.5278,-4.21826 -0.1179,-1.36472 -0.1847,-2.73283 -0.2842,-4.09892 -0.1285,-1.63716 -0.2497,-3.27575 -0.2831,-4.91817 -0.0554,-1.54594 -0.1212,-3.09258 -0.0815,-4.63985 0.024,-1.28685 0.0664,-2.57417 0.2018,-3.85498 0.1104,-1.24967 0.2474,-2.5002 0.5121,-3.72799 0.2826,-1.39505 0.5649,-2.7901 0.8541,-4.18379 0.3167,-1.24861 0.6611,-2.49348 1.2507,-3.64672 0.5552,-1.12012 1.1613,-2.2103 1.9427,-3.19222 0.615,-0.85807 1.2491,-1.6987 1.9003,-2.52952 0.7641,-1.05763 1.6417,-2.02452 2.4673,-3.03365 0.6389,-0.84838 1.2627,-1.72768 2.0646,-2.43156 0.8225,-0.76788 1.6085,-1.58617 2.5265,-2.24254 3.1346,-1.83068 6.2063,-3.94616 9.599,-5.32607 0.8234,-0.31807 1.6596,-0.61542 2.5449,-0.70012 0.912,-0.077 1.8262,-0.0532 2.7403,-0.0227 0.8555,0.0346 1.7081,0.10219 2.5619,0.16322 0.8511,0.0452 1.7029,0.052 2.554,0.0954 0.8748,0.0652 1.7413,0.18491 2.5954,0.39005 0.89,0.18934 1.7694,0.42185 2.6272,0.72783 0.7715,0.2675 1.5504,0.50824 2.3317,0.74558 3.1539,1.02441 3.7218,-1.28932 -5.0426,4.96081 -0.2687,-0.002 -0.5375,-10e-6 -0.8062,0.002 -1.7654,0.0129 -3.5309,0.0342 -5.2957,0.0833 l 6.4005,-4.66737 z"
       inkscape:connector-curvature="0" />
    <path
       style="fill:#aa8647;fill-opacity:1;fill-rule:nonzero;stroke:none;stroke-width:1pt;marker:none;visibility:visible;display:inline;overflow:visible;enable-background:accumulate"
       id="path2438"
       d="m 866.9283,491.20914 c -2.2042,0.19877 -4.416,0.3026 -6.6188,0.51525 -1.1519,0.0966 -2.2616,0.39205 -3.3181,0.85171 -1.1944,0.6276 -2.3699,1.25163 2.5602,-1.4795 0.1464,-0.0811 -0.2815,0.18146 -0.4169,0.27983 -0.4532,0.32926 -0.8519,0.71107 -1.2509,1.10212 -0.8572,0.87333 -1.4908,1.92069 -2.1243,2.95838 -0.6958,1.1554 -1.3123,2.35381 -1.9065,3.56357 -0.569,1.08211 -0.923,2.23959 -1.1936,3.42584 -0.2796,1.29012 -0.4134,2.60454 -0.4993,3.91984 -0.0648,1.20194 -0.0698,2.40595 -0.0725,3.60929 -0.0193,1.17176 0.0538,2.34117 0.1329,3.50942 0.0468,1.36831 0.3283,2.70264 0.644,4.02892 0.2604,1.15055 0.5872,2.28329 0.9319,3.41082 0.2862,0.96438 0.7211,1.87307 1.1696,2.77022 0.398,0.9478 0.9762,1.75314 1.7049,2.46951 0.7543,0.7052 1.5278,1.38709 2.337,2.02865 0.8505,0.64606 1.774,1.16757 2.7663,1.55837 1.0706,0.3885 2.1989,0.49012 3.3284,0.45521 1.1886,-0.0795 2.3092,-0.43316 3.388,-0.91896 1.5138,-0.61695 5.5855,-3.01366 -0.5143,0.4852 0.9692,-0.56014 1.7308,-1.33146 2.3744,-2.2357 0.7544,-1.11392 1.3927,-2.29265 1.9004,-3.5373 0.4351,-1.05569 0.6899,-2.15331 0.7139,-3.29308 -0.012,-1.12472 -0.3219,-2.21277 -0.5913,-3.29597 -0.2604,-0.78184 -0.3222,-1.64132 -0.6417,-2.40343 -0.0108,-0.0824 -0.1209,-0.12358 -0.2002,-0.1485 0.0971,0.19474 -0.446,-0.39923 -0.5276,-0.49173 -0.2052,-0.24024 -0.3951,-0.49278 -0.5774,-0.75059 -0.4419,-1.79665 3.7681,-2.25799 5.3402,-2.88837 0.7413,-0.30022 1.4717,-0.62818 2.192,-0.97567 0.4553,-0.19658 0.8846,-0.44149 1.3135,-0.68829 0.1572,-0.0904 0.6295,-0.35977 0.4725,-0.26927 -3.4994,2.01655 -3.8548,2.22528 -2.4989,1.43366 10.4761,-5.66158 0.4842,-0.57482 0.7358,-0.43943 3.0369,1.63479 4.0661,-3.75352 3.9091,0.0105 -0.1024,1.00457 -0.2549,2.00296 -0.3676,3.0064 -0.134,1.19359 -0.1478,2.39244 -0.0856,3.5904 0.0688,1.03268 0.3023,2.03959 0.6126,3.02348 0.284,0.73931 0.6836,1.40289 1.3465,1.84931 0.6238,0.33997 1.3256,0.39924 2.0226,0.38277 0.778,0.005 1.5118,-0.22286 2.2073,-0.55338 1.6075,-0.94587 -1.2939,0.76408 -2.6242,1.48089 -0.1505,0.0811 0.277,-0.20083 0.4109,-0.30719 0.4359,-0.34622 0.8291,-0.73274 1.2209,-1.12678 0.8342,-0.90685 1.4786,-1.96695 2.1589,-2.98939 0.6644,-0.92459 1.1126,-1.95745 1.4982,-3.02065 0.3018,-0.88917 0.6131,-1.77382 0.8438,-2.68451 0.1597,-0.68704 0.317,-1.37549 0.4256,-2.07274 0.004,-0.0395 -0.0205,-0.14064 0.0123,-0.1184 0.0497,0.0336 0.0416,0.11262 0.0623,0.16893 1.065,-0.49144 2.0958,-1.06509 3.195,-1.47432 0.1488,-0.0554 -0.3409,0.49024 -0.6631,1.12576 -0.4262,0.90578 -0.6283,1.87549 -0.7137,2.86639 -0.0372,1.02351 0.1112,2.03856 0.6546,2.91671 0.5441,0.66347 1.2925,1.08657 2.0872,1.37753 0.8148,0.26987 1.6501,0.28902 2.4923,0.18038 1.3341,-0.39485 4.0569,-1.92611 -1.8139,1.19984 -0.3448,0.1836 0.609,-0.49034 0.8968,-0.75448 0.87,-0.85124 1.5564,-1.85496 2.0927,-2.94246 0.4711,-0.97257 0.5989,-2.02417 0.6219,-3.09008 0.0249,-1.09743 -0.2056,-2.14356 -0.6361,-3.14565 -0.4572,-0.95141 -1.2877,-1.5968 -2.0983,-2.23412 -0.6717,-0.51867 -1.3207,-1.0923 -2.0923,-1.45949 -0.3905,-0.18642 -0.8036,-0.17139 -1.2167,-0.0871 -2.366,0.99372 3.9012,-2.62862 2.1585,-1.22171 -0.0736,0.21454 0.4314,0.25726 0.6387,0.31521 0.6507,0.18886 1.3021,0.2239 1.9699,0.12765 1.0509,-0.20042 2.0228,-0.65615 2.9515,-1.17197 -5.7949,3.60764 -1.7446,0.99506 -0.5763,-0.18772 0.7118,-0.71671 1.2246,-1.56526 1.5677,-2.50907 -0.033,-1.53934 3.9738,-3.51068 3.5672,-1.46567 -0.1623,0.94222 -0.182,1.90216 -0.1567,2.85563 0.0383,1.18164 0.367,2.29492 0.8629,3.35839 0.5148,0.86471 0.9923,1.77011 1.677,2.51437 1.3074,1.31017 4.132,-1.2743 -1.7045,1.98762 1.013,-0.70603 1.5259,-1.81948 1.9735,-2.92912 0.5013,-1.2752 0.7788,-2.61785 0.9706,-3.96979 0.15,-0.98714 0.1146,-1.97822 -0.007,-2.96453 -0.0872,-0.78073 -0.2884,-1.53538 -0.5753,-2.26455 2.8696,-7.91124 3.2659,-1.50752 3.5492,-0.36005 0.3403,1.13663 0.8529,2.20952 1.368,3.27476 0.5006,1.04457 1.3896,1.73972 2.2995,2.40825 0.7538,0.53152 1.5597,0.95133 2.4367,1.23191 0.4728,0.11802 0.8353,0.0893 1.2148,-0.20149 -4.787,3.08984 -2.7679,1.69416 -2.1944,-0.59463 0.2834,-1.23946 0.4394,-2.50067 0.4976,-3.76937 0.0433,-0.96597 -0.1232,-1.92027 -0.2337,-2.87579 -0.0832,-0.75937 -0.121,-1.52263 -0.1523,-2.2856 -0.3398,-1.91835 2.6604,-2.48098 4.3796,-2.51786 0.8121,0.0129 1.6142,-0.0143 2.3849,-0.28341 4.2316,-2.29969 -4.2169,3.36593 -1.1062,0.55649 0.7249,-0.78027 1.2513,-1.71872 1.7892,-2.63163 0.4227,-0.6936 0.7272,-1.44079 0.946,-2.22034 0.1499,-0.61332 0.202,-1.24523 0.2071,-1.875 0.0133,-0.69364 -0.2889,-1.28142 -0.6746,-1.83479 -0.3264,-0.40361 -0.7796,-0.54266 -1.2746,-0.60172 -1.2023,-0.0403 -4.433,1.9977 2.3165,-1.55096 0.2556,-0.1344 -0.4236,0.39466 -0.6108,0.61464 -0.5255,0.71359 -0.7455,1.57336 -0.9372,2.42336 -0.1502,0.69638 -0.1833,1.40804 -0.1518,2.11753 0.0675,0.94142 0.3197,1.85583 0.5502,2.76718 0.2259,0.97419 0.6378,1.88347 1.0721,2.77877 0.3869,0.75366 0.9258,1.41572 1.4845,2.0476 0.5809,0.64314 1.297,1.05009 2.1033,1.33697 0.6712,0.235 1.3712,0.38228 2.0826,0.33015 1.5455,-0.23747 4.8325,-2.42227 -1.1215,0.98057 0.8334,-0.46376 1.511,-1.12028 2.1763,-1.7907 0.6871,-0.62104 1.2757,-1.3065 1.7548,-2.09832 0.6614,-1.24919 1.2782,-2.52143 1.8123,-3.83019 0.6307,-1.62331 1.0033,-3.32212 1.2926,-5.03397 0.2885,-1.85589 0.3832,-3.73257 0.4188,-5.60795 0.0462,-1.92605 -0.0571,-3.84723 -0.3111,-5.7559 -0.1926,-1.38717 -0.4838,-2.75777 -0.8642,-4.10502 -0.3069,-0.86137 -0.7366,-1.67464 -1.1333,-2.4976 -0.2827,-0.41767 -0.5326,-1.48086 -1.1036,-1.61344 -0.0171,0.0551 -0.1036,0.18958 -0.0513,0.16536 4.4637,-2.06417 3.1872,-2.40542 2.2939,1.22313 -0.5358,2.3048 -0.8625,4.65079 -1.1135,7.00149 -0.2362,2.43425 -0.31,4.87872 -0.1903,7.32084 0.1015,1.95262 0.5635,3.84973 1.0432,5.73597 0.3424,1.61082 0.9391,3.13768 1.5934,4.64201 0.439,1.10957 1.0358,2.06652 2.0683,2.68772 0.7615,0.37758 1.6035,0.48025 2.4421,0.49776 0.8913,-0.0261 1.7559,-0.23066 2.5677,-0.5923 1.7577,-1.03617 -1.2069,0.71592 -2.4238,1.35075 -0.1804,0.0941 0.3272,-0.24196 0.4839,-0.37167 0.5093,-0.42165 0.9519,-0.89633 1.3902,-1.38899 1.024,-1.27296 1.6715,-2.78537 2.2936,-4.28158 0.7442,-1.80048 1.0985,-3.71822 1.401,-5.6324 0.2814,-1.83028 0.4469,-3.67485 0.53,-5.52396 0.0927,-2.12501 -0.0237,-4.24917 -0.1553,-6.36948 -0.1002,-1.61708 -0.1973,-3.23443 -0.3121,-4.85055 -0.0806,-1.0156 -0.132,-2.03665 -0.294,-3.04354 -0.1184,-0.4531 -0.3614,-0.87986 -0.8203,-1.04051 -1.1388,0.83358 -2.0843,0.81254 2.7348,-1.45093 0.1624,-0.0763 -0.2422,0.26699 -0.3395,0.41776 -0.345,0.53448 -0.4344,0.88383 -0.6653,1.49497 -0.8861,3.08595 -0.9828,6.32778 -1.009,9.51696 0.004,3.64948 0.5968,7.2381 1.8048,10.67534 0.7873,2.14562 2.0702,3.94749 3.8354,5.37855 0.8193,0.5893 1.6733,1.15863 2.6717,1.36905 l -3.28,2.2604 c -1.0184,-0.30087 -1.9056,-0.89368 -2.7474,-1.52919 -1.7879,-1.50702 -3.1108,-3.36796 -3.9169,-5.57888 -1.2174,-3.48033 -1.8278,-7.1105 -1.8486,-10.80392 0.007,-3.21863 0.0973,-6.47978 0.9062,-9.61341 0.698,-2.10423 2.4419,-4.96393 5.1876,-4.33079 0.5104,0.31393 0.8436,0.7877 1.0045,1.36769 0.178,1.01834 0.2133,2.05616 0.2972,3.08499 0.1135,1.61909 0.2071,3.23956 0.3022,4.85982 0.1289,2.13253 0.2512,4.26828 0.1732,6.40568 -0.0693,1.86198 -0.2289,3.71941 -0.5073,5.56259 -0.2963,1.93822 -0.6389,3.88273 -1.361,5.71569 -0.6116,1.52507 -1.258,3.05797 -2.2314,4.3935 -1.6645,2.00757 -3.7693,3.39006 -6.2302,4.41262 -0.8607,0.3017 -1.755,0.49789 -2.673,0.46149 -0.8889,-0.0596 -1.7749,-0.22055 -2.5561,-0.67308 -1.0537,-0.71308 -1.7176,-1.71362 -2.1792,-2.89513 -0.6598,-1.52464 -1.2707,-3.06973 -1.6178,-4.7011 -0.4861,-1.91141 -0.9577,-3.83259 -1.07,-5.81052 -0.1283,-2.46097 -0.0595,-4.92402 0.1691,-7.37833 0.2406,-2.36297 0.5629,-4.72014 1.0769,-7.0409 0.4545,-1.96419 1.3459,-6.40924 4.6695,-5.27552 0.5807,0.45791 0.8992,1.17538 1.2167,1.82431 0.4074,0.8439 0.8445,1.67948 1.1648,2.56079 0.3771,1.36777 0.6803,2.75519 0.8747,4.16154 0.2627,1.9267 0.3756,3.86624 0.333,5.81154 -0.0262,1.89115 -0.1108,3.78377 -0.3869,5.65725 -0.2809,1.73502 -0.6414,3.45649 -1.2525,5.10992 -0.5199,1.3251 -1.1377,2.60347 -1.7787,3.87408 -0.4446,0.83439 -0.9912,1.57184 -1.707,2.1957 -0.68,0.66583 -1.3045,1.39962 -2.146,1.87416 -1.645,0.95932 -3.68,2.65381 -5.805,2.80387 -0.7451,-0.0283 -1.4713,-0.18256 -2.1668,-0.45623 -0.8425,-0.34385 -1.5972,-0.81263 -2.2081,-1.4992 -0.5772,-0.66293 -1.1343,-1.35531 -1.5355,-2.14171 -0.4452,-0.91929 -0.8727,-1.85165 -1.109,-2.85048 -0.2377,-0.93385 -0.5006,-1.86883 -0.5925,-2.83116 -0.0507,-0.7403 -0.0313,-1.48334 0.1033,-2.21516 0.1919,-0.89028 0.3928,-1.79435 0.8683,-2.58381 1.1498,-1.64824 3.1674,-3.16949 5.2173,-2.91978 0.5728,0.13515 1.0791,0.38682 1.4416,0.86871 0.4188,0.61699 0.7711,1.27701 0.7891,2.0415 0.0167,0.66037 -0.0389,1.32111 -0.1612,1.97064 -0.1999,0.81235 -0.4826,1.59771 -0.9083,2.32208 -0.5408,0.93273 -1.0787,1.87758 -1.7476,2.72529 -1.5044,1.65161 -3.6667,2.58235 -5.7213,3.3943 -0.8029,0.18766 -1.6209,0.20038 -2.4432,0.2024 -2.1722,0.087 3.0545,-3.08964 2.3806,-1.65273 0.0166,0.75525 0.0492,1.51063 0.1265,2.26239 0.1086,0.97527 0.2891,1.94687 0.2585,2.9324 -0.0501,1.29045 -0.196,2.57315 -0.4668,3.83736 -0.61,2.79242 -1.3207,3.15878 -4.4935,4.8186 -0.4613,0.16522 -0.9452,0.0722 -1.4034,-0.0679 -0.8944,-0.32574 -1.7217,-0.78441 -2.4951,-1.34067 -0.9529,-0.71564 -1.8694,-1.47352 -2.3969,-2.57297 -0.5254,-1.08887 -1.048,-2.18437 -1.4105,-3.34069 -0.4252,-1.57751 -0.3499,-7.25018 3.4318,-3.4756 0.2917,0.76084 0.5138,1.54362 0.609,2.35541 0.1385,1.01671 0.2007,2.03929 0.0517,3.06054 -0.1833,1.37778 -0.4474,2.74944 -0.9352,4.05573 -0.4335,1.15996 -0.9226,2.30982 -1.8615,3.1589 -1.9151,1.0944 -3.6592,3.31097 -5.4088,1.51135 -0.6924,-0.78927 -1.206,-1.71317 -1.7315,-2.61807 -0.5184,-1.10857 -0.8789,-2.26649 -0.9399,-3.49802 -0.0437,-0.978 -0.0268,-1.96356 0.1149,-2.93376 0.3194,-1.7723 4.6872,-4.39527 3.6144,-1.96205 -0.3216,0.98895 -0.781,1.90757 -1.5074,2.66829 -1.7153,1.88358 -3.9264,3.0165 -6.1849,4.20643 -0.9639,0.48999 -1.969,0.9285 -3.0538,1.05392 -0.7037,0.0368 -1.3929,-0.0337 -2.0662,-0.25345 -0.4518,-0.15334 -1.0319,-0.37696 -0.9971,-0.95149 0.5885,-1.65373 2.9475,-2.47256 4.6927,-2.76989 0.4759,-0.0214 0.9314,0.0443 1.3519,0.28384 0.7632,0.42795 1.4377,0.98914 2.1213,1.53137 0.8567,0.68561 1.7198,1.38638 2.2015,2.40013 0.4566,1.04872 0.7213,2.14229 0.711,3.29427 5e-4,1.10943 -0.0933,2.21362 -0.5462,3.24281 -0.5074,1.13198 -1.1813,2.17411 -2.038,3.07685 -1.6183,1.63127 -3.6868,2.99694 -5.9515,3.43739 -0.8859,0.0581 -1.7632,-0.0142 -2.5999,-0.33544 -0.8523,-0.36376 -1.6533,-0.84432 -2.2219,-1.59488 -0.5789,-0.95214 -0.7858,-2.02565 -0.7688,-3.13662 0.0635,-1.03118 0.2393,-2.03952 0.645,-2.99689 0.6429,-1.44064 3.8664,-5.42468 4.5959,-3.10686 -0.1027,0.71028 -0.2578,1.41046 -0.4191,2.10957 -0.2176,0.9265 -0.5211,1.82269 -0.8273,2.72324 -0.3864,1.08501 -0.7897,2.16359 -1.4645,3.11053 -0.6847,1.03392 -1.3388,2.09674 -2.1275,3.05514 -1.6318,1.72892 -3.5385,3.02948 -5.7986,3.94623 -0.7428,0.28156 -1.5086,0.45932 -2.3093,0.42313 -0.7622,-0.0364 -1.51,-0.15378 -2.1591,-0.5866 -0.6931,-0.53817 -1.161,-1.24761 -1.4718,-2.06802 -0.3254,-1.0134 -0.5705,-2.0509 -0.6532,-3.11516 -0.0743,-1.216 -0.0724,-2.43326 0.0532,-3.64664 0.1017,-0.99863 0.2481,-1.99142 0.3712,-2.98752 0.0188,-0.23464 0.0551,-0.57037 0.039,-0.80966 -0.008,-0.11613 -0.1481,-0.27599 -0.0543,-0.34493 1.0649,-0.78294 4.6301,-2.48639 3.3686,-2.09181 -0.2755,0.0862 -8.597,5.11467 -0.7303,0.46514 -2.0264,1.15999 -3.9984,2.42888 -6.1119,3.42771 -0.7292,0.33721 -1.4611,0.67121 -2.2154,0.94917 -0.3797,0.12761 -0.7599,0.23115 -1.1467,0.3346 -0.1418,0.0379 -0.5437,0.2022 -0.4245,0.11658 2.8695,-2.06141 3.7153,-1.04497 2.8136,-2.04004 0.1677,0.24411 0.3434,0.48303 0.5402,0.70479 0.3087,0.31506 0.3093,0.23029 0.4009,0.27769 0.1578,0.1393 0.3058,0.28468 0.3969,0.47947 0.3388,0.77817 0.3843,1.6668 0.6554,2.46878 0.2784,1.1131 0.6046,2.22798 0.6421,3.38251 0.005,1.18301 -0.2115,2.32614 -0.6555,3.42778 -0.4897,1.27246 -1.1105,2.47728 -1.8642,3.61559 -0.6134,0.9549 -1.3324,1.78216 -2.3018,2.39504 -2.0776,1.20109 -4.1009,2.47144 -6.3131,3.40571 -1.1168,0.4453 -2.2712,0.76989 -3.4827,0.79669 -1.1662,-0.008 -2.3263,-0.15167 -3.418,-0.58695 -1.0111,-0.43142 -1.9649,-0.97154 -2.8332,-1.64987 -0.8147,-0.65618 -1.5957,-1.35035 -2.358,-2.0667 -0.7479,-0.75408 -1.3541,-1.59642 -1.7706,-2.58004 -0.4591,-0.91642 -0.9064,-1.84448 -1.202,-2.82896 -0.3441,-1.13655 -0.6777,-2.27617 -0.9365,-3.4359 -0.3217,-1.34545 -0.6244,-2.69725 -0.6768,-4.08594 -0.0818,-1.17594 -0.1679,-2.3527 -0.1497,-3.53257 0.003,-1.21109 0.009,-2.42265 0.0669,-3.63263 0.0772,-1.33296 0.205,-2.66486 0.4713,-3.975 0.2588,-1.21148 0.578,-2.40406 1.1523,-3.5106 0.5933,-1.21954 1.207,-2.42775 1.8945,-3.59765 0.6352,-1.0535 1.2523,-2.12613 2.0833,-3.04221 1.6528,-1.72134 3.6543,-2.97837 5.9014,-3.88468 1.0855,-0.41269 2.2152,-0.66637 3.3762,-0.74834 2.2051,-0.18906 4.4168,-0.29566 6.6197,-0.51372 l -3.1835,2.35522 z"
       inkscape:connector-curvature="0" />
  </g>
</svg>
