<?xml version="1.0" encoding="UTF-8" standalone="no"?>
<!-- Created with Inkscape (http://www.inkscape.org/) -->
<svg
   xmlns:dc="http://purl.org/dc/elements/1.1/"
   xmlns:cc="http://creativecommons.org/ns#"
   xmlns:rdf="http://www.w3.org/1999/02/22-rdf-syntax-ns#"
   xmlns:svg="http://www.w3.org/2000/svg"
   xmlns="http://www.w3.org/2000/svg"
   xmlns:xlink="http://www.w3.org/1999/xlink"
   xmlns:sodipodi="http://sodipodi.sourceforge.net/DTD/sodipodi-0.dtd"
   xmlns:inkscape="http://www.inkscape.org/namespaces/inkscape"
   width="1131.6875"
   height="832.5"
   id="svg2"
   sodipodi:version="0.32"
   inkscape:version="0.46"
   sodipodi:docbase="/home/bcrowell/Documents/writing/calc/trunk/ch00/figs"
   sodipodi:docname="lulu-cover.svg"
   inkscape:output_extension="org.inkscape.output.svg.inkscape"
   version="1.0">
  <defs
     id="defs4">
    <inkscape:perspective
       sodipodi:type="inkscape:persp3d"
       inkscape:vp_x="0 : 416.25 : 1"
       inkscape:vp_y="0 : 1000 : 0"
       inkscape:vp_z="1124.875 : 416.25 : 1"
       inkscape:persp3d-origin="562.4375 : 277.5 : 1"
       id="perspective30" />
  </defs>
  <sodipodi:namedview
     id="base"
     pagecolor="#ffffff"
     bordercolor="#666666"
     borderopacity="1.0"
     inkscape:pageopacity="0.0"
     inkscape:pageshadow="2"
     inkscape:zoom="0.99316475"
     inkscape:cx="590.36079"
     inkscape:cy="518.67829"
     inkscape:document-units="px"
     inkscape:current-layer="layer1"
     inkscape:window-width="1278"
     inkscape:window-height="996"
     inkscape:window-x="2"
     inkscape:window-y="2"
     showgrid="false"
     units="pt" />
  <metadata
     id="metadata7">
    <rdf:RDF>
      <cc:Work
         rdf:about="">
        <dc:format>image/svg+xml</dc:format>
        <dc:type
           rdf:resource="http://purl.org/dc/dcmitype/StillImage" />
      </cc:Work>
    </rdf:RDF>
  </metadata>
  <g
     inkscape:label="Layer 1"
     inkscape:groupmode="layer"
     id="layer1">
    <rect
       style="fill:#000000;fill-opacity:1;fill-rule:evenodd;stroke:none;stroke-width:1pt;stroke-linecap:butt;stroke-linejoin:miter;stroke-opacity:1"
       id="rect2215"
       width="1131.854"
       height="832.5"
       x="0.015231034"
       y="-0.00063442066" />
    <image
       id="image1355"
       height="818.56427"
       width="540"
       sodipodi:absref="/home/bcrowell/Documents/writing/calc/trunk/ch00/figs/bridge.jpg"
       xlink:href="bridge.jpg"
       x="591.54529"
       y="0.027512208" />
    <path
       style="fill:#ffffff;fill-opacity:1;fill-rule:nonzero;stroke:none;stroke-width:1pt;stroke-linecap:butt;stroke-linejoin:miter;stroke-opacity:1"
       id="path2816"
       d="M 695.69365,388.32631 C 699.71367,404.79863 707.60767,420.15603 713.66813,435.99351 C 727.04807,464.78679 736.86843,495.25272 750.64011,523.84169 C 765.70418,557.52587 794.46791,579.97809 829.49928,589.08894 C 877.18453,599.94646 923.96061,587.75873 968.65242,571.0433 C 1015.3581,551.99577 1061.7139,532.14411 1108.4937,513.28189 C 1116.2592,510.10217 1124.0428,506.96983 1131.8503,503.89728 L 1116.9428,515.715 C 1109.3301,518.59787 1101.7415,521.54396 1094.2086,524.63536 C 1047.4805,543.24974 1001.3953,563.40109 954.69536,582.0818 C 909.59702,598.87608 862.24548,610.92136 814.22016,599.72564 C 778.70859,590.26638 749.42258,567.54943 734.47805,533.1167 C 720.95523,504.39521 710.22944,474.30481 696.6213,445.60849 C 690.29218,429.61135 683.17283,413.9508 677.41324,397.74652 L 695.69365,388.32631 z" />
    <path
       style="fill:#ffffff;fill-opacity:1;fill-rule:nonzero;stroke:none;stroke-width:1pt;stroke-linecap:butt;stroke-linejoin:miter;stroke-opacity:1"
       id="path2818"
       d="M 672.86417,430.82715 C 666.66917,532.25342 666.75626,633.97789 668.2815,735.54987 C 668.41638,741.33425 668.55127,747.11864 668.68616,752.90302 L 653.8949,760.4381 C 654.03894,754.51135 654.18297,748.58461 654.327,742.65787 C 656.06134,641.90405 657.52632,540.96619 654.34649,440.26237 L 672.86417,430.82715 z" />
    <path
       style="fill:#ffffff;fill-opacity:1;fill-rule:nonzero;stroke:none;stroke-width:1pt;stroke-linecap:butt;stroke-linejoin:miter;stroke-opacity:1"
       id="path2820"
       d="M 674.71992,767.73701 C 759.25752,735.04984 841.07675,693.90299 920.41803,649.47521 C 979.92492,613.32096 1042.2878,582.57831 1105.6495,553.89478 L 1088.8674,567.19604 C 1026.2352,594.5912 965.20441,625.29672 906.61973,660.61903 C 824.99521,706.34104 741.33128,748.67163 654.18374,782.6574 L 674.71992,767.73701 z" />
    <path
       style="fill:#ffffff;fill-opacity:1;fill-rule:nonzero;stroke:none;stroke-width:1pt;stroke-linecap:butt;stroke-linejoin:miter;stroke-opacity:1"
       id="path2828"
       d="M 608.74523,479.70805 C 611.75553,490.02108 615.42818,500.37252 621.66152,509.2753 C 639.36271,516.5817 610.46454,531.07703 624.47626,510.8893 C 629.46236,504.23 633.02991,496.90879 633.50927,488.5937 C 648.27054,455.68306 646.88418,490.2705 647.55673,500.77528 C 648.73399,520.75867 654.7207,540.57129 653.72009,560.65761 C 650.19328,579.95805 625.2115,587.03882 608.00245,584.32338 L 618.50906,576.9395 C 637.49733,579.96608 636.58355,582.08684 642.24072,566.40347 C 644.1226,546.33296 637.44448,526.59559 636.16845,506.67372 C 635.05823,490.64535 630.94883,486.04141 645.87495,477.66894 C 647.29568,476.87201 643.85334,482.78859 645.463,482.53849 C 645.21914,491.16463 641.48051,498.8131 636.36722,505.70433 C 630.64184,514.17918 618.60636,527.53739 610.30978,516.01738 C 604.79433,507.67377 600.12713,495.81075 597.70633,487.72828 L 608.74523,479.70805 z" />
    <g
       id="g2834"
       transform="matrix(0.521737,-0.1934,0.174407,0.578551,1007.9929,423.1544)"
       style="fill:#fefefe;fill-opacity:1">
      <path
         d="M -144.50825,324.50009 C -139.59228,322.1944 -133.87801,319.71752 -128.29346,321.88594 C -105.94041,341.71921 -89.467411,366.83705 -74.657703,392.48079 C -67.038512,408.59075 -56.919133,410.62344 -39.785051,411.92805 L -56.546371,423.90426 C -74.56357,422.41771 -85.428255,420.32921 -92.805037,402.91705 C -106.49119,377.22902 -122.39992,351.40077 -146.17908,333.83094 C -151.71001,333.78392 -156.99141,336.09732 -162.28456,337.41533 L -144.50825,324.50009 z"
         id="path2830"
         style="fill:#fefefe;fill-opacity:1;fill-rule:nonzero;stroke:none;stroke-width:1pt;stroke-linecap:butt;stroke-linejoin:miter;stroke-opacity:1" />
      <path
         d="M -49.247344,338.63392 C -43.016314,335.21109 -36.833018,331.69989 -30.554255,328.36542 C -25.527009,325.6956 -39.844399,334.95317 -44.641136,338.01788 C -53.468556,343.65785 -71.044786,353.44679 -76.397241,356.40502 C -115.3918,377.95677 -87.262008,359.98333 -112.61733,375.46413 C -125.29027,382.90818 -137.14384,391.60921 -149.20136,399.98304 L -168.23527,407.45402 C -155.85918,399.15171 -143.85071,390.28932 -131.07169,382.60042 C -71.881679,346.43803 -77.156991,354.7073 -31.471034,325.71867 L -49.247344,338.63392 z"
         id="path2832"
         style="fill:#fefefe;fill-opacity:1;fill-rule:nonzero;stroke:none;stroke-width:1pt;stroke-linecap:butt;stroke-linejoin:miter;stroke-opacity:1" />
    </g>
    <path
       style="fill:#aa8647;fill-opacity:1;fill-rule:nonzero;stroke:none;stroke-width:1pt;stroke-linecap:butt;stroke-linejoin:miter;stroke-opacity:1"
       id="path1316"
       d="M 818.94801,382.55901 C 817.67653,379.21574 815.53194,376.50045 811.42645,376.29795 C 805.98909,375.84615 796.39379,381.97003 808.38851,374.31507 C 810.12132,373.20921 805.55503,377.18431 804.40161,378.78569 C 797.17872,388.36005 794.09216,399.33692 792.87037,410.59242 C 790.88947,425.86942 797.36999,439.66824 807.72227,451.11309 C 813.93136,456.47069 821.79851,467.60974 831.93616,466.33038 C 831.4971,467.00547 835.66596,464.15656 834.78674,464.77064 C 833.17165,465.89868 831.61826,467.11268 829.8915,468.09552 C 827.67885,469.35492 833.51601,464.67243 835.06499,462.77457 C 839.40844,457.45287 843.31616,451.58813 846.28804,445.57595 C 849.62256,439.30502 851.63367,432.0752 856.86538,426.75999 C 886.10655,410.26439 832.03353,441.14021 850.05515,429.49881 C 840.91728,439.07203 847.06701,450.73392 853.67681,459.43658 C 858.65183,466.09949 865.53483,463.19363 855.84417,468.7378 C 855.40773,468.98749 856.53122,468.03609 856.80661,467.64302 C 858.81815,464.77177 859.67122,461.34211 860.49649,458.11431 C 861.93823,447.89748 863.03233,436.77112 863.40409,426.89873 C 865.8031,425.61988 868.05797,424.08109 870.60111,423.06219 C 873.90253,421.73949 869.72057,429.47282 869.77029,432.6796 C 869.84599,437.56433 870.66388,442.13894 872.86209,446.5481 C 873.43028,447.23838 874.01224,448.3831 875.12301,448.51189 C 880.14388,449.09402 885.36677,445.22917 888.44978,441.52753 C 898.43322,425.69373 896.34445,406.94111 893.86299,389.89873 C 892.43961,382.56267 890.74626,375.21641 888.13101,368.16404 C 887.68906,366.97225 884.3689,365.71704 885.64855,365.14741 C 887.70922,364.23008 889.25911,362.24218 891.50412,361.85344 C 891.91955,361.78149 889.77374,365.18292 887.92814,371.46142 C 884.0048,390.7364 884.62171,412.2279 893.64607,430.02719 C 896.37851,434.63242 899.48277,439.17225 903.6875,442.81245 C 904.53235,443.54389 908.22529,441.97146 907.25979,442.62176 C 901.2713,446.65519 900.61398,447.39339 903.85796,444.49465 C 912.87063,434.59815 915.39846,421.60078 918.64996,409.57147 C 919.57448,403.39253 926.58123,397.01667 933.50446,399.62832 C 943.25604,403.30606 922.63025,409.03811 918.55775,411.48366 C 920.51937,410.14886 922.45314,408.7799 924.4426,407.47927 C 925.80284,406.58997 922.61198,410.20794 922.65672,411.69535 C 922.75134,414.84016 925.22937,417.90739 927.13675,420.3552 C 931.32358,425.96924 939.38947,425.39794 945.25128,421.63403 C 943.63254,422.6239 942.234,424.02025 940.39505,424.60365 C 937.80362,425.42577 943.35609,420.36531 944.20731,418.02275 C 946.82937,410.80675 947.4949,402.70066 945.28846,395.4747 C 945.67588,395.16935 943.09771,390.61835 943.15502,390.58054 C 945.45389,389.06437 947.82241,387.61567 950.3218,386.38955 C 951.9493,385.59116 950.08505,389.68863 950.24443,391.322 C 950.80742,397.09139 952.40836,402.68949 954.35931,408.15602 C 956.91477,413.55063 959.28718,419.97103 964.57087,423.78888 C 966.13746,424.92087 972.36238,422.43718 970.69095,423.52899 C 964.86271,427.33609 964.37692,428.15607 967.22713,425.06851 C 973.35619,416.05386 974.02353,404.52903 972.62061,394.39051 C 972.59597,394.2997 972.57138,394.20889 972.54676,394.11809 C 974.99247,392.63674 977.36995,391.05783 979.88391,389.67405 C 981.39961,388.83974 980.0297,392.82004 980.23955,394.378 C 980.94573,399.62091 982.88411,404.53448 986.56957,408.58067 C 997.04948,409.93676 1003.5555,397.45372 1009.0913,383.11223 C 1013.7655,367.5593 1013.8048,350.28617 1007.3731,335.3576 C 1005.8769,332.02134 1001.4173,334.44139 1011.0574,330.384 C 1012.9546,329.58551 1008.3771,333.06837 1006.0081,337.97289 C 1002.0463,346.1749 1001.9061,354.4938 1002.9378,363.11542 C 1006.6443,373.43219 1011.2021,398.81406 1025.7802,401.71349 C 1030.2557,399.29682 1023.8494,403.57402 1022.6018,404.09481 C 1020.3401,405.03887 1026.2237,401.31108 1028.395,396.28289 C 1031.8579,388.26398 1031.5544,378.91776 1030.3627,370.62512 C 1043.1582,363.30419 1036.0917,374.0805 1043.4295,382.11155 C 1044.6343,383.43018 1050.7252,380.379 1049.1859,381.45903 C 1047.7502,382.4664 1046.2197,383.35816 1044.7367,384.30773 C 1052.4129,383.01234 1050.4654,364.21969 1052.9196,362.89285 C 1061.9426,358.01467 1060.1593,357.45662 1060.194,362.82105 C 1060.4986,369.13051 1060.9543,375.59547 1063.115,381.60834 C 1063.5431,382.79984 1066.7292,383.91745 1065.5515,384.63927 C 1059.5301,388.32984 1057.922,390.32112 1060.7919,387.17773 C 1068.4083,377.09225 1074.4799,365.91432 1077.9433,354.18902 C 1079.5799,347.82503 1078.6146,347.86494 1086.8153,343.96651 C 1087.5174,343.63272 1086.2847,345.30758 1086.0821,345.9932 C 1085.3025,348.63077 1084.888,350.98194 1085.0949,353.688 C 1085.116,363.56192 1100.4466,366.43526 1101.114,375.36843 C 1098.5434,383.90226 1063.8195,395.30054 1085.6689,381.79846 C 1095.1549,380.77725 1104.8937,381.15834 1114.2858,379.24493 C 1116.4407,378.8059 1122.1768,375.71851 1120.4379,376.96687 C 1111.905,383.09265 1114.0078,381.68142 1116.0418,379.26556 C 1116.7549,377.94702 1116.4395,377.15661 1115.8335,375.96691 L 1122.7555,371.24224 C 1123.5859,372.62038 1124.1473,373.56776 1123.4705,375.21254 C 1114.6257,388.96346 1093.4374,383.91193 1079.486,387.22616 C 1090.7402,378.77035 1090.7956,384.46983 1093.8819,379.58935 C 1094.2734,370.94177 1077.8475,367.42058 1078.2067,357.93482 C 1077.0136,348.17203 1090.0889,335.63289 1085.1315,350.08269 C 1081.3804,361.81038 1075.4083,372.96936 1068.1158,383.32563 C 1054.0181,402.26942 1054.2443,374.58623 1053.2786,367.04099 C 1052.8063,361.40594 1052.2412,363.89883 1060.3601,358.52764 C 1064.5176,355.77723 1050.3707,384.9777 1051.9551,380.69622 C 1051.1243,381.28596 1043.4071,388.3263 1039.2947,388.19954 C 1035.7696,388.09089 1028.641,373.33688 1030.4655,371.45027 C 1032.5024,369.34391 1035.2424,367.8815 1037.6309,366.09709 C 1037.5965,366.13596 1037.5621,366.17482 1037.5276,366.21369 C 1037.9235,380.72338 1038.9738,401.10688 1019.4178,406.8912 C 1005.1571,405.03499 1000.4621,376.07515 996.62656,367.02446 C 995.89038,361.3558 999.28867,318.61047 1014.2741,330.88224 C 1019.7296,346.36684 1020.5047,363.44342 1015.714,379.37775 C 1011.6858,390.13955 995.16927,417.8605 979.77007,413.34208 C 978.05222,411.21563 969.47075,396.27137 972.50937,394.1829 C 974.87392,392.55772 977.39582,391.12921 979.83905,389.60236 C 979.83928,389.71276 979.83955,389.82315 979.83981,389.93354 C 980.47725,400.36378 980.1682,411.82396 974.43473,421.2973 C 960.44885,438.50037 953.25574,424.81306 947.93581,412.30065 C 947.08432,409.94465 940.10953,392.4708 942.69965,390.4515 C 944.99037,388.6656 947.5847,387.20755 950.18957,385.81894 C 950.20201,385.8123 952.23511,390.74632 952.16313,391.08146 C 956.10745,404.33113 952.42167,418.84139 939.40755,427.05497 C 933.01364,430.71839 924.49512,431.05506 920.35425,424.98975 C 913.93063,416.37972 913.32137,412.2179 924.54268,405.92435 C 942.81972,395.81476 933.45548,409.12738 926.87671,404.68166 C 925.51611,404.25538 921.36527,405.50367 922.51506,404.67565 C 933.50442,396.76158 926.68397,400.63506 925.83081,405.45861 C 922.02024,417.51232 919.79888,430.52505 911.10834,440.79027 C 897.25211,454.43194 894.60894,446.22245 887.25462,434.24182 C 878.41865,416.16774 877.64653,394.80908 881.2897,375.27566 C 890.67581,338.9373 898.96826,373.11769 900.27308,385.91188 C 902.83641,403.04244 904.96202,421.71618 895.4753,437.82071 C 891.40025,443.07789 873.41705,459.32758 865.91919,451.15332 C 864.07489,447.20688 859.18871,430.61364 863.24226,427.3435 C 865.56277,425.47149 868.21255,423.96066 870.69768,422.26923 C 869.3956,432.88274 868.80427,443.56589 867.30473,454.17478 C 865.11009,464.13992 855.24238,477.37318 847.09355,463.92847 C 840.40638,454.90836 834.0462,443.37522 842.72157,433.2034 C 847.5661,429.69345 851.50233,426.33286 857.08496,424.14958 C 859.83704,423.0733 867.54971,419.32702 865.50937,421.31647 C 862.49139,424.25916 851.01293,432.85833 864.54983,422.96859 C 858.61773,427.71662 856.78178,435.486 853.36196,441.65693 C 847.94618,453.15467 838.85601,466.46706 825.69406,471.67276 C 815.18674,471.97554 807.85671,461.37751 801.31609,455.56101 C 790.88012,444.00956 784.3039,430.02841 786.06092,414.62791 C 787.33244,403.34812 789.9566,392.37984 797.1197,382.68546 C 801.69653,375.90682 808.93869,370.77537 817.85921,371.02896 C 822.35613,371.49749 824.39137,374.5661 826.2946,378.00578 L 818.94801,382.55901 z" />
    <path
       style="fill:#aa8647;fill-opacity:1;fill-rule:nonzero;stroke:none;stroke-width:1pt;stroke-linecap:butt;stroke-linejoin:miter;stroke-opacity:1"
       id="path1332"
       d="M 833.46315,503.46912 C 832.92627,500.62105 831.85316,497.31866 828.68661,496.68035 C 840.3455,488.47973 829.51192,495.665 827.36402,500.96416 C 826.50134,504.02395 826.03814,507.1732 826.61891,510.26205 C 827.74509,513.97944 830.2828,517.11249 833.27967,519.77306 C 835.71964,521.50357 838.73491,522.1048 841.82759,522.11359 C 841.63729,522.80319 844.75735,521.12107 844.12191,521.55377 C 832.64407,529.3697 841.59055,522.59982 843.54979,517.30701 C 844.84244,514.57832 841.9446,513.89958 843.43803,511.90359 C 848.01507,508.09371 852.91792,504.5388 858.28411,501.69385 C 861.26612,501.70024 859.65233,505.26562 859.39956,507.42211 C 859.1293,509.75442 859.77032,510.82535 862.28508,511.10738 C 871.81522,507.91333 857.84588,519.03371 862.40947,511.77826 C 864.46147,505.42228 863.68992,507.00667 871.11545,502.68095 C 870.00275,504.87133 869.77616,507.15125 871.1654,509.06176 C 870.81149,510.91022 879.0697,507.31442 877.39247,508.46324 C 867.67787,515.11726 869.88729,513.91697 872.20734,511.64675 C 874.17014,509.28783 874.58367,506.35939 873.33992,503.7517 C 869.40651,499.41902 864.26702,505.07058 875.43273,497.53757 C 875.29955,499.52872 877.10105,498.1724 879.0164,497.12928 C 866.1074,507.45773 877.16693,497.18846 880.26622,494.43792 C 883.81178,491.87347 889.68124,483.16052 891.39129,489.61221 C 892.07773,492.55458 892.95201,495.41211 895.34035,497.53517 C 906.16349,496.34 892.16322,503.30598 894.45085,500.05112 C 895.23032,498.20481 894.63595,495.43757 894.32179,494.20992 C 905.0131,486.37536 899.78671,490.05486 902.66278,495.39704 C 909.52937,493.32662 897.12031,503.55369 901.37643,496.27936 C 902.3291,494.04965 902.51141,491.8174 902.30917,489.49544 C 901.81296,482.61845 910.97647,483.72304 915.45982,482.13506 C 909.57274,485.24217 910.35814,487.21654 914.33936,480.64538 C 913.84799,477.41241 922.50224,469.73291 921.35651,475.30652 C 921.25846,478.33326 921.7326,481.11745 923.79755,483.47051 C 926.05618,485.26631 927.75978,485.18394 930.32969,483.97514 C 929.82768,484.54308 932.95817,482.29063 932.3151,482.72933 C 921.61748,490.027 927.62447,486.77033 928.95229,481.69208 C 929.23312,476.59979 928.40765,471.46339 927.37056,466.49227 C 923.00105,461.3012 933.70164,451.70437 931.5885,462.81281 C 931.02054,466.80677 931.6331,470.4296 933.70038,473.8954 C 935.29296,476.15285 937.14368,477.56678 940.06374,478.01715 C 944.16459,478.10025 947.89355,474.68275 937.22822,481.60027 C 935.23751,482.89146 939.95937,477.85982 940.64673,475.75809 C 941.78608,471.81213 941.06936,467.79941 940.5217,463.86723 C 936.01951,459.61764 947.45571,453.58672 945.30523,456.85105 C 943.97239,460.59497 944.68132,464.65077 945.818,468.30412 C 947.24054,472.19052 949.96371,474.94676 953.99136,476.73978 C 954.05988,476.73773 954.85079,477.06481 954.90357,477.08476 L 948.16895,482.20557 C 947.86172,482.07845 947.54719,481.96488 947.24723,481.82421 C 943.19564,479.76054 940.27584,476.88935 938.77288,472.85322 C 937.51423,469.09056 936.78558,464.93687 937.87881,461.01485 C 939.97608,454.73372 948.19643,452.17488 947.73068,459.39606 C 948.22984,463.41426 948.98177,467.52064 947.95174,471.55509 C 946.24664,477.40687 941.05742,483.88748 933.52991,483.29935 C 930.44781,482.67507 928.34511,481.01024 926.68092,478.59887 C 924.54542,474.96576 923.79365,471.25825 924.36096,467.0674 C 925.31205,461.0645 934.19558,451.83558 934.4427,462.04865 C 935.41993,467.10112 936.3186,472.26251 936.26614,477.4198 C 935.00823,483.42987 930.49151,486.71326 924.14133,489.59213 C 921.29409,490.7259 919.14158,490.20097 916.87224,488.35808 C 914.70395,485.80166 914.04647,482.95222 914.06887,479.68781 C 914.32587,474.61453 924.83235,469.51825 921.84947,476.54089 C 918.93588,481.56128 915.1045,484.71964 909.24374,487.73195 C 899.31602,489.83773 908.78512,485.08737 909.57102,485.01025 C 909.8071,487.43294 909.76175,489.75796 908.82775,492.11049 C 906.8676,496.48789 900.90483,502.55565 895.71875,500.29348 C 892.10454,494.93101 894.74172,492.367 901.19477,489.09446 C 902.18859,491.2013 902.38679,493.52125 901.87851,495.84162 C 900.23221,500.38633 893.52765,504.62389 888.48047,502.50302 C 886.05755,500.17766 884.95171,497.29986 884.23725,494.16349 C 883.15728,490.1736 894.31665,485.87999 887.87522,490.5765 C 882.9561,494.86071 879.14155,499.72853 872.91102,502.80666 C 870.48283,503.86391 867.43462,504.70101 867.71039,501.41839 C 873.37616,497.54108 875.97973,494.03489 880.40173,499.01135 C 881.79525,501.81375 881.6701,504.98418 879.74469,507.69047 C 876.17363,512.09829 870.13579,516.67427 864.28302,514.02364 C 862.36979,511.87833 862.76944,509.40747 863.52255,506.76021 C 873.94321,500.12747 871.6354,501.31045 869.8722,507.67921 C 867.29112,512.51655 861.84224,516.6074 855.77067,516.45323 C 852.99141,515.90648 851.80431,514.42031 852.0762,511.78758 C 852.20009,510.66385 853.60583,506.09961 852.13687,507.33971 C 843.10638,512.38053 861.91168,500.05842 851.10109,508.06263 C 848.68419,509.04316 852.12849,510.24719 850.883,513.10374 C 848.82643,519.34438 843.1237,526.82973 835.35955,527.47432 C 832.12418,527.27571 828.87707,526.60785 826.42187,524.64391 C 823.38677,521.80303 820.72639,518.6105 819.45662,514.76761 C 818.77036,511.5776 819.14358,508.37483 819.97882,505.18227 C 822.11795,498.79792 829.54453,494.64388 835.16359,491.2738 C 838.6524,492.38324 839.71463,495.93057 840.80974,498.91589 L 833.46315,503.46912 z" />
    <text
       xml:space="preserve"
       style="font-size:20px;font-style:oblique;font-variant:normal;font-weight:normal;font-stretch:normal;text-align:start;line-height:125%;writing-mode:lr-tb;text-anchor:start;fill:#ffffff;fill-opacity:1;stroke:none;stroke-width:1pt;stroke-linecap:butt;stroke-linejoin:miter;stroke-opacity:1;font-family:Bitstream Vera Sans"
       x="183.29768"
       y="-559.21442"
       id="text2944"
       sodipodi:linespacing="125%"
       transform="matrix(0,1,-1,0,0,0)"><tspan
         sodipodi:role="line"
         id="tspan2946"
         x="183.29768"
         y="-559.21442">Calculus</tspan></text>
    <text
       xml:space="preserve"
       style="font-size:20px;font-style:normal;font-variant:normal;font-weight:normal;font-stretch:normal;text-align:start;line-height:125%;writing-mode:lr-tb;text-anchor:start;fill:#ffffff;fill-opacity:1;stroke:none;stroke-width:1pt;stroke-linecap:butt;stroke-linejoin:miter;stroke-opacity:1;font-family:Bitstream Vera Sans"
       x="305.41663"
       y="-559.21442"
       id="text2950"
       sodipodi:linespacing="125%"
       transform="matrix(0,1,-1,0,0,0)"><tspan
         sodipodi:role="line"
         id="tspan2952"
         x="305.41663"
         y="-559.21442">Crowell</tspan></text>
    <rect
       style="fill:#000000;fill-opacity:1;fill-rule:evenodd;stroke:none;stroke-width:1pt;stroke-linecap:butt;stroke-linejoin:miter;stroke-opacity:1"
       id="rect2960"
       width="743.81976"
       height="43.958244"
       x="387.75876"
       y="783.83234" />
    <rect
       style="fill:#000000;fill-opacity:1;fill-rule:evenodd;stroke:none;stroke-width:1pt;stroke-linecap:butt;stroke-linejoin:miter;stroke-opacity:1"
       id="rect1320"
       width="0.91926038"
       height="821.93872"
       x="591.20471"
       y="0.038299423" />
    <text
       xml:space="preserve"
       style="font-size:12px;font-style:normal;font-variant:normal;font-weight:normal;font-stretch:normal;text-align:start;line-height:125%;writing-mode:lr-tb;text-anchor:start;fill:#ffffff;fill-opacity:1;stroke:none;stroke-width:1pt;stroke-linecap:butt;stroke-linejoin:miter;stroke-opacity:1;font-family:Bitstream Vera Sans"
       x="202.076"
       y="261.23401"
       id="text2058"
       sodipodi:linespacing="125%"><tspan
         sodipodi:role="line"
         x="202.076"
         y="261.23401"
         id="tspan2062">This book can be downloaded</tspan></text>
    <text
       xml:space="preserve"
       style="font-size:12px;font-style:normal;font-variant:normal;font-weight:normal;font-stretch:normal;text-align:start;line-height:125%;writing-mode:lr-tb;text-anchor:start;fill:#ffffff;fill-opacity:1;stroke:none;stroke-width:1pt;stroke-linecap:butt;stroke-linejoin:miter;stroke-opacity:1;font-family:Bitstream Vera Sans"
       x="202.076"
       y="285.95999"
       id="text2064"
       sodipodi:linespacing="125%"><tspan
         sodipodi:role="line"
         id="tspan2066"
         x="202.076"
         y="285.95999">for free, or bought in print, at</tspan></text>
    <text
       xml:space="preserve"
       style="font-size:12px;font-style:normal;font-variant:normal;font-weight:normal;font-stretch:normal;text-align:start;line-height:125%;writing-mode:lr-tb;text-anchor:start;fill:#ffffff;fill-opacity:1;stroke:none;stroke-width:1pt;stroke-linecap:butt;stroke-linejoin:miter;stroke-opacity:1;font-family:Bitstream Vera Sans"
       x="202.12001"
       y="310.68594"
       id="text2068"
       sodipodi:linespacing="125%"><tspan
         sodipodi:role="line"
         id="tspan2070"
         x="202.12001"
         y="310.68594">www.lightandmatter.com/calc.</tspan></text>
  </g>
</svg>
