<?xml version="1.0" encoding="UTF-8" standalone="no"?>
<!-- Created with Inkscape (http://www.inkscape.org/) -->
<svg
   xmlns:dc="http://purl.org/dc/elements/1.1/"
   xmlns:cc="http://web.resource.org/cc/"
   xmlns:rdf="http://www.w3.org/1999/02/22-rdf-syntax-ns#"
   xmlns:svg="http://www.w3.org/2000/svg"
   xmlns="http://www.w3.org/2000/svg"
   xmlns:xlink="http://www.w3.org/1999/xlink"
   xmlns:sodipodi="http://inkscape.sourceforge.net/DTD/sodipodi-0.dtd"
   xmlns:inkscape="http://www.inkscape.org/namespaces/inkscape"
   width="899.90000pt"
   height="666.00000pt"
   id="svg2"
   sodipodi:version="0.32"
   inkscape:version="0.42.2"
   sodipodi:docbase="/home/bcrowell/Documents/writing/calc/trunk/ch00/figs"
   sodipodi:docname="lulu-cover.svg">
  <defs
     id="defs4" />
  <sodipodi:namedview
     id="base"
     pagecolor="#ffffff"
     bordercolor="#666666"
     borderopacity="1.0"
     inkscape:pageopacity="0.0"
     inkscape:pageshadow="2"
     inkscape:zoom="0.40688318"
     inkscape:cx="584.32947"
     inkscape:cy="518.83158"
     inkscape:document-units="px"
     inkscape:current-layer="layer1"
     inkscape:window-width="1278"
     inkscape:window-height="996"
     inkscape:window-x="0"
     inkscape:window-y="0" />
  <metadata
     id="metadata7">
    <rdf:RDF>
      <cc:Work
         rdf:about="">
        <dc:format>image/svg+xml</dc:format>
        <dc:type
           rdf:resource="http://purl.org/dc/dcmitype/StillImage" />
      </cc:Work>
    </rdf:RDF>
  </metadata>
  <g
     inkscape:label="Layer 1"
     inkscape:groupmode="layer"
     id="layer1">
    <rect
       style="fill:#000000;fill-opacity:1.0000000;fill-rule:evenodd;stroke:none;stroke-width:1.0000000pt;stroke-linecap:butt;stroke-linejoin:miter;stroke-opacity:1.0000000"
       id="rect2215"
       width="1130.3101"
       height="832.50000"
       x="-5.1147590"
       y="-0.00063442066" />
    <image
       id="image1355"
       height="818.56427"
       width="540.00000"
       sodipodi:absref="/home/bcrowell/Documents/writing/calc/trunk/ch00/figs/bridge.jpg"
       xlink:href="bridge.jpg"
       x="584.87134"
       y="0.027512208" />
    <path
       style="fill:#ffffff;fill-opacity:1.0000000;fill-rule:nonzero;stroke:none;stroke-width:1.0000000pt;stroke-linecap:butt;stroke-linejoin:miter;stroke-opacity:1.0000000"
       id="path2816"
       d="M 689.01970,388.32631 C 693.03972,404.79863 700.93372,420.15603 706.99418,435.99351 C 720.37412,464.78679 730.19448,495.25272 743.96616,523.84169 C 759.03023,557.52587 787.79396,579.97809 822.82533,589.08894 C 870.51058,599.94646 917.28666,587.75873 961.97847,571.04330 C 1008.6842,551.99577 1055.0400,532.14411 1101.8198,513.28189 C 1109.5853,510.10217 1117.3689,506.96983 1125.1764,503.89728 L 1110.2689,515.71500 C 1102.6562,518.59787 1095.0676,521.54396 1087.5347,524.63536 C 1040.8066,543.24974 994.72138,563.40109 948.02141,582.08180 C 902.92307,598.87608 855.57153,610.92136 807.54621,599.72564 C 772.03464,590.26638 742.74863,567.54943 727.80410,533.11670 C 714.28128,504.39521 703.55549,474.30481 689.94735,445.60849 C 683.61823,429.61135 676.49888,413.95080 670.73929,397.74652 L 689.01970,388.32631 z " />
    <path
       style="fill:#ffffff;fill-opacity:1.0000000;fill-rule:nonzero;stroke:none;stroke-width:1.0000000pt;stroke-linecap:butt;stroke-linejoin:miter;stroke-opacity:1.0000000"
       id="path2818"
       d="M 666.19022,430.82715 C 659.99522,532.25342 660.08231,633.97789 661.60755,735.54987 C 661.74243,741.33425 661.87732,747.11864 662.01221,752.90302 L 647.22095,760.43810 C 647.36499,754.51135 647.50902,748.58461 647.65305,742.65787 C 649.38739,641.90405 650.85237,540.96619 647.67254,440.26237 L 666.19022,430.82715 z " />
    <path
       style="fill:#ffffff;fill-opacity:1.0000000;fill-rule:nonzero;stroke:none;stroke-width:1.0000000pt;stroke-linecap:butt;stroke-linejoin:miter;stroke-opacity:1.0000000"
       id="path2820"
       d="M 668.04597,767.73701 C 752.58357,735.04984 834.40280,693.90299 913.74408,649.47521 C 973.25097,613.32096 1035.6139,582.57831 1098.9756,553.89478 L 1082.1935,567.19604 C 1019.5613,594.59120 958.53046,625.29672 899.94578,660.61903 C 818.32126,706.34104 734.65733,748.67163 647.50979,782.65740 L 668.04597,767.73701 z " />
    <path
       style="fill:#ffffff;fill-opacity:1.0000000;fill-rule:nonzero;stroke:none;stroke-width:1.0000000pt;stroke-linecap:butt;stroke-linejoin:miter;stroke-opacity:1.0000000"
       id="path2828"
       d="M 602.07128,479.70805 C 605.08158,490.02108 608.75423,500.37252 614.98757,509.27530 C 632.68876,516.58170 603.79059,531.07703 617.80231,510.88930 C 622.78841,504.23000 626.35596,496.90879 626.83532,488.59370 C 641.59659,455.68306 640.21023,490.27050 640.88278,500.77528 C 642.06004,520.75867 648.04675,540.57129 647.04614,560.65761 C 643.51933,579.95805 618.53755,587.03882 601.32850,584.32338 L 611.83511,576.93950 C 630.82338,579.96608 629.90960,582.08684 635.56677,566.40347 C 637.44865,546.33296 630.77053,526.59559 629.49450,506.67372 C 628.38428,490.64535 624.27488,486.04141 639.20100,477.66894 C 640.62173,476.87201 637.17939,482.78859 638.78905,482.53849 C 638.54519,491.16463 634.80656,498.81310 629.69327,505.70433 C 623.96789,514.17918 611.93241,527.53739 603.63583,516.01738 C 598.12038,507.67377 593.45318,495.81075 591.03238,487.72828 L 602.07128,479.70805 z " />
    <g
       id="g2834"
       transform="matrix(0.521737,-0.193400,0.174407,0.578551,1001.319,423.1544)"
       style="fill:#fefefe;fill-opacity:1.0000000">
      <path
         d="M -144.50825,324.50009 C -139.59228,322.19440 -133.87801,319.71752 -128.29346,321.88594 C -105.94041,341.71921 -89.467411,366.83705 -74.657703,392.48079 C -67.038512,408.59075 -56.919133,410.62344 -39.785051,411.92805 L -56.546371,423.90426 C -74.563570,422.41771 -85.428255,420.32921 -92.805037,402.91705 C -106.49119,377.22902 -122.39992,351.40077 -146.17908,333.83094 C -151.71001,333.78392 -156.99141,336.09732 -162.28456,337.41533 L -144.50825,324.50009 z "
         id="path2830"
         style="fill:#fefefe;fill-opacity:1.0000000;fill-rule:nonzero;stroke:none;stroke-width:1.0000000pt;stroke-linecap:butt;stroke-linejoin:miter;stroke-opacity:1.0000000" />
      <path
         d="M -49.247344,338.63392 C -43.016314,335.21109 -36.833018,331.69989 -30.554255,328.36542 C -25.527009,325.69560 -39.844399,334.95317 -44.641136,338.01788 C -53.468556,343.65785 -71.044786,353.44679 -76.397241,356.40502 C -115.39180,377.95677 -87.262008,359.98333 -112.61733,375.46413 C -125.29027,382.90818 -137.14384,391.60921 -149.20136,399.98304 L -168.23527,407.45402 C -155.85918,399.15171 -143.85071,390.28932 -131.07169,382.60042 C -71.881679,346.43803 -77.156991,354.70730 -31.471034,325.71867 L -49.247344,338.63392 z "
         id="path2832"
         style="fill:#fefefe;fill-opacity:1.0000000;fill-rule:nonzero;stroke:none;stroke-width:1.0000000pt;stroke-linecap:butt;stroke-linejoin:miter;stroke-opacity:1.0000000" />
    </g>
    <path
       style="fill:#aa8647;fill-opacity:1.0000000;fill-rule:nonzero;stroke:none;stroke-width:1.0000000pt;stroke-linecap:butt;stroke-linejoin:miter;stroke-opacity:1.0000000"
       id="path1316"
       d="M 812.27406,382.55901 C 811.00258,379.21574 808.85799,376.50045 804.75250,376.29795 C 799.31514,375.84615 789.71984,381.97003 801.71456,374.31507 C 803.44737,373.20921 798.88108,377.18431 797.72766,378.78569 C 790.50477,388.36005 787.41821,399.33692 786.19642,410.59242 C 784.21552,425.86942 790.69604,439.66824 801.04832,451.11309 C 807.25741,456.47069 815.12456,467.60974 825.26221,466.33038 C 824.82315,467.00547 828.99201,464.15656 828.11279,464.77064 C 826.49770,465.89868 824.94431,467.11268 823.21755,468.09552 C 821.00490,469.35492 826.84206,464.67243 828.39104,462.77457 C 832.73449,457.45287 836.64221,451.58813 839.61409,445.57595 C 842.94861,439.30502 844.95972,432.07520 850.19143,426.75999 C 879.43260,410.26439 825.35958,441.14021 843.38120,429.49881 C 834.24333,439.07203 840.39306,450.73392 847.00286,459.43658 C 851.97788,466.09949 858.86088,463.19363 849.17022,468.73780 C 848.73378,468.98749 849.85727,468.03609 850.13266,467.64302 C 852.14420,464.77177 852.99727,461.34211 853.82254,458.11431 C 855.26428,447.89748 856.35838,436.77112 856.73014,426.89873 C 859.12915,425.61988 861.38402,424.08109 863.92716,423.06219 C 867.22858,421.73949 863.04662,429.47282 863.09634,432.67960 C 863.17204,437.56433 863.98993,442.13894 866.18814,446.54810 C 866.75633,447.23838 867.33829,448.38310 868.44906,448.51189 C 873.46993,449.09402 878.69282,445.22917 881.77583,441.52753 C 891.75927,425.69373 889.67050,406.94111 887.18904,389.89873 C 885.76566,382.56267 884.07231,375.21641 881.45706,368.16404 C 881.01511,366.97225 877.69495,365.71704 878.97460,365.14741 C 881.03527,364.23008 882.58516,362.24218 884.83017,361.85344 C 885.24560,361.78149 883.09979,365.18292 881.25419,371.46142 C 877.33085,390.73640 877.94776,412.22790 886.97212,430.02719 C 889.70456,434.63242 892.80882,439.17225 897.01355,442.81245 C 897.85840,443.54389 901.55134,441.97146 900.58584,442.62176 C 894.59735,446.65519 893.94003,447.39339 897.18401,444.49465 C 906.19668,434.59815 908.72451,421.60078 911.97601,409.57147 C 912.90053,403.39253 919.90728,397.01667 926.83051,399.62832 C 936.58209,403.30606 915.95630,409.03811 911.88380,411.48366 C 913.84542,410.14886 915.77919,408.77990 917.76865,407.47927 C 919.12889,406.58997 915.93803,410.20794 915.98277,411.69535 C 916.07739,414.84016 918.55542,417.90739 920.46280,420.35520 C 924.64963,425.96924 932.71552,425.39794 938.57733,421.63403 C 936.95859,422.62390 935.56005,424.02025 933.72110,424.60365 C 931.12967,425.42577 936.68214,420.36531 937.53336,418.02275 C 940.15542,410.80675 940.82095,402.70066 938.61451,395.47470 C 939.00193,395.16935 936.42376,390.61835 936.48107,390.58054 C 938.77994,389.06437 941.14846,387.61567 943.64785,386.38955 C 945.27535,385.59116 943.41110,389.68863 943.57048,391.32200 C 944.13347,397.09139 945.73441,402.68949 947.68536,408.15602 C 950.24082,413.55063 952.61323,419.97103 957.89692,423.78888 C 959.46351,424.92087 965.68843,422.43718 964.01700,423.52899 C 958.18876,427.33609 957.70297,428.15607 960.55318,425.06851 C 966.68224,416.05386 967.34958,404.52903 965.94666,394.39051 C 965.92202,394.29970 965.89743,394.20889 965.87281,394.11809 C 968.31852,392.63674 970.69600,391.05783 973.20996,389.67405 C 974.72566,388.83974 973.35575,392.82004 973.56560,394.37800 C 974.27178,399.62091 976.21016,404.53448 979.89562,408.58067 C 990.37553,409.93676 996.88151,397.45372 1002.4174,383.11223 C 1007.0916,367.55930 1007.1309,350.28617 1000.6992,335.35760 C 999.20295,332.02134 994.74335,334.44139 1004.3835,330.38400 C 1006.2807,329.58551 1001.7032,333.06837 999.33417,337.97289 C 995.37232,346.17490 995.23219,354.49380 996.26386,363.11542 C 999.97036,373.43219 1004.5282,398.81406 1019.1063,401.71349 C 1023.5818,399.29682 1017.1755,403.57402 1015.9279,404.09481 C 1013.6662,405.03887 1019.5498,401.31108 1021.7211,396.28289 C 1025.1840,388.26398 1024.8805,378.91776 1023.6888,370.62512 C 1036.4843,363.30419 1029.4178,374.08050 1036.7556,382.11155 C 1037.9604,383.43018 1044.0513,380.37900 1042.5120,381.45903 C 1041.0763,382.46640 1039.5458,383.35816 1038.0628,384.30773 C 1045.7390,383.01234 1043.7915,364.21969 1046.2457,362.89285 C 1055.2687,358.01467 1053.4854,357.45662 1053.5201,362.82105 C 1053.8247,369.13051 1054.2804,375.59547 1056.4411,381.60834 C 1056.8692,382.79984 1060.0553,383.91745 1058.8776,384.63927 C 1052.8562,388.32984 1051.2481,390.32112 1054.1180,387.17773 C 1061.7344,377.09225 1067.8060,365.91432 1071.2694,354.18902 C 1072.9060,347.82503 1071.9407,347.86494 1080.1414,343.96651 C 1080.8435,343.63272 1079.6108,345.30758 1079.4082,345.99320 C 1078.6286,348.63077 1078.2141,350.98194 1078.4210,353.68800 C 1078.4421,363.56192 1093.7727,366.43526 1094.4401,375.36843 C 1091.8695,383.90226 1057.1456,395.30054 1078.9950,381.79846 C 1088.4810,380.77725 1098.2198,381.15834 1107.6119,379.24493 C 1109.7668,378.80590 1115.5029,375.71851 1113.7640,376.96687 C 1105.2311,383.09265 1107.3339,381.68142 1109.3679,379.26556 C 1110.0810,377.94702 1109.7656,377.15661 1109.1596,375.96691 L 1116.0816,371.24224 C 1116.9120,372.62038 1117.4734,373.56776 1116.7966,375.21254 C 1107.9518,388.96346 1086.7635,383.91193 1072.8121,387.22616 C 1084.0663,378.77035 1084.1217,384.46983 1087.2080,379.58935 C 1087.5995,370.94177 1071.1736,367.42058 1071.5328,357.93482 C 1070.3397,348.17203 1083.4150,335.63289 1078.4576,350.08269 C 1074.7065,361.81038 1068.7344,372.96936 1061.4419,383.32563 C 1047.3442,402.26942 1047.5704,374.58623 1046.6047,367.04099 C 1046.1324,361.40594 1045.5673,363.89883 1053.6862,358.52764 C 1057.8437,355.77723 1043.6968,384.97770 1045.2812,380.69622 C 1044.4504,381.28596 1036.7332,388.32630 1032.6208,388.19954 C 1029.0957,388.09089 1021.9671,373.33688 1023.7916,371.45027 C 1025.8285,369.34391 1028.5685,367.88150 1030.9570,366.09709 C 1030.9226,366.13596 1030.8882,366.17482 1030.8537,366.21369 C 1031.2496,380.72338 1032.2999,401.10688 1012.7439,406.89120 C 998.48316,405.03499 993.78817,376.07515 989.95261,367.02446 C 989.21643,361.35580 992.61472,318.61047 1007.6002,330.88224 C 1013.0557,346.36684 1013.8308,363.44342 1009.0401,379.37775 C 1005.0119,390.13955 988.49532,417.86050 973.09612,413.34208 C 971.37827,411.21563 962.79680,396.27137 965.83542,394.18290 C 968.19997,392.55772 970.72187,391.12921 973.16510,389.60236 C 973.16533,389.71276 973.16560,389.82315 973.16586,389.93354 C 973.80330,400.36378 973.49425,411.82396 967.76078,421.29730 C 953.77490,438.50037 946.58179,424.81306 941.26186,412.30065 C 940.41037,409.94465 933.43558,392.47080 936.02570,390.45150 C 938.31642,388.66560 940.91075,387.20755 943.51562,385.81894 C 943.52806,385.81230 945.56116,390.74632 945.48918,391.08146 C 949.43350,404.33113 945.74772,418.84139 932.73360,427.05497 C 926.33969,430.71839 917.82117,431.05506 913.68030,424.98975 C 907.25668,416.37972 906.64742,412.21790 917.86873,405.92435 C 936.14577,395.81476 926.78153,409.12738 920.20276,404.68166 C 918.84216,404.25538 914.69132,405.50367 915.84111,404.67565 C 926.83047,396.76158 920.01002,400.63506 919.15686,405.45861 C 915.34629,417.51232 913.12493,430.52505 904.43439,440.79027 C 890.57816,454.43194 887.93499,446.22245 880.58067,434.24182 C 871.74470,416.16774 870.97258,394.80908 874.61575,375.27566 C 884.00186,338.93730 892.29431,373.11769 893.59913,385.91188 C 896.16246,403.04244 898.28807,421.71618 888.80135,437.82071 C 884.72630,443.07789 866.74310,459.32758 859.24524,451.15332 C 857.40094,447.20688 852.51476,430.61364 856.56831,427.34350 C 858.88882,425.47149 861.53860,423.96066 864.02373,422.26923 C 862.72165,432.88274 862.13032,443.56589 860.63078,454.17478 C 858.43614,464.13992 848.56843,477.37318 840.41960,463.92847 C 833.73243,454.90836 827.37225,443.37522 836.04762,433.20340 C 840.89215,429.69345 844.82838,426.33286 850.41101,424.14958 C 853.16309,423.07330 860.87576,419.32702 858.83542,421.31647 C 855.81744,424.25916 844.33898,432.85833 857.87588,422.96859 C 851.94378,427.71662 850.10783,435.48600 846.68801,441.65693 C 841.27223,453.15467 832.18206,466.46706 819.02011,471.67276 C 808.51279,471.97554 801.18276,461.37751 794.64214,455.56101 C 784.20617,444.00956 777.62995,430.02841 779.38697,414.62791 C 780.65849,403.34812 783.28265,392.37984 790.44575,382.68546 C 795.02258,375.90682 802.26474,370.77537 811.18526,371.02896 C 815.68218,371.49749 817.71742,374.56610 819.62065,378.00578 L 812.27406,382.55901 z " />
    <path
       style="fill:#aa8647;fill-opacity:1.0000000;fill-rule:nonzero;stroke:none;stroke-width:1.0000000pt;stroke-linecap:butt;stroke-linejoin:miter;stroke-opacity:1.0000000"
       id="path1332"
       d="M 826.78920,503.46912 C 826.25232,500.62105 825.17921,497.31866 822.01266,496.68035 C 833.67155,488.47973 822.83797,495.66500 820.69007,500.96416 C 819.82739,504.02395 819.36419,507.17320 819.94496,510.26205 C 821.07114,513.97944 823.60885,517.11249 826.60572,519.77306 C 829.04569,521.50357 832.06096,522.10480 835.15364,522.11359 C 834.96334,522.80319 838.08340,521.12107 837.44796,521.55377 C 825.97012,529.36970 834.91660,522.59982 836.87584,517.30701 C 838.16849,514.57832 835.27065,513.89958 836.76408,511.90359 C 841.34112,508.09371 846.24397,504.53880 851.61016,501.69385 C 854.59217,501.70024 852.97838,505.26562 852.72561,507.42211 C 852.45535,509.75442 853.09637,510.82535 855.61113,511.10738 C 865.14127,507.91333 851.17193,519.03371 855.73552,511.77826 C 857.78752,505.42228 857.01597,507.00667 864.44150,502.68095 C 863.32880,504.87133 863.10221,507.15125 864.49145,509.06176 C 864.13754,510.91022 872.39575,507.31442 870.71852,508.46324 C 861.00392,515.11726 863.21334,513.91697 865.53339,511.64675 C 867.49619,509.28783 867.90972,506.35939 866.66597,503.75170 C 862.73256,499.41902 857.59307,505.07058 868.75878,497.53757 C 868.62560,499.52872 870.42710,498.17240 872.34245,497.12928 C 859.43345,507.45773 870.49298,497.18846 873.59227,494.43792 C 877.13783,491.87347 883.00729,483.16052 884.71734,489.61221 C 885.40378,492.55458 886.27806,495.41211 888.66640,497.53517 C 899.48954,496.34000 885.48927,503.30598 887.77690,500.05112 C 888.55637,498.20481 887.96200,495.43757 887.64784,494.20992 C 898.33915,486.37536 893.11276,490.05486 895.98883,495.39704 C 902.85542,493.32662 890.44636,503.55369 894.70248,496.27936 C 895.65515,494.04965 895.83746,491.81740 895.63522,489.49544 C 895.13901,482.61845 904.30252,483.72304 908.78587,482.13506 C 902.89879,485.24217 903.68419,487.21654 907.66541,480.64538 C 907.17404,477.41241 915.82829,469.73291 914.68256,475.30652 C 914.58451,478.33326 915.05865,481.11745 917.12360,483.47051 C 919.38223,485.26631 921.08583,485.18394 923.65574,483.97514 C 923.15373,484.54308 926.28422,482.29063 925.64115,482.72933 C 914.94353,490.02700 920.95052,486.77033 922.27834,481.69208 C 922.55917,476.59979 921.73370,471.46339 920.69661,466.49227 C 916.32710,461.30120 927.02769,451.70437 924.91455,462.81281 C 924.34659,466.80677 924.95915,470.42960 927.02643,473.89540 C 928.61901,476.15285 930.46973,477.56678 933.38979,478.01715 C 937.49064,478.10025 941.21960,474.68275 930.55427,481.60027 C 928.56356,482.89146 933.28542,477.85982 933.97278,475.75809 C 935.11213,471.81213 934.39541,467.79941 933.84775,463.86723 C 929.34556,459.61764 940.78176,453.58672 938.63128,456.85105 C 937.29844,460.59497 938.00737,464.65077 939.14405,468.30412 C 940.56659,472.19052 943.28976,474.94676 947.31741,476.73978 C 947.38593,476.73773 948.17684,477.06481 948.22962,477.08476 L 941.49500,482.20557 C 941.18777,482.07845 940.87324,481.96488 940.57328,481.82421 C 936.52169,479.76054 933.60189,476.88935 932.09893,472.85322 C 930.84028,469.09056 930.11163,464.93687 931.20486,461.01485 C 933.30213,454.73372 941.52248,452.17488 941.05673,459.39606 C 941.55589,463.41426 942.30782,467.52064 941.27779,471.55509 C 939.57269,477.40687 934.38347,483.88748 926.85596,483.29935 C 923.77386,482.67507 921.67116,481.01024 920.00697,478.59887 C 917.87147,474.96576 917.11970,471.25825 917.68701,467.06740 C 918.63810,461.06450 927.52163,451.83558 927.76875,462.04865 C 928.74598,467.10112 929.64465,472.26251 929.59219,477.41980 C 928.33428,483.42987 923.81756,486.71326 917.46738,489.59213 C 914.62014,490.72590 912.46763,490.20097 910.19829,488.35808 C 908.03000,485.80166 907.37252,482.95222 907.39492,479.68781 C 907.65192,474.61453 918.15840,469.51825 915.17552,476.54089 C 912.26193,481.56128 908.43055,484.71964 902.56979,487.73195 C 892.64207,489.83773 902.11117,485.08737 902.89707,485.01025 C 903.13315,487.43294 903.08780,489.75796 902.15380,492.11049 C 900.19365,496.48789 894.23088,502.55565 889.04480,500.29348 C 885.43059,494.93101 888.06777,492.36700 894.52082,489.09446 C 895.51464,491.20130 895.71284,493.52125 895.20456,495.84162 C 893.55826,500.38633 886.85370,504.62389 881.80652,502.50302 C 879.38360,500.17766 878.27776,497.29986 877.56330,494.16349 C 876.48333,490.17360 887.64270,485.87999 881.20127,490.57650 C 876.28215,494.86071 872.46760,499.72853 866.23707,502.80666 C 863.80888,503.86391 860.76067,504.70101 861.03644,501.41839 C 866.70221,497.54108 869.30578,494.03489 873.72778,499.01135 C 875.12130,501.81375 874.99615,504.98418 873.07074,507.69047 C 869.49968,512.09829 863.46184,516.67427 857.60907,514.02364 C 855.69584,511.87833 856.09549,509.40747 856.84860,506.76021 C 867.26926,500.12747 864.96145,501.31045 863.19825,507.67921 C 860.61717,512.51655 855.16829,516.60740 849.09672,516.45323 C 846.31746,515.90648 845.13036,514.42031 845.40225,511.78758 C 845.52614,510.66385 846.93188,506.09961 845.46292,507.33971 C 836.43243,512.38053 855.23773,500.05842 844.42714,508.06263 C 842.01024,509.04316 845.45454,510.24719 844.20905,513.10374 C 842.15248,519.34438 836.44975,526.82973 828.68560,527.47432 C 825.45023,527.27571 822.20312,526.60785 819.74792,524.64391 C 816.71282,521.80303 814.05244,518.61050 812.78267,514.76761 C 812.09641,511.57760 812.46963,508.37483 813.30487,505.18227 C 815.44400,498.79792 822.87058,494.64388 828.48964,491.27380 C 831.97845,492.38324 833.04068,495.93057 834.13579,498.91589 L 826.78920,503.46912 z " />
    <text
       xml:space="preserve"
       style="font-size:20.000000px;font-style:oblique;font-variant:normal;font-weight:normal;font-stretch:normal;text-align:start;line-height:125.00000%;writing-mode:lr-tb;text-anchor:start;fill:#ffffff;fill-opacity:1.0000000;stroke:none;stroke-width:1.0000000pt;stroke-linecap:butt;stroke-linejoin:miter;stroke-opacity:1.0000000;font-family:Bitstream Vera Sans"
       x="183.29768"
       y="-552.54047"
       id="text2944"
       sodipodi:linespacing="125.00000%"
       transform="matrix(0.000000,1.000000,-1.000000,0.000000,0.000000,0.000000)"><tspan
         sodipodi:role="line"
         id="tspan2946"
         x="183.29768"
         y="-552.54047">Calculus</tspan></text>
    <text
       xml:space="preserve"
       style="font-size:20.000000px;font-style:normal;font-variant:normal;font-weight:normal;font-stretch:normal;text-align:start;line-height:125.00000%;writing-mode:lr-tb;text-anchor:start;fill:#ffffff;fill-opacity:1.0000000;stroke:none;stroke-width:1.0000000pt;stroke-linecap:butt;stroke-linejoin:miter;stroke-opacity:1.0000000;font-family:Bitstream Vera Sans"
       x="305.41663"
       y="-552.54047"
       id="text2950"
       sodipodi:linespacing="125.00000%"
       transform="matrix(0.000000,1.000000,-1.000000,0.000000,0.000000,0.000000)"><tspan
         sodipodi:role="line"
         id="tspan2952"
         x="305.41663"
         y="-552.54047">Crowell</tspan></text>
    <rect
       style="fill:#000000;fill-opacity:1.0000000;fill-rule:evenodd;stroke:none;stroke-width:1.0000000pt;stroke-linecap:butt;stroke-linejoin:miter;stroke-opacity:1.0000000"
       id="rect2960"
       width="743.81976"
       height="43.958244"
       x="381.08481"
       y="783.83234" />
    <rect
       style="fill:#000000;fill-opacity:1.0000000;fill-rule:evenodd;stroke:none;stroke-width:1.0000000pt;stroke-linecap:butt;stroke-linejoin:miter;stroke-opacity:1.0000000"
       id="rect1320"
       width="0.91926038"
       height="821.93872"
       x="584.53076"
       y="0.038299423" />
    <text
       xml:space="preserve"
       style="font-size:12.000000;font-style:normal;font-variant:normal;font-weight:normal;font-stretch:normal;text-align:start;line-height:125%;writing-mode:lr;text-anchor:start;fill:#ffffff;fill-opacity:1.0000000;stroke:none;stroke-width:1.0000000pt;stroke-linecap:butt;stroke-linejoin:miter;stroke-opacity:1.0000000;font-family:Bitstream Vera Sans"
       x="195.40205"
       y="261.23401"
       id="text2058"
       sodipodi:linespacing="125%"><tspan
         sodipodi:role="line"
         x="195.40205"
         y="261.23401"
         id="tspan2062">This book can be downloaded</tspan></text>
    <text
       xml:space="preserve"
       style="font-size:12.000000;font-style:normal;font-variant:normal;font-weight:normal;font-stretch:normal;text-align:start;line-height:125%;writing-mode:lr;text-anchor:start;fill:#ffffff;fill-opacity:1.0000000;stroke:none;stroke-width:1.0000000pt;stroke-linecap:butt;stroke-linejoin:miter;stroke-opacity:1.0000000;font-family:Bitstream Vera Sans"
       x="195.40205"
       y="285.95999"
       id="text2064"
       sodipodi:linespacing="125%"><tspan
         sodipodi:role="line"
         id="tspan2066"
         x="195.40205"
         y="285.95999">for free, or bought in print, at</tspan></text>
    <text
       xml:space="preserve"
       style="font-size:12.000000;font-style:normal;font-variant:normal;font-weight:normal;font-stretch:normal;text-align:start;line-height:125%;writing-mode:lr;text-anchor:start;fill:#ffffff;fill-opacity:1.0000000;stroke:none;stroke-width:1.0000000pt;stroke-linecap:butt;stroke-linejoin:miter;stroke-opacity:1.0000000;font-family:Bitstream Vera Sans"
       x="195.44606"
       y="310.68594"
       id="text2068"
       sodipodi:linespacing="125%"><tspan
         sodipodi:role="line"
         id="tspan2070"
         x="195.44606"
         y="310.68594">www.lightandmatter.com/calc.</tspan></text>
  </g>
</svg>
